<svg width="26" height="32" viewBox="0 0 26 32" fill="none" xmlns="http://www.w3.org/2000/svg">
<path d="M2.1667 3H23.8332C25.0299 3 26 3.97012 26 5.16682V26.8333C26 28.03 25.0299 29 23.8333 29H2.16638C0.969923 29 0 28.0301 0 26.8336V5.16667C-4.09641e-07 4.59203 0.228276 4.04093 0.63461 3.6346C1.04094 3.22827 1.59205 3 2.1667 3Z" fill="#FDB913"/>
<path d="M14.4054 16.2162L14.4033 11.7384L15.5721 11.461V12.048C15.5721 12.048 15.8749 11.276 16.5775 11.0969C16.6824 11.0631 16.7941 11.0556 16.9026 11.075V12.2175C16.6922 12.2203 16.4842 12.2636 16.2902 12.345C15.8583 12.5156 15.6409 12.8877 15.6409 13.4559L15.6417 15.9284L14.4054 16.2162Z" fill="#231F20"/>
<path d="M8.24359 17.6721C8.24359 17.6721 8.05357 17.3871 8.05357 16.3796V14.15L7.45215 14.2931V13.3746L8.0549 13.2323V12.2311L9.2977 11.9375V12.9387L10.1759 12.7301V13.6476L9.2977 13.856C9.2977 13.856 9.29636 15.6827 9.2977 16.1263C9.2977 17.1586 9.57167 17.3568 9.57167 17.3568L8.24359 17.6721Z" fill="#231F20"/>
<path fill-rule="evenodd" clip-rule="evenodd" d="M10.6624 13.186C10.419 13.6317 10.3057 14.2125 10.3057 15.0085C10.3057 16.3138 10.7007 17.2186 12.1823 16.867C13.7463 16.4972 13.8712 15.4313 13.881 15.0017C13.8827 14.8983 13.88 14.8061 13.88 14.8061L12.7547 15.0758C12.7547 15.0758 12.7522 15.2073 12.7468 15.259C12.7142 15.5796 12.599 15.8389 12.1851 15.9262C11.706 16.0278 11.5474 15.669 11.5474 14.913V14.8742L13.9495 14.3096C13.9495 14.3096 13.9477 14.1211 13.955 13.7341C13.974 12.6519 13.482 11.8448 12.1185 12.1549C11.4268 12.3124 10.952 12.6571 10.6624 13.186ZM11.5526 14.1166C11.5617 13.4697 11.7704 13.0793 12.1684 12.9889C12.61 12.8879 12.7609 13.1457 12.763 13.634C12.7633 13.7351 12.763 13.7996 12.7609 13.8288L11.5526 14.1166Z" fill="#231F20"/>
<path d="M21.1084 12.3895C21.0619 11.0258 21.4157 9.94342 22.9372 9.59874C23.9069 9.37841 24.2752 9.63068 24.4617 9.87449C24.641 10.1072 24.7102 10.4209 24.7102 10.8604L24.7113 10.9411L23.5209 11.224C23.5209 11.224 23.52 11.0635 23.52 11.0583C23.5209 10.5371 23.3761 10.3389 22.9975 10.4337C22.5473 10.5468 22.3655 10.9741 22.3655 11.8236C22.3655 12.1252 22.3668 12.1793 22.3668 12.22C22.3668 13.0833 22.4848 13.4785 23.0036 13.3699C23.4536 13.2769 23.5153 12.8817 23.5225 12.5353C23.5234 12.4809 23.5257 12.3067 23.5257 12.3067L24.7142 12.0259C24.7142 12.0259 24.7154 12.1138 24.7154 12.2114C24.7125 13.3435 24.1158 14.0569 22.9979 14.3171C21.4578 14.6781 21.1562 13.7882 21.1084 12.3895Z" fill="#231F20"/>
<path fill-rule="evenodd" clip-rule="evenodd" d="M18.5164 12.5554C17.6018 12.9338 16.9941 13.2618 16.9941 14.2991C16.9941 15.0619 17.4696 15.6183 18.3674 15.4066C19.2223 15.2057 19.4702 14.5811 19.4702 14.5811C19.5087 14.7209 19.5595 14.8569 19.6219 14.9878L20.754 14.7199C20.754 14.7199 20.576 14.5793 20.576 13.6202V11.6369C20.5746 10.7994 20.1655 10.261 18.9386 10.5437C17.9943 10.7622 17.4473 11.1796 17.2629 11.7999C17.2024 12.0217 17.1755 12.2514 17.1833 12.4812L18.3365 12.2089C18.3349 12.1322 18.3375 12.0555 18.3442 11.979C18.3535 11.6924 18.5587 11.4499 18.8398 11.3932C19.2493 11.2888 19.3647 11.5017 19.3601 11.7505C19.3567 12.0462 19.3389 12.2151 18.5164 12.5554ZM18.7499 13.2353C18.9599 13.1344 19.1614 13.0164 19.3522 12.8826V13.5065C19.3522 13.9815 19.0979 14.3233 18.7315 14.4157C18.3899 14.5001 18.202 14.3009 18.202 13.9975C18.202 13.6472 18.3725 13.4197 18.7499 13.2353Z" fill="#231F20"/>
<path d="M1.74509 20.8111C1.48189 20.8108 1.23992 20.6666 1.11437 20.4353C0.988821 20.2039 0.99978 19.9225 1.14293 19.7016L1.15096 19.6912L1.16448 19.6876L2.85492 19.2886V20.5724L2.82863 20.5785C2.44516 20.6707 1.98682 20.7758 1.89248 20.7958C1.84402 20.8061 1.79462 20.8112 1.74509 20.8111Z" fill="#231F20"/>
<path d="M1.7451 22.4532C1.349 22.4533 1.02774 22.1324 1.02735 21.7363C1.02696 21.5977 1.06714 21.462 1.14294 21.346L1.15096 21.334L1.16448 21.3306L2.85492 20.9316V22.2154L2.82863 22.2223C2.44516 22.3142 1.98682 22.4205 1.89248 22.4393C1.84392 22.4487 1.79456 22.4534 1.7451 22.4532Z" fill="#231F20"/>
<path d="M1.7451 24.0989C1.34891 24.0987 1.02775 23.7777 1.02735 23.3815C1.02681 23.2429 1.06701 23.1071 1.14294 22.9912L1.15096 22.9782L2.85493 22.5767V23.8605L2.82863 23.8673C2.42362 23.9648 1.9739 24.0664 1.89248 24.0844C1.84395 24.0941 1.79459 24.099 1.7451 24.0989Z" fill="#231F20"/>
<path d="M1.54634 19.2379L1.5459 12.0546L2.85556 11.7451V18.9282L1.54634 19.2379Z" fill="#231F20"/>
<path d="M4.80839 18.6269C4.80839 18.1806 4.44664 17.8188 4.00039 17.8188C3.55414 17.8188 3.19238 18.1806 3.19238 18.6269L3.19372 25.3406C3.19522 26.5478 4.17298 27.5262 5.3801 27.5285C5.99177 27.5285 7.66736 27.5255 7.66736 27.5255L7.6681 24.7247C7.66854 23.1944 7.66884 21.6368 7.66884 21.6013C7.66925 21.2476 7.49291 20.9172 7.19891 20.7207L5.16036 19.3361C5.16036 19.3361 5.15991 22.342 5.15991 22.4802C5.15991 22.5762 5.08209 22.654 4.98609 22.654C4.89008 22.654 4.81226 22.5762 4.81226 22.4802C4.81226 22.4465 4.80839 19.0421 4.80839 18.6269Z" fill="#231F20"/>
<path d="M5.89959 13.6176C5.39832 13.7339 4.97268 14.063 4.7339 14.5188V14.014L3.55469 14.293L3.55602 17.517C3.97779 17.3502 4.45747 17.4341 4.79764 17.7341V15.6524C4.79764 15.1538 5.04575 14.7555 5.40024 14.6774C5.66693 14.6188 5.88964 14.7142 5.88964 15.1892L5.89053 18.2263L7.13258 17.9351V14.7222C7.13258 13.9433 6.83262 13.3987 5.89959 13.6176Z" fill="#231F20"/>
<path fill-rule="evenodd" clip-rule="evenodd" d="M23.2364 8.54681C23.3554 8.83372 23.6356 9.02065 23.9462 9.02037C24.3697 9.0198 24.7128 8.67652 24.7132 8.253C24.7134 7.94238 24.5264 7.66228 24.2394 7.54337C23.9525 7.42446 23.6221 7.49018 23.4025 7.70986C23.1829 7.92954 23.1173 8.2599 23.2364 8.54681ZM23.2746 8.25273C23.2747 7.88192 23.5753 7.5814 23.9461 7.58148C24.3168 7.58194 24.6171 7.88238 24.6174 8.25302C24.6173 8.62382 24.3166 8.92435 23.9458 8.92427C23.575 8.92419 23.2745 8.62353 23.2746 8.25273Z" fill="#231F20"/>
<path fill-rule="evenodd" clip-rule="evenodd" d="M23.9969 7.79518H23.666V8.73266H23.8155V8.32558H23.9379C24.0406 8.32558 24.0719 8.3703 24.0744 8.47251C24.0753 8.49675 24.0757 8.51906 24.0761 8.54028C24.0768 8.57863 24.0775 8.6134 24.0808 8.64946C24.0812 8.67903 24.09 8.70788 24.1061 8.73266H24.2752C24.2476 8.71498 24.2308 8.68448 24.2307 8.65169C24.2289 8.61417 24.2279 8.56965 24.2269 8.5267C24.2264 8.50401 24.2259 8.48177 24.2252 8.46122C24.2205 8.32944 24.1716 8.27818 24.0786 8.26867V8.26689C24.1808 8.25099 24.2348 8.15754 24.2348 8.03601C24.2426 7.97058 24.2202 7.90515 24.1739 7.85827C24.1276 7.81138 24.0624 7.78816 23.9969 7.79518ZM24.046 8.17209C24.017 8.20153 23.9763 8.21642 23.9352 8.21265H23.8154V7.90808H23.943C24.0415 7.90808 24.0848 7.96067 24.0848 8.06066C24.0892 8.10174 24.0749 8.14264 24.046 8.17209Z" fill="#231F20"/>
</svg>
