<svg width="75" height="32" viewBox="0 0 75 32" fill="none" xmlns="http://www.w3.org/2000/svg">
<path fill-rule="evenodd" clip-rule="evenodd" d="M6.20927 10.9019C6.00423 11.0065 5.85181 11.2135 5.81491 11.4671L4.86895 17.8581L3.98951 23.8097H0.486888C0.188098 23.8097 -0.040531 23.5245 0.00604163 23.2084L2.36915 7.23097C2.43084 6.80968 2.77136 6.5 3.17056 6.5H8.84395C10.7982 6.5 12.3254 6.94 13.1716 7.96774C13.9391 8.90129 14.1635 9.93226 13.9409 11.4465C13.7516 11.34 13.5466 11.2477 13.3258 11.1697C13.2708 11.151 13.2145 11.1323 13.1577 11.1142C13.0433 11.0787 12.9254 11.0465 12.8044 11.0174C12.6829 10.989 12.5583 10.9639 12.43 10.9419C11.9812 10.8645 11.4895 10.8277 10.9627 10.8277H6.51592C6.40645 10.8277 6.30302 10.8542 6.20927 10.9019ZM23.8137 10.8542H27.9502C29.3347 10.8542 30.3774 11.2439 30.9653 11.9806C31.5006 12.6516 31.6778 13.6097 31.4927 14.829C31.0821 17.6161 29.5095 19.0226 26.7847 19.0226H25.4752C25.1927 19.0226 24.9514 19.2419 24.9079 19.5406L24.4566 22.5923C24.4125 22.891 24.1718 23.1103 23.8887 23.1103H21.9139C21.7016 23.1103 21.5395 22.909 21.5728 22.6858L23.2458 11.3716C23.2899 11.0736 23.5306 10.8542 23.8137 10.8542ZM25.9706 16.5697C27.0671 16.5697 28.2012 16.5697 28.4274 14.9864C28.5103 14.4303 28.4438 14.0277 28.2266 13.7568C27.8625 13.3026 27.1579 13.3026 26.4109 13.3026H26.1248C25.9554 13.3026 25.8103 13.4342 25.7843 13.6129L25.3464 16.5697H25.9706ZM40.3149 14.9355H38.3341C38.1653 14.9355 38.0196 15.0671 37.9935 15.2458L37.9058 15.8368L37.7673 15.6226C37.3385 14.9587 36.3823 14.7368 35.4278 14.7368C33.2389 14.7368 31.3694 16.5052 31.0052 18.9858C30.8159 20.2232 31.0851 21.4064 31.7431 22.2316C32.3468 22.9903 33.2105 23.3064 34.2381 23.3064C36.0018 23.3064 36.9798 22.0968 36.9798 22.0968L36.8915 22.6839C36.8583 22.9084 37.0204 23.1097 37.2314 23.1097H39.0157C39.2994 23.1097 39.5389 22.8903 39.5837 22.5916L40.6542 15.36C40.6881 15.1374 40.5266 14.9355 40.3149 14.9355ZM35.319 21.0652C36.4645 21.0652 37.3627 20.2548 37.5538 19.0477C37.6403 18.4632 37.5206 17.9329 37.2188 17.5529C36.9175 17.1768 36.4603 16.9774 35.8978 16.9774C34.7698 16.9774 33.8565 17.8142 33.678 19.011C33.5849 19.5981 33.6962 20.1252 33.9889 20.4955C34.2841 20.8684 34.7438 21.0652 35.319 21.0652ZM50.8645 14.9355H48.874C48.6841 14.9355 48.5056 15.0361 48.398 15.2045L45.6526 19.5181L44.4889 15.3729C44.4157 15.1135 44.1913 14.9355 43.9373 14.9355H41.9812C41.7435 14.9355 41.5784 15.1832 41.654 15.4219L43.8466 22.2852L41.7853 25.389C41.6232 25.6335 41.7865 25.9697 42.0665 25.9697H44.0546C44.2433 25.9697 44.4199 25.8716 44.527 25.7064L51.1476 15.5129C51.306 15.269 51.1433 14.9355 50.8645 14.9355Z" fill="#253B80"/>
<path fill-rule="evenodd" clip-rule="evenodd" d="M72.1545 11.1645L70.4567 22.6858C70.4234 22.909 70.5855 23.1103 70.7966 23.1103H72.5035C72.7871 23.1103 73.0278 22.8909 73.0714 22.5922L74.7456 11.2787C74.7789 11.0555 74.6168 10.8535 74.4057 10.8535H72.4944C72.3256 10.8542 72.1805 10.9858 72.1545 11.1645ZM53.318 10.8542H57.455C58.8395 10.8542 59.8817 11.2438 60.469 11.9806C61.0042 12.6516 61.1827 13.6096 60.997 14.829C60.5857 17.6161 59.0137 19.0225 56.2883 19.0225H54.9794C54.697 19.0225 54.4557 19.2419 54.4121 19.5406L53.9373 22.7477C53.9065 22.9567 53.7377 23.1103 53.5405 23.1103H51.4176C51.2065 23.1103 51.0444 22.909 51.0776 22.6858L52.7506 11.3716C52.7948 11.0735 53.0355 10.8542 53.318 10.8542ZM55.4754 16.5697C56.5726 16.5697 57.7067 16.5697 57.9323 14.9864C58.0151 14.4303 57.9492 14.0277 57.7321 13.7567C57.368 13.3026 56.6627 13.3026 55.9163 13.3026H55.6303C55.4603 13.3026 55.3163 13.4342 55.2903 13.6129L54.8518 16.5697H55.4754ZM69.8192 14.9355H67.8395C67.6696 14.9355 67.525 15.0671 67.4996 15.2458L67.4119 15.8367L67.2728 15.6226C66.844 14.9587 65.8883 14.7367 64.9339 14.7367C62.745 14.7367 60.876 16.5051 60.5119 18.9858C60.3232 20.2232 60.5911 21.4064 61.2492 22.2316C61.854 22.9903 62.7165 23.3064 63.7442 23.3064C65.5079 23.3064 66.4859 22.0967 66.4859 22.0967L66.3976 22.6838C66.3643 22.9084 66.5264 23.1096 66.7387 23.1096H68.5224C68.8049 23.1096 69.0456 22.8903 69.0897 22.5916L70.1609 15.36C70.1936 15.1374 70.0315 14.9355 69.8192 14.9355ZM64.8232 21.0651C65.9688 21.0651 66.8682 20.2548 67.0581 19.0477C67.1458 18.4632 67.026 17.9329 66.723 17.5529C66.4218 17.1767 65.9645 16.9774 65.402 16.9774C64.274 16.9774 63.3619 17.8142 63.1823 19.0109C63.0903 19.598 63.2004 20.1251 63.4932 20.4955C63.7883 20.8684 64.2492 21.0651 64.8232 21.0651ZM13.8825 11.8013C13.9043 11.68 13.9236 11.5619 13.9405 11.4464C14.2581 11.6258 14.5297 11.8458 14.7486 12.1109C15.472 12.9903 15.6135 14.2406 15.3401 15.738C14.6857 19.3225 12.4466 20.5612 9.58631 20.5612H9.14478C8.79518 20.5612 8.4976 20.8322 8.44316 21.2013L8.40748 21.4077L7.85163 25.1703L7.8226 25.3303C7.76756 25.698 7.47058 25.969 7.12099 25.969H4.16877C3.90748 25.969 3.70788 25.72 3.74841 25.4438L3.98974 23.8096L4.84195 18.0445C4.90425 17.6238 5.24115 17.3142 5.64095 17.3142H7.30546C10.5746 17.3142 13.1343 15.8987 13.8825 11.8013Z" fill="#179BD7"/>
<path d="M13.1577 11.1136C13.0434 11.0781 12.9255 11.0459 12.8045 11.0168C12.6829 10.9884 12.5583 10.9633 12.4301 10.9413C11.9813 10.8639 11.4896 10.8271 10.9628 10.8271H6.51599C6.40652 10.8271 6.30248 10.8536 6.20934 10.9013C6.0043 11.0065 5.85188 11.2136 5.81498 11.4671L4.86901 17.8581L4.8418 18.0446C4.9041 17.6239 5.24099 17.3142 5.64079 17.3142H7.30531C10.5745 17.3142 13.1341 15.8981 13.8823 11.8013C13.9047 11.6801 13.9235 11.562 13.9404 11.4465C13.7511 11.3394 13.546 11.2478 13.3253 11.1697C13.2708 11.1504 13.2146 11.1317 13.1577 11.1136Z" fill="#222D65"/>
</svg>
