<svg width="41" height="32" viewBox="0 0 41 32" fill="none" xmlns="http://www.w3.org/2000/svg">
<g clip-path="url(#clip0)">
<path d="M37.2193 3H3.78165C3.64238 3 3.50287 3 3.36386 3.00081C3.24635 3.00164 3.12911 3.00294 3.01187 3.00613C2.75618 3.01303 2.4983 3.02807 2.24581 3.07331C1.98929 3.11934 1.75058 3.19443 1.5177 3.31264C1.28876 3.42872 1.07917 3.58056 0.897528 3.76173C0.715814 3.94291 0.563533 4.15154 0.447132 4.38005C0.32854 4.61224 0.253187 4.85031 0.20734 5.10628C0.161715 5.35809 0.146531 5.61516 0.13964 5.86982C0.13649 5.98672 0.135137 6.10361 0.134374 6.22047C0.133562 6.35937 0.133832 6.49818 0.133832 6.63732V25.3629C0.133832 25.5021 0.133562 25.6406 0.134374 25.7798C0.135137 25.8967 0.13649 26.0136 0.13964 26.1305C0.146531 26.3849 0.161715 26.642 0.20734 26.8937C0.253187 27.1498 0.32854 27.3878 0.447132 27.62C0.563533 27.8485 0.715814 28.0574 0.897528 28.2383C1.07917 28.4198 1.28876 28.5716 1.5177 28.6874C1.75058 28.8059 1.98929 28.881 2.24581 28.927C2.4983 28.972 2.75618 28.9873 3.01187 28.9942C3.12911 28.9968 3.24635 28.9984 3.36386 28.9989C3.50287 29 3.64238 29 3.78165 29H37.2193C37.3583 29 37.4978 29 37.6368 28.9989C37.7541 28.9984 37.8713 28.9968 37.9891 28.9942C38.2442 28.9873 38.5021 28.972 38.7552 28.927C39.0113 28.881 39.2501 28.8059 39.483 28.6874C39.7122 28.5716 39.9212 28.4198 40.1032 28.2383C40.2846 28.0574 40.4369 27.8485 40.5536 27.62C40.6724 27.3878 40.7477 27.1498 40.7933 26.8937C40.839 26.642 40.8538 26.3849 40.8607 26.1305C40.8639 26.0136 40.8655 25.8967 40.866 25.7798C40.8671 25.6406 40.8671 25.5021 40.8671 25.3629V6.63732C40.8671 6.49818 40.8671 6.35937 40.866 6.22047C40.8655 6.10361 40.8639 5.98672 40.8607 5.86982C40.8538 5.61516 40.839 5.35809 40.7933 5.10628C40.7477 4.85031 40.6724 4.61224 40.5536 4.38005C40.4369 4.15154 40.2846 3.94291 40.1032 3.76173C39.9212 3.58056 39.7122 3.42872 39.483 3.31264C39.2501 3.19443 39.0113 3.11934 38.7552 3.07331C38.5021 3.02807 38.2442 3.01303 37.9891 3.00613C37.8713 3.00294 37.7541 3.00164 37.6368 3.00081C37.4978 3 37.3583 3 37.2193 3Z" fill="black"/>
<path d="M37.221 3.86621L37.6324 3.867C37.7439 3.86778 37.8553 3.86898 37.9674 3.87203C38.1623 3.87728 38.3903 3.8878 38.6029 3.92579C38.7876 3.95896 38.9426 4.0094 39.0913 4.08488C39.2381 4.15925 39.3726 4.25671 39.4901 4.37362C39.608 4.49132 39.7059 4.62563 39.7814 4.77361C39.8567 4.92071 39.907 5.07445 39.9401 5.26C39.9781 5.46958 39.9886 5.69753 39.9939 5.89306C39.997 6.00342 39.9984 6.11378 39.999 6.22677C40 6.36342 40 6.49999 40 6.6369V25.3625C40 25.4994 40 25.6357 39.9989 25.7753C39.9984 25.8856 39.997 25.996 39.9939 26.1065C39.9886 26.3018 39.9781 26.5296 39.9396 26.7416C39.907 26.9246 39.8568 27.0784 39.7811 27.2262C39.7057 27.3738 39.608 27.508 39.4906 27.625C39.3725 27.7428 39.2384 27.8399 39.0898 27.915C38.9422 27.9901 38.7875 28.0405 38.6046 28.0733C38.3877 28.1118 38.1502 28.1224 37.9712 28.1273C37.8587 28.1298 37.7466 28.1313 37.6319 28.1318C37.4951 28.1329 37.3578 28.1329 37.221 28.1329H3.77901C3.77718 28.1329 3.77541 28.1329 3.77357 28.1329C3.63835 28.1329 3.50286 28.1329 3.36517 28.1318C3.25292 28.1313 3.14091 28.1298 3.03261 28.1274C2.84959 28.1224 2.61186 28.1119 2.39678 28.0736C2.21226 28.0405 2.05757 27.9901 1.90802 27.914C1.76087 27.8396 1.6269 27.7425 1.50874 27.6245C1.39148 27.5078 1.29404 27.3741 1.21871 27.2263C1.14329 27.0786 1.09284 26.9243 1.05966 26.7392C1.02131 26.5275 1.01078 26.3006 1.00551 26.1067C1.00251 25.9957 1.00126 25.8847 1.00054 25.7743L1 25.4485L1.00002 25.3625V6.6369L1 6.55087L1.00052 6.22574C1.00126 6.11472 1.00251 6.00372 1.00551 5.89279C1.01078 5.69868 1.02131 5.47167 1.05998 5.25825C1.09286 5.07475 1.14329 4.92051 1.2191 4.77209C1.29385 4.62539 1.39146 4.49147 1.50933 4.37399C1.62673 4.2569 1.76114 4.15957 1.90923 4.08449C2.05717 4.00938 2.21216 3.95896 2.39668 3.92586C2.60928 3.88778 2.83746 3.87728 3.03288 3.872C3.14428 3.86898 3.25567 3.86778 3.36623 3.86702L3.77901 3.86621H37.221Z" fill="white"/>
<path d="M10.8057 11.774C11.1498 11.3435 11.3834 10.7655 11.3218 10.1748C10.818 10.1999 10.2032 10.5072 9.84721 10.938C9.52761 11.307 9.24472 11.9092 9.31845 12.4751C9.88403 12.5241 10.4491 12.1924 10.8057 11.774Z" fill="black"/>
<path d="M11.315 12.5853C10.4936 12.5364 9.79531 13.0514 9.40306 13.0514C9.01063 13.0514 8.40998 12.61 7.76035 12.6219C6.91481 12.6343 6.13025 13.1123 5.70115 13.8727C4.81862 15.3938 5.46825 17.6502 6.32647 18.889C6.74326 19.5019 7.24552 20.1768 7.90737 20.1525C8.5327 20.128 8.77778 19.7476 9.53789 19.7476C10.2974 19.7476 10.5182 20.1525 11.1802 20.1402C11.8666 20.128 12.2958 19.527 12.7125 18.9136C13.1906 18.2149 13.3864 17.5402 13.3987 17.5032C13.3864 17.4909 12.075 16.9879 12.0629 15.4794C12.0505 14.2163 13.0924 13.6156 13.1414 13.5783C12.5531 12.7081 11.6337 12.61 11.315 12.5853Z" fill="black"/>
<path fill-rule="evenodd" clip-rule="evenodd" d="M22.5324 13.8986C22.5324 12.107 21.2892 10.8765 19.504 10.8765H16.0547V20.0766H17.4828V16.9335H19.4594C21.2637 16.9335 22.5324 15.6965 22.5324 13.8986ZM19.1214 15.7348H17.4829V12.0815H19.1278C20.3648 12.0815 21.0724 12.7447 21.0724 13.905C21.0724 15.0654 20.3648 15.7348 19.1214 15.7348Z" fill="black"/>
<path fill-rule="evenodd" clip-rule="evenodd" d="M25.4433 16.2129C23.7857 16.3149 22.8867 16.9907 22.8867 18.1703C22.8867 19.3561 23.8111 20.1466 25.1372 20.1466C26.0362 20.1466 26.8651 19.6941 27.2413 18.9736H27.2731V20.0765H28.593V15.4988C28.593 14.1727 27.5282 13.3184 25.896 13.3184C24.3786 13.3184 23.2565 14.1854 23.2181 15.3777H24.5061C24.6144 14.8102 25.1372 14.4404 25.8578 14.4404C26.7312 14.4404 27.2221 14.8485 27.2221 15.5945V16.1045L25.4433 16.2129ZM27.2221 17.0608V17.5774C27.2221 18.438 26.4889 19.0566 25.5198 19.0566C24.7612 19.0566 24.2766 18.693 24.2766 18.132C24.2766 17.5518 24.742 17.2202 25.6346 17.1629L27.2221 17.0608Z" fill="black"/>
<path d="M29.8067 22.5377V21.4348C29.8959 21.4474 30.1126 21.4602 30.2274 21.4602C30.8586 21.4602 31.2156 21.1926 31.4325 20.5039L31.56 20.0958L29.1436 13.4014H30.6354L32.3186 18.8333H32.3505L34.0337 13.4014H35.4875L32.9817 20.4338C32.4079 22.0468 31.7512 22.5761 30.3613 22.5761C30.2529 22.5761 29.9022 22.5633 29.8067 22.5377Z" fill="black"/>
</g>
<defs>
<clipPath id="clip0">
<rect width="40.7333" height="32" fill="white" transform="translate(0.133789)"/>
</clipPath>
</defs>
</svg>
