<svg width="56" height="32" viewBox="0 0 56 32" fill="none" xmlns="http://www.w3.org/2000/svg">
<path d="M0.493164 23.9825L1.05734 23.9278C1.09097 24.1168 1.16002 24.2553 1.26377 24.3442C1.36751 24.4328 1.50775 24.4771 1.68377 24.4771C1.87052 24.4771 2.01111 24.4375 2.10592 24.3589C2.20036 24.28 2.24795 24.1878 2.24795 24.0821C2.24795 24.0146 2.22791 23.9568 2.1882 23.9089C2.14813 23.8618 2.07873 23.8203 1.97963 23.785C1.91166 23.7614 1.75711 23.7196 1.51527 23.66C1.20474 23.5828 0.986506 23.4885 0.861292 23.3764C0.68492 23.2189 0.596913 23.0264 0.596913 22.7996C0.596913 22.6539 0.638412 22.5171 0.721411 22.3904C0.804052 22.2629 0.923542 22.1664 1.07988 22.0996C1.2355 22.0332 1.42404 22 1.64477 22C2.00503 22 2.27621 22.0789 2.4583 22.2368C2.6404 22.3943 2.73628 22.605 2.74522 22.8682L2.16566 22.8936C2.14062 22.7461 2.08767 22.6403 2.0061 22.5757C1.92454 22.5114 1.80183 22.4789 1.63869 22.4789C1.47055 22.4789 1.33854 22.5136 1.24337 22.5828C1.18184 22.6268 1.15107 22.6864 1.15107 22.7607C1.15107 22.8282 1.17969 22.8864 1.23729 22.9346C1.31027 22.9961 1.48808 23.0596 1.76999 23.1261C2.0519 23.1925 2.26047 23.2614 2.3957 23.3325C2.53093 23.4035 2.63647 23.5007 2.71303 23.6235C2.78923 23.7471 2.82751 23.8993 2.82751 24.0803C2.82751 24.2446 2.78171 24.3982 2.69049 24.5417C2.5989 24.685 2.46975 24.7914 2.30268 24.8614C2.13561 24.931 1.9274 24.966 1.67804 24.966C1.31492 24.966 1.03623 24.8821 0.841616 24.7146C0.646998 24.5471 0.531086 24.3032 0.493164 23.9825" fill="#2C76BD"/>
<path fill-rule="evenodd" clip-rule="evenodd" d="M3.98187 22.0488H3.43164V22.557H3.98187V22.0488ZM3.98187 22.8385H3.43164V24.9149H3.98187V22.8385Z" fill="#2C76BD"/>
<path d="M6.55785 24.9147H6.00762V23.8551C6.00762 23.6308 5.99581 23.4858 5.9722 23.4201C5.94895 23.3544 5.91067 23.3029 5.85772 23.2665C5.80477 23.2301 5.74109 23.2119 5.66668 23.2119C5.57152 23.2119 5.48602 23.2379 5.41017 23.2901C5.33433 23.3422 5.28245 23.4111 5.25455 23.4972C5.22629 23.5833 5.21233 23.7422 5.21233 23.9743V24.9147H4.66211V22.8383H5.17334V23.1433C5.35472 22.9086 5.58333 22.7915 5.8588 22.7915C5.98007 22.7915 6.09098 22.8133 6.19151 22.8569C6.29204 22.9008 6.36824 22.9565 6.41975 23.024C6.47127 23.0919 6.50704 23.169 6.52744 23.2547C6.54783 23.3408 6.55785 23.464 6.55785 23.6243V24.9147Z" fill="#2C76BD"/>
<path fill-rule="evenodd" clip-rule="evenodd" d="M7.81448 25.1279L7.18591 25.0515L7.18412 25.1179C7.18412 25.3029 7.25781 25.4557 7.40521 25.5765C7.5526 25.6968 7.80267 25.7572 8.15542 25.7572C8.34181 25.7572 8.49636 25.7375 8.61835 25.6986C8.74034 25.6593 8.83801 25.6054 8.91135 25.5365C8.98433 25.4672 9.04121 25.3722 9.08164 25.2507C9.12207 25.1297 9.14246 24.9465 9.14246 24.7015V22.8383H8.62729V23.1297C8.46022 22.904 8.24808 22.7915 7.99085 22.7915C7.7415 22.7915 7.53293 22.8833 7.36514 23.0672C7.19735 23.2508 7.11328 23.5168 7.11328 23.8647C7.11328 24.1426 7.17732 24.3743 7.30539 24.5608C7.46853 24.7965 7.68998 24.9147 7.96939 24.9147C8.21981 24.9147 8.42767 24.8025 8.59188 24.5783V24.8815C8.59188 25.004 8.58329 25.0879 8.56648 25.1336C8.54179 25.1975 8.5053 25.2436 8.457 25.2725C8.38509 25.3154 8.27741 25.3368 8.13395 25.3368C8.02126 25.3368 7.93933 25.3175 7.8871 25.2782C7.84918 25.2507 7.82485 25.2007 7.81448 25.1279ZM7.80592 24.3176C7.72006 24.2151 7.67749 24.0536 7.67749 23.8336C7.67749 23.6236 7.72006 23.4676 7.80592 23.3651C7.89106 23.2629 7.99982 23.2119 8.13183 23.2119C8.26742 23.2119 8.37976 23.264 8.46884 23.3683C8.55756 23.4726 8.60192 23.6322 8.60192 23.8472C8.60192 24.0533 8.55541 24.2086 8.46275 24.3136C8.3701 24.4183 8.25633 24.4708 8.12217 24.4708C7.9966 24.4708 7.89106 24.4197 7.80592 24.3176Z" fill="#2C76BD"/>
<path d="M9.80664 22.0488H10.3569V24.9149H9.80664V22.0488Z" fill="#2C76BD"/>
<path fill-rule="evenodd" clip-rule="evenodd" d="M12.7941 24.3458L12.2457 24.254C12.2156 24.3583 12.1713 24.434 12.1126 24.4808C12.0539 24.5275 11.9813 24.5511 11.8951 24.5511C11.7684 24.5511 11.6626 24.5058 11.5778 24.4154C11.493 24.3247 11.4486 24.1979 11.4447 24.0351H12.8235C12.8313 23.614 12.7458 23.3015 12.567 23.0976C12.3881 22.8936 12.1437 22.7915 11.8343 22.7915C11.5588 22.7915 11.3313 22.889 11.151 23.0836C10.9707 23.2786 10.8809 23.5483 10.8809 23.8922C10.8809 24.1804 10.9492 24.419 11.0862 24.6079C11.2601 24.8436 11.5277 24.9618 11.8894 24.9618C12.1176 24.9618 12.3079 24.9093 12.46 24.8043C12.612 24.6993 12.7237 24.5465 12.7941 24.3458ZM12.1537 23.3361C12.2321 23.4186 12.2732 23.5397 12.2771 23.6986H11.4543C11.4532 23.549 11.4915 23.4301 11.5699 23.3429C11.6482 23.2558 11.7477 23.2119 11.8675 23.2119C11.9798 23.2119 12.0754 23.2533 12.1537 23.3361Z" fill="#2C76BD"/>
<path d="M14.6309 24.9149V22.0488H16.7595V22.5335H15.2104V23.1692H16.6518V23.652H15.2104V24.432H16.8146V24.9149H14.6309Z" fill="#2C76BD"/>
<path d="M18.7917 24.9148V24.6041C18.7159 24.7148 18.6164 24.8019 18.493 24.8658C18.3696 24.9298 18.2393 24.9616 18.1023 24.9616C17.9624 24.9616 17.8372 24.9312 17.7263 24.8698C17.6154 24.8083 17.5349 24.7226 17.4855 24.6116C17.4358 24.5009 17.4111 24.3476 17.4111 24.1523V22.8384H17.9614V23.7926C17.9614 24.0844 17.9714 24.2634 17.9918 24.3294C18.0118 24.3951 18.0486 24.4473 18.1023 24.4859C18.156 24.5241 18.2239 24.5434 18.3059 24.5434C18.4 24.5434 18.4844 24.5176 18.5588 24.4662C18.6332 24.4148 18.684 24.3505 18.7116 24.2744C18.7388 24.198 18.7527 24.0116 18.7527 23.7144V22.8384H19.3029V24.9148H18.7917Z" fill="#2C76BD"/>
<path d="M20.52 24.9147H19.9697V22.8383H20.481V23.1336C20.5682 22.994 20.647 22.9022 20.7167 22.8579C20.7865 22.8136 20.8659 22.7915 20.9546 22.7915C21.0802 22.7915 21.2008 22.8261 21.317 22.8951L21.1467 23.374C21.0537 23.3144 20.9679 23.2844 20.8881 23.2844C20.8112 23.2844 20.7457 23.3054 20.6924 23.3479C20.6387 23.3901 20.5965 23.4668 20.5661 23.5776C20.5353 23.6883 20.52 23.9204 20.52 24.2733V24.9147Z" fill="#2C76BD"/>
<path fill-rule="evenodd" clip-rule="evenodd" d="M21.6821 23.3176C21.592 23.4883 21.5469 23.6647 21.5469 23.8472C21.5469 24.0858 21.592 24.2879 21.6821 24.4543C21.7723 24.6204 21.9036 24.7465 22.0767 24.8325C22.2495 24.9186 22.4312 24.9615 22.6219 24.9615C22.9303 24.9615 23.1857 24.8583 23.3886 24.6515C23.5918 24.445 23.6934 24.1847 23.6934 23.8708C23.6934 23.559 23.5925 23.3015 23.3918 23.0976C23.1908 22.8936 22.9328 22.7915 22.618 22.7915C22.4144 22.7915 22.2298 22.8365 22.0649 22.9265C21.8996 23.0161 21.7723 23.1465 21.6821 23.3176ZM22.2578 24.3497C22.1597 24.24 22.1111 24.0826 22.1111 23.8765C22.1111 23.6704 22.1597 23.5129 22.2578 23.4033C22.3558 23.294 22.4763 23.2394 22.6202 23.2394C22.7636 23.2394 22.8842 23.294 22.9815 23.4033C23.0784 23.5129 23.1275 23.6693 23.1275 23.8726C23.1275 24.0811 23.0784 24.24 22.9815 24.3497C22.8842 24.459 22.7636 24.514 22.6202 24.514C22.4763 24.514 22.3558 24.459 22.2578 24.3497Z" fill="#2C76BD"/>
<path fill-rule="evenodd" clip-rule="evenodd" d="M25.4834 22.0488V24.9149H26.063V23.8338H26.4411C26.7033 23.8338 26.904 23.8199 27.0421 23.7927C27.1441 23.7706 27.2443 23.7252 27.343 23.657C27.4414 23.5884 27.5226 23.4942 27.5866 23.3742C27.6507 23.2542 27.6825 23.1063 27.6825 22.9306C27.6825 22.7024 27.6271 22.5163 27.5162 22.3724C27.4052 22.2285 27.2675 22.1349 27.1029 22.0917C26.996 22.0631 26.7663 22.0488 26.4136 22.0488H25.4834ZM26.0629 23.347V22.5335H26.3431C26.552 22.5335 26.6911 22.5402 26.7602 22.5531C26.8543 22.5699 26.9319 22.6124 26.9934 22.6802C27.0546 22.7481 27.0854 22.8342 27.0854 22.9385C27.0854 23.0231 27.0636 23.0974 27.0196 23.1613C26.9759 23.2249 26.9155 23.272 26.8385 23.302C26.7616 23.332 26.6089 23.347 26.3803 23.347H26.0629Z" fill="#2C76BD"/>
<path fill-rule="evenodd" clip-rule="evenodd" d="M28.1868 23.3819L28.6858 23.4718C28.7198 23.3754 28.7642 23.3079 28.8189 23.2697C28.8737 23.2311 28.9502 23.2119 29.0482 23.2119C29.1931 23.2119 29.2915 23.2344 29.3437 23.2794C29.3963 23.3244 29.4221 23.3994 29.4221 23.5051V23.5597C29.323 23.6015 29.1448 23.6465 28.8876 23.6947C28.6969 23.7311 28.551 23.774 28.4501 23.8226C28.3485 23.8718 28.2698 23.9422 28.214 24.034C28.1578 24.1258 28.1299 24.2304 28.1299 24.3475C28.1299 24.525 28.1914 24.6715 28.3148 24.7875C28.4383 24.9036 28.6068 24.9615 28.8211 24.9615C28.9427 24.9615 29.0568 24.939 29.1638 24.8933C29.2708 24.8475 29.3713 24.779 29.4654 24.6879C29.4693 24.6983 29.4758 24.72 29.4847 24.7525C29.5058 24.824 29.5233 24.8783 29.538 24.9147H30.0825C30.0339 24.8158 30.0009 24.7225 29.9834 24.6361C29.9659 24.5493 29.9569 24.415 29.9569 24.2322L29.9627 23.5911C29.9627 23.3526 29.9383 23.1886 29.8893 23.0994C29.8403 23.0101 29.7559 22.9365 29.6357 22.8786C29.5155 22.8204 29.3327 22.7915 29.0876 22.7915C28.8171 22.7915 28.6136 22.8397 28.4765 22.9361C28.3395 23.0326 28.2426 23.1811 28.1868 23.3819ZM29.0876 24.0018C29.2403 23.969 29.3516 23.9411 29.4221 23.9176V24.0272C29.4221 24.1586 29.4149 24.2479 29.401 24.295C29.3799 24.3665 29.3359 24.4272 29.2693 24.4768C29.1792 24.5418 29.0847 24.5743 28.9856 24.5743C28.8965 24.5743 28.8236 24.5465 28.7663 24.4904C28.7087 24.4343 28.6801 24.3679 28.6801 24.2911C28.6801 24.2129 28.7159 24.1483 28.7878 24.0976C28.8346 24.0661 28.9348 24.0343 29.0876 24.0018Z" fill="#2C76BD"/>
<path d="M30.3652 22.8389H30.9509L31.4485 24.3131L31.934 22.8389H32.5039L31.7694 24.837L31.6381 25.1985C31.5898 25.3199 31.5437 25.4124 31.5004 25.4763C31.4564 25.5399 31.4063 25.592 31.3494 25.6317C31.2925 25.6713 31.2228 25.7024 31.1398 25.7245C31.0568 25.7467 30.9634 25.7577 30.8586 25.7577C30.753 25.7577 30.6493 25.7467 30.5477 25.7245L30.4983 25.2945C30.5845 25.3113 30.6622 25.3199 30.7316 25.3199C30.8593 25.3199 30.9541 25.2824 31.0153 25.2074C31.0768 25.1324 31.1237 25.037 31.1566 24.921L30.3652 22.8389Z" fill="#2C76BD"/>
<path d="M32.9355 22.8388H33.4428V23.1223C33.6242 22.902 33.8403 22.792 34.0911 22.792C34.2242 22.792 34.3397 22.8191 34.4378 22.8738C34.5354 22.9288 34.6159 23.0116 34.6785 23.1223C34.7697 23.0116 34.8685 22.9288 34.9744 22.8738C35.0799 22.8191 35.193 22.792 35.3132 22.792C35.4659 22.792 35.5951 22.8227 35.7006 22.8845C35.8065 22.9466 35.8856 23.0373 35.9378 23.1573C35.9754 23.2463 35.9947 23.3895 35.9947 23.5877V24.9152H35.4441V23.7284C35.4441 23.5223 35.4255 23.3895 35.3876 23.3295C35.3364 23.2513 35.2581 23.2123 35.1525 23.2123C35.0753 23.2123 35.003 23.2356 34.935 23.2827C34.8671 23.3295 34.8184 23.3984 34.7884 23.4888C34.7579 23.5795 34.7433 23.7223 34.7433 23.918V24.9152H34.1927V23.7773C34.1927 23.5752 34.183 23.4448 34.1634 23.3863C34.144 23.3277 34.1136 23.2838 34.0725 23.2552C34.0313 23.2266 33.9755 23.2123 33.9051 23.2123C33.8199 23.2123 33.7437 23.2348 33.6757 23.2806C33.6081 23.3263 33.5591 23.392 33.5301 23.4781C33.5004 23.5641 33.4858 23.707 33.4858 23.9063V24.9152H32.9355V22.8388Z" fill="#2C76BD"/>
<path fill-rule="evenodd" clip-rule="evenodd" d="M38.4156 24.3458L37.8671 24.254C37.8371 24.3583 37.7927 24.434 37.7341 24.4808C37.6754 24.5275 37.6028 24.5511 37.5165 24.5511C37.3899 24.5511 37.2844 24.5058 37.1992 24.4154C37.1144 24.3247 37.0701 24.1979 37.0661 24.0351H38.4449C38.4528 23.614 38.3669 23.3015 38.1884 23.0976C38.0095 22.8936 37.7652 22.7915 37.4557 22.7915C37.1803 22.7915 36.9527 22.889 36.7724 23.0836C36.5921 23.2786 36.502 23.5483 36.502 23.8922C36.502 24.1804 36.5706 24.419 36.7077 24.6079C36.8815 24.8436 37.1488 24.9618 37.5108 24.9618C37.7391 24.9618 37.9294 24.9093 38.0814 24.8043C38.2335 24.6993 38.3451 24.5465 38.4156 24.3458ZM37.7752 23.3361C37.8536 23.4186 37.8947 23.5397 37.8986 23.6986H37.0758C37.0744 23.549 37.113 23.4301 37.1914 23.3429C37.2697 23.2558 37.3692 23.2119 37.489 23.2119C37.6013 23.2119 37.6969 23.2533 37.7752 23.3361Z" fill="#2C76BD"/>
<path d="M40.9055 24.9147H40.3553V23.8551C40.3553 23.6308 40.3435 23.4858 40.3199 23.4201C40.2963 23.3544 40.2583 23.3029 40.2054 23.2665C40.1524 23.2301 40.0888 23.2119 40.0143 23.2119C39.9192 23.2119 39.8337 23.2379 39.7578 23.2901C39.682 23.3422 39.6301 23.4111 39.6022 23.4972C39.5743 23.5833 39.56 23.7422 39.56 23.9743V24.9147H39.0098V22.8383H39.521V23.1433C39.7024 22.9086 39.931 22.7915 40.2065 22.7915C40.3277 22.7915 40.4386 22.8133 40.5392 22.8569C40.6397 22.9008 40.7155 22.9565 40.7674 23.024C40.8189 23.0919 40.8551 23.169 40.8751 23.2547C40.8955 23.3408 40.9055 23.464 40.9055 23.6243V24.9147Z" fill="#2C76BD"/>
<path d="M42.5384 22.8387V23.2765H42.1624V24.1133C42.1624 24.2826 42.1659 24.3815 42.1731 24.4094L42.2221 24.479C42.2475 24.4972 42.2783 24.5061 42.3151 24.5061C42.3659 24.5061 42.4396 24.4886 42.5362 24.4536L42.5831 24.8797C42.4554 24.9343 42.3105 24.9618 42.1484 24.9618C42.0493 24.9618 41.9599 24.9451 41.8805 24.9122C41.8007 24.8786 41.7424 24.8358 41.7052 24.7829C41.668 24.7301 41.6418 24.6586 41.6275 24.569C41.6157 24.5051 41.61 24.3761 41.61 24.1819V23.2765H41.3574V22.8387H41.61V22.4262L42.1624 22.1055V22.8387H42.5384Z" fill="#2C76BD"/>
<path d="M42.8467 24.3227L43.3991 24.2388C43.4223 24.3455 43.4699 24.4266 43.5418 24.482C43.6137 24.5373 43.7142 24.5652 43.8434 24.5652C43.9858 24.5652 44.0927 24.5391 44.1646 24.487C44.2129 24.4505 44.2373 24.4016 44.2373 24.3402C44.2373 24.2984 44.224 24.2641 44.1979 24.2366C44.1707 24.2105 44.1088 24.1866 44.014 24.1645C43.5697 24.0666 43.2885 23.9773 43.1697 23.8966C43.0052 23.7845 42.9229 23.6288 42.9229 23.4291C42.9229 23.2495 42.9941 23.0981 43.1365 22.9756C43.2785 22.8531 43.4992 22.792 43.7987 22.792C44.0831 22.792 44.2945 22.8381 44.433 22.9306C44.5711 23.0234 44.6666 23.1602 44.7188 23.3413L44.1997 23.437C44.1775 23.3563 44.1357 23.2945 44.0734 23.2513C44.0115 23.2084 43.9232 23.187 43.808 23.187C43.6631 23.187 43.5597 23.207 43.4967 23.2473C43.4549 23.2759 43.4341 23.3131 43.4341 23.3588C43.4341 23.3981 43.4524 23.4313 43.4892 23.4584C43.5386 23.4948 43.7099 23.5466 44.0029 23.613C44.2959 23.6795 44.5006 23.7609 44.6172 23.8573C44.7317 23.9552 44.7893 24.0913 44.7893 24.2659C44.7893 24.4563 44.7099 24.6198 44.5507 24.7566C44.3911 24.8934 44.1553 24.962 43.8434 24.962C43.56 24.962 43.3361 24.9045 43.1708 24.7898C43.0055 24.6752 42.8975 24.5195 42.8467 24.3227" fill="#2C76BD"/>
<path fill-rule="evenodd" clip-rule="evenodd" d="M48.4394 24.9149H49.0701L47.9206 22.0488H47.3074L46.1895 24.9149H46.8041L47.0413 24.2638H48.1889L48.4394 24.9149ZM47.6072 22.7174L48.0029 23.7809H47.2194L47.6072 22.7174Z" fill="#2C76BD"/>
<path d="M50.0209 24.9147H49.4707V22.8383H49.9819V23.1336C50.0692 22.994 50.1479 22.9022 50.2177 22.8579C50.2875 22.8136 50.3669 22.7915 50.4556 22.7915C50.5812 22.7915 50.7017 22.8261 50.818 22.8951L50.6477 23.374C50.5547 23.3144 50.4688 23.2844 50.3891 23.2844C50.3121 23.2844 50.2467 23.3054 50.1934 23.3479C50.1397 23.3901 50.0975 23.4668 50.0667 23.5776C50.0363 23.6883 50.0209 23.9204 50.0209 24.2733V24.9147Z" fill="#2C76BD"/>
<path fill-rule="evenodd" clip-rule="evenodd" d="M52.9273 24.3458L52.3789 24.254C52.3488 24.3583 52.3044 24.434 52.2458 24.4808C52.1871 24.5275 52.1145 24.5511 52.0283 24.5511C51.9016 24.5511 51.7957 24.5058 51.7109 24.4154C51.6261 24.3247 51.5818 24.1979 51.5778 24.0351H52.9566C52.9645 23.614 52.879 23.3015 52.7001 23.0976C52.5212 22.8936 52.2769 22.7915 51.9674 22.7915C51.6923 22.7915 51.4641 22.889 51.2841 23.0836C51.1038 23.2786 51.0137 23.5483 51.0137 23.8922C51.0137 24.1804 51.0824 24.419 51.2194 24.6079C51.3932 24.8436 51.6608 24.9618 52.0225 24.9618C52.2508 24.9618 52.4411 24.9093 52.5935 24.8043C52.7456 24.6993 52.8568 24.5465 52.9273 24.3458ZM52.2869 23.3361C52.3653 23.4186 52.4064 23.5397 52.4104 23.6986H51.5875C51.5864 23.549 51.6247 23.4301 51.7031 23.3429C51.7814 23.2558 51.8809 23.2119 52.0007 23.2119C52.1131 23.2119 52.2086 23.2533 52.2869 23.3361Z" fill="#2C76BD"/>
<path fill-rule="evenodd" clip-rule="evenodd" d="M53.4381 23.3819L53.9372 23.4718C53.9712 23.3754 54.0155 23.3079 54.0703 23.2697C54.1253 23.2311 54.2019 23.2119 54.2996 23.2119C54.4445 23.2119 54.5428 23.2344 54.5951 23.2794C54.6477 23.3244 54.6734 23.3994 54.6734 23.5051V23.5597C54.5743 23.6015 54.3962 23.6465 54.1389 23.6947C53.9483 23.7311 53.8023 23.774 53.7014 23.8226C53.5998 23.8718 53.5215 23.9422 53.4653 24.034C53.4091 24.1258 53.3809 24.2304 53.3809 24.3475C53.3809 24.525 53.4428 24.6715 53.5662 24.7875C53.6896 24.9036 53.8581 24.9615 54.0724 24.9615C54.194 24.9615 54.3082 24.939 54.4151 24.8933C54.5221 24.8475 54.6226 24.779 54.7167 24.6879C54.7206 24.6983 54.7271 24.72 54.7364 24.7525C54.7571 24.824 54.7747 24.8783 54.7893 24.9147H55.3338C55.2852 24.8158 55.2523 24.7225 55.2347 24.6361C55.2172 24.5493 55.2083 24.415 55.2083 24.2322L55.214 23.5911C55.214 23.3526 55.1897 23.1886 55.1406 23.0994C55.0916 23.0101 55.0072 22.9365 54.8874 22.8786C54.7668 22.8204 54.584 22.7915 54.3389 22.7915C54.0685 22.7915 53.8649 22.8397 53.7279 22.9361C53.5909 23.0326 53.4939 23.1811 53.4381 23.3819ZM54.3389 24.0018C54.4917 23.969 54.603 23.9411 54.6734 23.9176V24.0272C54.6734 24.1586 54.6663 24.2479 54.6523 24.295C54.6312 24.3665 54.5876 24.4272 54.5207 24.4768C54.4309 24.5418 54.3361 24.5743 54.237 24.5743C54.1479 24.5743 54.0749 24.5465 54.0177 24.4904C53.9601 24.4343 53.9315 24.3679 53.9315 24.2911C53.9315 24.2129 53.9672 24.1483 54.0391 24.0976C54.086 24.0661 54.1862 24.0343 54.3389 24.0018Z" fill="#2C76BD"/>
<path d="M12.2173 10.7851H8.45479C8.45479 10.1687 8.38217 9.75511 8.23763 9.5444C8.01368 9.23298 7.39584 9.07691 6.38447 9.07691C5.40208 9.07691 4.75097 9.16655 4.43328 9.34619C4.1156 9.52654 3.9564 9.91832 3.9564 10.5215C3.9564 11.0676 4.09735 11.4276 4.37962 11.5997C4.58175 11.7222 4.84899 11.794 5.1817 11.8154L5.9405 11.869C7.56685 11.9765 8.58251 12.0526 8.98749 12.0958C10.2736 12.2251 11.2059 12.5665 11.7844 13.1197C12.2395 13.5515 12.511 14.1157 12.5976 14.8122C12.6484 15.2289 12.6734 15.7007 12.6734 16.2246C12.6734 17.4325 12.5579 18.3167 12.3271 18.8771C11.9082 19.9057 10.9669 20.5553 9.50265 20.8281C8.8891 20.9435 7.95072 21.001 6.6882 21.001C4.58103 21.001 3.11281 20.876 2.28354 20.6242C1.26609 20.316 0.594944 19.6914 0.270462 18.751C0.0894384 18.2275 0 17.3553 0 16.1346H3.76249C3.76249 16.2707 3.76285 16.375 3.76285 16.4468C3.76285 17.0982 3.95031 17.5168 4.32488 17.7035C4.58425 17.8321 4.89729 17.8996 5.26542 17.9078H6.64885C7.3547 17.9078 7.80511 17.8718 7.99937 17.7993C8.34532 17.6635 8.57249 17.445 8.68089 17.1425C8.73849 16.9561 8.76711 16.7153 8.76711 16.4204C8.76711 15.76 8.52563 15.3582 8.04337 15.2139C7.86271 15.1572 7.02413 15.0775 5.52658 14.9772C4.32381 14.8915 3.48846 14.809 3.02087 14.729C1.78913 14.499 0.968081 14.0258 0.558453 13.3075C0.198196 12.6976 0.0182454 11.7744 0.0182454 10.539C0.0182454 9.59868 0.115554 8.84441 0.310172 8.27728C0.50479 7.70979 0.81854 7.27908 1.25142 6.98444C1.88572 6.53195 2.69746 6.2666 3.68522 6.18731C4.50734 6.11553 5.41925 6.0791 6.42239 6.0791C8.00152 6.0791 9.12701 6.16981 9.7978 6.34945C11.4352 6.78873 12.2538 8.01871 12.2538 10.0401C12.2538 10.2058 12.2416 10.4537 12.2173 10.7851" fill="#2C76BD"/>
<path fill-rule="evenodd" clip-rule="evenodd" d="M28.7627 6V21.0012H32.8071V17.128H35.2184L35.8895 17.1059C37.2164 17.0845 37.9681 17.0584 38.1448 17.0287C39.647 16.8323 40.6415 16.0738 41.1249 14.7573C41.3664 14.0913 41.4883 12.9981 41.4883 11.4763C41.4883 10.2106 41.3782 9.2628 41.1585 8.63317C40.7324 7.4339 39.901 6.63999 38.6617 6.2525C38.1197 6.08393 37.3313 6 36.2977 6H35.5826H34.6574H28.7627ZM35.3282 13.6481H32.8071V9.28244H35.3621C35.7761 9.28244 36.0372 9.2903 36.1467 9.30458C36.6984 9.39994 37.0468 9.66172 37.1921 10.0921C37.294 10.3992 37.3448 10.8696 37.3448 11.5042C37.3448 12.022 37.3194 12.412 37.2683 12.6742C37.1885 13.0681 37.0278 13.3309 36.7889 13.462C36.6139 13.5581 36.1277 13.6195 35.3282 13.6481Z" fill="#2C76BD"/>
<path fill-rule="evenodd" clip-rule="evenodd" d="M44.7136 18.4087H50.1211L50.8927 21.0012H54.989L50.4187 6H44.3179L39.8027 21.0012H43.987L44.7136 18.4087ZM47.4229 8.98352L49.3179 15.4863H45.5841L47.4229 8.98352Z" fill="#2C76BD"/>
<path d="M23.1807 8.11041C24.8486 8.11041 26.3376 8.87754 27.316 10.0789L28.1879 8.21291C26.8245 6.9265 24.9688 6.1333 22.9221 6.1333C19.7352 6.1333 17.0091 8.0547 15.8904 10.7747H14.1904L13.1865 12.9228H15.3735C15.357 13.1221 15.3463 13.3214 15.3463 13.525C15.3463 13.771 15.3592 14.0146 15.3835 14.2549H14.2845L13.281 16.4038H15.9427C17.0932 19.0549 19.7853 20.9159 22.9221 20.9159C24.503 20.9159 25.9698 20.4431 27.1844 19.6352V17.0017C26.2063 18.1135 24.7756 18.8159 23.1807 18.8159C21.3165 18.8159 19.6765 17.8563 18.7217 16.4038H24.2948L25.2986 14.2549H17.9017C17.8634 13.9964 17.843 13.7321 17.843 13.4628C17.843 13.2807 17.8523 13.1007 17.8702 12.9228H25.9208L26.9243 10.7747H18.5661C19.4905 9.18218 21.2106 8.11041 23.1807 8.11041" fill="#FFBE00"/>
<path fill-rule="evenodd" clip-rule="evenodd" d="M27.2656 10.12C26.2589 8.88429 24.7699 8.17501 23.1804 8.17501C21.3486 8.17501 19.6339 9.14358 18.6791 10.7103H26.9239H27.0259L26.9826 10.8021L25.9791 12.9506L25.9619 12.9878H25.9204H17.9288C17.9146 13.1462 17.9075 13.3057 17.9075 13.4631C17.9075 13.7045 17.9245 13.9487 17.9576 14.191H25.2983H25.3999L25.357 14.2824L24.3531 16.4317L24.336 16.4684H24.2945H18.8424C19.83 17.8999 21.4425 18.7513 23.1804 18.7513C24.6919 18.7513 26.1333 18.0984 27.1354 16.9595L27.2481 16.8309V17.002V19.6355V19.6705L27.2198 19.6895C25.9494 20.5344 24.4637 20.9805 22.9218 20.9805C19.8602 20.9805 17.1088 19.2109 15.9 16.4684H13.2807H13.1794L13.222 16.3767L14.2262 14.2281L14.2434 14.191H14.2842H15.312C15.2918 13.9673 15.2816 13.7434 15.2816 13.5253C15.2816 13.3589 15.2887 13.1828 15.3033 12.9878H13.1862H13.085L13.1279 12.896L14.1314 10.7475L14.1486 10.7103H14.1901H15.8473C16.4111 9.36153 17.3605 8.21075 18.5944 7.3811C19.8705 6.5229 21.3666 6.06934 22.9218 6.06934C24.913 6.06934 26.7991 6.81397 28.2322 8.16609L28.2655 8.19823L28.2462 8.24073L27.3747 10.1068L27.3307 10.2L27.2656 10.12ZM26.8224 10.8393H18.5658H18.4534L18.5096 10.7425C19.4755 9.07929 21.2647 8.04609 23.1804 8.04609C24.7749 8.04609 26.2702 8.74246 27.3008 9.95989L27.2577 10.0521L27.3661 10.0386C27.3446 10.0121 27.3228 9.98588 27.3008 9.95989L28.1091 8.22807C28.1205 8.23868 28.1319 8.24933 28.1432 8.26002L28.1289 8.18573L28.1091 8.22807C26.7042 6.91868 24.8644 6.19862 22.9218 6.19862C21.3927 6.19862 19.9209 6.64469 18.6667 7.48789C17.4417 8.3118 16.5022 9.45678 15.9495 10.7993L15.9334 10.8393H15.8901H14.231L14.2484 10.8021L14.1901 10.8393H14.231L13.2874 12.8589H13.1862L13.2445 12.9506L13.2874 12.8589H15.3732H15.4433L15.4376 12.9285C15.4193 13.1478 15.4104 13.3431 15.4104 13.5253C15.4104 13.7621 15.4233 14.006 15.4476 14.2488L15.4544 14.3199H15.3832H14.3253L14.3428 14.2824L14.2842 14.3199H14.3253L13.3827 16.3395H13.2807L13.3397 16.4317L13.3827 16.3395H15.9424H15.9846L16.0017 16.3781C17.1809 19.0955 19.897 20.8516 22.9218 20.8516C24.4264 20.8516 25.8767 20.4193 27.1193 19.6013V19.6355L27.1479 19.5823C27.1384 19.5887 27.1289 19.595 27.1193 19.6013V17.1694C27.1577 17.1284 27.1955 17.0868 27.2327 17.0445L27.1193 17.002V17.1694C26.0988 18.2589 24.6727 18.8798 23.1804 18.8798C21.3591 18.8798 19.6716 17.9681 18.6674 16.4388L18.6015 16.3395H18.7214H24.2539L24.2365 16.3767L24.2945 16.3395H24.2539L25.1972 14.3199H25.2983L25.24 14.2281L25.1972 14.3199H17.9014H17.846L17.8374 14.2649C17.7984 13.9988 17.7784 13.7288 17.7784 13.4631C17.7784 13.2824 17.7873 13.0985 17.8052 12.9171L17.8116 12.8589H17.8699H25.8795L25.8622 12.896L25.9205 12.8589H25.8795L26.8224 10.8393ZM26.8224 10.8393H26.924L26.8653 10.7475L26.8224 10.8393Z" fill="#FFBE00"/>
</svg>
