<svg width="90" height="32" viewBox="0 0 90 32" fill="none" xmlns="http://www.w3.org/2000/svg">
<g clip-path="url(#clip0)">
<path fill-rule="evenodd" clip-rule="evenodd" d="M68.1572 8.35303H67.3465V10.3747H61.0694V11.1713H67.3465V13.8264H67.2169H63.2759L63.2764 14.5553C63.2764 14.5553 63.9019 15.9736 65.1658 17.5104C65.6731 18.1273 66.2747 18.7727 67.0435 19.4066C65.6151 20.2905 63.8308 21.1288 61.3544 21.613L61.8223 22.4282C61.8223 22.4282 64.7598 21.7983 67.6804 19.8959C67.7238 19.9237 67.7844 19.9659 67.8622 20.0203C68.4911 20.4592 70.2497 21.6865 73.2536 22.4068C73.2565 22.4076 73.2594 22.4083 73.2624 22.4089L73.276 22.4119L73.6044 21.7837C73.6044 21.7837 72.7337 21.5534 71.4137 21.0415C70.4972 20.686 69.3477 20.1487 68.2499 19.4003C69.8858 18.1851 71.3459 16.4489 72.2242 14.2093L71.5656 13.8264H68.1649H68.1572V11.1713H74.4906V10.3747H68.1572V8.35303ZM55.0715 10.0699L55.0896 10.0595L55.0814 10.0402C55.0218 9.90109 54.8668 9.57389 54.7026 9.22758C54.5497 8.90501 54.3916 8.57135 54.3162 8.40064L54.3059 8.37677L53.5674 8.80534L53.5781 8.82536C53.8422 9.32575 54.0694 9.7842 54.2728 10.2276C54.3019 10.2878 54.3198 10.335 54.3259 10.3687H49.4536V11.1749H59.4242V10.3687H54.5552L55.0715 10.0699ZM45.3261 15.3539L45.7681 16.1181C46.2345 15.4244 46.7267 14.6087 47.19 13.7536V22.4706H47.9912V12.0905C48.4609 11.0721 48.8768 9.97451 49.2171 8.8631L48.4756 8.43244C47.744 11.0249 46.6717 13.3816 45.3261 15.3539ZM58.5535 13.5097H50.266V12.7622H58.5535V13.5097ZM58.5535 15.9028H50.266V15.097H58.5535V15.9028ZM50.476 22.0016H58.3438V17.4902H50.476V22.0016ZM57.5426 21.254H51.2774V18.2375H57.5426V21.254ZM75.88 16.1181L75.438 15.3539C76.7836 13.3816 77.8559 11.0249 78.5875 8.43244L79.3289 8.8631C78.9888 9.97451 78.5728 11.0721 78.1031 12.0905V22.4706H77.302V13.7536C76.8386 14.6087 76.3465 15.4244 75.88 16.1181ZM37.2954 9.75678H38.0385V13.1315H32.9429V9.75678H33.686V12.3838H35.148V8.64785H35.8914V12.3838H37.2954V9.75678ZM33.1748 15.3493H37.6903V14.6017H33.1748V15.3493ZM38.3227 18.6774L38.6811 19.3021L38.6669 19.3148C37.7207 20.1523 37.0381 20.7407 36.6381 21.0634L36.6168 21.0806L36.1604 20.2852L36.1693 20.2728C36.3678 19.995 36.3966 19.8172 36.4249 19.2355V17.5674H34.1502V18.2444C34.2274 19.8371 33.7176 21.0998 32.6352 21.9962L32.6139 22.0138L32.6 21.9898L32.1864 21.2685L32.2035 21.2561C33.0718 20.6189 33.4573 19.5079 33.3491 17.9543V16.82H37.1683V19.6365L38.3084 18.6529L38.3227 18.6774ZM32.5893 8.89706L31.8958 8.49419C31.1799 9.96444 30.2809 11.2278 29.2714 12.18L29.7202 12.9616C30.8731 11.8 31.8587 10.4054 32.5893 8.89706ZM31.794 12.3153L32.513 12.7313L32.5051 12.7504C32.1998 13.4747 31.8748 14.1468 31.5389 14.7483V22.4707H30.7955V15.9813C30.3866 16.5385 29.957 17.0819 29.5183 17.5975L29.497 17.6228L29.4803 17.5939L29.0684 16.8762L29.0793 16.8635C30.1865 15.5905 31.0965 14.0687 31.7839 12.3404L31.794 12.3153ZM40.1916 11.2151C40.4777 10.3476 40.8054 9.33773 40.9161 8.47296L40.1402 8.47172C39.658 10.7461 38.9214 12.72 37.9731 14.2779L38.4422 15.0952L38.7864 14.4027C38.9159 14.1746 39.0211 13.982 39.1001 13.8285C39.3324 15.8435 39.7383 17.4655 40.3068 18.6508C39.7611 19.5995 38.9214 20.5853 37.8107 21.581L37.7964 21.5938L38.2248 22.34L38.2397 22.3655L38.2613 22.3453C39.4373 21.2371 40.2515 20.2666 40.682 19.4599C41.1727 20.3388 42.0033 21.4031 42.9674 22.388L42.989 22.41L43.4289 21.6439L43.4384 21.6278L43.4249 21.6151C42.3906 20.6213 41.5704 19.5901 41.114 18.7106C41.9568 17.1623 42.4824 14.892 42.6764 11.9629H43.4903V11.2153H40.1913L40.1916 11.2151ZM40.741 17.7744C41.3785 16.3546 41.7795 14.3999 41.9334 11.9629H39.9414C39.8295 12.1896 39.7349 12.4181 39.6605 12.6422C39.8885 14.7783 40.2518 16.5046 40.741 17.7744ZM67.6658 18.8836C70.4631 16.877 71.2789 14.5259 71.2789 14.5259H64.0795C64.9598 16.3652 66.3336 17.863 67.6658 18.8836ZM86.9152 11.9475V8.49397H86.1115V11.9475H79.5009V12.7517H86.1115V20.2414C86.1115 21.0551 85.6097 21.4364 84.6649 21.4364C84.5011 21.4364 84.3484 21.4355 84.201 21.4343V22.24C84.3891 22.24 84.5465 22.239 84.675 22.2382L84.6752 22.2382H84.6753C84.764 22.2376 84.8389 22.2371 84.9008 22.2371C85.6866 22.2371 86.1166 22.0685 86.4522 21.7306C86.7785 21.4021 86.9344 20.9 86.9152 20.2396V12.7517H89.0684V11.9475H86.9152ZM82.872 18.7703C82.2749 17.4073 81.7284 16.2381 81.2403 15.2784L81.9659 14.8521C82.6718 16.2737 83.2424 17.4312 83.6674 18.3035L82.872 18.7703Z" fill="#232222"/>
<path fill-rule="evenodd" clip-rule="evenodd" d="M8.96265 18.6511C8.86174 18.7028 8.74803 18.7326 8.62731 18.7326C8.348 18.7326 8.10505 18.5765 7.97743 18.346L7.92868 18.2375L5.89396 13.7098C5.87192 13.6605 5.85834 13.6049 5.85834 13.5506C5.85834 13.342 6.02505 13.1728 6.23094 13.1728C6.31446 13.1728 6.39162 13.2008 6.45389 13.2479L8.85472 14.9814C9.03029 15.0978 9.23979 15.166 9.46516 15.166C9.59966 15.166 9.72786 15.1407 9.84734 15.0965L21.139 10C19.115 7.58096 15.7817 6 12.0095 6C5.83675 6 0.833008 10.2287 0.833008 15.4452C0.833008 18.2914 2.33851 20.8532 4.69473 22.5846C4.88388 22.7215 5.00763 22.9461 5.00763 23.2C5.00763 23.2838 4.98991 23.3609 4.96839 23.4408C4.78022 24.1528 4.47887 25.2927 4.4647 25.3461C4.44134 25.4354 4.40466 25.5285 4.40466 25.6222C4.40466 25.8308 4.57151 26 4.7774 26C4.85823 26 4.92423 25.9695 4.99247 25.9297L7.43929 24.4972C7.62333 24.3894 7.8182 24.3227 8.03281 24.3227C8.14697 24.3227 8.2574 24.3405 8.36132 24.3727C9.50288 24.7057 10.7342 24.8907 12.0095 24.8907C18.1819 24.8907 23.186 20.6618 23.186 15.4452C23.186 13.8652 22.7245 12.3773 21.913 11.0685L9.04433 18.6033L8.96265 18.6511Z" fill="#22AB39"/>
</g>
<defs>
<clipPath id="clip0">
<rect width="88.3333" height="32" fill="white" transform="translate(0.833008)"/>
</clipPath>
</defs>
</svg>
