<svg width="67" height="32" viewBox="0 0 67 32" fill="none" xmlns="http://www.w3.org/2000/svg">
<path fill-rule="evenodd" clip-rule="evenodd" d="M3.37293 8.5H0V23.2181H3.37293V8.5ZM8.49146 8.5H11.7904C11.7904 11.6899 10.5478 14.6573 8.34352 16.8531L13.0035 23.2181H8.8465L3.78711 16.3042L5.08894 15.3249C7.2488 13.6929 8.49146 11.2151 8.49146 8.5ZM13.9799 8.5H17.1605V23.2181H13.9799V8.5ZM41.925 14.1824C42.6943 13.129 43.8481 12.7581 45.0612 12.7581C47.5022 12.7581 49.3809 14.3753 49.3809 16.7492V23.2328H46.3483V17.8619C46.3483 16.3782 45.579 15.577 44.2476 15.577C43.0049 15.577 41.9694 16.3337 41.9694 17.8767V23.218H38.9071V13.04H41.925V14.1824ZM26.7764 13.04V13.6928C25.9183 13.0993 24.8828 12.7581 23.7585 12.7581C20.7998 12.7581 18.4032 15.1616 18.4032 18.129C18.4032 21.0963 20.7998 23.4999 23.7585 23.4999C24.8828 23.4999 25.9183 23.1586 26.7764 22.5652V23.218H29.809V13.04H26.7764ZM34.5134 13.04V14.3605C35.1199 13.5742 36.259 13.04 37.4869 13.04V16.0074H37.4573C36.259 16.0074 34.5282 16.8679 34.5282 18.4703V23.2181H31.4067V13.04H34.5134ZM58.8192 13.04V13.6928C57.9612 13.0993 56.9256 12.7581 55.8013 12.7581C52.8426 12.7581 50.446 15.1616 50.446 18.129C50.446 21.0963 52.8426 23.4999 55.8013 23.4999C56.9256 23.4999 57.9612 23.1586 58.8192 22.5652V23.218H61.8519V13.04H58.8192ZM63.1832 21.5267C63.1832 20.4733 64.0413 19.6128 65.0916 19.6128C66.1419 19.6128 67 20.4585 67 21.5267C67 22.5802 66.1419 23.4407 65.0916 23.4407C64.0413 23.4407 63.1832 22.5802 63.1832 21.5267ZM63.8933 12.7729C63.4939 12.7729 63.1685 13.0994 63.1685 13.5C63.1833 13.9005 63.4939 14.227 63.8933 14.227C64.2928 14.227 64.6182 13.9005 64.6182 13.5C64.6182 13.0994 64.2928 12.7729 63.8933 12.7729ZM21.2583 18.1291C21.2583 19.5683 22.4862 20.7404 24.0099 20.7404C25.5336 20.7404 26.7615 19.5683 26.7615 18.1291C26.7615 16.6899 25.5336 15.5178 24.0099 15.5178C22.4862 15.5178 21.2583 16.6899 21.2583 18.1291ZM56.0527 20.7404C54.529 20.7404 53.3011 19.5683 53.3011 18.1291C53.3011 16.6899 54.529 15.5178 56.0527 15.5178C57.5765 15.5178 58.8043 16.6899 58.8043 18.1291C58.8191 19.5683 57.5765 20.7404 56.0527 20.7404ZM63.3164 13.5C63.3164 13.8264 63.5679 14.0934 63.8934 14.0934C64.204 14.0934 64.4703 13.8264 64.4703 13.5C64.4703 13.1736 64.2188 12.9065 63.8934 12.9065C63.5827 12.9065 63.3164 13.1736 63.3164 13.5ZM64.204 13.3368C64.204 13.1884 64.1004 13.0994 63.9377 13.0994H63.6566V13.8709H63.7898V13.589H63.9377L64.056 13.8709H64.204L64.0708 13.5593C64.1596 13.5148 64.204 13.4406 64.204 13.3368ZM63.7898 13.4554H63.9377C64.0413 13.4554 64.0709 13.4109 64.0709 13.3367C64.0709 13.2625 64.0265 13.218 63.9377 13.218H63.7898V13.4554Z" fill="black"/>
</svg>
