<svg width="50" height="30" viewBox="0 0 50 30" fill="none" xmlns="http://www.w3.org/2000/svg">
<path fill-rule="evenodd" clip-rule="evenodd" d="M0 2.00036C0 0.895591 0.894407 0 1.99866 0H48.0013C49.1052 0 50 0.89784 50 2.00036V27.9996C50 29.1044 49.1056 30 48.0013 30H1.99866C0.894831 30 0 29.1022 0 27.9996V2.00036Z" fill="black"/>
<path fill-rule="evenodd" clip-rule="evenodd" d="M37.3575 25.2453V23.178H36.9032V24.3799C36.7358 24.1636 36.4967 24.0434 36.1619 24.0434C35.5163 24.0434 35.0381 24.5482 35.0381 25.2453C35.0381 25.9424 35.5163 26.4472 36.1619 26.4472C36.4967 26.4472 36.7358 26.327 36.9032 26.1107V26.3991H37.3575V25.2453ZM22.5081 24.1155H23.3451V24.5001H22.5081V25.6059C22.5081 25.8462 22.6277 25.9905 22.8668 25.9905C22.9864 25.9905 23.1538 25.9664 23.2972 25.8703L23.4407 26.2789C23.2733 26.3751 23.0342 26.4472 22.819 26.4472C22.2451 26.4472 22.0538 26.1347 22.0538 25.6059V24.5241H21.5756V24.1155H22.0538V23.4184H22.5081V24.1155ZM15.8845 24.9568V26.3991H15.3824V25.077C15.3824 24.6924 15.1911 24.476 14.8563 24.476C14.5215 24.476 14.2824 24.6684 14.2824 25.077V26.3991H13.8281V25.077C13.8281 24.6924 13.6368 24.476 13.302 24.476C12.9673 24.476 12.7281 24.6684 12.7281 25.077V26.3991H12.2738V24.0914H12.7281V24.3799C12.9194 24.1155 13.1825 24.0434 13.4216 24.0434C13.7803 24.0434 14.0194 24.1876 14.1868 24.452C14.402 24.1395 14.7128 24.0434 14.9998 24.0434C15.5498 24.0434 15.8845 24.4039 15.8845 24.9568ZM27.6014 24.0434C27.3145 24.0434 27.0993 24.1876 26.9797 24.3799V24.0914H26.5254V26.3991H26.9797V25.101C26.9797 24.7164 27.171 24.476 27.4819 24.476C27.5775 24.476 27.6971 24.5001 27.7927 24.5241L27.9362 24.0914C27.8406 24.0674 27.6971 24.0434 27.6014 24.0434ZM20.2365 24.0434C20.5952 24.0434 20.93 24.1155 21.1691 24.2837L20.93 24.6443C20.7865 24.5722 20.4995 24.452 20.2126 24.452C19.9496 24.452 19.7583 24.5722 19.7583 24.7405C19.7583 24.8847 19.9496 24.9568 20.1648 24.9809L20.4039 25.0049C20.906 25.077 21.193 25.2693 21.193 25.678C21.193 26.1107 20.8343 26.4232 20.1648 26.4232C19.9256 26.4232 19.5191 26.3751 19.1844 26.1347L19.4235 25.7741C19.5909 25.8943 19.83 26.0145 20.1887 26.0145C20.5474 26.0145 20.7387 25.8943 20.7387 25.7261C20.7387 25.6059 20.5713 25.5097 20.3082 25.4616L20.0691 25.4376C19.567 25.3655 19.3039 25.1491 19.3039 24.7645C19.3039 24.3078 19.6626 24.0434 20.2365 24.0434ZM28.1036 25.2453C28.1036 25.9424 28.5579 26.4472 29.2992 26.4472C29.6339 26.4472 29.8731 26.3751 30.1122 26.1828L29.8731 25.8222C29.6818 25.9664 29.4905 26.0386 29.2753 26.0386C28.8688 26.0386 28.5579 25.7261 28.5579 25.2693C28.5579 24.8126 28.8688 24.5001 29.2753 24.5001C29.4905 24.5001 29.6818 24.5722 29.8731 24.7164L30.1122 24.3559C29.8731 24.1636 29.6339 24.0914 29.2992 24.0914C28.5818 24.0434 28.1036 24.5482 28.1036 25.2453ZM23.7755 25.2453C23.7755 24.5241 24.2298 24.0434 24.8994 24.0434C25.545 24.0434 25.9754 24.5241 25.9754 25.2453V25.4376H24.2776C24.3255 25.8462 24.6602 26.0385 24.9711 26.0385C25.2102 26.0385 25.4493 25.9424 25.6406 25.7982L25.8797 26.1347C25.6167 26.351 25.2819 26.4472 24.9472 26.4472C24.2537 26.4472 23.7755 25.9664 23.7755 25.2453ZM24.8754 24.476C25.2102 24.476 25.4493 24.6924 25.4732 25.053H24.2298C24.3015 24.7164 24.5168 24.476 24.8754 24.476ZM18.6822 24.0914V25.2453V26.3991H18.2279V26.1107C18.0605 26.327 17.8214 26.4472 17.4866 26.4472C16.841 26.4472 16.3628 25.9424 16.3628 25.2453C16.3628 24.5482 16.841 24.0434 17.4866 24.0434C17.8214 24.0434 18.0605 24.1635 18.2279 24.3799V24.0914H18.6822ZM16.841 25.2453C16.841 24.8126 17.104 24.476 17.5584 24.476C17.9888 24.476 18.2518 24.8126 18.2518 25.2453C18.2518 25.702 17.9649 26.0145 17.5584 26.0145C17.104 26.0385 16.841 25.678 16.841 25.2453ZM33.8903 24.3799C34.0099 24.1876 34.2251 24.0434 34.512 24.0434C34.6077 24.0434 34.7511 24.0674 34.8468 24.0914L34.7033 24.5241C34.6077 24.5001 34.4881 24.476 34.3925 24.476C34.0816 24.476 33.8903 24.7164 33.8903 25.101V26.3991H33.436V24.0914H33.8903V24.3799ZM32.7425 25.2453V24.0914H32.2882V24.3799C32.1208 24.1635 31.8817 24.0434 31.5469 24.0434C30.9013 24.0434 30.423 24.5482 30.423 25.2453C30.423 25.9424 30.9013 26.4472 31.5469 26.4472C31.8817 26.4472 32.1208 26.327 32.2882 26.1107V26.3991H32.7425V25.2453ZM31.6186 24.476C31.1643 24.476 30.9013 24.8126 30.9013 25.2453C30.9013 25.678 31.1643 26.0385 31.6186 26.0145C32.0251 26.0145 32.3121 25.702 32.3121 25.2453C32.3121 24.8126 32.049 24.476 31.6186 24.476ZM36.2337 24.476C35.7793 24.476 35.5163 24.8126 35.5163 25.2453C35.5163 25.678 35.7793 26.0385 36.2337 26.0145C36.6402 26.0145 36.9271 25.702 36.9271 25.2453C36.9271 24.8126 36.6641 24.476 36.2337 24.476Z" fill="white"/>
<path d="M20.6429 6.59131H28.9404V20.1971H20.6429V6.59131Z" fill="#FF5F00"/>
<path d="M38.6966 13.3943C38.6966 18.178 34.8468 22.0482 30.0883 22.0482C28.0796 22.0482 26.2384 21.3511 24.7798 20.1972C26.7884 18.6107 28.0557 16.1587 28.0557 13.3943C28.0557 10.6299 26.7645 8.17798 24.7798 6.59144C26.2384 5.43759 28.0796 4.74048 30.0883 4.74048C34.8468 4.74048 38.6966 8.61067 38.6966 13.3943Z" fill="#F79E1B"/>
<path d="M21.4798 13.3943C21.4798 10.6299 22.7711 8.17798 24.7558 6.59144C23.2972 5.43759 21.4559 4.74048 19.4473 4.74048C14.6888 4.74048 10.839 8.61067 10.839 13.3943C10.839 18.178 14.6888 22.0482 19.4473 22.0482C21.4559 22.0482 23.2972 21.3511 24.7558 20.1972C22.7711 18.6107 21.4798 16.1587 21.4798 13.3943Z" fill="#EB001B"/>
</svg>
