<svg width="24" height="32" viewBox="0 0 24 32" fill="none" xmlns="http://www.w3.org/2000/svg">
<g clip-path="url(#clip0)">
<path fill-rule="evenodd" clip-rule="evenodd" d="M11.8441 23.9531H20.8578C22.916 23.9531 22.9366 21.7655 22.7269 20.6855C22.6124 19.9597 21.3789 19.9657 21.2431 20.6855V21.5282C21.2431 21.9131 20.9278 22.2284 20.5428 22.2284H11.8441H11.1484H3.26136C2.87627 22.2284 2.56123 21.9131 2.56123 21.5282V20.6855C2.42542 19.9657 1.19189 19.9597 1.07735 20.6855C0.867918 21.7655 0.88811 23.9531 2.9465 23.9531H11.1484H11.8441ZM5.47146 3.00008H18.6725H19.37C20.3466 3.00008 21.1453 3.84548 21.1453 4.87887V5.77681C21.1453 7.04626 19.4256 7.04144 19.4256 5.78539V5.29488C19.4256 4.98287 19.1704 4.7277 18.8582 4.7277H4.93126C4.61926 4.7277 4.36408 4.98287 4.36408 5.29488V5.77539C4.36408 7.03787 2.72509 7.02893 2.72509 5.80273V4.87887C2.72509 3.84548 3.52404 3.00008 4.50043 3.00008H5.47146V3.00008Z" fill="#2A6BAE"/>
<path fill-rule="evenodd" clip-rule="evenodd" d="M12.6632 18.6723C13.162 18.6194 13.5235 18.1719 13.4704 17.6732L12.593 9.59924L12.5926 9.59709L12.5923 9.5937L12.5926 9.59352C12.5821 9.49935 12.5623 9.40589 12.5337 9.31404C12.5062 9.22487 12.469 9.13695 12.4234 9.05118C12.1993 8.63035 11.7869 8.33515 11.295 8.26707L11.2932 8.26671C11.2767 8.26457 11.2605 8.26278 11.2442 8.26135C11.167 8.25331 11.0902 8.25099 11.0146 8.25456L11.011 8.25474V8.25456C10.9127 8.25921 10.8209 8.27154 10.7364 8.29119C10.2671 8.40073 9.86845 8.72721 9.68082 9.20379L7.4348 14.909L5.1886 9.20379C5.00097 8.72721 4.60231 8.40073 4.13305 8.29119C4.04835 8.27154 3.9565 8.25921 3.8584 8.25456V8.25474L3.85482 8.25456C3.77941 8.25099 3.70275 8.25331 3.62574 8.26135C3.6093 8.26278 3.59268 8.26457 3.57624 8.26671L3.57445 8.26707C3.0825 8.33515 2.67025 8.63035 2.44617 9.05118C2.40043 9.13695 2.36344 9.22487 2.33574 9.31404C2.30715 9.40589 2.28731 9.49953 2.27677 9.59352L2.27713 9.5937L2.27677 9.59709L2.27641 9.59924L1.39902 17.6732C1.34595 18.1719 1.70727 18.6194 2.20618 18.6723C2.70492 18.7254 3.1522 18.364 3.20527 17.8651L3.94953 11.0168L6.5885 17.72L6.5935 17.7322L6.59457 17.7352L6.59976 17.7472L6.60494 17.759L6.60923 17.7685L6.61405 17.7788L6.61923 17.7895L6.62227 17.796L6.63085 17.8122L6.63156 17.814L6.63943 17.8283L6.64389 17.8362C6.67195 17.886 6.70411 17.9323 6.74003 17.975L6.74307 17.9784C6.75183 17.9888 6.76058 17.9986 6.7697 18.0084L6.77023 18.0092C6.77558 18.0149 6.78114 18.0206 6.78666 18.0262L6.79221 18.0318C6.79954 18.0392 6.80722 18.0465 6.81491 18.0537L6.81544 18.0544C6.82491 18.0631 6.83454 18.0714 6.84434 18.0799L6.84441 18.0799L6.84546 18.0808L6.84886 18.0839C6.89157 18.1198 6.93785 18.1521 6.9877 18.1802L6.99574 18.1845L7.00986 18.1921L7.01147 18.1932L7.02809 18.2016L7.03434 18.2048L7.04524 18.21L7.05543 18.2147L7.0649 18.2191L7.07669 18.2243L7.08884 18.2291L7.09188 18.2306L7.10403 18.2354C7.20178 18.2736 7.30221 18.2938 7.40138 18.2974L7.41282 18.2977L7.42533 18.2979H7.4348H7.44409L7.45696 18.2977L7.46768 18.2974C7.55649 18.2942 7.64602 18.2777 7.73393 18.247L7.7409 18.2447L7.75288 18.2402L7.76056 18.2373L7.76538 18.2354L7.77378 18.2322L7.78308 18.2282L7.7929 18.2241L7.80416 18.2193L7.81363 18.2148L7.82453 18.2098L7.83472 18.205L7.84204 18.2013L7.85795 18.193L7.85866 18.1927L7.87582 18.1834L7.87975 18.1812C7.93675 18.1493 7.98929 18.1121 8.03682 18.0699L8.0504 18.0576L8.05308 18.0553C8.12617 17.9875 8.18871 17.9069 8.23732 17.8153L8.23982 17.8104L8.24679 17.7967L8.24983 17.7906L8.25608 17.7776L8.26001 17.7692L8.26627 17.7552L8.2677 17.7518L8.27359 17.7379L8.28092 17.7202V17.72L8.2811 17.7193L8.28378 17.7131L10.9199 11.0168L11.6642 17.8651C11.717 18.364 12.1645 18.7254 12.6632 18.6723ZM22.4217 15.7822C22.4217 14.7089 21.7572 13.7742 20.7945 13.3214C21.2933 12.8026 21.6012 12.0994 21.6012 11.3277C21.6012 9.74246 20.3028 8.44531 18.7158 8.44531H14.9459C14.5299 8.44531 14.1896 8.78537 14.1896 9.20066V17.8121C14.1896 18.2088 14.5361 18.5334 14.9594 18.5334H19.4856C21.1006 18.5334 22.4217 17.2954 22.4217 15.7822ZM18.8534 12.62H17.4163C16.9799 12.62 16.6229 12.977 16.6229 13.4134C16.6229 13.8498 16.9799 14.2066 17.4163 14.2066H18.8534V14.21H19.4225C20.1988 14.21 20.8339 14.8451 20.8339 15.6213C20.8339 16.3976 20.1988 17.0327 19.4225 17.0327H15.7518V9.88666H18.6464C19.398 9.88666 20.0131 10.5017 20.0131 11.2533C20.0131 11.9347 19.5078 12.5037 18.8534 12.6041V12.62ZM6.28836 26.3541C6.15434 26.3541 6.04569 26.4628 6.04569 26.5968V27.9095V27.9098H6.04659C6.04659 28.0759 5.97832 28.227 5.86861 28.3368C5.75853 28.447 5.607 28.5154 5.44117 28.5154V28.5146H5.44063H5.44028V28.5154C5.27427 28.5154 5.12309 28.447 5.01337 28.3375C4.90312 28.2272 4.83468 28.0759 4.83468 27.9102H4.83557V27.9095V26.5968C4.83557 26.4628 4.72693 26.3541 4.59291 26.3541C4.45889 26.3541 4.35006 26.4628 4.35006 26.5968V27.9095V27.9102H4.35113C4.35131 28.2099 4.47336 28.482 4.6701 28.6788C4.86756 28.8764 5.14025 28.999 5.44028 28.999V29.0001H5.44063H5.44117V28.999C5.74102 28.9988 6.01317 28.8768 6.20991 28.68C6.40737 28.4826 6.53013 28.2099 6.53013 27.9098H6.5312V27.9095V26.5968C6.5312 26.4628 6.42238 26.3541 6.28836 26.3541ZM8.33943 28.5146C8.47345 28.5146 8.5821 28.6233 8.5821 28.7573C8.5821 28.8913 8.47345 29.0001 8.33943 29.0001H7.66932H7.66914V28.9991C7.4179 28.9991 7.1897 28.8963 7.02441 28.7312C6.86001 28.5665 6.7578 28.339 6.75762 28.0879H6.75673V28.0872V26.5969C6.75673 26.4629 6.86537 26.354 6.99939 26.354C7.13342 26.354 7.24206 26.4629 7.24206 26.5969V28.0872V28.0879H7.24117C7.24117 28.2048 7.2896 28.3116 7.36768 28.3897C7.44524 28.4671 7.55192 28.5155 7.66914 28.5155V28.5146H7.66932H8.33943ZM4.26007 28.7289C4.2758 28.8619 4.18055 28.9825 4.04778 28.9982C3.91465 29.0137 3.79403 28.9189 3.77831 28.7857L3.57031 27.0379L2.82873 28.7575C2.77583 28.8806 2.63323 28.9374 2.51029 28.8845C2.45079 28.8592 2.40683 28.8125 2.38324 28.7575L1.64166 27.0379L1.43348 28.7857C1.41775 28.9189 1.29713 29.0137 1.16419 28.9982C1.03124 28.9825 0.936171 28.8619 0.951896 28.7289L1.19331 26.6995C1.20904 26.5669 1.28981 26.458 1.40542 26.3984C1.42061 26.3903 1.43652 26.3834 1.4526 26.3773C1.45885 26.3748 1.46493 26.3726 1.47136 26.3707C1.49191 26.3642 1.51586 26.3589 1.54284 26.3553V26.3555L1.54481 26.3553L1.54695 26.3549C1.67364 26.3389 1.79855 26.3798 1.88593 26.462C1.90345 26.4786 1.92006 26.4977 1.93543 26.519C1.9458 26.5336 1.95545 26.5488 1.96367 26.5645C1.96885 26.5733 1.97332 26.5821 1.97725 26.5915L2.60589 28.0491L3.23454 26.5915C3.28654 26.4713 3.3934 26.3891 3.51849 26.3615C3.54243 26.3564 3.56638 26.3528 3.58979 26.3517C3.60784 26.3508 3.6257 26.3508 3.64268 26.3519L3.64429 26.3521C3.65019 26.3524 3.65608 26.353 3.66216 26.3537L3.66412 26.354L3.66395 26.3548L3.66502 26.3549C3.79475 26.3714 3.90518 26.4443 3.96719 26.5488H3.96701C3.98006 26.5706 3.9906 26.5939 3.99918 26.618C4.00436 26.6332 4.009 26.6489 4.0124 26.6655C4.0149 26.6759 4.01687 26.6864 4.01812 26.6973L4.01848 26.6995L4.26007 28.7289ZM9.15717 29C9.29119 29 9.39984 28.8914 9.39984 28.7574V26.8396H10.0905C10.2245 26.8396 10.3332 26.7308 10.3332 26.5967C10.3332 26.4627 10.2245 26.3541 10.0905 26.3541H9.15717H8.22385C8.08983 26.3541 7.98118 26.4627 7.98118 26.5967C7.98118 26.7308 8.08983 26.8396 8.22385 26.8396H8.9145V28.7574C8.9145 28.8914 9.02315 29 9.15717 29ZM10.9138 28.7574C10.9138 28.8914 10.8052 29 10.6712 29C10.5372 29 10.4285 28.8914 10.4285 28.7574V26.5967C10.4285 26.4627 10.5372 26.3541 10.6712 26.3541C10.8052 26.3541 10.9138 26.4627 10.9138 26.5967V28.7574ZM15.6813 28.9983C15.8144 28.982 15.9092 28.8608 15.8929 28.7279L15.7251 27.3787L15.7247 27.3768C15.7238 27.3691 15.7224 27.3616 15.7206 27.3541C15.7108 27.2846 15.6967 27.2185 15.6781 27.1564C15.6574 27.0869 15.6297 27.0181 15.5959 26.9506C15.4204 26.6 15.0936 26.3541 14.6728 26.3541H14.6704V26.3552C14.5881 26.3554 14.5093 26.3648 14.4346 26.3831C14.3574 26.4015 14.2857 26.4283 14.2201 26.4615C13.8863 26.6313 13.6653 26.9835 13.6204 27.3818L13.4687 28.7307C13.4541 28.8637 13.55 28.9836 13.6828 28.9983C13.8157 29.0129 13.9356 28.9169 13.9503 28.7838L14.1022 27.4349C14.129 27.1961 14.2537 26.9888 14.4399 26.8939C14.4755 26.8759 14.5118 26.8621 14.5484 26.8534C14.5873 26.8439 14.6284 26.8387 14.6704 26.8387V26.8396H14.6728C14.8931 26.8396 15.0673 26.9744 15.1636 27.1668C15.1826 27.2049 15.1994 27.2479 15.2135 27.2948C15.2262 27.3366 15.2353 27.378 15.2415 27.4188C15.2417 27.4243 15.2423 27.43 15.243 27.4357L15.2433 27.4377L15.2655 27.6157H14.4848C14.3508 27.6157 14.2421 27.7245 14.2421 27.8585C14.2421 27.9926 14.3508 28.1012 14.4848 28.1012H15.3259L15.4113 28.7867C15.4276 28.9196 15.5484 29.0145 15.6813 28.9983ZM16.636 28.7574C16.636 28.8914 16.5274 29 16.3933 29C16.2593 29 16.1505 28.8914 16.1505 28.7574V26.7504V26.7495C16.1505 26.7356 16.1516 26.7217 16.1539 26.7084C16.1571 26.6811 16.1637 26.6548 16.173 26.6298L16.1734 26.6291L16.173 26.6289C16.178 26.6155 16.185 26.601 16.193 26.5855L16.1936 26.5848L16.193 26.5846C16.2336 26.511 16.2995 26.4538 16.3826 26.4252C16.3937 26.4216 16.4048 26.4184 16.416 26.4163C16.4246 26.4143 16.4332 26.4125 16.4418 26.4113L16.4437 26.4109V26.4102C16.46 26.4079 16.4795 26.4068 16.5018 26.4073H16.5036H16.5079H16.5081C16.6076 26.4113 16.7005 26.4574 16.7647 26.539L18.0564 28.1864V26.5967C18.0564 26.4627 18.1653 26.3541 18.2993 26.3541C18.4333 26.3541 18.542 26.4627 18.542 26.5967V28.5949C18.542 28.7005 18.4944 28.796 18.4153 28.8606C18.4003 28.8728 18.3836 28.8842 18.3658 28.8942C18.3561 28.8996 18.3459 28.9044 18.3356 28.9091L18.3329 28.9101L18.3324 28.9103C18.3259 28.9134 18.3193 28.9162 18.3123 28.9185L18.3116 28.9189V28.9185H18.3114L18.3113 28.9184L18.3097 28.9189C18.2216 28.9493 18.129 28.9428 18.0495 28.9042C18.0389 28.8998 18.0286 28.8944 18.0182 28.888C18.0018 28.878 17.9855 28.8656 17.9701 28.8521C17.9605 28.8435 17.9501 28.8328 17.9392 28.8197L17.9312 28.8104L17.9306 28.8099L17.9308 28.8097L17.9278 28.806L16.636 27.1589V28.7574ZM20.6696 28.7573C20.6696 28.6233 20.561 28.5146 20.427 28.5146H19.7118H19.7115V28.5155C19.5819 28.5155 19.464 28.4621 19.3784 28.3765C19.2921 28.2904 19.2386 28.1721 19.2386 28.0427H19.2394V28.0422V27.312V27.3117H19.2386C19.2386 27.1821 19.2917 27.0642 19.3775 26.9784C19.4636 26.8923 19.5819 26.8386 19.7111 26.8386V26.8395H19.7118H20.427C20.561 26.8395 20.6696 26.7309 20.6696 26.5969C20.6696 26.4629 20.561 26.354 20.427 26.354H19.7118H19.7111V26.3551C19.4479 26.3553 19.209 26.4627 19.0362 26.6351C18.8627 26.8085 18.7551 27.0481 18.7549 27.3117H18.754V27.312V28.0422V28.0427H18.7549C18.7553 28.3061 18.8625 28.5452 19.0351 28.7178C19.2084 28.8911 19.4479 28.9991 19.7115 28.9991V29.0001H19.7118H20.427C20.561 29.0001 20.6696 28.8913 20.6696 28.7573ZM21.8315 26.8386V26.8395H21.8311H21.8306V26.8386C21.6517 26.8386 21.4889 26.9091 21.3713 27.022C21.2557 27.133 21.1841 27.2849 21.1839 27.4507H21.185V27.451V27.9031V27.9037H21.1839C21.1841 28.0693 21.2557 28.2209 21.371 28.3318C21.4889 28.4449 21.6517 28.5155 21.8309 28.5155V28.5146H21.8311H21.8318V28.5155C22.0109 28.5155 22.1735 28.4451 22.2913 28.3318C22.4067 28.221 22.4785 28.0693 22.4785 27.9033H22.4776V27.9031V27.451V27.4505H22.4785C22.4784 27.2847 22.4067 27.133 22.2914 27.0222C22.1735 26.9091 22.0107 26.8386 21.8315 26.8386ZM21.8311 26.354H21.8315V26.3551C22.141 26.3551 22.4228 26.4772 22.627 26.6732C22.8336 26.8719 22.9619 27.1469 22.9621 27.4505H22.963V27.451V27.9031V27.9033H22.9621C22.9619 28.2071 22.8336 28.4823 22.6268 28.681C22.4228 28.877 22.1412 28.9989 21.8318 28.9991V29.0001H21.8311H21.8309V28.9991C21.5214 28.9991 21.2396 28.877 21.0354 28.6808C20.829 28.4823 20.7005 28.2073 20.7003 27.9037H20.6994V27.9031V27.451V27.4507H20.7003C20.7005 27.1471 20.829 26.8717 21.0357 26.6732C21.2398 26.4772 21.5214 26.3553 21.8306 26.3551V26.354H21.8311ZM11.603 27.6619V26.8395H12.3063H12.3067V26.8386C12.3858 26.8386 12.4584 26.8715 12.5109 26.924C12.564 26.9771 12.5971 27.0497 12.5971 27.1286H12.5962V27.1292V27.1293V27.1295H12.5971C12.5971 27.2089 12.5642 27.2812 12.5116 27.334L12.5113 27.3343L12.5109 27.334C12.4625 27.382 12.3983 27.4137 12.3281 27.419H12.307H12.3063H12.2177C12.0838 27.419 11.975 27.5282 11.975 27.6619C11.975 27.7955 12.0838 27.9045 12.2177 27.9045H12.3063H12.307H12.5406H12.5409V27.9036C12.6237 27.9036 12.7 27.9383 12.7559 27.9944L12.7652 28.0033C12.8156 28.058 12.8463 28.1306 12.8463 28.2088H12.8456V28.2096V28.2099H12.8463C12.8463 28.2934 12.812 28.3697 12.7566 28.4249C12.7007 28.4808 12.6244 28.5155 12.5411 28.5155V28.5146H12.5406H11.603V27.6619ZM11.1176 26.6074V27.6619V28.7573C11.1176 28.8913 11.2263 29.0001 11.3603 29.0001H12.5406H12.5411V28.999C12.7586 28.9988 12.9557 28.9104 13.0979 28.7682C13.2411 28.625 13.3301 28.4274 13.3301 28.2099H13.331V28.2096V28.2088H13.3301C13.3299 27.9992 13.2475 27.8084 13.114 27.6674C13.1109 27.6638 13.1077 27.6601 13.1044 27.6566C13.1027 27.6547 13.101 27.6529 13.0992 27.6511C13.0576 27.6097 13.0113 27.5729 12.9614 27.5412C13.0366 27.4219 13.0806 27.2807 13.0806 27.1295H13.0817V27.1293V27.1292V27.1286H13.0806C13.0804 26.9155 12.9938 26.7223 12.854 26.5825C12.7139 26.4423 12.52 26.3551 12.3067 26.3551V26.354H12.3063H11.371H11.3703V26.3545C11.3657 26.3543 11.3609 26.3547 11.3561 26.3551L11.356 26.3551C11.2924 26.3588 11.2377 26.3851 11.1966 26.4244L11.1968 26.4246L11.1938 26.4273C11.1698 26.4507 11.1505 26.4791 11.1375 26.5107C11.1248 26.5402 11.1176 26.5729 11.1176 26.6072V26.6074Z" fill="#424041"/>
</g>
<defs>
<clipPath id="clip0">
<rect width="22.1" height="32" fill="white" transform="translate(0.950195)"/>
</clipPath>
</defs>
</svg>
