<svg width="31" height="32" viewBox="0 0 31 32" fill="none" xmlns="http://www.w3.org/2000/svg">
<g clip-path="url(#clip0)">
<g clip-path="url(#clip1)">
<rect width="30.432" height="26" transform="translate(0.116211 3)" fill="white"/>
<path d="M0.116211 3H15.8118C26.4648 3 30.5482 8.73558 30.5482 15.9709C30.5482 24.6467 24.846 29 15.8118 29H0.116211V3ZM1.63781 4.50017V27.5007H15.8118C24.3692 27.5007 29.0252 23.5694 29.0252 15.9709C29.0252 8.16184 23.978 4.49971 15.8118 4.49971H1.63781V4.50017Z" fill="black"/>
<path d="M3.53906 17.6621H8.07645V25.624H3.53906V17.6621Z" fill="black"/>
<path d="M5.80725 16.4305C7.36467 16.4305 8.6272 15.1857 8.6272 13.6503C8.6272 12.1148 7.36467 10.8701 5.80725 10.8701C4.24984 10.8701 2.9873 12.1148 2.9873 13.6503C2.9873 15.1857 4.24984 16.4305 5.80725 16.4305Z" fill="black"/>
<path d="M17.5916 14.9515V16.2407H14.3586V11.0674H17.4883V12.3561H15.6657V12.9551H17.3892V14.2443H15.6657V14.9519L17.5916 14.9515ZM18.1572 16.2416L19.7393 11.0655H21.5991L23.1807 16.2416H21.8201L21.5233 15.2404H19.8133L19.516 16.2416H18.1572V16.2416ZM20.1966 13.9526H21.1428L20.7088 12.4905H20.6297L20.1966 13.9526ZM23.838 11.066H25.1461V14.9519H27.0822C26.551 7.901 20.926 6.37744 15.8118 6.37744H10.3613V11.0687H11.1679C12.6388 11.0687 13.552 12.052 13.552 13.6343C13.552 15.267 12.6607 16.2416 11.1679 16.2416H10.3613V25.6278H15.8123C24.1232 25.6278 27.0175 21.8221 27.1199 16.2407H23.838V11.066V11.066ZM10.3604 12.3575V14.9519H11.1679C11.7275 14.9519 12.2448 14.7923 12.2448 13.6338C12.2448 12.5024 11.6694 12.3575 11.1679 12.3575H10.3604V12.3575Z" fill="#D50072"/>
</g>
</g>
<defs>
<clipPath id="clip0">
<rect width="30.7667" height="32" fill="white" transform="translate(0.116211)"/>
</clipPath>
<clipPath id="clip1">
<rect width="30.432" height="26" fill="white" transform="translate(0.116211 3)"/>
</clipPath>
</defs>
</svg>
