<svg width="50" height="30" viewBox="0 0 50 30" fill="none" xmlns="http://www.w3.org/2000/svg">
<path fill-rule="evenodd" clip-rule="evenodd" d="M2 0H48C49.1046 0 50 0.89543 50 2V28C50 29.1046 49.1046 30 48 30H2C0.89543 30 0 29.1046 0 28V2C0 0.89543 0.89543 0 2 0Z" fill="white"/>
<path d="M2 0.75H48C48.6904 0.75 49.25 1.30964 49.25 2V28C49.25 28.6904 48.6904 29.25 48 29.25H2C1.30964 29.25 0.75 28.6904 0.75 28V2C0.75 1.30964 1.30964 0.75 2 0.75Z" stroke="black" stroke-width="1.5"/>
<path fill-rule="evenodd" clip-rule="evenodd" d="M40.0289 5.02457C39.5092 5.03756 38.9904 5.05052 38.4966 5.00757L8.5834 5.035C7.90904 5.08083 7.30505 5.37386 6.74727 5.69432C5.44567 6.49593 4.72511 7.82421 4.79487 9.28996L18.1829 9.24383C19.043 9.28966 19.8101 9.47295 20.6233 9.72468C22.3664 10.2055 23.7378 12.0146 24.0863 13.6637C24.1796 12.2209 24.2668 10.7207 24.3188 9.19801L32.0642 9.21519C31.9156 10.2978 31.8312 11.4015 31.7473 12.4994L31.7473 12.4995L31.7473 12.4995C31.6998 13.1201 31.6525 13.7387 31.5939 14.3507C32.7359 13.0511 33.8446 11.702 34.9482 10.3592C35.1473 10.117 35.3462 9.87488 35.5452 9.63333C35.63 9.57058 35.6966 9.48753 35.7589 9.40983C35.8331 9.31732 35.9012 9.23239 35.9867 9.19831L45.3534 9.1754C45.4228 7.6183 44.5168 6.26711 43.2146 5.53424C42.3201 4.96732 41.1725 4.996 40.0289 5.02457ZM45.3478 20.9196C45.3507 20.915 45.3541 20.9096 45.3541 20.9008H45.3538V9.35839L45.3073 9.33548C43.8976 10.5019 42.657 11.8095 41.4103 13.1236L41.4102 13.1237L41.4102 13.1237L41.4099 13.124L41.4098 13.1241C40.992 13.5645 40.5735 14.0056 40.1477 14.4424L40.1245 14.534C41.7729 16.7075 43.4684 18.9265 45.3484 20.9399C45.3499 20.9417 45.3518 20.9438 45.3541 20.946L45.3484 20.9399C45.3409 20.9305 45.3439 20.9258 45.3478 20.9196ZM16.9515 14.7861C16.9747 15.3356 16.6027 15.771 16.1844 16.1143C15.4076 16.6967 14.3672 16.6536 13.326 16.6105C12.9339 16.5943 12.5417 16.578 12.1633 16.5952L12.4188 13.4807C12.7229 13.5033 13.0884 13.4935 13.4789 13.483H13.4789C14.8725 13.4456 16.5839 13.3998 16.9515 14.7861ZM36.3962 21.0897C36.0488 21.1048 35.7191 21.119 35.5918 20.6949L31.5242 14.9006C31.385 16.9386 31.2684 19.0917 31.2225 21.1522C31.2225 21.1522 26.0155 21.1293 23.5289 21.1522C23.6438 20.1181 23.7145 19.075 23.7846 18.0394C23.8278 17.4013 23.8709 16.766 23.9239 16.1373C23.6449 16.8472 23.3196 17.5343 22.9014 18.1984C21.739 20.0075 19.8334 20.855 17.8575 21.0841L4.74878 21.1525C4.75245 21.7003 4.8547 22.2431 5.05077 22.7557C5.60886 24.1302 7.07293 25.2287 8.5373 25.3436L26.2946 25.2977H40.961C41.6353 25.2977 42.2861 25.1835 42.8668 24.9315C44.401 24.2902 45.4009 22.6867 45.3308 21.0841H36.5917C36.5267 21.0841 36.4611 21.0869 36.3962 21.0897Z" fill="#CC2229"/>
</svg>
