<svg width="78" height="32" viewBox="0 0 78 32" fill="none" xmlns="http://www.w3.org/2000/svg">
<g clip-path="url(#clip0)">
<path d="M14.0965 8.00348L10.9285 21.801C10.6745 22.9075 9.73746 23.8045 8.83654 23.8045H1.40303C0.501706 23.8045 -0.0230864 22.9078 0.231044 21.801L3.399 8.00348C3.65306 6.89699 4.59008 6 5.491 6H12.9245C13.8258 6 14.3506 6.89666 14.0965 8.00348Z" fill="#ED171F"/>
<path d="M20.6004 8.00348L17.4324 21.801C17.1784 22.9075 16.2414 23.8045 15.3404 23.8045H7.90694C7.00561 23.8045 6.48082 22.9078 6.73495 21.801L9.90291 8.00348C10.157 6.89699 11.094 6 11.9949 6H19.4284C20.3297 6 20.8545 6.89666 20.6004 8.00348Z" fill="#082F67"/>
<path d="M28.2869 8.00348L25.119 21.801C24.8649 22.9075 23.9279 23.8045 23.027 23.8045H15.5935C14.6921 23.8045 14.1673 22.9078 14.4215 21.801L17.5894 8.00348C17.8435 6.89699 18.7805 6 19.6814 6H27.1149C28.0163 6 28.5411 6.89666 28.2869 8.00348Z" fill="#006A65"/>
<path fill-rule="evenodd" clip-rule="evenodd" d="M20.1518 19.4304L20.9876 16.5802L21.2717 16.5783L21.4462 15.998C21.4462 15.998 20.2445 16.0258 20.0363 16.0827C19.8273 16.1387 19.6069 16.3 19.6069 16.3L19.6922 16.0052L18.8627 16.0104L18.6934 16.5947L17.8454 19.4882L17.6787 19.4894L17.5156 20.0348L19.1673 20.0245L19.1128 20.2069L19.9256 20.2017L19.9779 20.0194L20.2074 20.0178L20.3812 19.4289L20.1518 19.4304ZM19.3125 17.3176L19.5271 16.5894L20.1859 16.5853L20.0311 17.1156C20.0311 17.1156 19.827 17.1305 19.6914 17.1671C19.5572 17.2045 19.3125 17.3176 19.3125 17.3176ZM19.2058 17.6796L18.9837 18.4369C18.9837 18.4369 19.234 18.3063 19.3681 18.265C19.5031 18.2326 19.7091 18.2057 19.7091 18.2057L19.8667 17.6756L19.2058 17.6796ZM19.3486 19.4435L18.688 19.4476L18.8759 18.8072L19.5358 18.803L19.3486 19.4435Z" fill="white"/>
<path d="M21.3506 15.9983L22.2351 15.9927L22.2476 16.3245C22.2422 16.3804 22.2904 16.4068 22.3929 16.4062L22.5726 16.4051L22.4113 16.9537L21.934 16.9567C21.5202 16.9903 21.362 16.812 21.3706 16.6106L21.3506 15.9983Z" fill="white"/>
<path d="M21.4832 18.5976L20.6406 18.6029L20.7815 18.1137L21.7458 18.1076L21.8805 17.6615L20.929 17.6674L21.0884 17.1163L23.7378 17.0996L23.5752 17.6507L22.6871 17.6563L22.5507 18.1025L23.4414 18.0969L23.2974 18.5862L22.3336 18.5923L22.1646 18.7988L22.555 18.7964L22.6538 19.4111C22.6645 19.4716 22.6662 19.511 22.6856 19.5373C22.7052 19.5603 22.8225 19.5696 22.8909 19.5692L23.0089 19.5685L22.8324 20.1685L22.5318 20.1705C22.4846 20.1707 22.4167 20.167 22.3218 20.1627C22.231 20.1554 22.1668 20.1027 22.1063 20.0741C22.0508 20.0464 21.9674 19.9799 21.9476 19.8656L21.8498 19.2522L21.4153 19.8601C21.2778 20.0513 21.0903 20.1986 20.7729 20.2005L20.1592 20.2044L20.3161 19.6694L20.5508 19.6679C20.6181 19.6675 20.6786 19.6404 20.722 19.6168C20.7671 19.5976 20.8066 19.5747 20.8515 19.5071L21.4832 18.5976Z" fill="white"/>
<path d="M12.2384 17.3203L14.4717 17.3062L14.3105 17.8437L13.417 17.8494L13.281 18.3071L14.1943 18.3014L14.0312 18.8564L13.1184 18.8621L12.9019 19.6071C12.8754 19.6898 13.1182 19.6996 13.2063 19.6991L13.663 19.6322L13.4841 20.2466L12.4537 20.2531C12.3722 20.2536 12.3092 20.2422 12.2193 20.2227C12.1321 20.2017 12.0942 20.1626 12.0548 20.1031C12.0173 20.0427 11.9599 19.9933 11.998 19.8639L12.2872 18.8768L11.7803 18.88L11.9448 18.3156L12.4551 18.3122L12.5873 17.8546L12.0799 17.8578L12.2384 17.3203Z" fill="white"/>
<path d="M13.7357 16.3468L14.652 16.341L14.4878 16.9029L13.2367 16.9109L13.1012 17.0293C13.0443 17.0868 13.0234 17.0631 12.9482 17.1053C12.8769 17.1416 12.729 17.2136 12.536 17.2148L12.1348 17.2174L12.294 16.6769L12.4148 16.6761C12.5171 16.6755 12.5861 16.6662 12.6206 16.6429C12.6604 16.6176 12.7046 16.5604 12.7551 16.4672L12.9826 16.0449L13.8939 16.0391L13.7357 16.3468Z" fill="white"/>
<path fill-rule="evenodd" clip-rule="evenodd" d="M15.0435 16.0381L15.8238 16.0333L15.7129 16.4292C15.7129 16.4292 15.9578 16.23 16.1303 16.1582C16.3015 16.0922 16.69 16.0315 16.69 16.0315L17.9523 16.0171L17.5317 17.4616C17.4604 17.7095 17.3776 17.8699 17.3253 17.9431C17.2773 18.0181 17.2224 18.0801 17.1126 18.1418C17.0057 18.1999 16.9095 18.2333 16.8201 18.2429C16.7364 18.2496 16.6086 18.2539 16.4313 18.2568L15.2157 18.2645L14.8793 19.4082L14.8763 19.4187C14.847 19.5241 14.8328 19.5751 14.8541 19.6048C14.8723 19.6324 14.9138 19.6625 14.9706 19.6621L15.5065 19.608L15.3279 20.2347L14.727 20.2386C14.5359 20.2398 14.396 20.2362 14.2987 20.2294C14.2805 20.2281 14.2621 20.2273 14.2438 20.2266C14.1693 20.2236 14.0967 20.2208 14.0451 20.1807L14.026 20.1644L14.026 20.1644C13.9709 20.1176 13.9029 20.0599 13.9043 20.0002C13.9103 19.9377 13.9347 19.8351 13.973 19.6941L15.0435 16.0381ZM16.7096 17.4847L15.4302 17.4927L15.3532 17.7534L16.4606 17.7465C16.5475 17.7351 16.5885 17.7395 16.6094 17.7418C16.6198 17.7429 16.6252 17.7435 16.6288 17.7413L16.7096 17.4847ZM16.1755 16.949C15.7474 17.0268 15.4994 17.2576 15.4994 17.2576L15.6817 16.6316L16.9718 16.6234L16.8815 16.9317C16.8815 16.9317 16.2723 16.9297 16.1755 16.949Z" fill="white"/>
<path d="M17.3332 18.3521L17.2635 18.6988C17.2327 18.8069 17.2065 18.8896 17.1259 18.9599C17.0418 19.0322 16.9409 19.1095 16.7068 19.1108L16.2746 19.1315L16.2736 19.5233C16.2684 19.6348 16.2981 19.6233 16.3154 19.6407C16.3362 19.6598 16.3537 19.6686 16.3732 19.6748L16.5097 19.6678L16.9229 19.6406L16.7568 20.2138L16.2814 20.2168C15.9491 20.2189 15.7023 20.2132 15.6208 20.149C15.5411 20.0987 15.5297 20.0339 15.5314 19.9251L15.5521 18.3979L16.3091 18.3931L16.3011 18.7048L16.4839 18.7038C16.5461 18.7034 16.5874 18.6966 16.614 18.6804C16.6361 18.6623 16.6531 18.6379 16.6653 18.5999L16.7373 18.3558L17.3332 18.3521Z" fill="white"/>
<path d="M6.47166 10.7646C6.44539 10.8879 5.97321 13.1499 5.97177 13.151C5.8699 13.6084 5.79615 13.9363 5.53915 14.1471C5.39257 14.2695 5.22138 14.3304 5.02309 14.3317C4.70439 14.3338 4.51631 14.1752 4.48221 13.8721L4.47634 13.7682C4.47634 13.7682 4.56925 13.1551 4.57018 13.1526C4.57018 13.1526 5.0679 11.0905 5.15741 10.8187C5.16081 10.8034 5.16277 10.796 5.16493 10.7881C4.17114 10.8034 3.99479 10.7954 3.98284 10.7803C3.97759 10.8007 3.95184 10.9291 3.95184 10.9291L3.44536 13.2508L3.40107 13.4489L3.32031 14.0925C3.32145 14.2825 3.35884 14.4386 3.43393 14.5701C3.67455 14.9872 4.35201 15.0448 4.73468 15.0424C5.22849 15.0393 5.69016 14.9299 6.00154 14.7366C6.54232 14.4098 6.6823 13.9026 6.80591 13.454L6.86328 13.2243C6.86328 13.2243 7.37573 11.0824 7.46401 10.8042C7.46617 10.7888 7.46854 10.7814 7.47174 10.7735C6.75245 10.7859 6.53995 10.7794 6.47166 10.7646" fill="white"/>
<path d="M9.4062 14.9902C9.05351 14.9871 8.9299 14.988 8.51829 15.0113L8.50181 14.981C8.53725 14.8233 8.57464 14.667 8.60884 14.5068L8.65787 14.2912C8.73182 13.9545 8.80465 13.5634 8.81279 13.4455C8.81897 13.3728 8.84214 13.1942 8.63881 13.1954C8.55342 13.196 8.46442 13.2384 8.3746 13.2808C8.32609 13.4601 8.22864 13.9611 8.18291 14.1914C8.08413 14.6739 8.07754 14.7284 8.03345 14.9668L8.00399 14.999C7.64038 14.9961 7.51523 14.9968 7.09703 15.0203L7.07715 14.9862C7.14565 14.6987 7.21373 14.4094 7.27811 14.1233C7.44889 13.3463 7.48804 13.0489 7.5348 12.6542L7.56714 12.63C7.97453 12.57 8.07342 12.5582 8.51366 12.4644L8.55115 12.5057L8.48575 12.7537C8.56032 12.7085 8.63088 12.6627 8.70752 12.6228C8.91445 12.5186 9.1457 12.4869 9.27312 12.486C9.46584 12.4848 9.677 12.538 9.76672 12.7618C9.85221 12.9615 9.79855 13.2094 9.69111 13.6971L9.63631 13.945C9.52651 14.4872 9.50828 14.5864 9.44751 14.9579L9.4062 14.9902Z" fill="white"/>
<path d="M10.837 14.9811C10.6249 14.9812 10.488 14.978 10.3549 14.9829C10.2221 14.985 10.0933 14.9924 9.89582 15.0026L9.88376 14.9859L9.87109 14.9685C9.92311 14.7625 9.95288 14.6897 9.97904 14.6173C10.0052 14.545 10.0308 14.4711 10.0762 14.2628C10.1365 13.9909 10.1739 13.8007 10.199 13.6342C10.2268 13.4731 10.2421 13.3363 10.2613 13.1771L10.2778 13.1647L10.2951 13.149C10.5054 13.1175 10.6397 13.0976 10.7759 13.0749C10.915 13.0537 11.0535 13.0264 11.2724 12.9829L11.2808 13.0022L11.2869 13.0212C11.247 13.1903 11.2073 13.3577 11.1683 13.529C11.1297 13.6996 11.0907 13.8673 11.0541 14.0361C10.9769 14.3944 10.9464 14.5275 10.9279 14.6227C10.911 14.7142 10.9062 14.7637 10.8754 14.9488L10.8562 14.9661L10.837 14.9811Z" fill="white"/>
<path fill-rule="evenodd" clip-rule="evenodd" d="M13.8969 12.7843C14.0194 12.9395 14.1154 13.1936 13.9954 13.7401C13.9592 13.9041 13.8525 14.3046 13.6136 14.5744C13.3067 14.9077 12.8947 15.0216 12.4923 15.0242C12.3347 15.0252 12.092 15.0065 11.9206 14.9355C11.3702 14.7153 11.4547 14.1124 11.5281 13.7782C11.6018 13.4509 11.7253 13.1078 11.9929 12.8547C12.3674 12.5025 12.8483 12.4789 13.0508 12.4776C13.3871 12.4755 13.7113 12.5498 13.8969 12.7843ZM12.8703 14.2874C12.9779 14.1409 13.0551 13.7983 13.0737 13.7068C13.1665 13.291 13.1506 13.0338 12.931 13.0353C12.6517 13.037 12.5436 13.3838 12.4537 13.7981C12.4224 13.9402 12.3972 14.0738 12.3999 14.2013C12.4048 14.462 12.5785 14.4609 12.6069 14.4607C12.7058 14.4601 12.7954 14.3947 12.8703 14.2874Z" fill="white"/>
<path d="M22.618 14.9436C22.1932 14.9425 22.0709 14.9434 21.6771 14.9623L21.6514 14.9309C21.7567 14.5229 21.8612 14.1167 21.9531 13.7051C22.0735 13.1702 22.0995 12.943 22.139 12.6309L22.1703 12.6039C22.5921 12.5403 22.7094 12.523 23.1487 12.438L23.1629 12.4743C23.085 12.8101 23.0059 13.1453 22.9313 13.4817C22.7734 14.187 22.7163 14.5448 22.6569 14.9133L22.618 14.9436Z" fill="white"/>
<path fill-rule="evenodd" clip-rule="evenodd" d="M22.5812 13.5103C22.7315 13.4569 22.8861 13.4018 22.8131 13.7328C22.7994 13.7941 22.7844 13.7789 22.7578 13.7517C22.7151 13.708 22.6422 13.6336 22.4959 13.7957C22.4146 13.8838 22.3258 14.0071 22.229 14.1416C21.9601 14.5153 21.6295 14.9747 21.2257 14.9999C21.0682 15.0069 20.9099 14.9862 20.7364 14.9138C20.189 14.7018 20.2728 14.1002 20.3468 13.7711C20.4193 13.4433 20.545 13.1041 20.8103 12.8522C21.1862 12.5026 21.6277 12.4044 21.8166 12.4771C22.1687 12.6102 22.2308 12.9392 22.2834 13.2175C22.3042 13.3276 22.3235 13.4298 22.3587 13.5088C22.3901 13.5784 22.4848 13.5447 22.5812 13.5103ZM21.9706 13.7025C21.971 13.7007 21.9713 13.699 21.9717 13.6974C22.0643 13.2822 21.9683 13.0316 21.749 13.033C21.4692 13.0349 21.3618 13.3807 21.2714 13.7853C21.2401 13.9294 21.2143 14.0625 21.2161 14.1894C21.2238 14.4462 21.3961 14.4456 21.4241 14.4455L21.4242 14.4455C21.5226 14.4449 21.6946 14.3791 21.7656 14.2758C21.8719 14.1345 21.9488 13.7978 21.9706 13.7025Z" fill="white"/>
<path d="M16.4091 14.9462C16.0556 14.9432 15.9354 14.9439 15.5209 14.9674L15.5057 14.937C15.5401 14.7794 15.5787 14.6231 15.6152 14.4629L15.6624 14.2473C15.7371 13.9105 15.8092 13.5193 15.8166 13.4014C15.8233 13.3288 15.8461 13.1501 15.6446 13.1514C15.5578 13.152 15.4695 13.1944 15.3791 13.2368C15.3313 13.4161 15.2337 13.9171 15.1857 14.1474C15.0887 14.6299 15.0821 14.6844 15.038 14.9229L15.0083 14.955C14.6455 14.9521 14.5198 14.9528 14.1028 14.9763L14.084 14.9423C14.1516 14.6546 14.2183 14.3655 14.2832 14.0794C14.4535 13.3023 14.4927 13.005 14.5388 12.6103L14.5713 12.586C14.9789 12.526 15.0777 12.5143 15.5178 12.4204L15.5536 12.4617L15.4906 12.7097C15.5626 12.6644 15.6371 12.6187 15.7114 12.5789C15.9169 12.4745 16.1503 12.4428 16.2752 12.4421C16.4686 12.4408 16.6806 12.4939 16.7725 12.7177C16.8564 12.9175 16.8026 13.1654 16.6937 13.6532L16.6405 13.901C16.5282 14.4433 16.5114 14.5424 16.4522 14.9139L16.4091 14.9462Z" fill="white"/>
<mask id="mask0" mask-type="alpha" maskUnits="userSpaceOnUse" x="16" y="10" width="5" height="5">
<path fill-rule="evenodd" clip-rule="evenodd" d="M20.9493 10.6792H16.9902V14.9538H20.9493V10.6792V10.6792Z" fill="white"/>
</mask>
<g mask="url(#mask0)">
<path fill-rule="evenodd" clip-rule="evenodd" d="M19.1437 10.6847L19.4366 10.6792C20.0332 10.6792 20.5473 10.6812 20.8083 11.0446C20.912 11.1809 20.9482 11.356 20.9492 11.5333C20.9502 11.6677 20.9308 11.8037 20.9045 11.9181C20.802 12.3801 20.5669 12.7623 20.224 13.0222C19.7199 13.4019 19.0709 13.4061 18.4979 13.4097L18.4374 13.4101C18.3954 13.4333 18.3543 13.4903 18.3543 13.4903C18.3468 13.5106 18.2184 14.0672 18.2184 14.0672C18.2175 14.0672 18.1512 14.4006 18.0991 14.662C18.0727 14.7946 18.05 14.9086 18.0414 14.9514C17.9277 14.9405 17.6545 14.9422 16.9902 14.9538C17.0205 14.8269 17.6564 12.1148 17.6564 12.1148C17.6564 12.1139 17.92 10.8383 17.92 10.8383C17.92 10.8383 17.9394 10.7382 17.9509 10.6824C18.0762 10.6967 18.3822 10.6985 19.1437 10.6847ZM19.3523 12.6405C19.586 12.5236 19.7658 12.284 19.8265 12.0021C19.8927 11.6924 19.7944 11.4541 19.5575 11.3648C19.5419 11.3633 18.944 11.3152 18.944 11.3152L18.8283 11.3033L18.8225 11.3541L18.8159 11.4188C18.8151 11.4221 18.5337 12.688 18.5337 12.688L18.522 12.7514L18.6797 12.7504C18.9232 12.7489 19.159 12.7395 19.3523 12.6405Z" fill="white"/>
</g>
<path d="M26.0839 12.4159L26.0499 12.3779C25.6161 12.4678 25.5373 12.4842 25.1378 12.5395L25.108 12.569C25.1062 12.5737 25.1056 12.582 25.1046 12.5879L25.1026 12.582C24.8083 13.2762 24.8176 13.1261 24.5779 13.672C24.5761 13.6468 24.5755 13.6302 24.5746 13.6047L24.5066 12.4258L24.4688 12.3879C24.0145 12.4779 24.0025 12.4939 23.5823 12.5492L23.5487 12.5789C23.5458 12.594 23.5452 12.6092 23.5431 12.6258L23.5461 12.6322C23.5999 12.903 23.5875 12.8424 23.6426 13.2684C23.6687 13.4771 23.702 13.6889 23.7274 13.8953C23.7716 14.2418 23.796 14.4125 23.8493 14.9401C23.5691 15.4148 23.5014 15.594 23.2334 16.0108L23.2482 16.0485C23.6597 16.0304 23.7544 16.0299 24.0587 16.028L24.1255 15.952C24.3523 15.4517 26.0839 12.4159 26.0839 12.4159" fill="white"/>
<path d="M11.2112 12.8028C11.4429 12.6374 11.4705 12.4114 11.2732 12.2958C11.073 12.1791 10.7261 12.218 10.4924 12.3831C10.2578 12.546 10.2329 12.773 10.4312 12.8899C10.6288 13.0037 10.9774 12.9676 11.2112 12.8028" fill="white"/>
<path d="M24.0946 15.9932L23.7555 16.5855C23.6484 16.7876 23.4489 16.9402 23.1293 16.9435L22.584 16.9374L22.7393 16.4055L22.8451 16.4047C22.9011 16.4044 22.9421 16.4002 22.9739 16.3845C23 16.3756 23.0201 16.3539 23.0428 16.3221L23.2415 15.9986L24.0946 15.9932Z" fill="white"/>
<path fill-rule="evenodd" clip-rule="evenodd" d="M36.9357 17.7483H35.5228L36.1345 15.1488H32.0508L33.0903 10.7268H34.4938L34.3475 11.3505C34.3475 11.3505 35.1522 10.7389 35.9179 10.7261H37.1772L37.5033 9.33838H38.916L38.5882 10.7217H42.677L41.8833 14.0941C41.8833 14.0941 41.8088 14.4697 41.4721 14.7867C41.4721 14.7867 41.1297 15.1488 40.626 15.1488H37.5451L36.9357 17.7483ZM33.6799 14.1794L34.2642 11.6938H36.9473L36.3632 14.1794H33.6799ZM38.3591 11.6945H41.0453L40.5127 13.9591C40.5127 13.9591 40.4333 14.1675 40.2098 14.1803H37.7752L38.3591 11.6945Z" fill="#2E2E2E"/>
<mask id="mask1" mask-type="alpha" maskUnits="userSpaceOnUse" x="42" y="9" width="13" height="9">
<path fill-rule="evenodd" clip-rule="evenodd" d="M54.0705 9.34668H42.4668V17.8188H54.0705V9.34668V9.34668Z" fill="white"/>
</mask>
<g mask="url(#mask1)">
<path fill-rule="evenodd" clip-rule="evenodd" d="M51.8828 17.4975C51.8828 17.4975 51.5531 17.8229 51.0879 17.8189H42.4668L44.4431 9.3495H45.8505L45.7042 9.97772C45.7042 9.97772 46.506 9.36691 47.2754 9.34762L54.0705 9.34668L52.3364 16.7594C52.3364 16.7594 52.2516 17.1796 51.8828 17.4975ZM52.4359 10.3252H45.6222L44.0973 16.8455H50.6598C50.9184 16.8283 50.9761 16.5803 50.9761 16.5803L52.4359 10.3252Z" fill="#2E2E2E"/>
</g>
<path d="M45.3903 15.2L45.1602 16.1837H50.5287L50.7584 15.1957H50.4856C50.4929 14.8259 50.4608 14.4833 50.4608 14.4833H49.4371C49.5017 14.8141 49.5064 15.1957 49.5064 15.1957H48.7804L49.0277 14.1307H51.0064L51.2357 13.1455H49.2572L49.5053 12.0824H51.483L51.7146 11.0986H46.3451L46.1142 12.0864H48.0901L47.8435 13.1472H45.8681L45.6391 14.1276H47.6123L47.3619 15.2H45.3903Z" fill="#2E2E2E"/>
<path d="M57.2423 10.9299H59.6262L59.8577 9.97297H57.9914C58.1279 9.77181 58.3135 9.33838 58.3135 9.33838H56.8182C56.4171 10.5642 55.7696 10.6124 55.7696 10.6124H55.3255L55.0908 11.5875H55.751C56.6091 11.5875 57.2423 10.9299 57.2423 10.9299" fill="#2E2E2E"/>
<path d="M55.1091 16.9612C55.1091 16.9612 54.9505 17.4665 55.3372 17.7094C55.3372 17.7094 55.4982 17.8328 55.858 17.846H58.0404L58.2733 16.8682H56.8673C56.8673 16.8682 56.5768 16.8706 56.6361 16.5528L56.9547 15.2172H58.6667L58.9006 14.2349H57.192L57.5181 12.8617H59.2267L59.4606 11.8809H55.2895L55.0556 12.8617H56.0836L55.7568 14.2344H54.729L54.4951 15.2182H55.5234L55.1091 16.9612Z" fill="#2E2E2E"/>
<path fill-rule="evenodd" clip-rule="evenodd" d="M59.4913 17.7481C59.4913 17.7481 59.0135 17.7654 58.7936 17.5063C58.7936 17.5063 58.5802 17.2977 58.7054 16.8357L60.492 9.33838H61.9165L61.7677 9.96577C61.7677 9.96577 62.6188 9.34071 63.3569 9.33838H65.9156L65.1136 12.7056C65.1136 12.7056 64.9971 13.2564 64.4997 13.5748C64.4997 13.5748 64.2432 13.7913 63.8158 13.7913H60.8549L60.217 16.4706C60.217 16.4706 60.1376 16.7591 60.4415 16.7813H61.372L61.1416 17.7481H59.4913ZM61.6847 10.3157H64.2592L64.0757 11.0858H62.8851C62.119 11.1315 61.3536 11.7038 61.3536 11.7038L61.6847 10.3157ZM61.27 12.0528H63.8446L63.6615 12.8224H61.088L61.27 12.0528Z" fill="#2E2E2E"/>
<path d="M63.7394 14.3275L63.6163 14.8399C63.5724 14.9892 63.3867 14.9892 63.3867 14.9892H62.8746L62.8603 14.3257H61.4473L61.4942 17.1055C61.4973 17.4086 61.578 17.5544 61.578 17.5544C61.723 17.8777 62.4022 17.8452 62.4022 17.8452H63.9748L64.2044 16.8913H63.1701C62.9173 16.8913 62.9068 16.6942 62.9068 16.6942L62.8901 15.7288H63.5531C64.1045 15.7288 64.3311 15.5389 64.3311 15.5389C64.5822 15.3823 64.6504 15.0486 64.6504 15.0486L64.8238 14.3275H63.7394Z" fill="#2E2E2E"/>
<path fill-rule="evenodd" clip-rule="evenodd" d="M68.8195 17.3274H65.5186L65.7485 16.3626H66.2611L67.9341 9.33861H69.3559L69.2077 9.96176C69.2077 9.96176 69.9764 9.3942 70.758 9.33838H72.5696L72.337 10.3105H71.9165L70.4717 16.3647H70.8889L70.658 17.33H70.2425L70.142 17.7483H68.7184L68.8195 17.3274ZM69.1245 10.3088H70.4935L70.1646 11.6885C70.1646 11.6885 69.5292 11.6971 68.649 12.3035L69.1245 10.3088ZM69.9351 12.6548H68.5654L68.0897 14.6485C68.9701 14.0419 69.6055 14.0337 69.6055 14.0337L69.9351 12.6548ZM69.3769 14.9876H68.0086L67.6811 16.3593H69.0494L69.3769 14.9876Z" fill="#2E2E2E"/>
<path d="M71.9017 12.6456L73.694 12.6451L73.4754 13.5659H71.6829L71.4537 14.5261H73.0942L71.859 16.4972C71.6473 16.7929 71.4388 16.7815 71.4388 16.7815H70.9135L70.6826 17.7478H71.7194C72.2745 17.756 72.5719 17.4818 72.5719 17.4818C72.8292 17.2867 73.0406 16.9005 73.0406 16.9005L73.7668 15.7309L73.9741 16.8851C74.0243 17.2552 74.1564 17.4243 74.1564 17.4243C74.3683 17.7431 74.9273 17.7485 74.9273 17.7485H75.6859L75.9179 16.7772H75.566C75.3847 16.7567 75.3191 16.4041 75.3191 16.4041L75.0695 15.0225H74.2117L74.5184 14.5276H76.456L76.6859 13.5675H74.8953L75.1159 12.6456H76.9067L77.1378 11.6855H72.1316L71.9017 12.6456Z" fill="#2E2E2E"/>
<path d="M76.8314 10.6501C76.8314 10.6501 77.3091 10.1711 77.5349 9.33838H76.0401C76.0401 9.33838 75.9277 9.68962 75.7833 9.89979C75.7833 9.89979 75.5912 10.2062 75.0768 10.2147L74.8535 11.196H75.6814C75.6814 11.196 76.2982 11.2307 76.8314 10.6501" fill="#2E2E2E"/>
<path d="M73.6654 11.196H74.5225L74.7542 10.2147C74.2249 10.2062 74.17 9.89979 74.17 9.89979C74.1207 9.68938 74.17 9.33838 74.17 9.33838H72.6201C72.4598 10.1708 72.7305 10.6502 72.7305 10.6502C73.0101 11.2304 73.6654 11.196 73.6654 11.196" fill="#2E2E2E"/>
<path d="M32.7764 23.2672C32.0397 23.2672 31.4377 22.5693 31.6584 21.614C31.8867 20.6259 32.8065 19.9549 33.5424 19.9549C34.251 19.9549 34.5655 20.1487 34.7003 20.2176L35.1298 19.5538C34.9577 19.4368 34.5669 19.2153 33.6103 19.2153C32.2469 19.2153 30.9585 20.2035 30.6322 21.614C30.3059 23.0255 31.1396 24.007 32.502 24.007C33.3699 24.007 33.8557 23.8412 34.2202 23.6686L34.0823 23.0122C33.8179 23.1085 33.4515 23.2672 32.7764 23.2672" fill="#2E2E2E"/>
<path d="M37.2628 20.7964C36.7412 20.7964 36.2908 21.0808 36.1499 21.1632L36.6367 19.0195L35.7217 19.1168L34.6328 23.909H35.525L36.0237 21.7169C36.1564 21.6404 36.4105 21.4752 36.6747 21.4752C37.0195 21.4752 37.1112 21.6404 37.0414 21.945L36.5961 23.909H37.4816L37.9772 21.7308C38.1058 21.1632 37.8447 20.7964 37.2628 20.7964" fill="#2E2E2E"/>
<path d="M39.1125 19.756C39.0603 19.9839 39.2193 20.1931 39.4451 20.1931C39.6793 20.1931 39.934 19.9839 39.9857 19.756C40.0397 19.5281 39.8811 19.313 39.6489 19.313C39.4219 19.313 39.1658 19.5281 39.1125 19.756" fill="#2E2E2E"/>
<path d="M38.9044 20.7798L38.208 23.7135H39.1013L39.797 20.7798H38.9044Z" fill="#2E2E2E"/>
<path d="M42.3258 20.6821C41.7836 20.6821 41.3398 20.9591 41.1986 21.0394L41.2323 20.7497H40.3919L39.6982 23.7136H40.5873L41.085 21.5786C41.2182 21.5041 41.4534 21.3433 41.7382 21.3433C42.0769 21.3433 42.1748 21.5041 42.1049 21.8008L41.6588 23.7136H42.5476L43.0428 21.5921C43.1713 21.0394 42.9086 20.6821 42.3258 20.6821" fill="#2E2E2E"/>
<path fill-rule="evenodd" clip-rule="evenodd" d="M43.8972 20.9886C44.1216 20.8934 44.622 20.6821 45.2616 20.6821C45.9696 20.6821 46.3605 21.0303 46.2263 21.6146L45.8454 23.2752C45.8064 23.4384 45.8175 23.6552 45.8375 23.7441H44.9146C44.9002 23.6628 44.8995 23.5476 44.916 23.4785C44.9132 23.4804 44.9102 23.4823 44.9073 23.4842C44.7302 23.6016 44.4134 23.8114 43.9762 23.8114C43.3824 23.8114 43.0833 23.4452 43.198 22.9483C43.3257 22.3905 43.8845 21.9548 44.6469 21.9211L45.2781 21.9005L45.3131 21.7506C45.3737 21.4859 45.3247 21.261 44.8668 21.261C44.472 21.261 44.1807 21.3702 43.9961 21.4393C43.9911 21.4412 43.9862 21.4431 43.9813 21.4449L43.8972 20.9886ZM44.9744 23.0073C44.9946 22.9958 45.0134 22.9849 45.0307 22.9753L45.1745 22.3497L44.743 22.3842C44.4734 22.4107 44.0995 22.5131 44.0217 22.8533C43.9455 23.179 44.2337 23.2208 44.3958 23.2208C44.6028 23.2208 44.8246 23.0934 44.9744 23.0073Z" fill="#2E2E2E"/>
<path d="M51.6337 19.313L50.971 22.2126C50.8528 22.7308 50.4358 23.2828 49.7361 23.2828C49.0296 23.2828 48.8256 22.8957 48.9821 22.2126L49.6439 19.313H48.6793L47.9911 22.3301C47.7671 23.3107 48.2871 24.0069 49.5227 24.0069C50.7515 24.0069 51.604 23.2755 51.8198 22.3301L52.5087 19.313H51.6337Z" fill="#2E2E2E"/>
<path d="M54.7402 20.6821C54.1968 20.6821 53.7537 20.9591 53.6125 21.0394L53.6459 20.7497H52.806L52.1123 23.7136H53.0016L53.5006 21.5786C53.6329 21.5041 53.867 21.3433 54.1512 21.3433C54.4906 21.3433 54.5892 21.5041 54.5189 21.8008L54.0725 23.7136H54.9608L55.4563 21.5921C55.586 21.0394 55.3238 20.6821 54.7402 20.6821" fill="#2E2E2E"/>
<path d="M56.6901 19.756C56.6367 19.9839 56.7954 20.1931 57.0219 20.1931C57.2557 20.1931 57.511 19.9839 57.5632 19.756C57.6161 19.5281 57.4581 19.313 57.2256 19.313C56.9993 19.313 56.7423 19.5281 56.6901 19.756" fill="#2E2E2E"/>
<path d="M55.6875 23.7135H56.58L57.2765 20.7798H56.384L55.6875 23.7135Z" fill="#2E2E2E"/>
<path fill-rule="evenodd" clip-rule="evenodd" d="M57.4192 22.2475C57.645 21.2885 58.605 20.6821 59.532 20.6821C60.459 20.6821 61.1328 21.2885 60.9059 22.2475C60.6801 23.2074 59.7209 23.8114 58.7927 23.8114C57.8656 23.8114 57.1926 23.2074 57.4192 22.2475ZM58.9329 23.2205C59.3898 23.2205 59.8096 22.7577 59.9312 22.2475C60.0528 21.7305 59.8492 21.2737 59.3922 21.2737C58.8458 21.2737 58.5026 21.7305 58.3815 22.2475C58.2608 22.7577 58.3874 23.2205 58.9329 23.2205Z" fill="#2E2E2E"/>
<path d="M63.578 20.6821C63.0355 20.6821 62.5902 20.9591 62.4499 21.0394L62.4826 20.7497H61.6424L60.9502 23.7136H61.8379L62.3372 21.5786C62.4698 21.5041 62.7043 21.3433 62.9892 21.3433C63.3289 21.3433 63.4269 21.5041 63.3575 21.8008L62.9101 23.7136H63.7983L64.2945 21.5921C64.4236 21.0394 64.161 20.6821 63.578 20.6821" fill="#2E2E2E"/>
<path fill-rule="evenodd" clip-rule="evenodd" d="M71.2525 21.6146L70.871 23.2752C70.8341 23.4384 70.8445 23.6552 70.8642 23.7441H69.9419C69.9268 23.6628 69.9256 23.5476 69.9419 23.4785C69.9395 23.48 69.9371 23.4816 69.9347 23.4833C69.7583 23.6004 69.4405 23.8114 69.0021 23.8114C68.4091 23.8114 68.1109 23.4452 68.2237 22.9483C68.3524 22.3905 68.9109 21.9548 69.6735 21.9211L70.3044 21.9005L70.339 21.7506C70.4003 21.4859 70.3506 21.261 69.8922 21.261C69.4998 21.261 69.2097 21.3694 69.0243 21.4386C69.0186 21.4407 69.013 21.4428 69.0075 21.4449L68.9241 20.9886C69.148 20.8934 69.6472 20.6821 70.2881 20.6821C70.9954 20.6821 71.3872 21.0303 71.2525 21.6146ZM69.9975 23.0092C70.0189 22.9969 70.0389 22.9855 70.0573 22.9753L70.201 22.3497L69.7696 22.3842C69.5 22.4107 69.1261 22.5131 69.0476 22.8533C68.9724 23.179 69.2596 23.2208 69.4217 23.2208C69.6282 23.2208 69.8473 23.0952 69.9975 23.0092Z" fill="#2E2E2E"/>
<path d="M72.8633 22.8302L72.5674 20.7798H71.6393L72.1888 23.8719L71.9843 24.197C71.7106 24.5757 71.5676 24.8386 71.2243 24.8386C71.0039 24.8386 70.8675 24.776 70.7292 24.7211L70.3848 25.2601C70.524 25.3424 70.6937 25.4737 71.2421 25.4737C71.8062 25.4737 72.1491 25.0872 72.4571 24.59L74.8537 20.7798H74.0779L72.8633 22.8302Z" fill="#2E2E2E"/>
<path fill-rule="evenodd" clip-rule="evenodd" d="M67.3441 19.313C68.4582 19.313 68.9289 19.9053 68.7633 20.6359C68.5756 21.4626 67.6598 22.0008 66.7125 22.0008H66.2324L65.7982 23.9091H64.8232L65.8676 19.313H67.3441ZM66.7291 21.3446C67.1467 21.3446 67.6271 21.1318 67.7398 20.6359C67.8476 20.1604 67.4627 19.954 67.045 19.954H66.6973L66.3802 21.3446H66.7291Z" fill="#2E2E2E"/>
</g>
<defs>
<clipPath id="clip0">
<rect width="77.6667" height="32" fill="white" transform="translate(0.166992)"/>
</clipPath>
</defs>
</svg>
