<svg width="50" height="30" viewBox="0 0 50 30" fill="none" xmlns="http://www.w3.org/2000/svg">
<path fill-rule="evenodd" clip-rule="evenodd" d="M0 2.00036C0 0.895591 0.894407 0 1.99866 0H48.0013C49.1052 0 50 0.89784 50 2.00036V27.9996C50 29.1044 49.1056 30 48.0013 30H1.99866C0.894831 30 0 29.1022 0 27.9996V2.00036Z" fill="#404040"/>
<path fill-rule="evenodd" clip-rule="evenodd" d="M29.3173 24.52H28.4985V25.5658C28.4985 25.8073 28.5806 25.9522 28.8318 25.9522C28.9886 25.947 29.1415 25.9021 29.2762 25.8218L29.4211 26.2517C29.2328 26.3692 29.0151 26.4312 28.7931 26.4304C28.199 26.4304 27.9913 26.1116 27.9913 25.5754V24.5248H27.5227V24.0659H27.9913V23.3655H28.4985V24.0659H29.3173V24.52ZM19.2336 24.9185V26.3676L18.7288 26.3604V25.0779C18.7288 24.6866 18.5645 24.4692 18.2216 24.4692C18.0607 24.4614 17.9047 24.5254 17.7956 24.6438C17.6864 24.7623 17.6355 24.923 17.6564 25.0827V26.3604H17.1492V25.0779C17.1492 24.6866 16.9801 24.4692 16.6468 24.4692C16.4855 24.4597 16.3283 24.5231 16.2188 24.642C16.1092 24.7609 16.0589 24.9227 16.0817 25.0827V26.3676H15.5745V24.0611H16.0768V24.3461C16.2255 24.1199 16.4828 23.9894 16.7531 24.0031C17.0635 23.9897 17.3564 24.1473 17.5163 24.4137C17.6918 24.1391 18.0027 23.9818 18.3279 24.0031C18.5739 23.9886 18.8143 24.0807 18.9877 24.256C19.1611 24.4312 19.2507 24.6726 19.2336 24.9185ZM22.0594 24.0635V25.2155L22.0546 26.3628H21.5522V26.0826C21.3794 26.3056 21.1096 26.4316 20.8277 26.4208C20.1607 26.4208 19.62 25.8801 19.62 25.2131C19.62 24.5462 20.1607 24.0055 20.8277 24.0055C21.1096 23.9947 21.3794 24.1206 21.5522 24.3436V24.0635H22.0594ZM20.1924 25.2156C20.2148 24.8365 20.536 24.5449 20.9154 24.5591C21.2948 24.5734 21.5933 24.8883 21.5872 25.2679C21.581 25.6476 21.2725 25.9527 20.8929 25.9546C20.6985 25.9592 20.5112 25.8816 20.3769 25.7409C20.2427 25.6003 20.174 25.4095 20.1876 25.2156H20.1924ZM33.2759 24.0997C33.1222 24.0386 32.9582 24.0075 32.7928 24.0079L32.788 24.0031C32.6181 24.0034 32.4498 24.037 32.2929 24.1021C32.1468 24.1608 32.0139 24.2478 31.9016 24.3581C31.7909 24.4678 31.7031 24.5983 31.6432 24.7422C31.5172 25.0519 31.5172 25.3985 31.6432 25.7083C31.7031 25.8521 31.7909 25.9826 31.9016 26.0923C32.0139 26.2026 32.1468 26.2896 32.2929 26.3483C32.6114 26.4721 32.9646 26.4721 33.2831 26.3483C33.4298 26.2895 33.5636 26.2026 33.6768 26.0923C33.7886 25.983 33.8773 25.8524 33.9377 25.7083C34.0638 25.3986 34.0638 25.0518 33.9377 24.7422C33.8773 24.598 33.7886 24.4674 33.6768 24.3581C33.5617 24.2462 33.4254 24.1583 33.2759 24.0997ZM32.7928 24.491C32.6944 24.4896 32.5968 24.5077 32.5054 24.5441C32.4193 24.5786 32.3412 24.6304 32.2759 24.6963C32.2093 24.7656 32.1576 24.8478 32.1238 24.9378C32.05 25.1306 32.05 25.3439 32.1238 25.5368C32.1575 25.6268 32.2093 25.709 32.2759 25.7783C32.3412 25.8442 32.4193 25.896 32.5054 25.9305C32.6894 26.0025 32.8938 26.0025 33.0778 25.9305C33.168 25.8971 33.2503 25.8453 33.3193 25.7783C33.3862 25.7091 33.438 25.6269 33.4715 25.5368C33.5453 25.3439 33.5453 25.1306 33.4715 24.9378C33.4379 24.8477 33.3861 24.7655 33.3193 24.6963C33.2503 24.6293 33.168 24.5775 33.0778 24.5441C32.9867 24.5024 32.8881 24.4794 32.788 24.4765L32.7928 24.491ZM23.6945 24.0079C24.3394 24.0079 24.7887 24.491 24.7887 25.2156C24.7887 25.2832 24.7887 25.346 24.7814 25.404H23.069C23.1083 25.7483 23.4145 25.9988 23.7598 25.9691C24.0042 25.9655 24.2405 25.8806 24.4312 25.7276L24.6727 26.0996C24.4084 26.3197 24.0722 26.4349 23.7284 26.4232C23.0614 26.4325 22.5132 25.8994 22.5038 25.2325C22.4945 24.5655 23.0276 24.0173 23.6945 24.0079ZM23.0714 25.0127C23.0896 24.6902 23.3621 24.4413 23.6849 24.4523C23.8367 24.4491 23.9836 24.5063 24.0932 24.6114C24.2028 24.7165 24.2662 24.8608 24.2694 25.0127H23.0714ZM26.1774 24.4523C26.4319 24.4552 26.6814 24.5234 26.902 24.6504L27.1266 24.2446C26.843 24.0759 26.5169 23.9921 26.1871 24.0031C25.5978 24.0031 25.221 24.2833 25.221 24.7422C25.221 25.119 25.5012 25.3508 26.018 25.4233L26.2595 25.4571C26.5349 25.4957 26.6653 25.5682 26.6653 25.6986C26.6653 25.8773 26.4817 25.9788 26.1388 25.9788C25.8629 25.9868 25.5924 25.9017 25.3707 25.7373L25.1292 26.1285C25.4211 26.3325 25.7707 26.4375 26.1267 26.428C26.7909 26.428 27.1773 26.0802 27.1773 25.6745C27.1773 25.2687 26.873 25.0562 26.3706 24.9837L26.1291 24.9499C25.9117 24.9209 25.7378 24.8919 25.7378 24.7229C25.7378 24.5538 25.9021 24.4523 26.1774 24.4523ZM31.4113 24.0659C31.2966 24.0247 31.1757 24.0035 31.0538 24.0031L31.0635 24.0127C30.814 24.0054 30.5804 24.1352 30.4548 24.3509V24.0707H29.9573V26.3773H30.4597V25.0851C30.4597 24.7035 30.6142 24.491 30.9427 24.491C31.0502 24.4894 31.1569 24.5091 31.2567 24.5489L31.4113 24.0659ZM34.527 26.0295C34.5584 26.0291 34.5895 26.0349 34.6187 26.0464C34.6465 26.0577 34.6719 26.0741 34.6936 26.0947C34.7148 26.1156 34.732 26.1401 34.7443 26.1672C34.7691 26.2242 34.7691 26.2889 34.7443 26.3459C34.732 26.373 34.7148 26.3976 34.6936 26.4184C34.6719 26.439 34.6465 26.4554 34.6187 26.4667C34.5898 26.4794 34.5586 26.486 34.527 26.486C34.4335 26.4853 34.3488 26.4307 34.3096 26.3459C34.2852 26.2888 34.2852 26.2243 34.3096 26.1672C34.3219 26.1401 34.3391 26.1156 34.3603 26.0947C34.3821 26.0741 34.4074 26.0577 34.4352 26.0464C34.4608 26.0371 34.4877 26.0322 34.5149 26.0319L34.527 26.0295ZM34.597 26.4232C34.5749 26.4329 34.5511 26.4378 34.527 26.4377V26.428C34.4789 26.4282 34.4327 26.4091 34.399 26.3749C34.3363 26.3065 34.3363 26.2017 34.399 26.1333C34.4155 26.1167 34.4352 26.1036 34.4569 26.0947C34.4791 26.0853 34.5029 26.0803 34.527 26.0802C34.5511 26.0801 34.5749 26.0851 34.597 26.0947C34.6511 26.1182 34.6902 26.167 34.7013 26.2249C34.7124 26.2829 34.6942 26.3426 34.6526 26.3845C34.6366 26.4008 34.6178 26.4139 34.597 26.4232ZM34.5414 26.1503C34.564 26.1492 34.5862 26.156 34.6042 26.1696C34.6192 26.182 34.6273 26.2009 34.626 26.2203C34.6267 26.2365 34.6205 26.2523 34.6091 26.2638C34.5951 26.2765 34.5772 26.2842 34.5583 26.2855L34.6284 26.3652H34.5728L34.5076 26.2855H34.4859V26.3652H34.44V26.1527L34.5414 26.1503ZM34.4883 26.2493V26.1913L34.5415 26.2058C34.5509 26.203 34.561 26.203 34.5704 26.2058C34.5739 26.2126 34.5739 26.2207 34.5704 26.2275C34.5739 26.2344 34.5739 26.2424 34.5704 26.2493C34.561 26.2521 34.5509 26.2521 34.5415 26.2493H34.4883Z" fill="white"/>
<path d="M20.9846 6.46606H28.5927V20.1388H20.9846V6.46606Z" fill="#808080"/>
<path fill-rule="evenodd" clip-rule="evenodd" d="M33.9623 21.1218C36.9566 19.667 38.8575 16.6302 38.8576 13.3012V13.2988C38.8575 9.96975 36.9566 6.93299 33.9623 5.47822C30.9679 4.02345 27.4058 4.40609 24.7887 6.46362C26.8862 8.11207 28.1109 10.6322 28.1109 13.3C28.1109 15.9678 26.8862 18.4879 24.7887 20.1364C27.4058 22.1939 30.9679 22.5765 33.9623 21.1218ZM38.0267 18.6896V18.4095H38.1402V18.3515H37.8528V18.4095H37.9663V18.6896H38.0267ZM38.5846 18.6896V18.3515H38.4977L38.3962 18.593L38.2948 18.3515H38.2079V18.6896H38.2706V18.436L38.3648 18.6558H38.4301L38.5242 18.436V18.692L38.5846 18.6896Z" fill="#E6E6E6"/>
<path d="M21.4677 13.3013C21.4656 10.6336 22.6902 8.11315 24.7886 6.4661C21.2237 3.66441 16.1042 4.0725 13.0281 7.40357C9.95204 10.7346 9.95204 15.8703 13.0281 19.2014C16.1042 22.5324 21.2237 22.9405 24.7886 20.1389C22.6895 18.4913 21.4648 15.9698 21.4677 13.3013Z" fill="#BFBFBF"/>
</svg>
