<svg width="38" height="32" viewBox="0 0 38 32" fill="none" xmlns="http://www.w3.org/2000/svg">
<g clip-path="url(#clip0)">
<path fill-rule="evenodd" clip-rule="evenodd" d="M0.666992 6.46693C0.666992 5.65677 1.32289 5 2.13268 5H35.868C36.6775 5 37.3337 5.65842 37.3337 6.46693V25.5331C37.3337 26.3432 36.6778 27 35.868 27H2.13268C1.3232 27 0.666992 26.3416 0.666992 25.5331V6.46693Z" fill="#270899"/>
<path fill-rule="evenodd" clip-rule="evenodd" d="M3.9668 20.7667H14.2335C14.2078 20.7138 14.1778 20.6437 14.1439 20.5645C14.0026 20.2342 13.7934 19.7457 13.5499 19.6847V15.1873C13.8375 15.1873 14.0706 14.9548 14.0706 14.6679V14.4361C14.0706 14.2575 13.9785 14.0914 13.8268 13.9963L9.68855 11.4025C9.32883 11.177 8.8716 11.177 8.51188 11.4025L4.37329 13.9961C4.2216 14.0911 4.12953 14.2572 4.12953 14.4359V14.6678C4.12953 14.9546 4.36259 15.1871 4.65017 15.1871V19.6845C4.4072 19.7456 4.19833 20.2332 4.0569 20.5634L4.0569 20.5635C4.02279 20.6431 3.9926 20.7136 3.9668 20.7667ZM10.9655 15.1873H12.5095V19.6524H10.9655V15.1873ZM9.80663 13.4203C9.80663 13.031 9.4904 12.7156 9.10021 12.7156C8.71002 12.7156 8.39378 13.031 8.39378 13.4203C8.39378 13.8095 8.71002 14.1249 9.10021 14.1249C9.4904 14.1249 9.80663 13.8095 9.80663 13.4203ZM8.27602 15.1873H9.9244V19.6524H8.27602V15.1873ZM7.23491 15.1873H5.69095V19.6524H7.23491V15.1873Z" fill="white"/>
<path fill-rule="evenodd" clip-rule="evenodd" d="M23.0332 20.7667H33.2999C33.2742 20.7138 33.2442 20.6437 33.2103 20.5645C33.069 20.2342 32.8598 19.7457 32.6163 19.6847V15.1873C32.9039 15.1873 33.137 14.9548 33.137 14.6679V14.4361C33.137 14.2575 33.0449 14.0914 32.8932 13.9963L28.755 11.4025C28.3952 11.177 27.938 11.177 27.5783 11.4025L23.4397 13.9961C23.288 14.0911 23.1959 14.2572 23.1959 14.4359V14.6678C23.1959 14.9546 23.429 15.1871 23.7166 15.1871V19.6845C23.4736 19.7456 23.2647 20.2332 23.1233 20.5634L23.1233 20.5635L23.1233 20.5635L23.1233 20.5636C23.0892 20.6432 23.059 20.7136 23.0332 20.7667ZM30.0319 15.1873H31.5759V19.6524H30.0319V15.1873ZM28.873 13.4203C28.873 13.031 28.5568 12.7156 28.1666 12.7156C27.7764 12.7156 27.4602 13.031 27.4602 13.4203C27.4602 13.8095 27.7764 14.1249 28.1666 14.1249C28.5568 14.1249 28.873 13.8095 28.873 13.4203ZM27.3424 15.1873H28.9908V19.6524H27.3424V15.1873ZM26.3013 15.1873H24.7573V19.6524H26.3013V15.1873Z" fill="white"/>
<path fill-rule="evenodd" clip-rule="evenodd" d="M21.4855 18.6584C21.3708 18.6584 21.256 18.6135 21.1687 18.5241L20.8518 18.2001L21.1687 17.8761C21.2536 17.7892 21.364 17.7444 21.4751 17.7418H21.4855C21.7328 17.7418 21.9336 17.9471 21.9336 18.2001C21.9336 18.3215 21.8874 18.4319 21.812 18.514L21.8023 18.5241C21.7969 18.5296 21.7914 18.535 21.7858 18.5402C21.7561 18.5676 21.7229 18.591 21.6868 18.6096C21.6237 18.6421 21.5546 18.6584 21.4855 18.6584ZM20.4037 18.6584L20.8518 18.2001L20.4037 17.7418H21.4751C21.5931 17.739 21.7121 17.7838 21.8023 17.8761C21.8458 17.9205 21.8785 17.9718 21.9004 18.0265C21.8785 17.9718 21.8458 17.9205 21.8023 17.8761L20.4579 16.5011C20.2827 16.3219 19.9995 16.3219 19.8242 16.5011C19.649 16.6803 19.649 16.97 19.8242 17.1492L20.4037 17.7418H18.3485C18.1012 17.7418 17.9004 17.9471 17.9004 18.2001C17.9004 18.4531 18.1012 18.6584 18.3485 18.6584H20.4037ZM21.8018 18.5247C21.7966 18.53 21.7912 18.5352 21.7858 18.5402C21.7554 18.5684 21.722 18.5915 21.6868 18.6096C21.6263 18.6408 21.5579 18.6584 21.4855 18.6584H20.4037L19.8242 19.251C19.649 19.4302 19.649 19.7199 19.8242 19.8991C19.9116 19.9885 20.0264 20.0334 20.1411 20.0334C20.2558 20.0334 20.3705 19.9885 20.4579 19.8991L21.8018 18.5247ZM21.8018 18.5247C21.8025 18.5239 21.8033 18.5232 21.804 18.5224C21.8494 18.4755 21.8829 18.4211 21.9045 18.3631C21.8842 18.4176 21.8533 18.469 21.812 18.514C21.8093 18.5168 21.8067 18.5196 21.804 18.5224C21.8034 18.523 21.8029 18.5235 21.8023 18.5241" fill="white"/>
<path fill-rule="evenodd" clip-rule="evenodd" d="M16.1483 14.9919C16.263 14.9919 16.3778 14.947 16.4651 14.8576L16.782 14.5336L16.4651 14.2096C16.3802 14.1227 16.2698 14.0779 16.1587 14.0753H16.1483C15.9009 14.0753 15.7002 14.2806 15.7002 14.5336C15.7002 14.655 15.7464 14.7654 15.8218 14.8475L15.8218 14.8475L15.8315 14.8576C15.8361 14.8623 15.8407 14.8669 15.8455 14.8714C15.8765 14.9004 15.9114 14.9251 15.9494 14.9444C16.0119 14.976 16.0801 14.9919 16.1483 14.9919ZM17.2301 14.9919L16.782 14.5336L17.2301 14.0753H16.1587C16.0406 14.0725 15.9217 14.1173 15.8315 14.2096C15.7881 14.254 15.7554 14.3051 15.7335 14.3597C15.7554 14.3051 15.7881 14.2539 15.8315 14.2096L17.1759 12.8346C17.3511 12.6554 17.6343 12.6554 17.8095 12.8346C17.9848 13.0138 17.9848 13.3035 17.8095 13.4827L17.2301 14.0753H19.2853C19.5326 14.0753 19.7334 14.2806 19.7334 14.5336C19.7334 14.7866 19.5326 14.9919 19.2853 14.9919H17.2301ZM17.2301 14.9919L17.8095 15.5845C17.9848 15.7637 17.9848 16.0534 17.8095 16.2326C17.7222 16.322 17.6074 16.3669 17.4927 16.3669C17.378 16.3669 17.2633 16.322 17.1759 16.2326L15.8321 14.8582C15.8365 14.8627 15.8409 14.8671 15.8455 14.8714C15.8773 14.9012 15.9124 14.9256 15.9494 14.9444C16.0094 14.9748 16.0769 14.9919 16.1483 14.9919H17.2301ZM15.8321 14.8582C15.8286 14.8547 15.8252 14.8511 15.8218 14.8475C15.7805 14.8025 15.7496 14.7511 15.7293 14.6966" fill="white"/>
</g>
<defs>
<clipPath id="clip0">
<rect width="36.6667" height="32" fill="white" transform="translate(0.666992)"/>
</clipPath>
</defs>
</svg>
