<svg width="50" height="30" viewBox="0 0 50 30" fill="none" xmlns="http://www.w3.org/2000/svg">
<path fill-rule="evenodd" clip-rule="evenodd" d="M0 2.00036C0 0.895591 0.894407 0 1.99866 0H48.0013C49.1052 0 50 0.89784 50 2.00036V27.9996C50 29.1044 49.1056 30 48.0013 30H1.99866C0.894831 30 0 29.1022 0 27.9996V2.00036Z" fill="#0069AA"/>
<path fill-rule="evenodd" clip-rule="evenodd" d="M32.582 21.7562H32.4549V21.9307C32.7036 21.9237 32.9449 21.9174 33.1863 21.9174C33.309 21.9174 33.4299 21.9209 33.549 21.9242L33.5491 21.9242H33.5491H33.5491H33.5492H33.5492H33.5492H33.5492L33.5493 21.9242L33.5494 21.9242L33.5495 21.9242C33.6649 21.9275 33.7785 21.9307 33.8903 21.9307V21.7562H33.7767C33.5891 21.7562 33.4413 21.7562 33.4413 21.5342V16.8984C33.4413 16.8445 33.428 16.8037 33.387 16.8037C33.3723 16.8037 33.3384 16.8227 33.292 16.8488L33.292 16.8489C33.2761 16.8578 33.2588 16.8676 33.2402 16.8777C33.099 16.9588 32.8169 17.0793 32.5486 17.1664V17.2739L32.5745 17.2813C32.8107 17.3492 32.9044 17.3762 32.9044 17.7977V21.5342C32.9044 21.7562 32.7705 21.7562 32.582 21.7562ZM32.2127 18.4612H32.0453C31.9176 17.6769 31.3606 17.3611 30.6096 17.3611C29.8371 17.3611 28.7169 17.8774 28.7169 19.4878C28.7169 20.8437 29.6835 21.8168 30.7166 21.8168C31.3803 21.8168 31.9317 21.3603 32.0656 20.6554L32.22 20.6954L32.0656 21.6755C31.7838 21.8501 31.0254 22.0316 30.582 22.0316C29.0125 22.0316 28.0195 21.0181 28.0195 19.5085C28.0195 18.1326 29.2475 17.1459 30.5626 17.1459C31.1059 17.1459 31.6292 17.3209 32.1459 17.5022L32.2127 18.4612ZM14.7467 17.8309C14.5719 17.8309 14.4179 17.6699 14.4179 17.4954C14.4179 17.3274 14.5792 17.1727 14.7467 17.1727C14.9209 17.1727 15.0756 17.3141 15.0756 17.4954C15.0756 17.6769 14.9276 17.8309 14.7467 17.8309ZM9.21753 17.4224C9.49933 17.4254 9.77395 17.4284 9.77395 17.9916V21.2462C9.75474 21.6959 9.56482 21.7151 9.17414 21.7545L9.15714 21.7562V21.9307C9.45871 21.9237 9.75447 21.9175 10.0562 21.9175C10.2106 21.9175 10.3651 21.9206 10.5228 21.9239L10.5228 21.9239C10.6871 21.9273 10.8547 21.9307 11.0291 21.9307C13.4046 21.9307 13.7938 20.2604 13.7938 19.5955C13.7938 18.4073 12.8474 17.2471 11.1098 17.2471C10.8264 17.2471 10.5802 17.2512 10.3687 17.2548H10.3687H10.3687C10.2095 17.2575 10.0699 17.2598 9.94892 17.2598C9.68674 17.2598 9.41863 17.2598 9.15714 17.2471V17.4215C9.17711 17.4219 9.19714 17.4221 9.21714 17.4224H9.21715L9.21715 17.4224L9.21716 17.4224L9.21717 17.4224L9.21718 17.4224L9.21719 17.4224L9.2172 17.4224L9.21721 17.4224L9.21722 17.4224L9.21722 17.4224L9.21723 17.4224L9.21724 17.4224L9.21725 17.4224L9.21726 17.4224L9.21727 17.4224L9.21728 17.4224L9.21729 17.4224L9.2173 17.4224L9.21731 17.4224L9.21732 17.4224L9.21733 17.4224L9.21734 17.4224L9.21735 17.4224L9.21736 17.4224L9.21737 17.4224L9.21738 17.4224L9.21739 17.4224L9.2174 17.4224L9.21741 17.4224L9.21742 17.4224L9.21743 17.4224L9.21744 17.4224L9.21746 17.4224L9.21747 17.4224L9.21748 17.4224L9.21749 17.4224L9.2175 17.4224L9.21753 17.4224ZM11.1296 21.7155C10.801 21.7155 10.4315 21.6554 10.4315 21.1385V17.4888C10.4641 17.4869 10.4971 17.484 10.5334 17.4809L10.5334 17.4809L10.5334 17.4809L10.5334 17.4809C10.6317 17.4725 10.7537 17.462 10.9552 17.462C12.25 17.462 13.0551 18.3677 13.0551 19.6224C13.0551 20.6221 12.5794 21.7155 11.1296 21.7155ZM14.156 21.7562H14.0289V21.9307C14.277 21.9237 14.5187 21.9175 14.7603 21.9175C14.8819 21.9175 15.0021 21.9209 15.1208 21.9242H15.1208H15.1208H15.1208H15.1209H15.1209H15.1209H15.1209H15.1209H15.121H15.121H15.121H15.121H15.121H15.1211H15.1211H15.1211H15.1211H15.1211H15.1211H15.1212H15.1212H15.1212H15.1212H15.1212H15.1212H15.1213H15.1213H15.1213H15.1213H15.1213H15.1213H15.1214H15.1214H15.1214H15.1214H15.1214H15.1214H15.1214H15.1214H15.1215H15.1215H15.1215H15.1215H15.1215H15.1215H15.1215H15.1215H15.1216H15.1216H15.1216H15.1216H15.1216H15.1216H15.1216H15.1216H15.1216H15.1217H15.1217H15.1217H15.1217H15.1217H15.1217H15.1217H15.1217H15.1217H15.1217H15.1218H15.1218H15.1218H15.1218C15.2376 21.9275 15.3519 21.9307 15.4644 21.9307V21.7562H15.3508C15.1627 21.7562 15.0148 21.7562 15.0148 21.5342V18.9583C15.0148 18.9042 15.001 18.8638 14.9681 18.8638C14.934 18.8638 14.8943 18.871 14.8471 18.8979C14.8205 18.9181 14.4445 19.0447 14.1291 19.1395V19.2466L14.1599 19.2632C14.3861 19.3843 14.4782 19.4337 14.4782 19.716V21.5342C14.4782 21.7562 14.3438 21.7562 14.156 21.7562ZM15.7132 19.3138C16.028 19.4415 16.1021 19.5085 16.1021 19.7563V21.5342C16.1021 21.7562 15.968 21.7562 15.7804 21.7562H15.6593V21.9307C15.9006 21.9237 16.1425 21.9175 16.3835 21.9175C16.5054 21.9175 16.6255 21.9208 16.7448 21.9242C16.8622 21.9275 16.9787 21.9307 17.0951 21.9307V21.7562H16.9746C16.7866 21.7562 16.6383 21.7562 16.6383 21.5342V19.5489C16.8604 19.4006 17.2026 19.2265 17.4175 19.2265C17.8005 19.2265 18.0342 19.4141 18.0342 19.7971V21.5342C18.0342 21.7562 17.9006 21.7562 17.7126 21.7562H17.5915V21.9307C17.8331 21.9237 18.0748 21.9175 18.3166 21.9175C18.4379 21.9175 18.5575 21.9208 18.6765 21.9241H18.6765H18.6765H18.6765H18.6765H18.6765H18.6765C18.7941 21.9274 18.9109 21.9307 19.028 21.9307V21.7562H18.907C18.7193 21.7562 18.5713 21.7562 18.5713 21.5342V19.8033C18.5713 19.2799 18.37 18.8638 17.8005 18.8638C17.3502 18.8638 17.0214 19.0925 16.6383 19.3672V18.9308C16.6383 18.8772 16.6188 18.8638 16.5985 18.8638C16.2918 18.998 16.0281 19.0839 15.7552 19.1727L15.7132 19.1864V19.3138ZM19.538 20.0789C19.5243 20.1393 19.5243 20.2398 19.538 20.4681C19.5775 21.1054 19.9877 21.6285 20.524 21.6285C20.8935 21.6285 21.1822 21.4271 21.43 21.1793L21.5238 21.2733C21.215 21.6825 20.8327 22.0316 20.2829 22.0316C19.2157 22.0316 19.0011 20.9977 19.0011 20.5686C19.0011 19.2533 19.8866 18.8638 20.3558 18.8638C20.8999 18.8638 21.4841 19.206 21.4903 19.9175C21.4903 19.9583 21.4903 19.9981 21.4841 20.0384L21.4234 20.0789H19.538ZM20.9132 19.6958C20.9132 19.7767 20.8935 19.864 20.7262 19.864H19.5581C19.6385 19.3804 19.9204 19.079 20.3294 19.079C20.7053 19.079 20.9132 19.3542 20.9132 19.6958ZM21.645 21.7562H21.8263C22.0134 21.7562 22.1477 21.7562 22.1477 21.5342V19.6491C22.1477 19.4851 21.9928 19.4251 21.8781 19.3807C21.8477 19.3689 21.8201 19.3582 21.7989 19.347V19.2466C22.0632 19.1344 22.263 19.0318 22.4006 18.9612L22.4007 18.9612C22.5182 18.9009 22.5904 18.8638 22.6186 18.8638C22.6579 18.8638 22.678 18.884 22.678 18.9514V19.5554H22.6921C22.8594 19.2938 23.1417 18.8638 23.5508 18.8638C23.7185 18.8638 23.9329 18.9778 23.9329 19.2196C23.9329 19.4006 23.8061 19.5624 23.6183 19.5624C23.517 19.5624 23.4649 19.5244 23.4112 19.4851C23.3542 19.4435 23.2955 19.4006 23.1745 19.4006C23.0606 19.4006 22.6848 19.5554 22.6848 19.9583V21.5342C22.6848 21.7562 22.8189 21.7562 23.0068 21.7562H23.3822V21.9307L23.2516 21.9282C22.9449 21.9223 22.6973 21.9175 22.4435 21.9175C22.1683 21.9175 21.8864 21.9237 21.645 21.9307V21.7562ZM25.0741 21.8168C24.5833 21.8168 24.3155 21.4405 24.228 20.9977L24.1072 21.0316L24.1814 21.8033C24.4156 21.9375 24.7315 22.0316 24.9996 22.0316C25.7984 22.0316 26.1536 21.5613 26.1536 21.1188C26.1536 20.5534 25.7055 20.3611 25.2901 20.1829C24.9315 20.0291 24.5973 19.8857 24.5973 19.5217C24.5973 19.2331 24.852 19.079 25.1204 19.079C25.5504 19.079 25.7849 19.3204 25.8519 19.7429H26.0062L25.959 19.0591C25.6975 18.9248 25.4091 18.864 25.1948 18.864C24.4566 18.864 24.1545 19.347 24.1545 19.7232C24.1545 20.3051 24.5788 20.4994 24.9703 20.6788C25.3056 20.8323 25.6168 20.9749 25.6168 21.3403C25.6168 21.575 25.4694 21.8168 25.0741 21.8168ZM36.7632 21.5613C36.7632 21.6825 36.8366 21.6889 36.9503 21.6889C36.99 21.6889 37.0343 21.6873 37.0794 21.6858L37.0794 21.6858H37.0795C37.1265 21.6842 37.1746 21.6825 37.2194 21.6825V21.8238C36.9307 21.8503 36.3803 21.9913 36.2526 22.0316L36.2191 22.0112V21.4676C35.8169 21.7963 35.5079 22.0316 35.0308 22.0316C34.6686 22.0316 34.2931 21.7963 34.2931 21.2333V19.515C34.2931 19.3403 34.2664 19.1726 33.8912 19.1395V19.0117C34.0251 19.008 34.2493 18.9941 34.4375 18.9824L34.4375 18.9824L34.4376 18.9824C34.589 18.9729 34.7171 18.965 34.7561 18.965C34.8306 18.965 34.8306 19.0117 34.8306 19.1596V20.8906C34.8306 21.0921 34.8306 21.6686 35.4142 21.6686C35.642 21.6686 35.9439 21.4946 36.2256 21.26V19.4545C36.2256 19.3327 35.9599 19.2606 35.7304 19.1984L35.6626 19.1799V19.0592C36.0517 19.0328 36.3463 19.0013 36.5245 18.9822L36.5245 18.9822C36.6225 18.9717 36.6852 18.965 36.709 18.965C36.7632 18.965 36.7632 19.0117 36.7632 19.0858V21.5613ZM39.0979 18.8638C38.7289 18.8638 38.3664 19.1193 38.0981 19.347V16.8984C38.0981 16.8446 38.0846 16.8037 38.0447 16.8037C38.0299 16.8037 37.9979 16.8216 37.9535 16.8464L37.9535 16.8464L37.9534 16.8465C37.9362 16.856 37.9172 16.8666 37.8966 16.8777C37.7558 16.9588 37.4743 17.0793 37.2056 17.1664V17.2739L37.2318 17.2814C37.4675 17.3493 37.5616 17.3763 37.5616 17.7977V20.6826C37.5616 21.0921 37.5278 21.4813 37.4678 21.8771L37.6085 21.9506L37.8092 21.7962C37.8353 21.8073 37.8634 21.8203 37.8939 21.8344L37.894 21.8344C38.0676 21.9148 38.32 22.0316 38.7418 22.0316C39.7017 22.0316 40.3462 21.1522 40.3462 20.2735C40.3462 19.5422 39.8764 18.8638 39.0979 18.8638ZM38.0981 21.1723C38.0981 21.4271 38.3399 21.8569 38.7893 21.8569C39.5071 21.8569 39.809 21.1522 39.809 20.5548C39.809 19.8303 39.2593 19.2265 38.7361 19.2265C38.4868 19.2265 38.2792 19.3878 38.0981 19.5423V21.1723ZM10.2633 25.9576C10.1757 25.9576 10.0777 25.954 9.97895 25.9503H9.97893H9.97891H9.97889H9.97887H9.97884H9.97881H9.97878H9.97874L9.97869 25.9503C9.87866 25.9467 9.77791 25.9429 9.68647 25.9429C9.59221 25.9429 9.48791 25.947 9.38936 25.9509H9.38932C9.30105 25.9543 9.21739 25.9576 9.14968 25.9576H9.13379V25.8165H9.20068C9.33322 25.8133 9.45373 25.8027 9.45484 25.6242V23.7115C9.45373 23.5328 9.33322 23.5212 9.20068 23.5188H9.13379V23.3774H9.14968C9.21741 23.3774 9.30201 23.3806 9.39126 23.384C9.49089 23.3877 9.5963 23.3917 9.69048 23.3917C9.78243 23.3917 9.88388 23.388 9.98404 23.3844H9.98405H9.98407H9.98408H9.9841H9.98411H9.98413L9.98416 23.3844C10.0818 23.3809 10.1782 23.3774 10.2633 23.3774H10.2796V23.5188H10.2125C10.0798 23.5212 9.9586 23.5328 9.95791 23.7115V25.6242C9.9586 25.8027 10.0798 25.8133 10.2125 25.8165H10.2796V25.9576H10.2633ZM12.8324 26.0071L12.9828 26.0122H13.0017L12.9984 25.9939C12.9809 25.8831 12.9769 25.7557 12.9769 25.6278V23.9666C12.9813 23.536 13.1359 23.5227 13.2867 23.5188H13.3571V23.3774H13.341C13.2654 23.3774 13.1902 23.381 13.1152 23.3846L13.1151 23.3846H13.1151H13.1151H13.1151H13.1151H13.1151H13.1151H13.115H13.115H13.115H13.115H13.115H13.115H13.115H13.1149H13.1149H13.1149H13.1149H13.1149H13.1149H13.1149H13.1149H13.1148H13.1148H13.1148H13.1148H13.1148H13.1148H13.1148H13.1148H13.1147H13.1147H13.1147H13.1147H13.1147H13.1147C13.0401 23.3881 12.9659 23.3917 12.8919 23.3917C12.8068 23.3917 12.7224 23.3881 12.6378 23.3846L12.6377 23.3846C12.5526 23.381 12.4673 23.3774 12.3808 23.3774H12.3646V23.5188H12.4612C12.5675 23.5212 12.7613 23.5564 12.7631 23.8464V25.1893L11.1585 23.3831C11.0857 23.3798 11.0191 23.3834 10.9543 23.3869C10.9095 23.3893 10.8655 23.3917 10.821 23.3917C10.7528 23.3917 10.6832 23.3882 10.6133 23.3846H10.6132H10.6132H10.6132H10.6132H10.6132H10.6132H10.6132H10.6132H10.6132H10.6132H10.6132H10.6132H10.6132H10.6131H10.6131H10.6131H10.6131H10.6131H10.6131H10.6131H10.6131H10.6131H10.6131H10.6131H10.613H10.613H10.613H10.613H10.613H10.613H10.613H10.613H10.613H10.613H10.6129H10.6129H10.6129H10.6129H10.6129H10.6129H10.6129H10.6129H10.6128L10.6128 23.3846C10.5423 23.381 10.4715 23.3774 10.4015 23.3774H10.3855V23.5188H10.4495C10.6057 23.5188 10.7652 23.6371 10.7659 23.8316V25.3693C10.7632 25.66 10.6943 25.8151 10.453 25.8165H10.3855V25.9576H10.4015C10.4845 25.9576 10.568 25.9539 10.6513 25.9502L10.6514 25.9502H10.6514H10.6514H10.6514H10.6514H10.6514H10.6515H10.6515H10.6515H10.6515H10.6515H10.6515H10.6515H10.6516H10.6516H10.6516H10.6516H10.6516H10.6516H10.6517H10.6517H10.6517H10.6517H10.6517H10.6517H10.6518H10.6518H10.6518H10.6518H10.6518H10.6519H10.6519H10.6519H10.6519H10.6519H10.6519H10.652H10.652H10.652H10.652H10.652H10.652H10.6521H10.6521H10.6521H10.6521H10.6521H10.6522H10.6522H10.6522H10.6522H10.6522H10.6523H10.6523H10.6523C10.7348 25.9466 10.8171 25.943 10.8983 25.943C10.9754 25.943 11.0529 25.9466 11.1306 25.9502H11.1307H11.1307H11.1307H11.1307H11.1308H11.1308H11.1308H11.1308H11.1309H11.1309H11.1309H11.1309H11.131H11.131H11.131H11.131H11.1311H11.1311H11.1311H11.1311H11.1312H11.1312H11.1312H11.1312H11.1313H11.1313H11.1313H11.1313H11.1314H11.1314H11.1314H11.1314H11.1315H11.1315H11.1315H11.1315H11.1316H11.1316H11.1316H11.1316H11.1317H11.1317H11.1317H11.1318H11.1318H11.1318H11.1318H11.1319H11.1319H11.1319H11.1319H11.132H11.132H11.132H11.132H11.1321H11.1321H11.1321H11.1321H11.1322H11.1322H11.1322H11.1322H11.1323H11.1323H11.1323H11.1323H11.1324H11.1324H11.1324H11.1324H11.1325H11.1325H11.1325H11.1326H11.1326H11.1326H11.1326H11.1327H11.1327H11.1327H11.1327H11.1328H11.1328H11.1328H11.1329H11.1329H11.1329H11.1329H11.133H11.133L11.133 25.9502C11.2115 25.9539 11.2902 25.9576 11.3691 25.9576H11.3853V25.8165H11.3071C11.0322 25.813 10.9839 25.7228 10.9795 25.4053V23.9419L12.8324 26.0071ZM15.3273 25.9576C15.2609 25.9576 15.1708 25.9545 15.0737 25.9512C14.9604 25.9473 14.8376 25.9431 14.7321 25.9431C14.611 25.9431 14.4788 25.9475 14.3606 25.9515L14.3605 25.9515H14.3605H14.3604H14.3604H14.3604H14.3604H14.3604H14.3604H14.3603H14.3603H14.3603H14.3603H14.3602H14.3602H14.3602H14.3601L14.3601 25.9515C14.2646 25.9547 14.1783 25.9576 14.1144 25.9576H14.0988V25.8165H14.1841C14.3853 25.8118 14.4662 25.8092 14.4707 25.526V23.5915H13.8882C13.6327 23.5966 13.6238 23.6372 13.5734 23.8691L13.5641 23.9119L13.5615 23.9243H13.4208L13.4227 23.9054C13.4271 23.8756 13.4317 23.8459 13.4364 23.8159L13.4364 23.8159L13.4364 23.8159L13.4364 23.8158L13.4364 23.8158L13.4364 23.8157L13.4365 23.8157L13.4365 23.8157L13.4365 23.8156C13.4478 23.7432 13.4593 23.6699 13.4668 23.595C13.482 23.4937 13.4889 23.3924 13.4889 23.2877V23.2716H13.6049L13.6076 23.283C13.6321 23.3746 13.6991 23.3758 13.7914 23.3774L13.793 23.3774H15.6951C15.7968 23.3758 15.8709 23.3744 15.8771 23.2789L15.8783 23.2616L15.8949 23.2649L15.9982 23.2812L15.9955 23.2974C15.981 23.3954 15.9668 23.4937 15.9557 23.5915C15.949 23.6894 15.949 23.7875 15.949 23.8862V23.8972L15.9383 23.9015L15.8091 23.9488L15.8083 23.9276L15.8082 23.9267C15.7981 23.7894 15.7836 23.5915 15.5533 23.5915H14.9705V25.5184C14.9741 25.7937 15.0832 25.813 15.2574 25.8165H15.3428V25.9576H15.3273ZM17.6378 25.9509L17.6377 25.9509L17.6376 25.9509H17.6375H17.6375H17.6375H17.6375H17.6374L17.6374 25.9509C17.4499 25.9469 17.2454 25.9424 17.068 25.9424C16.885 25.9424 16.6694 25.9471 16.4783 25.9513L16.4782 25.9513H16.4782H16.4781H16.4781H16.4781L16.478 25.9513C16.3258 25.9546 16.189 25.9576 16.0966 25.9576H16.0812V25.8165H16.148C16.2801 25.8143 16.4003 25.8027 16.402 25.6242V23.7115C16.4003 23.5331 16.2801 23.5212 16.148 23.5188H16.0812V23.3774H16.0966C16.1993 23.3774 16.3353 23.3805 16.482 23.3837C16.6538 23.3875 16.8403 23.3917 17.0054 23.3917C17.167 23.3917 17.3485 23.3877 17.5205 23.384C17.6753 23.3806 17.8223 23.3774 17.9401 23.3774H17.9563L17.9557 23.3943C17.9534 23.4489 17.9518 23.5139 17.9518 23.5825C17.9518 23.7087 17.9557 23.8471 17.9629 23.951L17.9636 23.964L17.9513 23.9677L17.8229 24.0013L17.8223 23.9825C17.8008 23.7456 17.769 23.5733 17.3931 23.5697H16.9009L16.9006 24.4944H17.3197C17.5302 24.4922 17.5678 24.3847 17.5926 24.1877L17.5935 24.1731H17.7339L17.7336 24.1898C17.7266 24.3324 17.7223 24.4744 17.7223 24.6166C17.7223 24.7547 17.7266 24.8933 17.7336 25.032L17.7339 25.0453L17.7206 25.0483L17.5935 25.0736L17.5926 25.0565L17.5892 25.0259C17.5667 24.8224 17.5543 24.7113 17.3234 24.7088H16.9009V25.5437C16.9015 25.7634 17.089 25.7644 17.3237 25.7656L17.3307 25.7656C17.7704 25.763 17.9464 25.7414 18.0565 25.3319L18.0602 25.3172L18.0755 25.3196L18.1926 25.35L18.1893 25.3651C18.1419 25.5583 18.0983 25.7514 18.0653 25.9446L18.0625 25.9576H18.05C17.9427 25.9576 17.7964 25.9544 17.6378 25.9509ZM20.6544 25.9502H20.6544H20.6544H20.6544H20.6544H20.6544H20.6543H20.6543H20.6543H20.6543H20.6543H20.6543C20.5953 25.9466 20.5365 25.9429 20.4768 25.9429C20.4321 25.9429 20.3865 25.9453 20.3396 25.9478H20.3396H20.3396H20.3396H20.3396H20.3396H20.3396H20.3396H20.3395H20.3395H20.3395H20.3395H20.3395H20.3395H20.3395H20.3395H20.3394H20.3394H20.3394H20.3394H20.3394H20.3394H20.3393H20.3393H20.3393C20.2698 25.9514 20.1976 25.9551 20.1217 25.9515C19.8415 25.5839 19.6014 25.1919 19.3657 24.7751H19.1499V25.5398C19.1539 25.8102 19.2605 25.8126 19.4246 25.8163L19.4328 25.8165H19.5148V25.9576H19.4986C19.3941 25.9576 19.2887 25.9539 19.1835 25.9503L19.1834 25.9502H19.1834H19.1834H19.1833H19.1833H19.1833H19.1833H19.1832H19.1832H19.1832H19.1832H19.1832H19.1831H19.1831H19.1831H19.1831H19.183H19.183H19.183H19.183H19.1829H19.1829H19.1829H19.1829H19.1829H19.1828H19.1828H19.1828H19.1828H19.1827H19.1827H19.1827H19.1827H19.1827H19.1826H19.1826H19.1826H19.1826H19.1825H19.1825H19.1825H19.1825H19.1824H19.1824C19.078 25.9466 18.9738 25.9429 18.8709 25.9429C18.7848 25.9429 18.6994 25.9465 18.6129 25.9501C18.5242 25.9538 18.4344 25.9576 18.3416 25.9576H18.3257V25.8165H18.4075C18.5388 25.8155 18.6498 25.7583 18.6503 25.6356V23.78C18.6476 23.5262 18.5257 23.5225 18.4141 23.519L18.4075 23.5188H18.3257V23.3774H18.3416C18.3914 23.3774 18.4602 23.38 18.5399 23.3829L18.5399 23.3829C18.6493 23.3869 18.779 23.3917 18.9078 23.3917C19.0198 23.3917 19.1206 23.3879 19.2184 23.3843L19.2185 23.3843H19.2185L19.2185 23.3843C19.311 23.3808 19.4009 23.3774 19.4954 23.3774C19.9558 23.3784 20.3794 23.5051 20.3805 24.0356C20.3805 24.3651 20.1627 24.571 19.8812 24.6858L20.4943 25.6043C20.5964 25.7558 20.66 25.7937 20.8376 25.8165L20.8508 25.8186V25.9576H20.8355C20.774 25.9576 20.7142 25.9539 20.6546 25.9502H20.6546H20.6546H20.6546H20.6546H20.6546H20.6545H20.6545H20.6545H20.6545H20.6545H20.6545H20.6545H20.6545H20.6545H20.6544H20.6544ZM19.8599 24.0585C19.8563 24.4827 19.6741 24.608 19.3127 24.6116H19.1499V23.554C19.1606 23.5529 19.1712 23.5516 19.1825 23.5503C19.2205 23.5457 19.2656 23.5403 19.3416 23.5403C19.6596 23.5417 19.8577 23.7396 19.8599 24.0585ZM23.3757 26.0071L23.5257 26.0122H23.5433L23.5415 25.9942C23.5229 25.8823 23.5197 25.7557 23.5197 25.6278V23.9666C23.5233 23.536 23.6785 23.5224 23.8292 23.5188H23.8996V23.3774H23.8835C23.808 23.3774 23.7329 23.381 23.6579 23.3846L23.6579 23.3846H23.6579H23.6579H23.6579H23.6578H23.6578H23.6578H23.6578H23.6578H23.6578H23.6578H23.6577H23.6577H23.6577H23.6577H23.6577H23.6577H23.6577H23.6577H23.6577H23.6577H23.6577H23.6576H23.6576H23.6576H23.6576H23.6576H23.6576H23.6576H23.6576H23.6576H23.6576H23.6576H23.6576H23.6575H23.6575H23.6575H23.6575H23.6575H23.6575H23.6575H23.6575H23.6575H23.6575H23.6575H23.6574H23.6574H23.6574H23.6574H23.6574C23.583 23.3881 23.5087 23.3917 23.4347 23.3917C23.3497 23.3917 23.2653 23.3881 23.1807 23.3846H23.1807H23.1807H23.1807H23.1807H23.1807H23.1807H23.1807H23.1806H23.1806H23.1806H23.1806H23.1806H23.1806H23.1806H23.1806H23.1806H23.1805H23.1805H23.1805H23.1805H23.1805H23.1805H23.1805H23.1805H23.1805H23.1804H23.1804H23.1804H23.1804H23.1804H23.1804H23.1804H23.1804H23.1804H23.1803H23.1803H23.1803H23.1803H23.1803H23.1803H23.1803H23.1802H23.1802H23.1802H23.1802H23.1802H23.1802H23.1802H23.1801H23.1801H23.1801H23.1801H23.1801H23.1801H23.1801L23.18 23.3846C23.0949 23.381 23.0096 23.3774 22.9232 23.3774H22.9073V23.5188H23.0037C23.1098 23.5205 23.3042 23.5564 23.3052 23.8464V25.1893L21.7001 23.3821C21.6289 23.3794 21.5634 23.3831 21.5 23.3866C21.4543 23.3892 21.4096 23.3917 21.3647 23.3917C21.296 23.3917 21.2261 23.3881 21.1559 23.3846L21.1559 23.3846H21.1559H21.1559H21.1559L21.1558 23.3846C21.0853 23.381 21.0145 23.3774 20.9445 23.3774H20.9282V23.5188H20.9922C21.1484 23.5188 21.3076 23.6364 21.308 23.831V25.3684C21.3057 25.66 21.2366 25.8155 20.9954 25.8165H20.9282V25.9576H20.9445C21.0269 25.9576 21.1104 25.9538 21.1937 25.95L21.1938 25.95H21.1938H21.1938H21.1938H21.1938H21.1938H21.1938H21.1938H21.1939H21.1939H21.1939H21.1939H21.1939H21.1939H21.1939H21.1939H21.1939H21.194H21.194H21.194H21.194H21.194H21.194H21.194H21.194H21.194H21.1941H21.1941H21.1941H21.1941H21.1941H21.1942H21.1942H21.1942H21.1942H21.1943H21.1943H21.1943H21.1944C21.2771 25.9462 21.3596 25.9424 21.4407 25.9424C21.5187 25.9424 21.5968 25.9462 21.6751 25.95L21.6752 25.95H21.6752H21.6752H21.6752H21.6752H21.6752H21.6752H21.6752H21.6752H21.6752H21.6752H21.6753H21.6753H21.6753H21.6753H21.6753H21.6753H21.6753H21.6753H21.6753H21.6753H21.6753H21.6753H21.6754H21.6754H21.6754H21.6754H21.6754H21.6754H21.6754H21.6754H21.6754H21.6754H21.6754H21.6754H21.6755H21.6755H21.6755H21.6755C21.754 25.9538 21.8327 25.9576 21.9117 25.9576H21.9276V25.8165H21.8502C21.5749 25.813 21.5268 25.7232 21.5225 25.4052V23.9421L23.3757 26.0071ZM26.361 25.9552L26.4162 25.9576L26.4324 25.9584V25.8158H26.3955C26.2781 25.8155 26.2111 25.7771 26.1688 25.6798C26.1264 25.5839 26.0873 25.4669 26.049 25.3525L26.0343 25.3089L25.3621 23.3993C25.3511 23.3699 25.3395 23.3371 25.3291 23.3071C25.3172 23.288 25.2976 23.2857 25.2886 23.2862C25.2762 23.2862 25.2671 23.2896 25.2583 23.2928L25.2536 23.2945C25.1836 23.3386 25.0366 23.4123 24.9221 23.4511C24.8942 23.5803 24.839 23.7373 24.7941 23.8654L24.7771 23.9138L24.1924 25.5897C24.1396 25.738 24.0262 25.8155 23.8905 25.8158H23.8526V25.9584L23.8696 25.9576L23.9144 25.9552L23.9144 25.9552C24.0305 25.9488 24.1472 25.9424 24.2627 25.9424C24.3932 25.9424 24.5259 25.9489 24.6568 25.9553L24.6569 25.9553H24.6569H24.6569H24.6569H24.6569L24.7037 25.9576L24.7203 25.9584V25.8158H24.6642C24.543 25.8158 24.4067 25.7938 24.4055 25.7047C24.405 25.6658 24.4238 25.6112 24.4472 25.5433L24.4472 25.5432L24.4472 25.5431L24.4472 25.5431L24.4473 25.543C24.4596 25.5071 24.4732 25.4675 24.4859 25.4247L24.5995 25.0557H25.4048L25.5439 25.4688C25.5841 25.5849 25.6168 25.6849 25.616 25.7265C25.6157 25.7969 25.4902 25.8158 25.4057 25.8158H25.3494V25.9584L25.3663 25.9576L25.4421 25.9547C25.6021 25.9485 25.7591 25.9424 25.9137 25.9424C26.068 25.9424 26.2151 25.9488 26.3609 25.9552L26.361 25.9552ZM24.6787 24.8196H25.3179L25.0002 23.8413L24.6787 24.8196ZM27.7632 25.9512C27.8602 25.9545 27.9502 25.9576 28.0164 25.9576H28.0316V25.8165H27.9464C27.7724 25.813 27.6631 25.7937 27.6594 25.5184V23.5915H28.2423C28.4731 23.5915 28.4876 23.7903 28.4972 23.9276L28.4977 23.9488L28.6269 23.9015L28.6376 23.8972V23.8862C28.6376 23.7876 28.6376 23.6894 28.645 23.5915C28.6561 23.4937 28.6699 23.3954 28.685 23.2974L28.6875 23.2812L28.5838 23.2649L28.5668 23.2616L28.5663 23.2792C28.5598 23.3744 28.4861 23.3758 28.3851 23.3774H26.4821L26.4807 23.3774C26.388 23.3758 26.3221 23.3746 26.2967 23.283L26.2936 23.2716H26.1777V23.2877C26.1777 23.3924 26.1709 23.4937 26.156 23.5958C26.1481 23.6741 26.1361 23.7509 26.1242 23.8274L26.1242 23.8274L26.1241 23.8274L26.1241 23.8275L26.1241 23.8275L26.1241 23.8275L26.1241 23.8276L26.1241 23.8276L26.1241 23.8276C26.12 23.8538 26.1159 23.88 26.112 23.9062L26.1098 23.9243H26.2508L26.2534 23.9119L26.2628 23.8688C26.3132 23.6371 26.3221 23.596 26.5778 23.5915H27.1599L27.1602 25.526C27.1553 25.8092 27.0746 25.8118 26.8733 25.8165H26.7877V25.9576H26.8039C26.8679 25.9576 26.9545 25.9547 27.0501 25.9515C27.1682 25.9475 27.3002 25.9431 27.4207 25.9431C27.5265 25.9431 27.6496 25.9473 27.7632 25.9512ZM29.634 25.9501C29.7327 25.9539 29.8305 25.9576 29.9181 25.9576H29.9333V25.8165H29.8669C29.7333 25.8143 29.6132 25.8027 29.6119 25.6242V23.7115C29.6132 23.5331 29.7333 23.5212 29.8669 23.5188H29.9333V23.3774H29.9181C29.8326 23.3774 29.736 23.3809 29.6381 23.3844C29.5378 23.388 29.4361 23.3917 29.3439 23.3917C29.2503 23.3917 29.1449 23.3877 29.0454 23.384C28.9561 23.3806 28.8715 23.3774 28.8041 23.3774H28.7885V23.5188H28.8554C28.987 23.5212 29.1083 23.5331 29.1091 23.7115V25.6242C29.1083 25.8027 28.987 25.8143 28.8554 25.8165H28.7885V25.9576H28.8041C28.8714 25.9576 28.955 25.9542 29.0432 25.9506L29.0433 25.9506C29.142 25.9466 29.2467 25.9424 29.341 25.9424C29.4328 25.9424 29.5338 25.9463 29.634 25.9501ZM31.3738 23.3227C30.6067 23.324 30.0123 23.918 30.0108 24.6858C30.0123 25.4797 30.6118 26.0108 31.3928 26.0122C32.1777 26.0108 32.7875 25.4468 32.7883 24.5982C32.7869 23.8107 32.1577 23.3236 31.3738 23.3227ZM30.5222 24.5578C30.5233 24.0665 30.715 23.483 31.3669 23.483C31.9868 23.4844 32.276 24.1424 32.2772 24.6789C32.276 25.2113 32.1508 25.851 31.4292 25.851C30.8232 25.8505 30.5233 25.2152 30.5222 24.5578ZM35.4453 26.0122L35.2942 26.0071L33.4413 23.9421V25.4053C33.4456 25.7232 33.4938 25.8126 33.768 25.8158H33.8467V25.9576H33.8312C33.7519 25.9576 33.6729 25.9539 33.5942 25.9502L33.5942 25.9502C33.516 25.9466 33.438 25.943 33.3602 25.943C33.2787 25.943 33.1961 25.9466 33.1133 25.9502H33.1133H33.1133H33.1133H33.1132H33.1132H33.1132H33.1132H33.1132H33.1132H33.1131H33.1131H33.1131H33.1131H33.1131H33.1131H33.113H33.113L33.113 25.9502C33.0296 25.9539 32.9459 25.9576 32.8629 25.9576H32.848V25.8158H32.9145C33.1551 25.8151 33.2245 25.66 33.2274 25.3693V23.831C33.2272 23.6364 33.0676 23.5188 32.9107 23.5188H32.848V23.3774H32.8629C32.9332 23.3774 33.004 23.381 33.0746 23.3846L33.0746 23.3846C33.1447 23.3881 33.2145 23.3917 33.2832 23.3917C33.3274 23.3917 33.371 23.3893 33.4156 23.3869C33.4803 23.3834 33.547 23.3798 33.6203 23.3831L35.2246 25.1893V23.8464C35.2233 23.5564 35.0289 23.5212 34.9223 23.5188H34.8261V23.3774H34.8429C34.9288 23.3774 35.0139 23.381 35.0989 23.3846L35.0989 23.3846C35.1836 23.3881 35.2681 23.3917 35.353 23.3917C35.4274 23.3917 35.5017 23.3881 35.5763 23.3846L35.5763 23.3846C35.6515 23.381 35.7269 23.3774 35.8031 23.3774H35.8184V23.5188H35.748C35.5975 23.5227 35.4421 23.5365 35.4391 23.9666V25.6278C35.4391 25.7557 35.442 25.8831 35.4597 25.9942L35.4628 26.0122H35.4453ZM38.3349 25.9576L38.2538 25.9543C38.1161 25.9486 37.9778 25.9429 37.8322 25.9429C37.6864 25.9429 37.5374 25.9484 37.3861 25.954L37.2851 25.9576L37.2689 25.9584V25.8165H37.3245C37.4093 25.8165 37.5351 25.7969 37.5352 25.7265C37.5362 25.6849 37.5032 25.5853 37.4621 25.4688L37.3236 25.0557H36.5176L36.4049 25.4247C36.3922 25.4677 36.3788 25.5073 36.3667 25.5431L36.3667 25.5431C36.3436 25.6112 36.3251 25.6656 36.3254 25.7044C36.3254 25.7938 36.4623 25.8165 36.583 25.8165H36.6388V25.9584L36.6224 25.9576L36.5534 25.9544H36.5534H36.5533H36.5533H36.5533H36.5533H36.5533L36.5532 25.9544C36.4296 25.9487 36.3041 25.9429 36.1817 25.9429C36.0733 25.9429 35.9649 25.9485 35.856 25.9541L35.856 25.9541L35.788 25.9576L35.7722 25.9584V25.8165H35.8088C35.9449 25.8158 36.0588 25.7379 36.1123 25.5897L36.6962 23.9138L36.7136 23.8639C36.7582 23.736 36.8128 23.5798 36.841 23.4517C36.9557 23.4119 37.1024 23.3386 37.1734 23.2945L37.1756 23.2937C37.1844 23.2903 37.1942 23.2865 37.208 23.2865C37.2174 23.2857 37.2366 23.288 37.2478 23.3079C37.2525 23.3204 37.2573 23.3336 37.2621 23.347C37.2684 23.3647 37.2747 23.3826 37.2815 23.3993L37.9529 25.3089L37.9768 25.3788C38.0127 25.4847 38.049 25.5913 38.0878 25.6805C38.1308 25.7771 38.1968 25.8155 38.3136 25.8165H38.3513V25.9584L38.3349 25.9576ZM37.2367 24.8196H36.5979L36.9191 23.8418L37.2367 24.8196ZM39.9081 25.9503L39.908 25.9503H39.9079H39.9079H39.9079H39.9078H39.9078C39.7474 25.9466 39.5872 25.9429 39.4274 25.9429C39.267 25.9429 39.1066 25.9466 38.946 25.9503H38.946H38.9459H38.9459H38.9458H38.9458L38.9457 25.9503C38.7849 25.9539 38.624 25.9576 38.4629 25.9576H38.4475V25.8165H38.5141C38.6461 25.8133 38.7715 25.804 38.773 25.5879V23.7108C38.7715 23.5331 38.6467 23.5212 38.5141 23.5188H38.4475V23.3774H38.4629C38.5603 23.3774 38.6567 23.381 38.7528 23.3846H38.7528H38.7529H38.7529H38.7529H38.7529C38.8485 23.3881 38.9439 23.3917 39.0399 23.3917C39.1326 23.3917 39.2242 23.3881 39.3162 23.3846L39.3162 23.3846C39.4086 23.381 39.5014 23.3774 39.5956 23.3774H39.6103V23.5188H39.5038L39.4857 23.5193C39.3547 23.5222 39.2741 23.5241 39.2711 23.7003V25.5839C39.2721 25.7204 39.3615 25.7569 39.4756 25.7732C39.5399 25.7777 39.6079 25.78 39.6781 25.78C39.7674 25.78 39.8601 25.7759 39.9545 25.7659C40.1032 25.7482 40.2312 25.6623 40.2944 25.5752C40.3508 25.4971 40.3825 25.397 40.4047 25.3176L40.4077 25.3055H40.5453L40.5422 25.3248C40.5179 25.4475 40.4905 25.5685 40.463 25.6897L40.4629 25.69L40.4629 25.6904C40.4437 25.775 40.4245 25.8598 40.4063 25.9453L40.4034 25.9576H40.3913C40.23 25.9576 40.0689 25.9539 39.9081 25.9503ZM40.4816 23.2898C40.7019 23.2898 40.8663 23.459 40.8663 23.6752C40.8663 23.8912 40.7019 24.0586 40.4816 24.0586C40.2619 24.0586 40.0973 23.8912 40.0973 23.6752C40.0973 23.459 40.2619 23.2898 40.4816 23.2898ZM40.7858 23.6752C40.7858 23.8405 40.6541 23.9871 40.4816 23.9871C40.3086 23.9871 40.177 23.8405 40.177 23.6752C40.177 23.5096 40.3086 23.3618 40.4816 23.3618C40.6556 23.3618 40.7858 23.5096 40.7858 23.6752ZM40.2905 23.8779V23.8592L40.301 23.8577C40.3388 23.8525 40.3463 23.8514 40.3463 23.8249V23.54C40.3463 23.4999 40.3423 23.4861 40.292 23.4883V23.4687H40.4888C40.5564 23.4687 40.6187 23.501 40.6187 23.5709C40.6187 23.628 40.5811 23.6704 40.5278 23.6869L40.5911 23.7751C40.6205 23.8149 40.6541 23.8524 40.6757 23.8657V23.8779H40.6009C40.5759 23.8779 40.5529 23.8412 40.5174 23.7848L40.5173 23.7847C40.5019 23.7602 40.4841 23.7318 40.4627 23.7011H40.4201V23.8285C40.4201 23.8514 40.4275 23.8525 40.4645 23.8576L40.4762 23.8592V23.8779H40.2905ZM40.4655 23.6752H40.4201V23.4942H40.463C40.5026 23.4942 40.538 23.5159 40.538 23.577C40.538 23.6377 40.5151 23.6752 40.4655 23.6752Z" fill="white"/>
<path fill-rule="evenodd" clip-rule="evenodd" d="M17.4087 10.4483C17.4087 13.9431 20.3254 16.8141 23.8691 16.7972H25.5298C29.0316 16.7972 32.2276 13.9419 32.2276 10.4483C32.2276 6.62765 29.0316 3.9871 25.5298 3.98779H23.8691C20.3254 3.9871 17.4087 6.62889 17.4087 10.4483ZM18.0208 10.3815C18.0214 7.14303 20.645 4.51879 23.8835 4.51755C27.1219 4.51879 29.7461 7.14303 29.747 10.3815C29.7461 13.6195 27.1219 16.2433 23.8835 16.2438C20.645 16.2433 18.0214 13.6195 18.0208 10.3815ZM27.6002 10.3815C27.5977 8.7979 26.6079 7.44736 25.2131 6.91251V13.8501C26.6079 13.3146 27.5977 11.9653 27.6002 10.3815ZM22.5524 6.91318V13.8487C21.1589 13.3126 20.1706 11.9642 20.1669 10.3814C20.1706 8.7983 21.1589 7.44969 22.5524 6.91318Z" fill="white"/>
</svg>
