<svg width="74" height="32" viewBox="0 0 74 32" fill="none" xmlns="http://www.w3.org/2000/svg">
<g clip-path="url(#clip0)">
<path fill-rule="evenodd" clip-rule="evenodd" d="M45.354 17.8356C45.354 18.6624 45.359 19.4892 45.3514 20.3161C45.3485 20.6538 45.2764 20.9833 45.1372 21.2947C44.8442 21.9503 44.3266 22.2949 43.5965 22.3397C43.5452 22.3428 43.4937 22.3426 43.4424 22.3426C42.2447 22.3426 41.0472 22.3464 39.8495 22.3397C39.62 22.3382 39.3854 22.3193 39.1621 22.2704C38.4036 22.1045 37.9489 21.6269 37.7723 20.9005C37.7134 20.6589 37.6794 20.4056 37.6782 20.1572C37.67 18.5887 37.6726 17.0201 37.6768 15.4515C37.677 15.3232 37.6986 15.1906 37.7373 15.0682C37.82 14.8067 37.9978 14.6869 38.2776 14.6849C38.6066 14.6829 38.9358 14.6845 39.2647 14.6845C39.5885 14.6845 39.9124 14.6787 40.2361 14.6874C40.3569 14.6906 40.4835 14.7102 40.5964 14.7513C40.8619 14.8482 40.9967 15.0554 40.997 15.3334C40.9974 16.5159 40.9959 17.6989 40.9988 18.8816C40.999 19.0108 41.007 19.1432 41.0357 19.2687C41.0945 19.5269 41.2642 19.6627 41.5177 19.6778C41.8097 19.695 42.0255 19.5749 42.1114 19.3233C42.1512 19.2071 42.169 19.0786 42.1693 18.9555C42.1735 17.7777 42.1711 16.6001 42.1731 15.4224C42.1733 15.2927 42.1816 15.1617 42.2029 15.034C42.2356 14.8384 42.3617 14.7252 42.5643 14.6988C42.6302 14.6902 42.6972 14.6851 42.7636 14.685C43.3752 14.6839 43.9868 14.6834 44.5986 14.6854C44.6907 14.6857 44.7837 14.6933 44.8744 14.7084C45.1493 14.7543 45.3206 14.9334 45.3516 15.2048C45.3597 15.2743 45.36 15.3447 45.36 15.4149C45.3605 16.2218 45.3603 17.0286 45.3603 17.8356C45.3582 17.8356 45.356 17.8356 45.354 17.8356Z" fill="#0B0B09"/>
<mask id="mask0" mask-type="alpha" maskUnits="userSpaceOnUse" x="21" y="11" width="53" height="15">
<path d="M21.3086 11.937H73.3228V25.1671H21.3086V11.937Z" fill="white"/>
</mask>
<g mask="url(#mask0)">
<path fill-rule="evenodd" clip-rule="evenodd" d="M25.8918 11.9372C27.2021 11.9372 28.5128 11.9364 29.8233 11.9385C29.9457 11.9388 30.0705 11.9458 30.1902 11.9696C30.3808 12.0073 30.4596 12.1051 30.4663 12.2959C30.4722 12.466 30.4682 12.6365 30.4682 12.807C30.4684 13.2328 30.4691 13.6588 30.4681 14.0847C30.4674 14.3594 30.3979 14.4377 30.1166 14.4439C29.7365 14.4523 29.356 14.4477 28.9759 14.4482C28.6521 14.4487 28.3282 14.4483 28.0045 14.4483C27.9788 14.4483 27.953 14.4478 27.9273 14.4485C27.6606 14.4554 27.6062 14.5094 27.606 14.7723C27.6058 17.0875 27.606 19.4024 27.6052 21.7176C27.6052 21.8026 27.5998 21.8878 27.59 21.9723C27.5728 22.1216 27.4876 22.2244 27.3403 22.265C27.2376 22.2931 27.1295 22.3147 27.0235 22.3165C26.6276 22.3239 26.2321 22.3227 25.8362 22.3227C25.4046 22.3227 24.973 22.3223 24.5414 22.3173C24.4446 22.3159 24.3462 22.3018 24.2527 22.2783C24.1343 22.2486 24.0562 22.1688 24.0374 22.0479C24.0244 21.9641 24.0169 21.8786 24.0169 21.794C24.016 19.4838 24.0162 17.1736 24.016 14.8636C24.0158 14.7937 24.0168 14.723 24.0098 14.6535C23.9978 14.5336 23.9506 14.4829 23.831 14.4629C23.7654 14.4521 23.698 14.449 23.6315 14.449C23.0199 14.4479 22.4084 14.449 21.7968 14.4477C21.7097 14.4475 21.6213 14.4461 21.5358 14.4322C21.3946 14.4092 21.3323 14.3389 21.3169 14.2002C21.3104 14.1406 21.3084 14.0803 21.3082 14.0202C21.3076 13.484 21.3073 12.9477 21.3081 12.4117C21.3088 12.0658 21.4173 11.9572 21.7753 11.9405C21.847 11.9373 21.9191 11.9373 21.9911 11.9373C23.2912 11.9372 24.5916 11.9372 25.8918 11.9372Z" fill="#0B0B09"/>
<path fill-rule="evenodd" clip-rule="evenodd" d="M69.1541 18.0941C69.3208 17.6905 69.4879 17.2868 69.6544 16.8828C69.8728 16.3533 70.0907 15.8237 70.3083 15.2941C70.3863 15.1044 70.4972 14.9388 70.6655 14.8133C70.7792 14.7284 70.9065 14.6836 71.051 14.6837C71.642 14.6845 72.2331 14.682 72.8241 14.6861C72.9308 14.6869 73.0402 14.702 73.1426 14.7304C73.2938 14.7723 73.3471 14.8708 73.3122 15.019C73.296 15.0866 73.2697 15.1529 73.2415 15.2171C71.8872 18.3223 70.532 21.4275 69.178 24.533C69.1067 24.6963 69.0168 24.8456 68.8845 24.9695C68.7447 25.1001 68.5827 25.1686 68.3854 25.1668C67.8713 25.1631 67.3573 25.1666 66.8434 25.1645C66.7513 25.1641 66.6584 25.1563 66.5673 25.1421C66.3354 25.1069 66.2585 24.9878 66.3251 24.7715C66.3443 24.7095 66.3716 24.6497 66.3976 24.5896C66.7323 23.8146 67.0661 23.0388 67.4044 22.2653C67.4436 22.175 67.4428 22.0995 67.4055 22.0095C66.4742 19.7682 65.5453 17.5263 64.6165 15.2843C64.5896 15.2194 64.5608 15.1543 64.5434 15.0866C64.4915 14.8828 64.5739 14.752 64.7838 14.7107C64.8738 14.6931 64.9673 14.6854 65.0591 14.6852C65.8145 14.6833 66.57 14.6862 67.3256 14.6826C67.5346 14.6814 67.7044 14.7556 67.8503 14.895C67.9737 15.0135 68.054 15.1565 68.1111 15.315C68.4275 16.1934 68.7462 17.0712 69.0646 17.9493C69.0828 17.9995 69.1036 18.0491 69.1229 18.0989C69.1333 18.0973 69.1438 18.0958 69.1541 18.0941Z" fill="#0B0B09"/>
</g>
<path fill-rule="evenodd" clip-rule="evenodd" d="M49.98 22.531C48.8772 22.5036 47.964 22.4183 47.0676 22.1973C46.9684 22.1728 46.8723 22.1366 46.7731 22.1113C46.6765 22.0865 46.6302 22.028 46.6108 21.9343C46.5452 21.6181 46.5253 21.2985 46.5313 20.9779C46.5347 20.7932 46.563 20.609 46.5826 20.4249C46.5867 20.3854 46.5989 20.3465 46.6105 20.3082C46.6792 20.0824 46.7332 20.051 46.9669 20.1121C47.6984 20.3035 48.4439 20.3543 49.1971 20.326C49.3293 20.3212 49.4623 20.2962 49.5916 20.2663C49.6643 20.2493 49.7377 20.2133 49.7968 20.1684C49.9293 20.0676 49.9379 19.8985 49.8116 19.7916C49.7275 19.7202 49.6288 19.6613 49.5285 19.6131C49.3444 19.5248 49.1524 19.4527 48.967 19.3667C48.6519 19.2209 48.3338 19.0799 48.0279 18.9175C47.7051 18.7469 47.4163 18.5257 47.1931 18.2382C46.6684 17.5621 46.555 16.8192 46.8606 16.0265C47.0037 15.6546 47.2826 15.3788 47.6127 15.1527C48.0573 14.8482 48.5585 14.6756 49.0826 14.559C49.7083 14.4197 50.3434 14.3933 50.9823 14.4062C51.4599 14.4158 51.9372 14.4356 52.4074 14.5282C52.5178 14.5498 52.6245 14.5885 52.734 14.6141C52.8455 14.64 52.9038 14.7107 52.9065 14.8159C52.9113 15.0006 52.9186 15.1866 52.902 15.37C52.8781 15.6345 52.8171 15.8938 52.7217 16.1438C52.7075 16.1814 52.6916 16.2185 52.6742 16.2545C52.5535 16.5064 52.4874 16.5377 52.2071 16.5037C51.779 16.4517 51.3509 16.4022 50.9218 16.3598C50.7898 16.3468 50.6547 16.3551 50.5217 16.3635C50.4406 16.3686 50.359 16.3862 50.2809 16.4089C50.1709 16.4403 50.0899 16.5059 50.0705 16.6243C50.0513 16.7392 50.1284 16.8028 50.2117 16.8537C50.3462 16.9357 50.4842 17.0136 50.6261 17.0832C50.9425 17.2387 51.266 17.38 51.5788 17.5412C51.9574 17.7362 52.3063 17.974 52.6085 18.2731C53.1523 18.811 53.4035 19.4563 53.3456 20.2089C53.3288 20.4272 53.2972 20.6488 53.2359 20.8586C53.0762 21.4064 52.7207 21.8072 52.2097 22.0795C51.8072 22.2937 51.3717 22.4094 50.9206 22.4607C50.5489 22.503 50.1736 22.517 49.98 22.531Z" fill="#0B0B09"/>
<path fill-rule="evenodd" clip-rule="evenodd" d="M54.8865 16.7595C54.7595 16.7595 54.6476 16.7601 54.5354 16.7593C54.4585 16.7585 54.3808 16.7606 54.3046 16.7518C54.1708 16.7365 54.0738 16.6644 54.0308 16.5398C54.005 16.4651 53.9873 16.3839 53.9864 16.3052C53.9818 15.9245 53.9838 15.5435 53.984 15.1628C53.984 15.1427 53.9855 15.1227 53.9876 15.1027C54.0124 14.8515 54.1452 14.722 54.4044 14.7084C54.5583 14.7004 54.7128 14.7049 54.8668 14.7041C54.9228 14.7038 54.9786 14.7041 55.0492 14.7041C55.0525 14.6445 55.0575 14.5962 55.0575 14.5479C55.0582 14.2823 55.0627 14.0166 55.0564 13.7511C55.0512 13.5193 55.1582 13.3547 55.3605 13.2518C55.4729 13.1944 55.5957 13.1441 55.7196 13.1231C56.3263 13.0197 56.9349 12.9257 57.5436 12.8328C57.6231 12.8207 57.7071 12.8271 57.7878 12.8362C57.9115 12.8504 57.9802 12.9292 57.9958 13.0451C58.0099 13.1491 58.0169 13.2547 58.0177 13.3596C58.0202 13.7654 58.0185 14.1713 58.0188 14.5772C58.0188 14.6119 58.0237 14.6465 58.027 14.6948C58.0738 14.698 58.1177 14.7034 58.1619 14.7036C58.4139 14.7045 58.6657 14.7028 58.9176 14.7045C59.1351 14.7061 59.267 14.7911 59.3327 14.9943C59.3692 15.107 59.3888 15.2291 59.3914 15.3475C59.3989 15.6881 59.3941 16.029 59.3939 16.3697C59.3939 16.3997 59.3919 16.4298 59.3899 16.4599C59.3733 16.7103 59.2817 16.8001 59.024 16.8045C58.7669 16.8088 58.51 16.805 58.2532 16.806C58.2135 16.806 58.1738 16.8112 58.1252 16.8146C58.1225 16.8712 58.1183 16.9202 58.1183 16.9689C58.1177 17.9161 58.1177 18.8629 58.118 19.8101C58.118 20.0952 58.2171 20.2107 58.507 20.2508C58.6028 20.2638 58.7014 20.2617 58.7987 20.259C58.9098 20.2561 58.9355 20.259 58.9705 20.3624C59.0181 20.5048 59.0584 20.6503 59.0879 20.7972C59.1645 21.1814 59.2086 21.5693 59.2092 21.9613C59.2092 22.0114 59.203 22.0617 59.2048 22.1114C59.2083 22.212 59.1644 22.2707 59.0612 22.2915C58.7951 22.3456 58.5316 22.4161 58.2636 22.4551C57.8058 22.5218 57.3445 22.5549 56.8813 22.4967C56.36 22.4311 55.882 22.269 55.4981 21.9016C55.15 21.5682 54.9627 21.1569 54.9152 20.6889C54.889 20.4303 54.8887 20.1684 54.8886 19.9084C54.8871 18.8962 54.8905 17.8841 54.8919 16.872C54.8919 16.8427 54.889 16.8132 54.8865 16.7595Z" fill="#0B0B09"/>
<path fill-rule="evenodd" clip-rule="evenodd" d="M60.5568 17.073C60.5568 15.4891 60.5568 13.9054 60.5571 12.3216C60.5571 12.2615 60.5549 12.2011 60.5604 12.1413C60.5786 11.9412 60.7087 11.8106 60.9136 11.7862C60.9697 11.7796 61.0265 11.7787 61.0829 11.7787C61.7355 11.7782 62.3884 11.7766 63.0411 11.7798C63.1742 11.7804 63.3091 11.7876 63.4391 11.8133C63.6515 11.8552 63.7249 11.9455 63.7437 12.1519C63.7487 12.2068 63.7487 12.2621 63.7487 12.317C63.749 15.4546 63.749 18.5921 63.7485 21.7295C63.7485 21.8094 63.7457 21.8901 63.7367 21.9695C63.7129 22.1767 63.6056 22.2842 63.3938 22.3128C63.3279 22.3216 63.2604 22.3221 63.1936 22.3221C62.4945 22.3228 61.7955 22.3234 61.0964 22.3216C60.9941 22.3214 60.8908 22.3154 60.7895 22.3009C60.6712 22.2834 60.5955 22.2127 60.5784 22.0933C60.5694 22.0289 60.5601 21.9639 60.5601 21.8995C60.558 20.952 60.5573 20.0049 60.5568 19.0577C60.5565 18.396 60.5568 17.7344 60.5568 17.073Z" fill="#0B0B09"/>
<mask id="mask1" mask-type="alpha" maskUnits="userSpaceOnUse" x="0" y="5" width="37" height="22">
<path d="M0.333008 5H36.7152V27H0.333008V5Z" fill="white"/>
</mask>
<g mask="url(#mask1)">
<path fill-rule="evenodd" clip-rule="evenodd" d="M30.9882 18.8881C30.9882 18.0714 30.9852 17.2545 30.9902 16.4378C30.9915 16.2535 31.0065 16.0668 31.0394 15.8853C31.1224 15.4275 31.3921 15.1061 31.8265 14.9149C32.1111 14.7898 32.412 14.7252 32.7209 14.7092C33.0798 14.6905 33.4396 14.6841 33.7991 14.682C34.6468 14.6772 35.4947 14.6778 36.3428 14.6764C36.3631 14.6764 36.3838 14.6761 36.4043 14.6765C36.6466 14.6801 36.7149 14.7465 36.7152 14.9824C36.7156 15.4935 36.7153 16.0046 36.7152 16.5155C36.7152 16.5506 36.7164 16.5863 36.712 16.6207C36.694 16.7672 36.6082 16.8611 36.4574 16.8798C36.3408 16.8939 36.2217 16.8875 36.104 16.8962C35.8432 16.9151 35.582 16.9334 35.3219 16.9603C35.104 16.9826 34.9078 17.0708 34.7177 17.173C34.383 17.3535 34.2139 17.6334 34.1894 18.0009C34.1838 18.0858 34.184 18.1712 34.184 18.2562C34.1836 19.3887 34.1842 20.5211 34.1826 21.6532C34.1825 21.7579 34.1748 21.8641 34.1558 21.9668C34.1151 22.1849 33.9816 22.2981 33.7572 22.3177C33.7214 22.3209 33.6852 22.3224 33.6495 22.3224C32.9968 22.3226 32.3442 22.3237 31.6916 22.3209C31.6002 22.3206 31.5066 22.3086 31.4178 22.2873C31.1838 22.2303 31.05 22.0765 31.0109 21.848C30.9939 21.7496 30.9892 21.6484 30.989 21.5486C30.9874 20.6617 30.9882 19.7749 30.9882 18.8881Z" fill="#0B0B09"/>
<path fill-rule="evenodd" clip-rule="evenodd" d="M9.75873 14.123C9.75873 14.1231 9.75873 14.1233 9.75873 14.1233C9.04944 14.1233 8.34001 14.1221 7.63059 14.1239C7.39361 14.1247 7.31781 14.2014 7.31603 14.4329C7.31411 14.6736 7.31535 14.9141 7.31562 15.1548C7.31589 15.4494 7.3605 15.4941 7.66233 15.4957C7.93488 15.497 8.20716 15.4958 8.47957 15.4961C8.73639 15.4963 8.7368 15.4965 8.7368 15.7441C8.73693 16.8919 8.7368 18.0395 8.73734 19.1874C8.73734 19.2574 8.73748 19.328 8.74733 19.3972C8.77059 19.5627 8.823 19.618 8.99703 19.6223C9.4283 19.6323 9.85984 19.6326 10.2914 19.635C10.3475 19.6352 10.4044 19.6283 10.4601 19.6196C10.585 19.6002 10.6529 19.5401 10.6763 19.418C10.6891 19.3499 10.6902 19.2788 10.6902 19.2089C10.691 18.0411 10.6905 16.8732 10.691 15.7054C10.691 15.5013 10.6962 15.4967 10.9097 15.4962C11.2231 15.4954 11.5369 15.4974 11.8502 15.4947C11.9215 15.4943 11.9932 15.4831 12.0639 15.4718C12.1323 15.461 12.1719 15.4155 12.1849 15.3512C12.1936 15.3073 12.1984 15.2619 12.1985 15.2172C12.1998 14.9565 12.2007 14.6959 12.1988 14.4353C12.1969 14.2006 12.1233 14.1287 11.8869 14.1235C11.8458 14.1225 11.8046 14.123 11.7635 14.123C11.0952 14.123 10.427 14.123 9.75873 14.123ZM9.76762 11.9539C10.8823 11.9539 11.997 11.9539 13.1117 11.9539C13.158 11.9539 13.2043 11.9555 13.2504 11.9528C13.3498 11.9473 13.3651 11.9333 13.3739 11.8379C13.3774 11.7983 13.3759 11.7579 13.3759 11.7179C13.376 11.2521 13.3822 10.7861 13.3733 10.3204C13.3688 10.0861 13.355 9.84934 13.3138 9.61894C13.1634 8.77699 12.7465 8.07725 12.071 7.53521C11.2751 6.89644 10.3594 6.63602 9.33102 6.75249C8.80124 6.81226 8.30964 6.97715 7.86551 7.25905C6.76874 7.95518 6.20558 8.95002 6.17178 10.2242C6.15851 10.7297 6.1685 11.236 6.16836 11.7418C6.16836 11.9533 6.16904 11.9537 6.39261 11.9537C7.51771 11.9539 8.64253 11.9539 9.76762 11.9539ZM15.2965 11.9431C15.3891 11.9476 15.4544 11.9533 15.5199 11.9535C16.296 11.9543 17.0722 11.9516 17.8482 11.9559C18.1279 11.9575 18.3994 12.011 18.6522 12.1345C19.1312 12.3685 19.3001 12.7506 19.1955 13.244C19.0264 14.0424 18.8349 14.8366 18.653 15.6327C18.3248 17.0684 17.997 18.5041 17.6686 19.9395C17.5758 20.345 17.4841 20.7507 17.3882 21.1552C17.2904 21.568 17.0831 21.9076 16.6922 22.12C16.4576 22.2474 16.2002 22.2892 15.9372 22.3012C15.7833 22.3082 15.6287 22.3026 15.4746 22.3026C11.5374 22.3026 7.60035 22.3029 3.66314 22.3018C3.33421 22.3018 3.0198 22.2386 2.74259 22.0536C2.44418 21.8545 2.26412 21.5737 2.18176 21.2355C2.05465 20.7148 1.9363 20.1918 1.8163 19.6694C1.3745 17.7456 0.933523 15.8218 0.492543 13.8981C0.443424 13.6831 0.384453 13.4694 0.353121 13.2521C0.330545 13.0957 0.323567 12.9302 0.350111 12.7753C0.395946 12.5087 0.566838 12.3157 0.805183 12.1807C1.08334 12.023 1.38791 11.9578 1.7052 11.9558C2.4762 11.9513 3.2472 11.9542 4.01819 11.9539C4.24846 11.9538 4.24901 11.9535 4.24915 11.7316C4.24929 11.2806 4.25038 10.8294 4.24915 10.3784C4.24203 7.88354 6.01252 5.71749 8.50461 5.13796C9.11949 4.99494 9.74272 4.9696 10.371 5.03216C11.438 5.13836 12.3883 5.52498 13.2212 6.17696C14.2393 6.97395 14.8907 7.99934 15.1735 9.24379C15.256 9.60627 15.2974 9.97421 15.2976 10.3459C15.2977 10.812 15.2969 11.278 15.2965 11.744C15.2964 11.8034 15.2965 11.8626 15.2965 11.9431Z" fill="#6AB644"/>
<path fill-rule="evenodd" clip-rule="evenodd" d="M11.3367 24.8591C11.3159 23.7514 12.2959 22.7497 13.5291 22.7623C14.6954 22.7743 15.6835 23.7235 15.6748 24.8948C15.6656 26.0662 14.6623 27.0299 13.438 26.9996C12.3323 26.9724 11.3044 26.0564 11.3367 24.8591Z" fill="#6AB644"/>
<path fill-rule="evenodd" clip-rule="evenodd" d="M8.21005 24.8792C8.23236 26.0286 7.23547 27.0012 6.04032 26.9994C4.84298 26.9981 3.86607 26.0203 3.87111 24.8742C3.87647 23.6983 4.88034 22.7566 6.05332 22.7612C7.21645 22.7661 8.22921 23.7089 8.21005 24.8792Z" fill="#6AB644"/>
</g>
</g>
<defs>
<clipPath id="clip0">
<rect width="73.3333" height="32" fill="white" transform="translate(0.333008)"/>
</clipPath>
</defs>
</svg>
