<svg width="51" height="32" viewBox="0 0 51 32" fill="none" xmlns="http://www.w3.org/2000/svg">
<g clip-path="url(#clip0)">
<g clip-path="url(#clip1)">
<path d="M36.9396 3H14.0596C6.90957 3 1.05957 8.85 1.05957 16C1.05957 23.15 6.90957 29 14.0596 29H36.9396C44.0896 29 49.9396 23.15 49.9396 16C49.9396 8.85 44.0896 3 36.9396 3Z" fill="white"/>
<path d="M36.9396 4.053C38.5451 4.053 40.1051 4.3715 41.5741 4.9955C42.9976 5.6 44.2716 6.4645 45.3766 7.563C46.4751 8.6615 47.3396 9.942 47.9441 11.3655C48.5681 12.8345 48.8866 14.3945 48.8866 16C48.8866 17.6055 48.5681 19.1655 47.9441 20.6345C47.3396 22.058 46.4751 23.332 45.3766 24.437C44.2781 25.5355 42.9976 26.4 41.5741 27.0045C40.1051 27.6285 38.5451 27.947 36.9396 27.947H14.0596C12.4541 27.947 10.8941 27.6285 9.42507 27.0045C8.00157 26.4 6.72757 25.5355 5.62257 24.437C4.52407 23.3385 3.65957 22.058 3.05507 20.6345C2.43107 19.1655 2.11257 17.6055 2.11257 16C2.11257 14.3945 2.43107 12.8345 3.05507 11.3655C3.65957 9.942 4.52407 8.668 5.62257 7.563C6.72107 6.4645 8.00157 5.6 9.42507 4.9955C10.8941 4.3715 12.4541 4.053 14.0596 4.053H36.9396ZM36.9396 3H14.0596C6.90957 3 1.05957 8.85 1.05957 16C1.05957 23.15 6.90957 29 14.0596 29H36.9396C44.0896 29 49.9396 23.15 49.9396 16C49.9396 8.85 44.0896 3 36.9396 3Z" fill="#3C4043"/>
<path d="M24.3691 16.923V20.8555H23.1211V11.1445H26.4296C27.2681 11.1445 27.9831 11.424 28.5681 11.983C29.1661 12.542 29.4651 13.2245 29.4651 14.0305C29.4651 14.856 29.1661 15.5385 28.5681 16.091C27.9896 16.6435 27.2746 16.9165 26.4296 16.9165H24.3691V16.923ZM24.3691 12.3405V15.727H26.4556C26.9496 15.727 27.3656 15.558 27.6906 15.2265C28.0221 14.895 28.1911 14.492 28.1911 14.037C28.1911 13.5885 28.0221 13.192 27.6906 12.8605C27.3656 12.516 26.9561 12.347 26.4556 12.347H24.3691V12.3405Z" fill="#3C4043"/>
<path d="M32.7281 13.9917C33.6511 13.9917 34.3791 14.2387 34.9121 14.7327C35.4451 15.2267 35.7116 15.9027 35.7116 16.7607V20.8557H34.5221V19.9327H34.4701C33.9566 20.6932 33.2676 21.0702 32.4096 21.0702C31.6751 21.0702 31.0641 20.8557 30.5701 20.4202C30.0761 19.9847 29.8291 19.4452 29.8291 18.7952C29.8291 18.1062 30.0891 17.5602 30.6091 17.1572C31.1291 16.7477 31.8246 16.5462 32.6891 16.5462C33.4301 16.5462 34.0411 16.6827 34.5156 16.9557V16.6697C34.5156 16.2342 34.3466 15.8702 34.0021 15.5647C33.6576 15.2592 33.2546 15.1097 32.7931 15.1097C32.0976 15.1097 31.5451 15.4022 31.1421 15.9937L30.0436 15.3047C30.6481 14.4272 31.5451 13.9917 32.7281 13.9917ZM31.1161 18.8147C31.1161 19.1397 31.2526 19.4127 31.5321 19.6272C31.8051 19.8417 32.1301 19.9522 32.5006 19.9522C33.0271 19.9522 33.4951 19.7572 33.9046 19.3672C34.3141 18.9772 34.5221 18.5222 34.5221 17.9957C34.1321 17.6902 33.5926 17.5342 32.8971 17.5342C32.3901 17.5342 31.9676 17.6577 31.6296 17.8982C31.2851 18.1517 31.1161 18.4572 31.1161 18.8147Z" fill="#3C4043"/>
<path d="M42.4975 14.2061L38.3375 23.7741H37.0505L38.5975 20.4266L35.8545 14.2061H37.213L39.189 18.9771H39.215L41.139 14.2061H42.4975Z" fill="#3C4043"/>
<path d="M19.4045 16.1301C19.4045 15.7232 19.3681 15.3339 19.3005 14.9595H14.0693V17.1045L17.0821 17.1051C16.9599 17.8188 16.5666 18.4272 15.9641 18.8328V20.2245H17.7574C18.8046 19.2553 19.4045 17.8227 19.4045 16.1301Z" fill="#4285F4"/>
<path d="M15.9643 18.8326C15.4651 19.1693 14.8222 19.3663 14.0702 19.3663C12.6174 19.3663 11.385 18.3874 10.9436 17.0679H9.09375V18.5031C10.0103 20.3218 11.8939 21.5698 14.0702 21.5698C15.5743 21.5698 16.8379 21.0751 17.7576 20.2236L15.9643 18.8326Z" fill="#34A853"/>
<path d="M10.7698 16.0035C10.7698 15.633 10.8315 15.2748 10.944 14.9381V13.5029H9.0941C8.71515 14.255 8.50195 15.1039 8.50195 16.0035C8.50195 16.9031 8.7158 17.752 9.0941 18.504L10.944 17.0688C10.8315 16.7321 10.7698 16.374 10.7698 16.0035Z" fill="#FABB05"/>
<path d="M14.0701 12.6395C14.8911 12.6395 15.6262 12.9223 16.2067 13.4748L17.7959 11.8868C16.8307 10.9879 15.5723 10.436 14.0701 10.436C11.8946 10.436 10.0102 11.684 9.09375 13.5027L10.9436 14.9379C11.385 13.6184 12.6174 12.6395 14.0701 12.6395Z" fill="#E94235"/>
</g>
</g>
<defs>
<clipPath id="clip0">
<rect width="49.4" height="32" fill="white" transform="translate(0.799805)"/>
</clipPath>
<clipPath id="clip1">
<rect width="49.4" height="26" fill="white" transform="translate(0.799805 3)"/>
</clipPath>
</defs>
</svg>
