<svg width="50" height="30" viewBox="0 0 50 30" fill="none" xmlns="http://www.w3.org/2000/svg">
<path fill-rule="evenodd" clip-rule="evenodd" d="M0 2.00036C0 0.895591 0.894407 0 1.99866 0H48.0013C49.1052 0 50 0.89784 50 2.00036V27.9996C50 29.1044 49.1056 30 48.0013 30H1.99866C0.894831 30 0 29.1022 0 27.9996V2.00036Z" fill="#808080"/>
<path fill-rule="evenodd" clip-rule="evenodd" d="M43.6782 17.5123H41.7603C41.5688 17.5123 41.4416 17.5194 41.3344 17.591C41.2234 17.6615 41.1806 17.7661 41.1806 17.9043C41.1806 18.0686 41.2744 18.1803 41.4108 18.2287C41.5218 18.2669 41.641 18.278 41.8163 18.278L42.3867 18.2931C42.9622 18.3072 43.3464 18.405 43.5806 18.6436C43.6232 18.6769 43.6489 18.7142 43.6782 18.7515V17.5123ZM43.6782 20.3834C43.4226 20.7531 42.9245 20.9405 42.2502 20.9405H40.2179V20.0066H42.2419C42.4427 20.0066 42.5832 19.9805 42.6678 19.8988C42.7411 19.8315 42.7922 19.7336 42.7922 19.6148C42.7922 19.4879 42.7411 19.3872 42.6637 19.3268C42.5873 19.2603 42.4762 19.2301 42.2929 19.2301C41.3048 19.1969 40.0721 19.2603 40.0721 17.8822C40.0721 17.2506 40.4776 16.5857 41.582 16.5857H43.6781V15.7192H41.7306C41.1428 15.7192 40.7159 15.8584 40.4135 16.0749V15.7192H37.5328C37.0722 15.7192 36.5314 15.8322 36.2757 16.0749V15.7192H31.1315V16.0749C30.7221 15.7828 30.0313 15.7192 29.7125 15.7192H26.3193V16.0749C25.9955 15.7647 25.2752 15.7192 24.8362 15.7192H21.0387L20.1697 16.6493L19.3558 15.7192H13.6831V21.7958H19.249L20.1444 20.851L20.9879 21.7958L24.4188 21.7988V20.3694H24.7561C25.2113 20.3763 25.7482 20.3582 26.2219 20.1557V21.7956H29.0517V20.2119H29.1882C29.3624 20.2119 29.3796 20.219 29.3796 20.3912V21.7955H37.9761C38.5219 21.7955 39.0923 21.6574 39.4083 21.4067V21.7955H42.135C42.7025 21.7955 43.2566 21.7168 43.6782 21.5154V20.3834ZM39.4805 18.6437C39.6854 18.8534 39.7952 19.1181 39.7952 19.5663C39.7952 20.5032 39.2033 20.9405 38.1421 20.9405H36.0924V20.0066H38.1338C38.3334 20.0066 38.475 19.9805 38.5637 19.8988C38.6361 19.8315 38.688 19.7336 38.688 19.6148C38.688 19.4879 38.6318 19.3872 38.5596 19.3268C38.4791 19.2603 38.3681 19.2301 38.1848 19.2301C37.2007 19.1969 35.9682 19.2603 35.9682 17.8822C35.9682 17.2506 36.3695 16.5857 37.4728 16.5857H39.5825V17.5126H37.6521C37.4607 17.5126 37.3363 17.5197 37.2304 17.5912C37.1152 17.6618 37.0724 17.7664 37.0724 17.9046C37.0724 18.0689 37.1703 18.1806 37.3027 18.2289C37.4137 18.2672 37.5329 18.2783 37.7122 18.2783L38.2787 18.2934C38.85 18.3072 39.2421 18.4049 39.4805 18.6437ZM29.9847 18.3747C29.8439 18.4573 29.6699 18.4644 29.4651 18.4644H28.1867V17.4863H29.4825C29.6699 17.4863 29.8574 17.4903 29.9847 17.565C30.1211 17.6355 30.2026 17.7704 30.2026 17.9567C30.2026 18.1431 30.1211 18.2932 29.9847 18.3747ZM30.6202 18.9167C30.8545 19.0022 31.046 19.1554 31.1357 19.2823C31.2843 19.4949 31.3059 19.6933 31.3101 20.0772V20.9405H30.2536V20.3956C30.2536 20.1336 30.2791 19.7457 30.0835 19.5432C29.9297 19.3872 29.6953 19.3499 29.3114 19.3499H28.1868V20.9405H27.1294V16.5856H29.559C30.0917 16.5856 30.4797 16.6088 30.8251 16.7911C31.1573 16.9895 31.3661 17.2614 31.3661 17.7581C31.366 18.4532 30.8972 18.8079 30.6202 18.9167ZM31.9496 16.5856H35.4619V17.4862H32.9977V18.2779H35.4017V19.1664H32.9977V20.0329L35.4619 20.0368V20.9405H31.9496V16.5856ZM24.8496 18.5953H23.4896V17.4863H24.8618C25.2417 17.4863 25.5054 17.6394 25.5054 18.0203C25.5054 18.3969 25.2539 18.5953 24.8496 18.5953ZM22.4415 20.5444L20.8258 18.7705L22.4415 17.0529V20.5444ZM18.269 20.0329H15.6816V19.1665H17.992V18.2779H15.6816V17.4862H18.32L19.471 18.7553L18.269 20.0329ZM26.6352 18.0203C26.6352 19.23 25.7226 19.4798 24.8027 19.4798H23.4896V20.9405H21.4442L20.1484 19.4988L18.8018 20.9405H14.6334V16.5856H18.8659L20.1606 18.013L21.4992 16.5856H24.8618C25.6969 16.5856 26.6352 16.8142 26.6352 18.0203Z" fill="white"/>
<path fill-rule="evenodd" clip-rule="evenodd" d="M9.61262 11.567L8.89235 9.83131L8.17619 11.567H9.61262ZM25.4801 10.8758C25.3355 10.9626 25.1645 10.9655 24.9596 10.9655H23.6812V9.99848H24.977C25.1603 9.99848 25.3517 10.0066 25.476 10.077C25.6125 10.1404 25.697 10.2754 25.697 10.4619C25.697 10.6522 25.6166 10.8053 25.4801 10.8758ZM34.6001 11.567L33.8719 9.83131L33.1476 11.567H34.6001ZM17.5999 13.4457H16.5211L16.5171 10.0358L14.9912 13.4457H14.0672L12.5373 10.0327V13.4457H10.3969L9.99255 12.4746H7.80145L7.39298 13.4457H6.25003L8.1345 9.09183H9.69801L11.4878 13.214V9.09183H13.2054L14.5826 12.0454L15.8477 9.09183H17.5998V13.4457H17.5999ZM21.8996 13.4457H18.3842V9.09183H21.8996V9.99847H19.4366V10.7833H21.8405V11.6757H19.4366V12.5452H21.8996V13.4457ZM26.8562 10.2644C26.8562 10.9586 26.3878 11.3172 26.1147 11.4249C26.345 11.5116 26.5417 11.6647 26.6353 11.7915C26.7839 12.0081 26.8095 12.2015 26.8095 12.5904V13.4457H25.7481L25.7441 12.8966C25.7441 12.6346 25.7695 12.2579 25.578 12.0484C25.4242 11.8953 25.1898 11.8621 24.811 11.8621H23.6813V13.4457H22.629V9.09183H25.0495C25.5873 9.09183 25.9835 9.10588 26.3237 9.30037C26.6567 9.49485 26.8562 9.77877 26.8562 10.2644ZM28.5403 13.4457H27.4666V9.09183H28.5403V13.4457ZM40.9974 13.4457H39.5061L37.5115 10.1779V13.4457H35.3683L34.9588 12.4746H32.7727L32.3754 13.4457H31.144C30.6325 13.4457 29.9848 13.3338 29.6181 12.9641C29.2482 12.5945 29.0558 12.0937 29.0558 11.302C29.0558 10.6563 29.1708 10.066 29.6231 9.59952C29.9633 9.25204 30.4961 9.09183 31.2213 9.09183H32.2401V10.0247H31.2427C30.8586 10.0247 30.6418 10.0812 30.4329 10.2827C30.2535 10.466 30.1304 10.8125 30.1304 11.2689C30.1304 11.7353 30.2241 12.0717 30.4197 12.2914C30.5818 12.4637 30.8762 12.5159 31.1532 12.5159H31.6258L33.1089 9.09196H34.6857L36.4674 13.2101V9.09196H38.0697L39.9195 12.1242V9.09196H40.9974V13.4457ZM6.2378 14.3009H8.03583L8.44125 13.3338H9.34889L9.75325 14.3009H13.291V13.5615L13.6068 14.304H15.4433L15.7591 13.5505V14.3009H24.5511L24.547 12.7134H24.7171C24.8362 12.7175 24.871 12.7284 24.871 12.9229V14.3009H29.4182V13.9313C29.785 14.1257 30.3555 14.3009 31.1062 14.3009H33.0192L33.4286 13.3338H34.3362L34.7366 14.3009H38.4231V13.3823L38.9814 14.3009H41.9355V8.22852H39.0119V8.94567L38.6025 8.22852H35.6026V8.94567L35.2266 8.22852H31.1744C30.4961 8.22852 29.8999 8.32215 29.4182 8.58309V8.22852H26.6219V8.58309C26.3154 8.31414 25.8977 8.22852 25.4334 8.22852H15.2172L14.5317 9.7969L13.8277 8.22852H10.6099V8.94567L10.2564 8.22852H7.51209L6.23767 11.1156V14.3009H6.2378Z" fill="white"/>
</svg>
