<svg width="50" height="30" viewBox="0 0 50 30" fill="none" xmlns="http://www.w3.org/2000/svg">
<path fill-rule="evenodd" clip-rule="evenodd" d="M0 2.00036C0 0.895591 0.894407 0 1.99866 0H48.0013C49.1052 0 50 0.89784 50 2.00036V27.9996C50 29.1044 49.1056 30 48.0013 30H1.99866C0.894831 30 0 29.1022 0 27.9996V2.00036Z" fill="#0072CE"/>
<path fill-rule="evenodd" clip-rule="evenodd" d="M8.89235 9.83131L9.61262 11.567H8.17619L8.89235 9.83131ZM24.9596 10.9655C25.1645 10.9655 25.3355 10.9626 25.4801 10.8758C25.6166 10.8053 25.697 10.6522 25.697 10.4619C25.697 10.2754 25.6125 10.1404 25.476 10.077C25.3517 10.0066 25.1603 9.99848 24.977 9.99848H23.6812V10.9655H24.9596ZM33.8719 9.83131L34.6001 11.567H33.1476L33.8719 9.83131ZM16.5211 13.4457H17.5997V9.09183H15.8477L14.5825 12.0454L13.2053 9.09183H11.4878V13.214L9.698 9.09183H8.13449L6.25002 13.4457H7.39297L7.80144 12.4746H9.99254L10.3969 13.4457H12.5373V10.0327L14.0672 13.4457H14.9911L16.5171 10.0358L16.5211 13.4457ZM18.3842 13.4457H21.8996V12.5452H19.4365V11.6757H21.8405V10.7833H19.4365V9.99847H21.8996V9.09183H18.3842V13.4457ZM26.1147 11.4249C26.3878 11.3172 26.8562 10.9586 26.8562 10.2644C26.8562 9.77877 26.6567 9.49485 26.3237 9.30037C25.9835 9.10588 25.5873 9.09183 25.0495 9.09183H22.629V13.4457H23.6813V11.8621H24.811C25.1898 11.8621 25.4242 11.8953 25.578 12.0484C25.7501 12.2366 25.747 12.56 25.7446 12.8137C25.7444 12.8423 25.7441 12.8701 25.7441 12.8966L25.7481 13.4457H26.8095V12.5904C26.8095 12.2015 26.7839 12.0081 26.6353 11.7915C26.5417 11.6647 26.345 11.5116 26.1147 11.4249ZM27.4666 13.4457H28.5403V9.09183H27.4666V13.4457ZM39.5062 13.4457H40.9974V9.09196H39.9196V12.1242L38.0697 9.09196H36.4675V13.2101L34.6858 9.09196H33.109L31.6258 12.5159H31.1532C30.8762 12.5159 30.5818 12.4637 30.4198 12.2914C30.2242 12.0717 30.1304 11.7353 30.1304 11.2689C30.1304 10.8125 30.2535 10.466 30.4329 10.2827C30.6418 10.0812 30.8586 10.0247 31.2427 10.0247H32.2401V9.09183H31.2213C30.4961 9.09183 29.9634 9.25204 29.6231 9.59952C29.1708 10.066 29.0558 10.6563 29.0558 11.302C29.0558 12.0937 29.2483 12.5945 29.6181 12.9641C29.9849 13.3338 30.6325 13.4457 31.144 13.4457H32.3754L32.7727 12.4746H34.9588L35.3683 13.4457H37.5115V10.1779L39.5062 13.4457ZM8.03583 14.3009H6.2378H6.23767V11.1156L7.51209 8.22852H10.2564L10.6099 8.94567V8.22852H13.8277L14.5317 9.7969L15.2172 8.22852H25.4334C25.8977 8.22852 26.3154 8.31414 26.6219 8.58309V8.22852H29.4182V8.58309C29.8999 8.32215 30.4961 8.22852 31.1744 8.22852H35.2266L35.6026 8.94567V8.22852H38.6025L39.0119 8.94567V8.22852H41.9355V14.3009H38.9814L38.4231 13.3823V14.3009H34.7366L34.3362 13.3338H33.4286L33.0192 14.3009H31.1062C30.3555 14.3009 29.785 14.1257 29.4182 13.9313V14.3009H24.871V12.9229C24.871 12.7284 24.8362 12.7175 24.7171 12.7134H24.547L24.5511 14.3009H15.7591V13.5505L15.4433 14.304H13.6068L13.291 13.5615V14.3009H9.75325L9.34889 13.3338H8.44125L8.03583 14.3009ZM41.7603 17.5123H43.6783V18.7515C43.6737 18.7457 43.6692 18.7399 43.6647 18.7341C43.6405 18.7027 43.6166 18.6717 43.5807 18.6437C43.3464 18.405 42.9622 18.3072 42.3867 18.2932L41.8164 18.2781C41.6411 18.2781 41.5218 18.2669 41.4108 18.2287C41.2744 18.1804 41.1807 18.0686 41.1807 17.9043C41.1807 17.7662 41.2234 17.6615 41.3345 17.591C41.4416 17.5194 41.5688 17.5123 41.7603 17.5123ZM42.2502 20.9405C42.9245 20.9405 43.4226 20.7531 43.6783 20.3834V21.5154C43.2566 21.7169 42.7025 21.7955 42.1351 21.7955H39.4083V21.4067C39.0924 21.6574 38.5219 21.7955 37.9761 21.7955H29.3796V20.3912C29.3796 20.219 29.3625 20.2119 29.1882 20.2119H29.0517V21.7957H26.2219V20.1557C25.7482 20.3582 25.2113 20.3763 24.7561 20.3694H24.4188V21.7988L20.988 21.7958L20.1445 20.8511L19.249 21.7958H13.6831V15.7192H19.3558L20.1697 16.6493L21.0387 15.7192H24.8362C25.2752 15.7192 25.9955 15.7647 26.3194 16.0749V15.7192H29.7125C30.0313 15.7192 30.7221 15.7828 31.1315 16.0749V15.7192H36.2757V16.0749C36.5315 15.8322 37.0722 15.7192 37.5328 15.7192H40.4135V16.0749C40.7159 15.8585 41.1428 15.7192 41.7306 15.7192H43.6781V16.5857H41.582C40.4777 16.5857 40.0721 17.2506 40.0721 17.8823C40.0721 19.1702 41.1488 19.1991 42.0963 19.2244C42.1626 19.2262 42.2283 19.228 42.293 19.2301C42.4762 19.2301 42.5874 19.2604 42.6637 19.3268C42.7411 19.3872 42.7923 19.4879 42.7923 19.6148C42.7923 19.7336 42.7411 19.8315 42.6678 19.8988C42.5832 19.9805 42.4428 20.0067 42.242 20.0067H40.2179V20.9405H42.2502ZM39.7952 19.5663C39.7952 19.1181 39.6854 18.8534 39.4805 18.6437C39.2422 18.4049 38.85 18.3072 38.2787 18.2934L37.7122 18.2783C37.533 18.2783 37.4137 18.2672 37.3027 18.229C37.1703 18.1806 37.0725 18.0689 37.0725 17.9046C37.0725 17.7664 37.1152 17.6618 37.2305 17.5913C37.3363 17.5197 37.4607 17.5126 37.6521 17.5126H39.5825V16.5857H37.4728C36.3696 16.5857 35.9683 17.2506 35.9683 17.8823C35.9683 19.1701 37.0446 19.1991 37.9888 19.2244C38.0549 19.2262 38.1204 19.228 38.1849 19.2302C38.3681 19.2302 38.4791 19.2604 38.5596 19.3268C38.6318 19.3872 38.688 19.4879 38.688 19.6148C38.688 19.7336 38.6361 19.8315 38.5637 19.8988C38.475 19.9805 38.3335 20.0067 38.1339 20.0067H36.0924V20.9405H38.1421C39.2034 20.9405 39.7952 20.5032 39.7952 19.5663ZM29.4651 18.4644C29.6699 18.4644 29.844 18.4573 29.9847 18.3747C30.1211 18.2932 30.2026 18.1431 30.2026 17.9567C30.2026 17.7704 30.1211 17.6355 29.9847 17.565C29.8574 17.4903 29.6699 17.4863 29.4825 17.4863H28.1867V18.4644H29.4651ZM31.1358 19.2823C31.046 19.1554 30.8545 19.0022 30.6203 18.9167C30.8973 18.8079 31.3661 18.4532 31.3662 17.7582C31.3662 17.2614 31.1573 16.9895 30.8252 16.7911C30.4798 16.6088 30.0918 16.5856 29.559 16.5856H27.1294V20.9405H28.1868V19.3499H29.3115C29.6954 19.3499 29.9298 19.3872 30.0835 19.5432C30.2596 19.7255 30.2565 20.058 30.2542 20.3137C30.2539 20.3421 30.2536 20.3695 30.2536 20.3956V20.9405H31.3101V20.0772C31.3059 19.6933 31.2844 19.4949 31.1358 19.2823ZM35.4619 16.5856H31.9497V20.9405H35.4619V20.0369L32.9977 20.0329V19.1665H35.4018V18.2779H32.9977V17.4862H35.4619V16.5856ZM23.4897 18.5954H24.8496C25.254 18.5954 25.5055 18.3969 25.5055 18.0203C25.5055 17.6395 25.2417 17.4863 24.8618 17.4863H23.4897V18.5954ZM20.8258 18.7705L22.4415 20.5444V17.053L20.8258 18.7705ZM15.6817 20.0329H18.269L19.4711 18.7553L18.32 17.4862H15.6817V18.2779H17.992V19.1665H15.6817V20.0329ZM24.8027 19.4798C25.7226 19.4798 26.6353 19.23 26.6353 18.0203C26.6353 16.8142 25.697 16.5856 24.8618 16.5856H21.4992L20.1607 18.0131L18.8659 16.5856H14.6334V20.9405H18.8018L20.1485 19.4988L21.4443 20.9405H23.4897V19.4798H24.8027Z" fill="white"/>
</svg>
