<?xml version="1.0" encoding="UTF-8"?>
<svg viewBox="0 0 21 15" version="1.1" xmlns="http://www.w3.org/2000/svg" xmlns:xlink="http://www.w3.org/1999/xlink">
    <!-- Generator: Sketch 52.6 (67491) - http://www.bohemiancoding.com/sketch -->
    <title>03-flags / antarctica</title>
    <desc>Created with Sketch.</desc>
    <defs>
        <linearGradient x1="50%" y1="0%" x2="50%" y2="95.3779805%" id="linearGradient-1">
            <stop stop-color="#8B929C" offset="0%"></stop>
            <stop stop-color="#4A5F79" offset="100%"></stop>
        </linearGradient>
    </defs>
    <g id="03-flags-/-antarctica" stroke="none" stroke-width="1" fill="none" fill-rule="evenodd">
        <rect id="Rectangle-path" fill="url(#linearGradient-1)" fill-rule="nonzero" x="0" y="0" width="21" height="15"></rect>
        <path d="M4.40000001,5.80000001 C4.1790861,5.80000001 4,5.62091391 4,5.40000001 C4,5.1790861 4.1790861,5 4.40000001,5 C4.62091391,5 4.80000001,5.1790861 4.80000001,5.40000001 C4.80000001,5.62091391 4.62091391,5.80000001 4.40000001,5.80000001 Z M3.40000001,4.80000001 C3.1790861,4.80000001 3,4.62091391 3,4.40000001 C3,4.1790861 3.1790861,4 3.40000001,4 C3.62091391,4 3.80000001,4.1790861 3.80000001,4.40000001 C3.80000001,4.62091391 3.62091391,4.80000001 3.40000001,4.80000001 Z M5.40000001,5.80000001 C5.1790861,5.80000001 5,5.62091391 5,5.40000001 C5,5.1790861 5.1790861,5 5.40000001,5 C5.62091391,5 5.80000001,5.1790861 5.80000001,5.40000001 C5.80000001,5.62091391 5.62091391,5.80000001 5.40000001,5.80000001 Z M5.40000001,6.80000001 C5.1790861,6.80000001 5,6.62091391 5,6.40000001 C5,6.1790861 5.1790861,6 5.40000001,6 C5.62091391,6 5.80000001,6.1790861 5.80000001,6.40000001 C5.80000001,6.62091391 5.62091391,6.80000001 5.40000001,6.80000001 Z M6.40000001,6.80000001 C6.1790861,6.80000001 6,6.62091391 6,6.40000001 C6,6.1790861 6.1790861,6 6.40000001,6 C6.62091391,6 6.80000001,6.1790861 6.80000001,6.40000001 C6.80000001,6.62091391 6.62091391,6.80000001 6.40000001,6.80000001 Z M7.40000001,6.80000001 C7.1790861,6.80000001 7,6.62091391 7,6.40000001 C7,6.1790861 7.1790861,6 7.40000001,6 C7.62091391,6 7.80000001,6.1790861 7.80000001,6.40000001 C7.80000001,6.62091391 7.62091391,6.80000001 7.40000001,6.80000001 Z M7.40000001,5.80000001 C7.1790861,5.80000001 7,5.62091391 7,5.40000001 C7,5.1790861 7.1790861,5 7.40000001,5 C7.62091391,5 7.80000001,5.1790861 7.80000001,5.40000001 C7.80000001,5.62091391 7.62091391,5.80000001 7.40000001,5.80000001 Z M8.40000001,6.80000001 C8.1790861,6.80000001 8,6.62091391 8,6.40000001 C8,6.1790861 8.1790861,6 8.40000001,6 C8.62091391,6 8.80000001,6.1790861 8.80000001,6.40000001 C8.80000001,6.62091391 8.62091391,6.80000001 8.40000001,6.80000001 Z M8.40000001,5.80000001 C8.1790861,5.80000001 8,5.62091391 8,5.40000001 C8,5.1790861 8.1790861,5 8.40000001,5 C8.62091391,5 8.80000001,5.1790861 8.80000001,5.40000001 C8.80000001,5.62091391 8.62091391,5.80000001 8.40000001,5.80000001 Z M8.40000001,4.80000001 C8.1790861,4.80000001 8,4.62091391 8,4.40000001 C8,4.1790861 8.1790861,4 8.40000001,4 C8.62091391,4 8.80000001,4.1790861 8.80000001,4.40000001 C8.80000001,4.62091391 8.62091391,4.80000001 8.40000001,4.80000001 Z M8.40000001,3.80000001 C8.1790861,3.80000001 8,3.62091391 8,3.40000001 C8,3.1790861 8.1790861,3 8.40000001,3 C8.62091391,3 8.80000001,3.1790861 8.80000001,3.40000001 C8.80000001,3.62091391 8.62091391,3.80000001 8.40000001,3.80000001 Z M9.40000001,3.80000001 C9.1790861,3.80000001 9,3.62091391 9,3.40000001 C9,3.1790861 9.1790861,3 9.40000001,3 C9.62091391,3 9.80000001,3.1790861 9.80000001,3.40000001 C9.80000001,3.62091391 9.62091391,3.80000001 9.40000001,3.80000001 Z M9.40000001,2.80000001 C9.1790861,2.80000001 9,2.62091391 9,2.40000001 C9,2.1790861 9.1790861,2 9.40000001,2 C9.62091391,2 9.80000001,2.1790861 9.80000001,2.40000001 C9.80000001,2.62091391 9.62091391,2.80000001 9.40000001,2.80000001 Z M10.4,2.80000001 C10.1790861,2.80000001 10,2.62091391 10,2.40000001 C10,2.1790861 10.1790861,2 10.4,2 C10.6209139,2 10.8,2.1790861 10.8,2.40000001 C10.8,2.62091391 10.6209139,2.80000001 10.4,2.80000001 Z M10.4,3.80000001 C10.1790861,3.80000001 10,3.62091391 10,3.40000001 C10,3.1790861 10.1790861,3 10.4,3 C10.6209139,3 10.8,3.1790861 10.8,3.40000001 C10.8,3.62091391 10.6209139,3.80000001 10.4,3.80000001 Z M11.4,3.80000001 C11.1790861,3.80000001 11,3.62091391 11,3.40000001 C11,3.1790861 11.1790861,3 11.4,3 C11.6209139,3 11.8,3.1790861 11.8,3.40000001 C11.8,3.62091391 11.6209139,3.80000001 11.4,3.80000001 Z M12.4,3.80000001 C12.1790861,3.80000001 12,3.62091391 12,3.40000001 C12,3.1790861 12.1790861,3 12.4,3 C12.6209139,3 12.8,3.1790861 12.8,3.40000001 C12.8,3.62091391 12.6209139,3.80000001 12.4,3.80000001 Z M12.4,4.80000001 C12.1790861,4.80000001 12,4.62091391 12,4.40000001 C12,4.1790861 12.1790861,4 12.4,4 C12.6209139,4 12.8,4.1790861 12.8,4.40000001 C12.8,4.62091391 12.6209139,4.80000001 12.4,4.80000001 Z M13.4,4.80000001 C13.1790861,4.80000001 13,4.62091391 13,4.40000001 C13,4.1790861 13.1790861,4 13.4,4 C13.6209139,4 13.8,4.1790861 13.8,4.40000001 C13.8,4.62091391 13.6209139,4.80000001 13.4,4.80000001 Z M14.4,4.80000001 C14.1790861,4.80000001 14,4.62091391 14,4.40000001 C14,4.1790861 14.1790861,4 14.4,4 C14.6209139,4 14.8,4.1790861 14.8,4.40000001 C14.8,4.62091391 14.6209139,4.80000001 14.4,4.80000001 Z M15.4,4.80000001 C15.1790861,4.80000001 15,4.62091391 15,4.40000001 C15,4.1790861 15.1790861,4 15.4,4 C15.6209139,4 15.8,4.1790861 15.8,4.40000001 C15.8,4.62091391 15.6209139,4.80000001 15.4,4.80000001 Z M15.4,5.80000001 C15.1790861,5.80000001 15,5.62091391 15,5.40000001 C15,5.1790861 15.1790861,5 15.4,5 C15.6209139,5 15.8,5.1790861 15.8,5.40000001 C15.8,5.62091391 15.6209139,5.80000001 15.4,5.80000001 Z M15.4,6.80000001 C15.1790861,6.80000001 15,6.62091391 15,6.40000001 C15,6.1790861 15.1790861,6 15.4,6 C15.6209139,6 15.8,6.1790861 15.8,6.40000001 C15.8,6.62091391 15.6209139,6.80000001 15.4,6.80000001 Z M15.4,7.80000001 C15.1790861,7.80000001 15,7.62091391 15,7.40000001 C15,7.1790861 15.1790861,7 15.4,7 C15.6209139,7 15.8,7.1790861 15.8,7.40000001 C15.8,7.62091391 15.6209139,7.80000001 15.4,7.80000001 Z M16.4,7.80000001 C16.1790861,7.80000001 16,7.62091391 16,7.40000001 C16,7.1790861 16.1790861,7 16.4,7 C16.6209139,7 16.8,7.1790861 16.8,7.40000001 C16.8,7.62091391 16.6209139,7.80000001 16.4,7.80000001 Z M16.4,8.80000001 C16.1790861,8.80000001 16,8.62091391 16,8.40000001 C16,8.1790861 16.1790861,8 16.4,8 C16.6209139,8 16.8,8.1790861 16.8,8.40000001 C16.8,8.62091391 16.6209139,8.80000001 16.4,8.80000001 Z M16.4,9.80000001 C16.1790861,9.80000001 16,9.62091391 16,9.40000001 C16,9.1790861 16.1790861,9 16.4,9 C16.6209139,9 16.8,9.1790861 16.8,9.40000001 C16.8,9.62091391 16.6209139,9.80000001 16.4,9.80000001 Z M15.4,9.80000001 C15.1790861,9.80000001 15,9.62091391 15,9.40000001 C15,9.1790861 15.1790861,9 15.4,9 C15.6209139,9 15.8,9.1790861 15.8,9.40000001 C15.8,9.62091391 15.6209139,9.80000001 15.4,9.80000001 Z M15.4,10.8 C15.1790861,10.8 15,10.6209139 15,10.4 C15,10.1790861 15.1790861,10 15.4,10 C15.6209139,10 15.8,10.1790861 15.8,10.4 C15.8,10.6209139 15.6209139,10.8 15.4,10.8 Z M14.4,10.8 C14.1790861,10.8 14,10.6209139 14,10.4 C14,10.1790861 14.1790861,10 14.4,10 C14.6209139,10 14.8,10.1790861 14.8,10.4 C14.8,10.6209139 14.6209139,10.8 14.4,10.8 Z M14.4,11.8 C14.1790861,11.8 14,11.6209139 14,11.4 C14,11.1790861 14.1790861,11 14.4,11 C14.6209139,11 14.8,11.1790861 14.8,11.4 C14.8,11.6209139 14.6209139,11.8 14.4,11.8 Z M13.4,11.8 C13.1790861,11.8 13,11.6209139 13,11.4 C13,11.1790861 13.1790861,11 13.4,11 C13.6209139,11 13.8,11.1790861 13.8,11.4 C13.8,11.6209139 13.6209139,11.8 13.4,11.8 Z M13.4,12.8 C13.1790861,12.8 13,12.6209139 13,12.4 C13,12.1790861 13.1790861,12 13.4,12 C13.6209139,12 13.8,12.1790861 13.8,12.4 C13.8,12.6209139 13.6209139,12.8 13.4,12.8 Z M12.4,12.8 C12.1790861,12.8 12,12.6209139 12,12.4 C12,12.1790861 12.1790861,12 12.4,12 C12.6209139,12 12.8,12.1790861 12.8,12.4 C12.8,12.6209139 12.6209139,12.8 12.4,12.8 Z M11.4,12.8 C11.1790861,12.8 11,12.6209139 11,12.4 C11,12.1790861 11.1790861,12 11.4,12 C11.6209139,12 11.8,12.1790861 11.8,12.4 C11.8,12.6209139 11.6209139,12.8 11.4,12.8 Z M11.4,11.8 C11.1790861,11.8 11,11.6209139 11,11.4 C11,11.1790861 11.1790861,11 11.4,11 C11.6209139,11 11.8,11.1790861 11.8,11.4 C11.8,11.6209139 11.6209139,11.8 11.4,11.8 Z M10.4,11.8 C10.1790861,11.8 10,11.6209139 10,11.4 C10,11.1790861 10.1790861,11 10.4,11 C10.6209139,11 10.8,11.1790861 10.8,11.4 C10.8,11.6209139 10.6209139,11.8 10.4,11.8 Z M10.4,10.8 C10.1790861,10.8 10,10.6209139 10,10.4 C10,10.1790861 10.1790861,10 10.4,10 C10.6209139,10 10.8,10.1790861 10.8,10.4 C10.8,10.6209139 10.6209139,10.8 10.4,10.8 Z M9.40000001,10.8 C9.1790861,10.8 9,10.6209139 9,10.4 C9,10.1790861 9.1790861,10 9.40000001,10 C9.62091391,10 9.80000001,10.1790861 9.80000001,10.4 C9.80000001,10.6209139 9.62091391,10.8 9.40000001,10.8 Z M8.40000001,10.8 C8.1790861,10.8 8,10.6209139 8,10.4 C8,10.1790861 8.1790861,10 8.40000001,10 C8.62091391,10 8.80000001,10.1790861 8.80000001,10.4 C8.80000001,10.6209139 8.62091391,10.8 8.40000001,10.8 Z M7.40000001,10.8 C7.1790861,10.8 7,10.6209139 7,10.4 C7,10.1790861 7.1790861,10 7.40000001,10 C7.62091391,10 7.80000001,10.1790861 7.80000001,10.4 C7.80000001,10.6209139 7.62091391,10.8 7.40000001,10.8 Z M6.40000001,10.8 C6.1790861,10.8 6,10.6209139 6,10.4 C6,10.1790861 6.1790861,10 6.40000001,10 C6.62091391,10 6.80000001,10.1790861 6.80000001,10.4 C6.80000001,10.6209139 6.62091391,10.8 6.40000001,10.8 Z M6.40000001,9.80000001 C6.1790861,9.80000001 6,9.62091391 6,9.40000001 C6,9.1790861 6.1790861,9 6.40000001,9 C6.62091391,9 6.80000001,9.1790861 6.80000001,9.40000001 C6.80000001,9.62091391 6.62091391,9.80000001 6.40000001,9.80000001 Z M6.40000001,8.80000001 C6.1790861,8.80000001 6,8.62091391 6,8.40000001 C6,8.1790861 6.1790861,8 6.40000001,8 C6.62091391,8 6.80000001,8.1790861 6.80000001,8.40000001 C6.80000001,8.62091391 6.62091391,8.80000001 6.40000001,8.80000001 Z M6.40000001,7.80000001 C6.1790861,7.80000001 6,7.62091391 6,7.40000001 C6,7.1790861 6.1790861,7 6.40000001,7 C6.62091391,7 6.80000001,7.1790861 6.80000001,7.40000001 C6.80000001,7.62091391 6.62091391,7.80000001 6.40000001,7.80000001 Z M7.40000001,7.80000001 C7.1790861,7.80000001 7,7.62091391 7,7.40000001 C7,7.1790861 7.1790861,7 7.40000001,7 C7.62091391,7 7.80000001,7.1790861 7.80000001,7.40000001 C7.80000001,7.62091391 7.62091391,7.80000001 7.40000001,7.80000001 Z M7.40000001,8.80000001 C7.1790861,8.80000001 7,8.62091391 7,8.40000001 C7,8.1790861 7.1790861,8 7.40000001,8 C7.62091391,8 7.80000001,8.1790861 7.80000001,8.40000001 C7.80000001,8.62091391 7.62091391,8.80000001 7.40000001,8.80000001 Z M7.40000001,9.80000001 C7.1790861,9.80000001 7,9.62091391 7,9.40000001 C7,9.1790861 7.1790861,9 7.40000001,9 C7.62091391,9 7.80000001,9.1790861 7.80000001,9.40000001 C7.80000001,9.62091391 7.62091391,9.80000001 7.40000001,9.80000001 Z M8.40000001,9.80000001 C8.1790861,9.80000001 8,9.62091391 8,9.40000001 C8,9.1790861 8.1790861,9 8.40000001,9 C8.62091391,9 8.80000001,9.1790861 8.80000001,9.40000001 C8.80000001,9.62091391 8.62091391,9.80000001 8.40000001,9.80000001 Z M8.40000001,8.80000001 C8.1790861,8.80000001 8,8.62091391 8,8.40000001 C8,8.1790861 8.1790861,8 8.40000001,8 C8.62091391,8 8.80000001,8.1790861 8.80000001,8.40000001 C8.80000001,8.62091391 8.62091391,8.80000001 8.40000001,8.80000001 Z M8.40000001,7.80000001 C8.1790861,7.80000001 8,7.62091391 8,7.40000001 C8,7.1790861 8.1790861,7 8.40000001,7 C8.62091391,7 8.80000001,7.1790861 8.80000001,7.40000001 C8.80000001,7.62091391 8.62091391,7.80000001 8.40000001,7.80000001 Z M9.40000001,7.80000001 C9.1790861,7.80000001 9,7.62091391 9,7.40000001 C9,7.1790861 9.1790861,7 9.40000001,7 C9.62091391,7 9.80000001,7.1790861 9.80000001,7.40000001 C9.80000001,7.62091391 9.62091391,7.80000001 9.40000001,7.80000001 Z M9.40000001,6.80000001 C9.1790861,6.80000001 9,6.62091391 9,6.40000001 C9,6.1790861 9.1790861,6 9.40000001,6 C9.62091391,6 9.80000001,6.1790861 9.80000001,6.40000001 C9.80000001,6.62091391 9.62091391,6.80000001 9.40000001,6.80000001 Z M9.40000001,5.80000001 C9.1790861,5.80000001 9,5.62091391 9,5.40000001 C9,5.1790861 9.1790861,5 9.40000001,5 C9.62091391,5 9.80000001,5.1790861 9.80000001,5.40000001 C9.80000001,5.62091391 9.62091391,5.80000001 9.40000001,5.80000001 Z M9.40000001,4.80000001 C9.1790861,4.80000001 9,4.62091391 9,4.40000001 C9,4.1790861 9.1790861,4 9.40000001,4 C9.62091391,4 9.80000001,4.1790861 9.80000001,4.40000001 C9.80000001,4.62091391 9.62091391,4.80000001 9.40000001,4.80000001 Z M10.4,4.80000001 C10.1790861,4.80000001 10,4.62091391 10,4.40000001 C10,4.1790861 10.1790861,4 10.4,4 C10.6209139,4 10.8,4.1790861 10.8,4.40000001 C10.8,4.62091391 10.6209139,4.80000001 10.4,4.80000001 Z M11.4,4.80000001 C11.1790861,4.80000001 11,4.62091391 11,4.40000001 C11,4.1790861 11.1790861,4 11.4,4 C11.6209139,4 11.8,4.1790861 11.8,4.40000001 C11.8,4.62091391 11.6209139,4.80000001 11.4,4.80000001 Z M11.4,5.80000001 C11.1790861,5.80000001 11,5.62091391 11,5.40000001 C11,5.1790861 11.1790861,5 11.4,5 C11.6209139,5 11.8,5.1790861 11.8,5.40000001 C11.8,5.62091391 11.6209139,5.80000001 11.4,5.80000001 Z M12.4,5.80000001 C12.1790861,5.80000001 12,5.62091391 12,5.40000001 C12,5.1790861 12.1790861,5 12.4,5 C12.6209139,5 12.8,5.1790861 12.8,5.40000001 C12.8,5.62091391 12.6209139,5.80000001 12.4,5.80000001 Z M13.4,5.80000001 C13.1790861,5.80000001 13,5.62091391 13,5.40000001 C13,5.1790861 13.1790861,5 13.4,5 C13.6209139,5 13.8,5.1790861 13.8,5.40000001 C13.8,5.62091391 13.6209139,5.80000001 13.4,5.80000001 Z M14.4,5.80000001 C14.1790861,5.80000001 14,5.62091391 14,5.40000001 C14,5.1790861 14.1790861,5 14.4,5 C14.6209139,5 14.8,5.1790861 14.8,5.40000001 C14.8,5.62091391 14.6209139,5.80000001 14.4,5.80000001 Z M14.4,6.80000001 C14.1790861,6.80000001 14,6.62091391 14,6.40000001 C14,6.1790861 14.1790861,6 14.4,6 C14.6209139,6 14.8,6.1790861 14.8,6.40000001 C14.8,6.62091391 14.6209139,6.80000001 14.4,6.80000001 Z M14.4,7.80000001 C14.1790861,7.80000001 14,7.62091391 14,7.40000001 C14,7.1790861 14.1790861,7 14.4,7 C14.6209139,7 14.8,7.1790861 14.8,7.40000001 C14.8,7.62091391 14.6209139,7.80000001 14.4,7.80000001 Z M14.4,8.80000001 C14.1790861,8.80000001 14,8.62091391 14,8.40000001 C14,8.1790861 14.1790861,8 14.4,8 C14.6209139,8 14.8,8.1790861 14.8,8.40000001 C14.8,8.62091391 14.6209139,8.80000001 14.4,8.80000001 Z M14.4,9.80000001 C14.1790861,9.80000001 14,9.62091391 14,9.40000001 C14,9.1790861 14.1790861,9 14.4,9 C14.6209139,9 14.8,9.1790861 14.8,9.40000001 C14.8,9.62091391 14.6209139,9.80000001 14.4,9.80000001 Z M13.4,9.80000001 C13.1790861,9.80000001 13,9.62091391 13,9.40000001 C13,9.1790861 13.1790861,9 13.4,9 C13.6209139,9 13.8,9.1790861 13.8,9.40000001 C13.8,9.62091391 13.6209139,9.80000001 13.4,9.80000001 Z M13.4,10.8 C13.1790861,10.8 13,10.6209139 13,10.4 C13,10.1790861 13.1790861,10 13.4,10 C13.6209139,10 13.8,10.1790861 13.8,10.4 C13.8,10.6209139 13.6209139,10.8 13.4,10.8 Z M12.4,10.8 C12.1790861,10.8 12,10.6209139 12,10.4 C12,10.1790861 12.1790861,10 12.4,10 C12.6209139,10 12.8,10.1790861 12.8,10.4 C12.8,10.6209139 12.6209139,10.8 12.4,10.8 Z M11.4,10.8 C11.1790861,10.8 11,10.6209139 11,10.4 C11,10.1790861 11.1790861,10 11.4,10 C11.6209139,10 11.8,10.1790861 11.8,10.4 C11.8,10.6209139 11.6209139,10.8 11.4,10.8 Z M11.4,9.80000001 C11.1790861,9.80000001 11,9.62091391 11,9.40000001 C11,9.1790861 11.1790861,9 11.4,9 C11.6209139,9 11.8,9.1790861 11.8,9.40000001 C11.8,9.62091391 11.6209139,9.80000001 11.4,9.80000001 Z M11.4,8.80000001 C11.1790861,8.80000001 11,8.62091391 11,8.40000001 C11,8.1790861 11.1790861,8 11.4,8 C11.6209139,8 11.8,8.1790861 11.8,8.40000001 C11.8,8.62091391 11.6209139,8.80000001 11.4,8.80000001 Z M11.4,7.80000001 C11.1790861,7.80000001 11,7.62091391 11,7.40000001 C11,7.1790861 11.1790861,7 11.4,7 C11.6209139,7 11.8,7.1790861 11.8,7.40000001 C11.8,7.62091391 11.6209139,7.80000001 11.4,7.80000001 Z M12.4,7.80000001 C12.1790861,7.80000001 12,7.62091391 12,7.40000001 C12,7.1790861 12.1790861,7 12.4,7 C12.6209139,7 12.8,7.1790861 12.8,7.40000001 C12.8,7.62091391 12.6209139,7.80000001 12.4,7.80000001 Z M10.4,9.80000001 C10.1790861,9.80000001 10,9.62091391 10,9.40000001 C10,9.1790861 10.1790861,9 10.4,9 C10.6209139,9 10.8,9.1790861 10.8,9.40000001 C10.8,9.62091391 10.6209139,9.80000001 10.4,9.80000001 Z M9.40000001,9.80000001 C9.1790861,9.80000001 9,9.62091391 9,9.40000001 C9,9.1790861 9.1790861,9 9.40000001,9 C9.62091391,9 9.80000001,9.1790861 9.80000001,9.40000001 C9.80000001,9.62091391 9.62091391,9.80000001 9.40000001,9.80000001 Z M9.40000001,8.80000001 C9.1790861,8.80000001 9,8.62091391 9,8.40000001 C9,8.1790861 9.1790861,8 9.40000001,8 C9.62091391,8 9.80000001,8.1790861 9.80000001,8.40000001 C9.80000001,8.62091391 9.62091391,8.80000001 9.40000001,8.80000001 Z M10.4,8.80000001 C10.1790861,8.80000001 10,8.62091391 10,8.40000001 C10,8.1790861 10.1790861,8 10.4,8 C10.6209139,8 10.8,8.1790861 10.8,8.40000001 C10.8,8.62091391 10.6209139,8.80000001 10.4,8.80000001 Z M10.4,7.80000001 C10.1790861,7.80000001 10,7.62091391 10,7.40000001 C10,7.1790861 10.1790861,7 10.4,7 C10.6209139,7 10.8,7.1790861 10.8,7.40000001 C10.8,7.62091391 10.6209139,7.80000001 10.4,7.80000001 Z M10.4,6.80000001 C10.1790861,6.80000001 10,6.62091391 10,6.40000001 C10,6.1790861 10.1790861,6 10.4,6 C10.6209139,6 10.8,6.1790861 10.8,6.40000001 C10.8,6.62091391 10.6209139,6.80000001 10.4,6.80000001 Z M11.4,6.80000001 C11.1790861,6.80000001 11,6.62091391 11,6.40000001 C11,6.1790861 11.1790861,6 11.4,6 C11.6209139,6 11.8,6.1790861 11.8,6.40000001 C11.8,6.62091391 11.6209139,6.80000001 11.4,6.80000001 Z M12.4,6.80000001 C12.1790861,6.80000001 12,6.62091391 12,6.40000001 C12,6.1790861 12.1790861,6 12.4,6 C12.6209139,6 12.8,6.1790861 12.8,6.40000001 C12.8,6.62091391 12.6209139,6.80000001 12.4,6.80000001 Z M13.4,6.80000001 C13.1790861,6.80000001 13,6.62091391 13,6.40000001 C13,6.1790861 13.1790861,6 13.4,6 C13.6209139,6 13.8,6.1790861 13.8,6.40000001 C13.8,6.62091391 13.6209139,6.80000001 13.4,6.80000001 Z M13.4,7.80000001 C13.1790861,7.80000001 13,7.62091391 13,7.40000001 C13,7.1790861 13.1790861,7 13.4,7 C13.6209139,7 13.8,7.1790861 13.8,7.40000001 C13.8,7.62091391 13.6209139,7.80000001 13.4,7.80000001 Z M13.4,8.80000001 C13.1790861,8.80000001 13,8.62091391 13,8.40000001 C13,8.1790861 13.1790861,8 13.4,8 C13.6209139,8 13.8,8.1790861 13.8,8.40000001 C13.8,8.62091391 13.6209139,8.80000001 13.4,8.80000001 Z M12.4,8.80000001 C12.1790861,8.80000001 12,8.62091391 12,8.40000001 C12,8.1790861 12.1790861,8 12.4,8 C12.6209139,8 12.8,8.1790861 12.8,8.40000001 C12.8,8.62091391 12.6209139,8.80000001 12.4,8.80000001 Z M12.4,9.80000001 C12.1790861,9.80000001 12,9.62091391 12,9.40000001 C12,9.1790861 12.1790861,9 12.4,9 C12.6209139,9 12.8,9.1790861 12.8,9.40000001 C12.8,9.62091391 12.6209139,9.80000001 12.4,9.80000001 Z M10.4,5.80000001 C10.1790861,5.80000001 10,5.62091391 10,5.40000001 C10,5.1790861 10.1790861,5 10.4,5 C10.6209139,5 10.8,5.1790861 10.8,5.40000001 C10.8,5.62091391 10.6209139,5.80000001 10.4,5.80000001 Z M12.4,11.8 C12.1790861,11.8 12,11.6209139 12,11.4 C12,11.1790861 12.1790861,11 12.4,11 C12.6209139,11 12.8,11.1790861 12.8,11.4 C12.8,11.6209139 12.6209139,11.8 12.4,11.8 Z M15.4,8.80000001 C15.1790861,8.80000001 15,8.62091391 15,8.40000001 C15,8.1790861 15.1790861,8 15.4,8 C15.6209139,8 15.8,8.1790861 15.8,8.40000001 C15.8,8.62091391 15.6209139,8.80000001 15.4,8.80000001 Z M5.40000001,9.80000001 C5.1790861,9.80000001 5,9.62091391 5,9.40000001 C5,9.1790861 5.1790861,9 5.40000001,9 C5.62091391,9 5.80000001,9.1790861 5.80000001,9.40000001 C5.80000001,9.62091391 5.62091391,9.80000001 5.40000001,9.80000001 Z M5.40000001,8.80000001 C5.1790861,8.80000001 5,8.62091391 5,8.40000001 C5,8.1790861 5.1790861,8 5.40000001,8 C5.62091391,8 5.80000001,8.1790861 5.80000001,8.40000001 C5.80000001,8.62091391 5.62091391,8.80000001 5.40000001,8.80000001 Z M5.40000001,7.80000001 C5.1790861,7.80000001 5,7.62091391 5,7.40000001 C5,7.1790861 5.1790861,7 5.40000001,7 C5.62091391,7 5.80000001,7.1790861 5.80000001,7.40000001 C5.80000001,7.62091391 5.62091391,7.80000001 5.40000001,7.80000001 Z M12.4,13.8 C12.1790861,13.8 12,13.6209139 12,13.4 C12,13.1790861 12.1790861,13 12.4,13 C12.6209139,13 12.8,13.1790861 12.8,13.4 C12.8,13.6209139 12.6209139,13.8 12.4,13.8 Z M14.4,12.8 C14.1790861,12.8 14,12.6209139 14,12.4 C14,12.1790861 14.1790861,12 14.4,12 C14.6209139,12 14.8,12.1790861 14.8,12.4 C14.8,12.6209139 14.6209139,12.8 14.4,12.8 Z M11.4,2.80000001 C11.1790861,2.80000001 11,2.62091391 11,2.40000001 C11,2.1790861 11.1790861,2 11.4,2 C11.6209139,2 11.8,2.1790861 11.8,2.40000001 C11.8,2.62091391 11.6209139,2.80000001 11.4,2.80000001 Z" id="Combined-Shape" fill="#FFFFFF" fill-rule="nonzero"></path>
    </g>
</svg>