<?xml version="1.0" encoding="UTF-8"?>
<svg version="1.1" viewBox="0 0 21 15" xmlns="http://www.w3.org/2000/svg">
<title>icons / country-flags / eurozone</title>
<desc>Created with Sketch.</desc>
<g fill="none" fill-rule="evenodd">
<g transform="translate(0 -.5)" fill-rule="nonzero">
<rect y=".5" width="21" height="15" fill="#039"/>
<path d="m13.058 9.0277l0.36296-0.81666h-7.7583l-0.36295 0.81666h7.7583zm0.72594-1.6333l0.36302-0.81668h-8.4843l-0.36295 0.81668h8.4843zm0.90734 4.0266v-1.1796c-1.0529 1.4089-2.8897 1.9853-4.5588 1.4306-1.6691-0.55476-2.7954-2.116-2.7954-3.8749 0-1.7589 1.1263-3.3201 2.7954-3.8749 1.6691-0.55476 3.5059 0.021637 4.5588 1.4306l0.36302-0.80532c-1.3196-1.4866-3.4066-2.0287-5.2829-1.3722-1.8763 0.65653-3.17 2.3816-3.2748 4.3666-0.10484 1.9851 0.99998 3.8368 2.7967 4.6873 1.7967 0.85051 3.9292 0.53128 5.398-0.80809z" fill="#fc0"/>
</g>
</g>
</svg>
