<?xml version="1.0" encoding="UTF-8"?>
<svg version="1.1" viewBox="0 0 21 15" xmlns="http://www.w3.org/2000/svg">
<title>icons / country-flags / european-union-eu</title>
<desc>Created with Sketch.</desc>
<g fill="none" fill-rule="evenodd">
<g transform="translate(-.5 -1)" fill-rule="nonzero">
<rect x=".5" y="1" width="21" height="15" fill="#039"/>
<g transform="translate(4.4815 .83333)" fill="#fc0">
<g transform="translate(3.8889)">
<g transform="translate(0)">
<g transform="translate(.81482 1.8333)">
<polygon transform="translate(2.0764 .52503) rotate(18) translate(-2.0764 -.52503)" points="1.669 0.10836 1.669 0.9417 2.0764 0.9417"/>
<g transform="translate(1.6296 1) scale(-1 1) translate(-1 -1)">
<polygon transform="translate(1.0764 .52503) rotate(18) translate(-1.0764 -.52503)" points="0.66898 0.10836 0.66898 0.9417 1.0764 0.9417"/>
</g>
</g>
<g transform="translate(0)">
<g transform="translate(2.3738 2.4188) rotate(72) translate(-1.5 -1)">
<g transform="translate(0)">
<polygon transform="translate(2.0764 .52503) rotate(18) translate(-2.0764 -.52503)" points="1.669 0.10836 1.669 0.9417 2.0764 0.9417"/>
<g transform="translate(1.6296 1) scale(-1 1) translate(-1 -1)">
<polygon transform="translate(1.0764 .52503) rotate(18) translate(-1.0764 -.52503)" points="0.66898 0.10836 0.66898 0.9417 1.0764 0.9417"/>
</g>
</g>
</g>
<g transform="translate(2.7864 2.3468) rotate(144) translate(-1.5 -1)">
<g transform="translate(0)">
<polygon transform="translate(2.0764 .52503) rotate(18) translate(-2.0764 -.52503)" points="1.669 0.10836 1.669 0.9417 2.0764 0.9417"/>
<g transform="translate(1.6296 1) scale(-1 1) translate(-1 -1)">
<polygon transform="translate(1.0764 .52503) rotate(18) translate(-1.0764 -.52503)" points="0.66898 0.10836 0.66898 0.9417 1.0764 0.9417"/>
</g>
</g>
</g>
</g>
<g transform="translate(2.7593 2.5) scale(-1 1) translate(-2.5 -2.5)">
<g transform="translate(0)">
<g transform="translate(2.3738 2.4188) rotate(72) translate(-1.5 -1)">
<g transform="translate(0)">
<polygon transform="translate(2.0764 .52503) rotate(18) translate(-2.0764 -.52503)" points="1.669 0.10836 1.669 0.9417 2.0764 0.9417"/>
<g transform="translate(1.6296 1) scale(-1 1) translate(-1 -1)">
<polygon transform="translate(1.0764 .52503) rotate(18) translate(-1.0764 -.52503)" points="0.66898 0.10836 0.66898 0.9417 1.0764 0.9417"/>
</g>
</g>
</g>
<g transform="translate(2.7864 2.3468) rotate(144) translate(-1.5 -1)">
<g transform="translate(0)">
<polygon transform="translate(2.0764 .52503) rotate(18) translate(-2.0764 -.52503)" points="1.669 0.10836 1.669 0.9417 2.0764 0.9417"/>
<g transform="translate(1.6296 1) scale(-1 1) translate(-1 -1)">
<polygon transform="translate(1.0764 .52503) rotate(18) translate(-1.0764 -.52503)" points="0.66898 0.10836 0.66898 0.9417 1.0764 0.9417"/>
</g>
</g>
</g>
</g>
</g>
</g>
</g>
<g transform="translate(4.8889 11)">
<g transform="translate(.81482 .83333)">
<polygon transform="translate(1.0764 .52503) rotate(18) translate(-1.0764 -.52503)" points="0.66898 0.10836 0.66898 0.9417 1.0764 0.9417"/>
<g transform="translate(.81482 .83333) scale(-1 1) translate(-.81482 -.83333)">
<polygon transform="translate(1.0764 .52503) rotate(18) translate(-1.0764 -.52503)" points="0.66898 0.10836 0.66898 0.9417 1.0764 0.9417"/>
</g>
</g>
<g transform="translate(1.6296 1.6667) rotate(72) translate(-.81482 -.83333)">
<polygon transform="translate(1.0764 .52503) rotate(18) translate(-1.0764 -.52503)" points="0.66898 0.10836 0.66898 0.9417 1.0764 0.9417"/>
<g transform="translate(.81482 .83333) scale(-1 1) translate(-.81482 -.83333)">
<polygon transform="translate(1.0764 .52503) rotate(18) translate(-1.0764 -.52503)" points="0.66898 0.10836 0.66898 0.9417 1.0764 0.9417"/>
</g>
</g>
<g transform="translate(1.6296 1.6667) rotate(144) translate(-.81482 -.83333)">
<polygon transform="translate(1.0764 .52503) rotate(18) translate(-1.0764 -.52503)" points="0.66898 0.10836 0.66898 0.9417 1.0764 0.9417"/>
<g transform="translate(.81482 .83333) scale(-1 1) translate(-.81482 -.83333)">
<polygon transform="translate(1.0764 .52503) rotate(18) translate(-1.0764 -.52503)" points="0.66898 0.10836 0.66898 0.9417 1.0764 0.9417"/>
</g>
</g>
<g transform="translate(1.6296 1.6667) scale(-1 1) translate(-1.6296 -1.6667)">
<g transform="translate(1.6296 1.6667) rotate(72) translate(-.81482 -.83333)">
<polygon transform="translate(1.0764 .52503) rotate(18) translate(-1.0764 -.52503)" points="0.66898 0.10836 0.66898 0.9417 1.0764 0.9417"/>
<g transform="translate(.81482 .83333) scale(-1 1) translate(-.81482 -.83333)">
<polygon transform="translate(1.0764 .52503) rotate(18) translate(-1.0764 -.52503)" points="0.66898 0.10836 0.66898 0.9417 1.0764 0.9417"/>
</g>
</g>
<g transform="translate(1.6296 1.6667) rotate(144) translate(-.81482 -.83333)">
<polygon transform="translate(1.0764 .52503) rotate(18) translate(-1.0764 -.52503)" points="0.66898 0.10836 0.66898 0.9417 1.0764 0.9417"/>
<g transform="translate(.81482 .83333) scale(-1 1) translate(-.81482 -.83333)">
<polygon transform="translate(1.0764 .52503) rotate(18) translate(-1.0764 -.52503)" points="0.66898 0.10836 0.66898 0.9417 1.0764 0.9417"/>
</g>
</g>
</g>
</g>
<g transform="translate(0 1)">
<g transform="translate(0 5)">
<g transform="translate(.81482 .83333)">
<polygon transform="translate(1.0764 .52503) rotate(18) translate(-1.0764 -.52503)" points="0.66898 0.10836 0.66898 0.9417 1.0764 0.9417"/>
<g transform="translate(.81482 .83333) scale(-1 1) translate(-.81482 -.83333)">
<polygon transform="translate(1.0764 .52503) rotate(18) translate(-1.0764 -.52503)" points="0.66898 0.10836 0.66898 0.9417 1.0764 0.9417"/>
</g>
</g>
<g transform="translate(1.6296 1.6667) rotate(72) translate(-.81482 -.83333)">
<polygon transform="translate(1.0764 .52503) rotate(18) translate(-1.0764 -.52503)" points="0.66898 0.10836 0.66898 0.9417 1.0764 0.9417"/>
<g transform="translate(.81482 .83333) scale(-1 1) translate(-.81482 -.83333)">
<polygon transform="translate(1.0764 .52503) rotate(18) translate(-1.0764 -.52503)" points="0.66898 0.10836 0.66898 0.9417 1.0764 0.9417"/>
</g>
</g>
<g transform="translate(1.6296 1.6667) rotate(144) translate(-.81482 -.83333)">
<polygon transform="translate(1.0764 .52503) rotate(18) translate(-1.0764 -.52503)" points="0.66898 0.10836 0.66898 0.9417 1.0764 0.9417"/>
<g transform="translate(.81482 .83333) scale(-1 1) translate(-.81482 -.83333)">
<polygon transform="translate(1.0764 .52503) rotate(18) translate(-1.0764 -.52503)" points="0.66898 0.10836 0.66898 0.9417 1.0764 0.9417"/>
</g>
</g>
<g transform="translate(1.6296 1.6667) scale(-1 1) translate(-1.6296 -1.6667)">
<g transform="translate(1.6296 1.6667) rotate(72) translate(-.81482 -.83333)">
<polygon transform="translate(1.0764 .52503) rotate(18) translate(-1.0764 -.52503)" points="0.66898 0.10836 0.66898 0.9417 1.0764 0.9417"/>
<g transform="translate(.81482 .83333) scale(-1 1) translate(-.81482 -.83333)">
<polygon transform="translate(1.0764 .52503) rotate(18) translate(-1.0764 -.52503)" points="0.66898 0.10836 0.66898 0.9417 1.0764 0.9417"/>
</g>
</g>
<g transform="translate(1.6296 1.6667) rotate(144) translate(-.81482 -.83333)">
<polygon transform="translate(1.0764 .52503) rotate(18) translate(-1.0764 -.52503)" points="0.66898 0.10836 0.66898 0.9417 1.0764 0.9417"/>
<g transform="translate(.81482 .83333) scale(-1 1) translate(-.81482 -.83333)">
<polygon transform="translate(1.0764 .52503) rotate(18) translate(-1.0764 -.52503)" points="0.66898 0.10836 0.66898 0.9417 1.0764 0.9417"/>
</g>
</g>
</g>
</g>
<g transform="translate(4.0741 2.3365) rotate(216) translate(-1.6296 -1.6667)">
<g transform="translate(.81482 .83333)">
<polygon transform="translate(1.0764 .52503) rotate(18) translate(-1.0764 -.52503)" points="0.66898 0.10836 0.66898 0.9417 1.0764 0.9417"/>
<g transform="translate(.81482 .83333) scale(-1 1) translate(-.81482 -.83333)">
<polygon transform="translate(1.0764 .52503) rotate(18) translate(-1.0764 -.52503)" points="0.66898 0.10836 0.66898 0.9417 1.0764 0.9417"/>
</g>
</g>
<g transform="translate(1.6296 1.6667) rotate(72) translate(-.81482 -.83333)">
<polygon transform="translate(1.0764 .52503) rotate(18) translate(-1.0764 -.52503)" points="0.66898 0.10836 0.66898 0.9417 1.0764 0.9417"/>
<g transform="translate(.81482 .83333) scale(-1 1) translate(-.81482 -.83333)">
<polygon transform="translate(1.0764 .52503) rotate(18) translate(-1.0764 -.52503)" points="0.66898 0.10836 0.66898 0.9417 1.0764 0.9417"/>
</g>
</g>
<g transform="translate(1.6296 1.6667) rotate(144) translate(-.81482 -.83333)">
<polygon transform="translate(1.0764 .52503) rotate(18) translate(-1.0764 -.52503)" points="0.66898 0.10836 0.66898 0.9417 1.0764 0.9417"/>
<g transform="translate(.81482 .83333) scale(-1 1) translate(-.81482 -.83333)">
<polygon transform="translate(1.0764 .52503) rotate(18) translate(-1.0764 -.52503)" points="0.66898 0.10836 0.66898 0.9417 1.0764 0.9417"/>
</g>
</g>
<g transform="translate(1.6296 1.6667) scale(-1 1) translate(-1.6296 -1.6667)">
<g transform="translate(1.6296 1.6667) rotate(72) translate(-.81482 -.83333)">
<polygon transform="translate(1.0764 .52503) rotate(18) translate(-1.0764 -.52503)" points="0.66898 0.10836 0.66898 0.9417 1.0764 0.9417"/>
<g transform="translate(.81482 .83333) scale(-1 1) translate(-.81482 -.83333)">
<polygon transform="translate(1.0764 .52503) rotate(18) translate(-1.0764 -.52503)" points="0.66898 0.10836 0.66898 0.9417 1.0764 0.9417"/>
</g>
</g>
<g transform="translate(1.6296 1.6667) rotate(144) translate(-.81482 -.83333)">
<polygon transform="translate(1.0764 .52503) rotate(18) translate(-1.0764 -.52503)" points="0.66898 0.10836 0.66898 0.9417 1.0764 0.9417"/>
<g transform="translate(.81482 .83333) scale(-1 1) translate(-.81482 -.83333)">
<polygon transform="translate(1.0764 .52503) rotate(18) translate(-1.0764 -.52503)" points="0.66898 0.10836 0.66898 0.9417 1.0764 0.9417"/>
</g>
</g>
</g>
</g>
<g transform="translate(2.2846 4.1667) rotate(144) translate(-1.6296 -1.6667)">
<g transform="translate(.81482 .83333)">
<polygon transform="translate(1.0764 .52503) rotate(18) translate(-1.0764 -.52503)" points="0.66898 0.10836 0.66898 0.9417 1.0764 0.9417"/>
<g transform="translate(.81482 .83333) scale(-1 1) translate(-.81482 -.83333)">
<polygon transform="translate(1.0764 .52503) rotate(18) translate(-1.0764 -.52503)" points="0.66898 0.10836 0.66898 0.9417 1.0764 0.9417"/>
</g>
</g>
<g transform="translate(1.6296 1.6667) rotate(72) translate(-.81482 -.83333)">
<polygon transform="translate(1.0764 .52503) rotate(18) translate(-1.0764 -.52503)" points="0.66898 0.10836 0.66898 0.9417 1.0764 0.9417"/>
<g transform="translate(.81482 .83333) scale(-1 1) translate(-.81482 -.83333)">
<polygon transform="translate(1.0764 .52503) rotate(18) translate(-1.0764 -.52503)" points="0.66898 0.10836 0.66898 0.9417 1.0764 0.9417"/>
</g>
</g>
<g transform="translate(1.6296 1.6667) rotate(144) translate(-.81482 -.83333)">
<polygon transform="translate(1.0764 .52503) rotate(18) translate(-1.0764 -.52503)" points="0.66898 0.10836 0.66898 0.9417 1.0764 0.9417"/>
<g transform="translate(.81482 .83333) scale(-1 1) translate(-.81482 -.83333)">
<polygon transform="translate(1.0764 .52503) rotate(18) translate(-1.0764 -.52503)" points="0.66898 0.10836 0.66898 0.9417 1.0764 0.9417"/>
</g>
</g>
<g transform="translate(1.6296 1.6667) scale(-1 1) translate(-1.6296 -1.6667)">
<g transform="translate(1.6296 1.6667) rotate(72) translate(-.81482 -.83333)">
<polygon transform="translate(1.0764 .52503) rotate(18) translate(-1.0764 -.52503)" points="0.66898 0.10836 0.66898 0.9417 1.0764 0.9417"/>
<g transform="translate(.81482 .83333) scale(-1 1) translate(-.81482 -.83333)">
<polygon transform="translate(1.0764 .52503) rotate(18) translate(-1.0764 -.52503)" points="0.66898 0.10836 0.66898 0.9417 1.0764 0.9417"/>
</g>
</g>
<g transform="translate(1.6296 1.6667) rotate(144) translate(-.81482 -.83333)">
<polygon transform="translate(1.0764 .52503) rotate(18) translate(-1.0764 -.52503)" points="0.66898 0.10836 0.66898 0.9417 1.0764 0.9417"/>
<g transform="translate(.81482 .83333) scale(-1 1) translate(-.81482 -.83333)">
<polygon transform="translate(1.0764 .52503) rotate(18) translate(-1.0764 -.52503)" points="0.66898 0.10836 0.66898 0.9417 1.0764 0.9417"/>
</g>
</g>
</g>
</g>
<g transform="translate(2.2846 9.1667) rotate(72) translate(-1.6296 -1.6667)">
<g transform="translate(.81482 .83333)">
<polygon transform="translate(1.0764 .52503) rotate(18) translate(-1.0764 -.52503)" points="0.66898 0.10836 0.66898 0.9417 1.0764 0.9417"/>
<g transform="translate(.81482 .83333) scale(-1 1) translate(-.81482 -.83333)">
<polygon transform="translate(1.0764 .52503) rotate(18) translate(-1.0764 -.52503)" points="0.66898 0.10836 0.66898 0.9417 1.0764 0.9417"/>
</g>
</g>
<g transform="translate(1.6296 1.6667) rotate(72) translate(-.81482 -.83333)">
<polygon transform="translate(1.0764 .52503) rotate(18) translate(-1.0764 -.52503)" points="0.66898 0.10836 0.66898 0.9417 1.0764 0.9417"/>
<g transform="translate(.81482 .83333) scale(-1 1) translate(-.81482 -.83333)">
<polygon transform="translate(1.0764 .52503) rotate(18) translate(-1.0764 -.52503)" points="0.66898 0.10836 0.66898 0.9417 1.0764 0.9417"/>
</g>
</g>
<g transform="translate(1.6296 1.6667) rotate(144) translate(-.81482 -.83333)">
<polygon transform="translate(1.0764 .52503) rotate(18) translate(-1.0764 -.52503)" points="0.66898 0.10836 0.66898 0.9417 1.0764 0.9417"/>
<g transform="translate(.81482 .83333) scale(-1 1) translate(-.81482 -.83333)">
<polygon transform="translate(1.0764 .52503) rotate(18) translate(-1.0764 -.52503)" points="0.66898 0.10836 0.66898 0.9417 1.0764 0.9417"/>
</g>
</g>
<g transform="translate(1.6296 1.6667) scale(-1 1) translate(-1.6296 -1.6667)">
<g transform="translate(1.6296 1.6667) rotate(72) translate(-.81482 -.83333)">
<polygon transform="translate(1.0764 .52503) rotate(18) translate(-1.0764 -.52503)" points="0.66898 0.10836 0.66898 0.9417 1.0764 0.9417"/>
<g transform="translate(.81482 .83333) scale(-1 1) translate(-.81482 -.83333)">
<polygon transform="translate(1.0764 .52503) rotate(18) translate(-1.0764 -.52503)" points="0.66898 0.10836 0.66898 0.9417 1.0764 0.9417"/>
</g>
</g>
<g transform="translate(1.6296 1.6667) rotate(144) translate(-.81482 -.83333)">
<polygon transform="translate(1.0764 .52503) rotate(18) translate(-1.0764 -.52503)" points="0.66898 0.10836 0.66898 0.9417 1.0764 0.9417"/>
<g transform="translate(.81482 .83333) scale(-1 1) translate(-.81482 -.83333)">
<polygon transform="translate(1.0764 .52503) rotate(18) translate(-1.0764 -.52503)" points="0.66898 0.10836 0.66898 0.9417 1.0764 0.9417"/>
</g>
</g>
</g>
</g>
<g transform="translate(4.0741 10.997) rotate(72) translate(-1.6296 -1.6667)">
<g transform="translate(.81482 .83333)">
<polygon transform="translate(1.0764 .52503) rotate(18) translate(-1.0764 -.52503)" points="0.66898 0.10836 0.66898 0.9417 1.0764 0.9417"/>
<g transform="translate(.81482 .83333) scale(-1 1) translate(-.81482 -.83333)">
<polygon transform="translate(1.0764 .52503) rotate(18) translate(-1.0764 -.52503)" points="0.66898 0.10836 0.66898 0.9417 1.0764 0.9417"/>
</g>
</g>
<g transform="translate(1.6296 1.6667) rotate(72) translate(-.81482 -.83333)">
<polygon transform="translate(1.0764 .52503) rotate(18) translate(-1.0764 -.52503)" points="0.66898 0.10836 0.66898 0.9417 1.0764 0.9417"/>
<g transform="translate(.81482 .83333) scale(-1 1) translate(-.81482 -.83333)">
<polygon transform="translate(1.0764 .52503) rotate(18) translate(-1.0764 -.52503)" points="0.66898 0.10836 0.66898 0.9417 1.0764 0.9417"/>
</g>
</g>
<g transform="translate(1.6296 1.6667) rotate(144) translate(-.81482 -.83333)">
<polygon transform="translate(1.0764 .52503) rotate(18) translate(-1.0764 -.52503)" points="0.66898 0.10836 0.66898 0.9417 1.0764 0.9417"/>
<g transform="translate(.81482 .83333) scale(-1 1) translate(-.81482 -.83333)">
<polygon transform="translate(1.0764 .52503) rotate(18) translate(-1.0764 -.52503)" points="0.66898 0.10836 0.66898 0.9417 1.0764 0.9417"/>
</g>
</g>
<g transform="translate(1.6296 1.6667) scale(-1 1) translate(-1.6296 -1.6667)">
<g transform="translate(1.6296 1.6667) rotate(72) translate(-.81482 -.83333)">
<polygon transform="translate(1.0764 .52503) rotate(18) translate(-1.0764 -.52503)" points="0.66898 0.10836 0.66898 0.9417 1.0764 0.9417"/>
<g transform="translate(.81482 .83333) scale(-1 1) translate(-.81482 -.83333)">
<polygon transform="translate(1.0764 .52503) rotate(18) translate(-1.0764 -.52503)" points="0.66898 0.10836 0.66898 0.9417 1.0764 0.9417"/>
</g>
</g>
<g transform="translate(1.6296 1.6667) rotate(144) translate(-.81482 -.83333)">
<polygon transform="translate(1.0764 .52503) rotate(18) translate(-1.0764 -.52503)" points="0.66898 0.10836 0.66898 0.9417 1.0764 0.9417"/>
<g transform="translate(.81482 .83333) scale(-1 1) translate(-.81482 -.83333)">
<polygon transform="translate(1.0764 .52503) rotate(18) translate(-1.0764 -.52503)" points="0.66898 0.10836 0.66898 0.9417 1.0764 0.9417"/>
</g>
</g>
</g>
</g>
</g>
<g transform="translate(9.7778 7.6667) scale(-1 1) translate(-3.2593 -6.6667)">
<g transform="translate(0 5)">
<g transform="translate(.81482 .83333)">
<polygon transform="translate(1.0764 .52503) rotate(18) translate(-1.0764 -.52503)" points="0.66898 0.10836 0.66898 0.9417 1.0764 0.9417"/>
<g transform="translate(.81482 .83333) scale(-1 1) translate(-.81482 -.83333)">
<polygon transform="translate(1.0764 .52503) rotate(18) translate(-1.0764 -.52503)" points="0.66898 0.10836 0.66898 0.9417 1.0764 0.9417"/>
</g>
</g>
<g transform="translate(1.6296 1.6667) rotate(72) translate(-.81482 -.83333)">
<polygon transform="translate(1.0764 .52503) rotate(18) translate(-1.0764 -.52503)" points="0.66898 0.10836 0.66898 0.9417 1.0764 0.9417"/>
<g transform="translate(.81482 .83333) scale(-1 1) translate(-.81482 -.83333)">
<polygon transform="translate(1.0764 .52503) rotate(18) translate(-1.0764 -.52503)" points="0.66898 0.10836 0.66898 0.9417 1.0764 0.9417"/>
</g>
</g>
<g transform="translate(1.6296 1.6667) rotate(144) translate(-.81482 -.83333)">
<polygon transform="translate(1.0764 .52503) rotate(18) translate(-1.0764 -.52503)" points="0.66898 0.10836 0.66898 0.9417 1.0764 0.9417"/>
<g transform="translate(.81482 .83333) scale(-1 1) translate(-.81482 -.83333)">
<polygon transform="translate(1.0764 .52503) rotate(18) translate(-1.0764 -.52503)" points="0.66898 0.10836 0.66898 0.9417 1.0764 0.9417"/>
</g>
</g>
<g transform="translate(1.6296 1.6667) scale(-1 1) translate(-1.6296 -1.6667)">
<g transform="translate(1.6296 1.6667) rotate(72) translate(-.81482 -.83333)">
<polygon transform="translate(1.0764 .52503) rotate(18) translate(-1.0764 -.52503)" points="0.66898 0.10836 0.66898 0.9417 1.0764 0.9417"/>
<g transform="translate(.81482 .83333) scale(-1 1) translate(-.81482 -.83333)">
<polygon transform="translate(1.0764 .52503) rotate(18) translate(-1.0764 -.52503)" points="0.66898 0.10836 0.66898 0.9417 1.0764 0.9417"/>
</g>
</g>
<g transform="translate(1.6296 1.6667) rotate(144) translate(-.81482 -.83333)">
<polygon transform="translate(1.0764 .52503) rotate(18) translate(-1.0764 -.52503)" points="0.66898 0.10836 0.66898 0.9417 1.0764 0.9417"/>
<g transform="translate(.81482 .83333) scale(-1 1) translate(-.81482 -.83333)">
<polygon transform="translate(1.0764 .52503) rotate(18) translate(-1.0764 -.52503)" points="0.66898 0.10836 0.66898 0.9417 1.0764 0.9417"/>
</g>
</g>
</g>
</g>
<g transform="translate(4.0741 2.3365) rotate(216) translate(-1.6296 -1.6667)">
<g transform="translate(.81482 .83333)">
<polygon transform="translate(1.0764 .52503) rotate(18) translate(-1.0764 -.52503)" points="0.66898 0.10836 0.66898 0.9417 1.0764 0.9417"/>
<g transform="translate(.81482 .83333) scale(-1 1) translate(-.81482 -.83333)">
<polygon transform="translate(1.0764 .52503) rotate(18) translate(-1.0764 -.52503)" points="0.66898 0.10836 0.66898 0.9417 1.0764 0.9417"/>
</g>
</g>
<g transform="translate(1.6296 1.6667) rotate(72) translate(-.81482 -.83333)">
<polygon transform="translate(1.0764 .52503) rotate(18) translate(-1.0764 -.52503)" points="0.66898 0.10836 0.66898 0.9417 1.0764 0.9417"/>
<g transform="translate(.81482 .83333) scale(-1 1) translate(-.81482 -.83333)">
<polygon transform="translate(1.0764 .52503) rotate(18) translate(-1.0764 -.52503)" points="0.66898 0.10836 0.66898 0.9417 1.0764 0.9417"/>
</g>
</g>
<g transform="translate(1.6296 1.6667) rotate(144) translate(-.81482 -.83333)">
<polygon transform="translate(1.0764 .52503) rotate(18) translate(-1.0764 -.52503)" points="0.66898 0.10836 0.66898 0.9417 1.0764 0.9417"/>
<g transform="translate(.81482 .83333) scale(-1 1) translate(-.81482 -.83333)">
<polygon transform="translate(1.0764 .52503) rotate(18) translate(-1.0764 -.52503)" points="0.66898 0.10836 0.66898 0.9417 1.0764 0.9417"/>
</g>
</g>
<g transform="translate(1.6296 1.6667) scale(-1 1) translate(-1.6296 -1.6667)">
<g transform="translate(1.6296 1.6667) rotate(72) translate(-.81482 -.83333)">
<polygon transform="translate(1.0764 .52503) rotate(18) translate(-1.0764 -.52503)" points="0.66898 0.10836 0.66898 0.9417 1.0764 0.9417"/>
<g transform="translate(.81482 .83333) scale(-1 1) translate(-.81482 -.83333)">
<polygon transform="translate(1.0764 .52503) rotate(18) translate(-1.0764 -.52503)" points="0.66898 0.10836 0.66898 0.9417 1.0764 0.9417"/>
</g>
</g>
<g transform="translate(1.6296 1.6667) rotate(144) translate(-.81482 -.83333)">
<polygon transform="translate(1.0764 .52503) rotate(18) translate(-1.0764 -.52503)" points="0.66898 0.10836 0.66898 0.9417 1.0764 0.9417"/>
<g transform="translate(.81482 .83333) scale(-1 1) translate(-.81482 -.83333)">
<polygon transform="translate(1.0764 .52503) rotate(18) translate(-1.0764 -.52503)" points="0.66898 0.10836 0.66898 0.9417 1.0764 0.9417"/>
</g>
</g>
</g>
</g>
<g transform="translate(2.2846 4.1667) rotate(144) translate(-1.6296 -1.6667)">
<g transform="translate(.81482 .83333)">
<polygon transform="translate(1.0764 .52503) rotate(18) translate(-1.0764 -.52503)" points="0.66898 0.10836 0.66898 0.9417 1.0764 0.9417"/>
<g transform="translate(.81482 .83333) scale(-1 1) translate(-.81482 -.83333)">
<polygon transform="translate(1.0764 .52503) rotate(18) translate(-1.0764 -.52503)" points="0.66898 0.10836 0.66898 0.9417 1.0764 0.9417"/>
</g>
</g>
<g transform="translate(1.6296 1.6667) rotate(72) translate(-.81482 -.83333)">
<polygon transform="translate(1.0764 .52503) rotate(18) translate(-1.0764 -.52503)" points="0.66898 0.10836 0.66898 0.9417 1.0764 0.9417"/>
<g transform="translate(.81482 .83333) scale(-1 1) translate(-.81482 -.83333)">
<polygon transform="translate(1.0764 .52503) rotate(18) translate(-1.0764 -.52503)" points="0.66898 0.10836 0.66898 0.9417 1.0764 0.9417"/>
</g>
</g>
<g transform="translate(1.6296 1.6667) rotate(144) translate(-.81482 -.83333)">
<polygon transform="translate(1.0764 .52503) rotate(18) translate(-1.0764 -.52503)" points="0.66898 0.10836 0.66898 0.9417 1.0764 0.9417"/>
<g transform="translate(.81482 .83333) scale(-1 1) translate(-.81482 -.83333)">
<polygon transform="translate(1.0764 .52503) rotate(18) translate(-1.0764 -.52503)" points="0.66898 0.10836 0.66898 0.9417 1.0764 0.9417"/>
</g>
</g>
<g transform="translate(1.6296 1.6667) scale(-1 1) translate(-1.6296 -1.6667)">
<g transform="translate(1.6296 1.6667) rotate(72) translate(-.81482 -.83333)">
<polygon transform="translate(1.0764 .52503) rotate(18) translate(-1.0764 -.52503)" points="0.66898 0.10836 0.66898 0.9417 1.0764 0.9417"/>
<g transform="translate(.81482 .83333) scale(-1 1) translate(-.81482 -.83333)">
<polygon transform="translate(1.0764 .52503) rotate(18) translate(-1.0764 -.52503)" points="0.66898 0.10836 0.66898 0.9417 1.0764 0.9417"/>
</g>
</g>
<g transform="translate(1.6296 1.6667) rotate(144) translate(-.81482 -.83333)">
<polygon transform="translate(1.0764 .52503) rotate(18) translate(-1.0764 -.52503)" points="0.66898 0.10836 0.66898 0.9417 1.0764 0.9417"/>
<g transform="translate(.81482 .83333) scale(-1 1) translate(-.81482 -.83333)">
<polygon transform="translate(1.0764 .52503) rotate(18) translate(-1.0764 -.52503)" points="0.66898 0.10836 0.66898 0.9417 1.0764 0.9417"/>
</g>
</g>
</g>
</g>
<g transform="translate(2.2846 9.1667) rotate(72) translate(-1.6296 -1.6667)">
<g transform="translate(.81482 .83333)">
<polygon transform="translate(1.0764 .52503) rotate(18) translate(-1.0764 -.52503)" points="0.66898 0.10836 0.66898 0.9417 1.0764 0.9417"/>
<g transform="translate(.81482 .83333) scale(-1 1) translate(-.81482 -.83333)">
<polygon transform="translate(1.0764 .52503) rotate(18) translate(-1.0764 -.52503)" points="0.66898 0.10836 0.66898 0.9417 1.0764 0.9417"/>
</g>
</g>
<g transform="translate(1.6296 1.6667) rotate(72) translate(-.81482 -.83333)">
<polygon transform="translate(1.0764 .52503) rotate(18) translate(-1.0764 -.52503)" points="0.66898 0.10836 0.66898 0.9417 1.0764 0.9417"/>
<g transform="translate(.81482 .83333) scale(-1 1) translate(-.81482 -.83333)">
<polygon transform="translate(1.0764 .52503) rotate(18) translate(-1.0764 -.52503)" points="0.66898 0.10836 0.66898 0.9417 1.0764 0.9417"/>
</g>
</g>
<g transform="translate(1.6296 1.6667) rotate(144) translate(-.81482 -.83333)">
<polygon transform="translate(1.0764 .52503) rotate(18) translate(-1.0764 -.52503)" points="0.66898 0.10836 0.66898 0.9417 1.0764 0.9417"/>
<g transform="translate(.81482 .83333) scale(-1 1) translate(-.81482 -.83333)">
<polygon transform="translate(1.0764 .52503) rotate(18) translate(-1.0764 -.52503)" points="0.66898 0.10836 0.66898 0.9417 1.0764 0.9417"/>
</g>
</g>
<g transform="translate(1.6296 1.6667) scale(-1 1) translate(-1.6296 -1.6667)">
<g transform="translate(1.6296 1.6667) rotate(72) translate(-.81482 -.83333)">
<polygon transform="translate(1.0764 .52503) rotate(18) translate(-1.0764 -.52503)" points="0.66898 0.10836 0.66898 0.9417 1.0764 0.9417"/>
<g transform="translate(.81482 .83333) scale(-1 1) translate(-.81482 -.83333)">
<polygon transform="translate(1.0764 .52503) rotate(18) translate(-1.0764 -.52503)" points="0.66898 0.10836 0.66898 0.9417 1.0764 0.9417"/>
</g>
</g>
<g transform="translate(1.6296 1.6667) rotate(144) translate(-.81482 -.83333)">
<polygon transform="translate(1.0764 .52503) rotate(18) translate(-1.0764 -.52503)" points="0.66898 0.10836 0.66898 0.9417 1.0764 0.9417"/>
<g transform="translate(.81482 .83333) scale(-1 1) translate(-.81482 -.83333)">
<polygon transform="translate(1.0764 .52503) rotate(18) translate(-1.0764 -.52503)" points="0.66898 0.10836 0.66898 0.9417 1.0764 0.9417"/>
</g>
</g>
</g>
</g>
<g transform="translate(4.0741 10.997) rotate(72) translate(-1.6296 -1.6667)">
<g transform="translate(.81482 .83333)">
<polygon transform="translate(1.0764 .52503) rotate(18) translate(-1.0764 -.52503)" points="0.66898 0.10836 0.66898 0.9417 1.0764 0.9417"/>
<g transform="translate(.81482 .83333) scale(-1 1) translate(-.81482 -.83333)">
<polygon transform="translate(1.0764 .52503) rotate(18) translate(-1.0764 -.52503)" points="0.66898 0.10836 0.66898 0.9417 1.0764 0.9417"/>
</g>
</g>
<g transform="translate(1.6296 1.6667) rotate(72) translate(-.81482 -.83333)">
<polygon transform="translate(1.0764 .52503) rotate(18) translate(-1.0764 -.52503)" points="0.66898 0.10836 0.66898 0.9417 1.0764 0.9417"/>
<g transform="translate(.81482 .83333) scale(-1 1) translate(-.81482 -.83333)">
<polygon transform="translate(1.0764 .52503) rotate(18) translate(-1.0764 -.52503)" points="0.66898 0.10836 0.66898 0.9417 1.0764 0.9417"/>
</g>
</g>
<g transform="translate(1.6296 1.6667) rotate(144) translate(-.81482 -.83333)">
<polygon transform="translate(1.0764 .52503) rotate(18) translate(-1.0764 -.52503)" points="0.66898 0.10836 0.66898 0.9417 1.0764 0.9417"/>
<g transform="translate(.81482 .83333) scale(-1 1) translate(-.81482 -.83333)">
<polygon transform="translate(1.0764 .52503) rotate(18) translate(-1.0764 -.52503)" points="0.66898 0.10836 0.66898 0.9417 1.0764 0.9417"/>
</g>
</g>
<g transform="translate(1.6296 1.6667) scale(-1 1) translate(-1.6296 -1.6667)">
<g transform="translate(1.6296 1.6667) rotate(72) translate(-.81482 -.83333)">
<polygon transform="translate(1.0764 .52503) rotate(18) translate(-1.0764 -.52503)" points="0.66898 0.10836 0.66898 0.9417 1.0764 0.9417"/>
<g transform="translate(.81482 .83333) scale(-1 1) translate(-.81482 -.83333)">
<polygon transform="translate(1.0764 .52503) rotate(18) translate(-1.0764 -.52503)" points="0.66898 0.10836 0.66898 0.9417 1.0764 0.9417"/>
</g>
</g>
<g transform="translate(1.6296 1.6667) rotate(144) translate(-.81482 -.83333)">
<polygon transform="translate(1.0764 .52503) rotate(18) translate(-1.0764 -.52503)" points="0.66898 0.10836 0.66898 0.9417 1.0764 0.9417"/>
<g transform="translate(.81482 .83333) scale(-1 1) translate(-.81482 -.83333)">
<polygon transform="translate(1.0764 .52503) rotate(18) translate(-1.0764 -.52503)" points="0.66898 0.10836 0.66898 0.9417 1.0764 0.9417"/>
</g>
</g>
</g>
</g>
</g>
</g>
</g>
</g>
</svg>
