<?xml version="1.0" encoding="UTF-8"?>
<svg version="1.1" viewBox="0 0 21 15" xmlns="http://www.w3.org/2000/svg">
<title>icons / country-flags / oceania</title>
<desc>Created with Sketch.</desc>
<defs>
<linearGradient id="a" x1="50%" x2="50%" y1="2.8902%" y2="100%">
<stop stop-color="#45BEC4" offset="0"/>
<stop stop-color="#338D91" offset="1"/>
</linearGradient>
</defs>
<g fill-rule="evenodd">
<rect width="21" height="15" fill="url(#a)" fill-rule="nonzero"/>
<path d="m5.4 9.8c-0.22091 0-0.4-0.17909-0.4-0.4 0-0.22091 0.17909-0.4 0.4-0.4 0.22091 0 0.4 0.17909 0.4 0.4 0 0.22091-0.17909 0.4-0.4 0.4zm-1-1c-0.22091 0-0.4-0.17909-0.4-0.4 0-0.22091 0.17909-0.4 0.4-0.4 0.22091 0 0.4 0.17909 0.4 0.4 0 0.22091-0.17909 0.4-0.4 0.4zm0-1c-0.22091 0-0.4-0.17909-0.4-0.4 0-0.22091 0.17909-0.4 0.4-0.4 0.22091 0 0.4 0.17909 0.4 0.4 0 0.22091-0.17909 0.4-0.4 0.4zm1 1c-0.22091 0-0.4-0.17909-0.4-0.4 0-0.22091 0.17909-0.4 0.4-0.4 0.22091 0 0.4 0.17909 0.4 0.4 0 0.22091-0.17909 0.4-0.4 0.4zm0-1c-0.22091 0-0.4-0.17909-0.4-0.4 0-0.22091 0.17909-0.4 0.4-0.4 0.22091 0 0.4 0.17909 0.4 0.4 0 0.22091-0.17909 0.4-0.4 0.4zm0-1c-0.22091 0-0.4-0.17909-0.4-0.4 0-0.22091 0.17909-0.4 0.4-0.4 0.22091 0 0.4 0.17909 0.4 0.4 0 0.22091-0.17909 0.4-0.4 0.4zm1-1c-0.22091 0-0.4-0.17909-0.4-0.4 0-0.22091 0.17909-0.4 0.4-0.4 0.22091 0 0.4 0.17909 0.4 0.4 0 0.22091-0.17909 0.4-0.4 0.4zm0 1c-0.22091 0-0.4-0.17909-0.4-0.4 0-0.22091 0.17909-0.4 0.4-0.4 0.22091 0 0.4 0.17909 0.4 0.4 0 0.22091-0.17909 0.4-0.4 0.4zm0 1c-0.22091 0-0.4-0.17909-0.4-0.4 0-0.22091 0.17909-0.4 0.4-0.4 0.22091 0 0.4 0.17909 0.4 0.4 0 0.22091-0.17909 0.4-0.4 0.4zm0 1c-0.22091 0-0.4-0.17909-0.4-0.4 0-0.22091 0.17909-0.4 0.4-0.4 0.22091 0 0.4 0.17909 0.4 0.4 0 0.22091-0.17909 0.4-0.4 0.4zm1 0c-0.22091 0-0.4-0.17909-0.4-0.4 0-0.22091 0.17909-0.4 0.4-0.4 0.22091 0 0.4 0.17909 0.4 0.4 0 0.22091-0.17909 0.4-0.4 0.4zm0-1c-0.22091 0-0.4-0.17909-0.4-0.4 0-0.22091 0.17909-0.4 0.4-0.4 0.22091 0 0.4 0.17909 0.4 0.4 0 0.22091-0.17909 0.4-0.4 0.4zm0-1c-0.22091 0-0.4-0.17909-0.4-0.4 0-0.22091 0.17909-0.4 0.4-0.4 0.22091 0 0.4 0.17909 0.4 0.4 0 0.22091-0.17909 0.4-0.4 0.4zm0-1c-0.22091 0-0.4-0.17909-0.4-0.4 0-0.22091 0.17909-0.4 0.4-0.4 0.22091 0 0.4 0.17909 0.4 0.4 0 0.22091-0.17909 0.4-0.4 0.4zm1 0c-0.22091 0-0.4-0.17909-0.4-0.4 0-0.22091 0.17909-0.4 0.4-0.4 0.22091 0 0.4 0.17909 0.4 0.4 0 0.22091-0.17909 0.4-0.4 0.4zm0 1c-0.22091 0-0.4-0.17909-0.4-0.4 0-0.22091 0.17909-0.4 0.4-0.4 0.22091 0 0.4 0.17909 0.4 0.4 0 0.22091-0.17909 0.4-0.4 0.4zm0 1c-0.22091 0-0.4-0.17909-0.4-0.4 0-0.22091 0.17909-0.4 0.4-0.4 0.22091 0 0.4 0.17909 0.4 0.4 0 0.22091-0.17909 0.4-0.4 0.4zm0 1c-0.22091 0-0.4-0.17909-0.4-0.4 0-0.22091 0.17909-0.4 0.4-0.4 0.22091 0 0.4 0.17909 0.4 0.4 0 0.22091-0.17909 0.4-0.4 0.4zm1 0c-0.22091 0-0.4-0.17909-0.4-0.4 0-0.22091 0.17909-0.4 0.4-0.4 0.22091 0 0.4 0.17909 0.4 0.4 0 0.22091-0.17909 0.4-0.4 0.4zm0 1c-0.22091 0-0.4-0.17909-0.4-0.4 0-0.22091 0.17909-0.4 0.4-0.4 0.22091 0 0.4 0.17909 0.4 0.4 0 0.22091-0.17909 0.4-0.4 0.4zm1 0c-0.22091 0-0.4-0.17909-0.4-0.4 0-0.22091 0.17909-0.4 0.4-0.4s0.4 0.17909 0.4 0.4c0 0.22091-0.17909 0.4-0.4 0.4zm0 1c-0.22091 0-0.4-0.17909-0.4-0.4s0.17909-0.4 0.4-0.4 0.4 0.17909 0.4 0.4-0.17909 0.4-0.4 0.4zm1-1c-0.22091 0-0.4-0.17909-0.4-0.4 0-0.22091 0.17909-0.4 0.4-0.4s0.4 0.17909 0.4 0.4c0 0.22091-0.17909 0.4-0.4 0.4zm5-1c-0.22091 0-0.4-0.17909-0.4-0.4 0-0.22091 0.17909-0.4 0.4-0.4s0.4 0.17909 0.4 0.4c0 0.22091-0.17909 0.4-0.4 0.4zm0 1c-0.22091 0-0.4-0.17909-0.4-0.4 0-0.22091 0.17909-0.4 0.4-0.4s0.4 0.17909 0.4 0.4c0 0.22091-0.17909 0.4-0.4 0.4zm1 0c-0.22091 0-0.4-0.17909-0.4-0.4 0-0.22091 0.17909-0.4 0.4-0.4s0.4 0.17909 0.4 0.4c0 0.22091-0.17909 0.4-0.4 0.4zm0 1c-0.22091 0-0.4-0.17909-0.4-0.4s0.17909-0.4 0.4-0.4 0.4 0.17909 0.4 0.4-0.17909 0.4-0.4 0.4zm-1 0c-0.22091 0-0.4-0.17909-0.4-0.4s0.17909-0.4 0.4-0.4 0.4 0.17909 0.4 0.4-0.17909 0.4-0.4 0.4zm0 1c-0.22091 0-0.4-0.17909-0.4-0.4s0.17909-0.4 0.4-0.4 0.4 0.17909 0.4 0.4-0.17909 0.4-0.4 0.4zm-1 0c-0.22091 0-0.4-0.17909-0.4-0.4s0.17909-0.4 0.4-0.4 0.4 0.17909 0.4 0.4-0.17909 0.4-0.4 0.4zm0 1c-0.22091 0-0.4-0.17909-0.4-0.4s0.17909-0.4 0.4-0.4 0.4 0.17909 0.4 0.4-0.17909 0.4-0.4 0.4zm-4-4c-0.22091 0-0.4-0.17909-0.4-0.4 0-0.22091 0.17909-0.4 0.4-0.4s0.4 0.17909 0.4 0.4c0 0.22091-0.17909 0.4-0.4 0.4zm-1 0c-0.22091 0-0.4-0.17909-0.4-0.4 0-0.22091 0.17909-0.4 0.4-0.4s0.4 0.17909 0.4 0.4c0 0.22091-0.17909 0.4-0.4 0.4zm0-1c-0.22091 0-0.4-0.17909-0.4-0.4 0-0.22091 0.17909-0.4 0.4-0.4s0.4 0.17909 0.4 0.4c0 0.22091-0.17909 0.4-0.4 0.4zm1 0c-0.22091 0-0.4-0.17909-0.4-0.4 0-0.22091 0.17909-0.4 0.4-0.4s0.4 0.17909 0.4 0.4c0 0.22091-0.17909 0.4-0.4 0.4zm-2 0c-0.22091 0-0.4-0.17909-0.4-0.4 0-0.22091 0.17909-0.4 0.4-0.4 0.22091 0 0.4 0.17909 0.4 0.4 0 0.22091-0.17909 0.4-0.4 0.4zm0-1c-0.22091 0-0.4-0.17909-0.4-0.4 0-0.22091 0.17909-0.4 0.4-0.4 0.22091 0 0.4 0.17909 0.4 0.4 0 0.22091-0.17909 0.4-0.4 0.4zm1 0c-0.22091 0-0.4-0.17909-0.4-0.4 0-0.22091 0.17909-0.4 0.4-0.4s0.4 0.17909 0.4 0.4c0 0.22091-0.17909 0.4-0.4 0.4zm0-1c-0.22091 0-0.4-0.17909-0.4-0.4 0-0.22091 0.17909-0.4 0.4-0.4s0.4 0.17909 0.4 0.4c0 0.22091-0.17909 0.4-0.4 0.4zm1 1c-0.22091 0-0.4-0.17909-0.4-0.4 0-0.22091 0.17909-0.4 0.4-0.4s0.4 0.17909 0.4 0.4c0 0.22091-0.17909 0.4-0.4 0.4zm-2-3c-0.22091 0-0.4-0.17909-0.4-0.4 0-0.22091 0.17909-0.4 0.4-0.4 0.22091 0 0.4 0.17909 0.4 0.4 0 0.22091-0.17909 0.4-0.4 0.4zm-1 0c-0.22091 0-0.4-0.17909-0.4-0.4 0-0.22091 0.17909-0.4 0.4-0.4 0.22091 0 0.4 0.17909 0.4 0.4 0 0.22091-0.17909 0.4-0.4 0.4zm-1-1c-0.22091 0-0.4-0.17909-0.4-0.4 0-0.22091 0.17909-0.4 0.4-0.4 0.22091 0 0.4 0.17909 0.4 0.4 0 0.22091-0.17909 0.4-0.4 0.4zm3 1c-0.22091 0-0.4-0.17909-0.4-0.4 0-0.22091 0.17909-0.4 0.4-0.4s0.4 0.17909 0.4 0.4c0 0.22091-0.17909 0.4-0.4 0.4z" fill="#fff"/>
</g>
</svg>
