<?xml version="1.0" encoding="UTF-8"?>
<svg version="1.1" viewBox="0 0 21 15" xmlns="http://www.w3.org/2000/svg">
<title>icons / country-flags / south-america</title>
<desc>Created with Sketch.</desc>
<defs>
<linearGradient id="a" x1="50%" x2="50%" y2="98.266%">
<stop stop-color="#D0A402" offset="0"/>
<stop stop-color="#C45616" offset="1"/>
</linearGradient>
</defs>
<g fill-rule="evenodd">
<rect width="21" height="15" fill="url(#a)" fill-rule="nonzero"/>
<path d="m7.4 2.8c-0.22091 0-0.4-0.17909-0.4-0.4 0-0.22091 0.17909-0.4 0.4-0.4 0.22091 0 0.4 0.17909 0.4 0.4 0 0.22091-0.17909 0.4-0.4 0.4zm0 1c-0.22091 0-0.4-0.17909-0.4-0.4 0-0.22091 0.17909-0.4 0.4-0.4 0.22091 0 0.4 0.17909 0.4 0.4 0 0.22091-0.17909 0.4-0.4 0.4zm0 1c-0.22091 0-0.4-0.17909-0.4-0.4 0-0.22091 0.17909-0.4 0.4-0.4 0.22091 0 0.4 0.17909 0.4 0.4 0 0.22091-0.17909 0.4-0.4 0.4zm1 0c-0.22091 0-0.4-0.17909-0.4-0.4 0-0.22091 0.17909-0.4 0.4-0.4 0.22091 0 0.4 0.17909 0.4 0.4 0 0.22091-0.17909 0.4-0.4 0.4zm1 0c-0.22091 0-0.4-0.17909-0.4-0.4 0-0.22091 0.17909-0.4 0.4-0.4 0.22091 0 0.4 0.17909 0.4 0.4 0 0.22091-0.17909 0.4-0.4 0.4zm1 0c-0.22091 0-0.4-0.17909-0.4-0.4 0-0.22091 0.17909-0.4 0.4-0.4s0.4 0.17909 0.4 0.4c0 0.22091-0.17909 0.4-0.4 0.4zm0 1c-0.22091 0-0.4-0.17909-0.4-0.4 0-0.22091 0.17909-0.4 0.4-0.4s0.4 0.17909 0.4 0.4c0 0.22091-0.17909 0.4-0.4 0.4zm0 1c-0.22091 0-0.4-0.17909-0.4-0.4 0-0.22091 0.17909-0.4 0.4-0.4s0.4 0.17909 0.4 0.4c0 0.22091-0.17909 0.4-0.4 0.4zm0 1c-0.22091 0-0.4-0.17909-0.4-0.4 0-0.22091 0.17909-0.4 0.4-0.4s0.4 0.17909 0.4 0.4c0 0.22091-0.17909 0.4-0.4 0.4zm0 1c-0.22091 0-0.4-0.17909-0.4-0.4 0-0.22091 0.17909-0.4 0.4-0.4s0.4 0.17909 0.4 0.4c0 0.22091-0.17909 0.4-0.4 0.4zm1-3c-0.22091 0-0.4-0.17909-0.4-0.4 0-0.22091 0.17909-0.4 0.4-0.4s0.4 0.17909 0.4 0.4c0 0.22091-0.17909 0.4-0.4 0.4zm0 1c-0.22091 0-0.4-0.17909-0.4-0.4 0-0.22091 0.17909-0.4 0.4-0.4s0.4 0.17909 0.4 0.4c0 0.22091-0.17909 0.4-0.4 0.4zm0 1c-0.22091 0-0.4-0.17909-0.4-0.4 0-0.22091 0.17909-0.4 0.4-0.4s0.4 0.17909 0.4 0.4c0 0.22091-0.17909 0.4-0.4 0.4zm-3-2c-0.22091 0-0.4-0.17909-0.4-0.4 0-0.22091 0.17909-0.4 0.4-0.4 0.22091 0 0.4 0.17909 0.4 0.4 0 0.22091-0.17909 0.4-0.4 0.4zm0 1c-0.22091 0-0.4-0.17909-0.4-0.4 0-0.22091 0.17909-0.4 0.4-0.4 0.22091 0 0.4 0.17909 0.4 0.4 0 0.22091-0.17909 0.4-0.4 0.4zm0 1c-0.22091 0-0.4-0.17909-0.4-0.4 0-0.22091 0.17909-0.4 0.4-0.4 0.22091 0 0.4 0.17909 0.4 0.4 0 0.22091-0.17909 0.4-0.4 0.4zm0 1c-0.22091 0-0.4-0.17909-0.4-0.4 0-0.22091 0.17909-0.4 0.4-0.4 0.22091 0 0.4 0.17909 0.4 0.4 0 0.22091-0.17909 0.4-0.4 0.4zm0 1c-0.22091 0-0.4-0.17909-0.4-0.4 0-0.22091 0.17909-0.4 0.4-0.4 0.22091 0 0.4 0.17909 0.4 0.4 0 0.22091-0.17909 0.4-0.4 0.4zm0 1c-0.22091 0-0.4-0.17909-0.4-0.4s0.17909-0.4 0.4-0.4c0.22091 0 0.4 0.17909 0.4 0.4s-0.17909 0.4-0.4 0.4zm0 1c-0.22091 0-0.4-0.17909-0.4-0.4s0.17909-0.4 0.4-0.4c0.22091 0 0.4 0.17909 0.4 0.4s-0.17909 0.4-0.4 0.4zm1-2c-0.22091 0-0.4-0.17909-0.4-0.4 0-0.22091 0.17909-0.4 0.4-0.4 0.22091 0 0.4 0.17909 0.4 0.4 0 0.22091-0.17909 0.4-0.4 0.4zm0 1c-0.22091 0-0.4-0.17909-0.4-0.4s0.17909-0.4 0.4-0.4c0.22091 0 0.4 0.17909 0.4 0.4s-0.17909 0.4-0.4 0.4zm0 1c-0.22091 0-0.4-0.17909-0.4-0.4s0.17909-0.4 0.4-0.4c0.22091 0 0.4 0.17909 0.4 0.4s-0.17909 0.4-0.4 0.4zm0 1c-0.22091 0-0.4-0.17909-0.4-0.4s0.17909-0.4 0.4-0.4c0.22091 0 0.4 0.17909 0.4 0.4s-0.17909 0.4-0.4 0.4zm0 1c-0.22091 0-0.4-0.17909-0.4-0.4s0.17909-0.4 0.4-0.4c0.22091 0 0.4 0.17909 0.4 0.4s-0.17909 0.4-0.4 0.4zm0-8c-0.22091 0-0.4-0.17909-0.4-0.4 0-0.22091 0.17909-0.4 0.4-0.4 0.22091 0 0.4 0.17909 0.4 0.4 0 0.22091-0.17909 0.4-0.4 0.4zm0 1c-0.22091 0-0.4-0.17909-0.4-0.4 0-0.22091 0.17909-0.4 0.4-0.4 0.22091 0 0.4 0.17909 0.4 0.4 0 0.22091-0.17909 0.4-0.4 0.4zm0 1c-0.22091 0-0.4-0.17909-0.4-0.4 0-0.22091 0.17909-0.4 0.4-0.4 0.22091 0 0.4 0.17909 0.4 0.4 0 0.22091-0.17909 0.4-0.4 0.4zm0 1c-0.22091 0-0.4-0.17909-0.4-0.4 0-0.22091 0.17909-0.4 0.4-0.4 0.22091 0 0.4 0.17909 0.4 0.4 0 0.22091-0.17909 0.4-0.4 0.4zm1 1c-0.22091 0-0.4-0.17909-0.4-0.4 0-0.22091 0.17909-0.4 0.4-0.4s0.4 0.17909 0.4 0.4c0 0.22091-0.17909 0.4-0.4 0.4zm0 1c-0.22091 0-0.4-0.17909-0.4-0.4s0.17909-0.4 0.4-0.4 0.4 0.17909 0.4 0.4-0.17909 0.4-0.4 0.4zm-4-6c-0.22091 0-0.4-0.17909-0.4-0.4 0-0.22091 0.17909-0.4 0.4-0.4 0.22091 0 0.4 0.17909 0.4 0.4 0 0.22091-0.17909 0.4-0.4 0.4zm1 1c-0.22091 0-0.4-0.17909-0.4-0.4 0-0.22091 0.17909-0.4 0.4-0.4 0.22091 0 0.4 0.17909 0.4 0.4 0 0.22091-0.17909 0.4-0.4 0.4zm1-2c-0.22091 0-0.4-0.17909-0.4-0.4 0-0.22091 0.17909-0.4 0.4-0.4 0.22091 0 0.4 0.17909 0.4 0.4 0 0.22091-0.17909 0.4-0.4 0.4zm1 0c-0.22091 0-0.4-0.17909-0.4-0.4 0-0.22091 0.17909-0.4 0.4-0.4 0.22091 0 0.4 0.17909 0.4 0.4 0 0.22091-0.17909 0.4-0.4 0.4zm1 0c-0.22091 0-0.4-0.17909-0.4-0.4 0-0.22091 0.17909-0.4 0.4-0.4s0.4 0.17909 0.4 0.4c0 0.22091-0.17909 0.4-0.4 0.4zm1 0c-0.22091 0-0.4-0.17909-0.4-0.4 0-0.22091 0.17909-0.4 0.4-0.4s0.4 0.17909 0.4 0.4c0 0.22091-0.17909 0.4-0.4 0.4zm0 1c-0.22091 0-0.4-0.17909-0.4-0.4 0-0.22091 0.17909-0.4 0.4-0.4s0.4 0.17909 0.4 0.4c0 0.22091-0.17909 0.4-0.4 0.4zm1 0c-0.22091 0-0.4-0.17909-0.4-0.4 0-0.22091 0.17909-0.4 0.4-0.4s0.4 0.17909 0.4 0.4c0 0.22091-0.17909 0.4-0.4 0.4zm1 0c-0.22091 0-0.4-0.17909-0.4-0.4 0-0.22091 0.17909-0.4 0.4-0.4s0.4 0.17909 0.4 0.4c0 0.22091-0.17909 0.4-0.4 0.4zm-1 1c-0.22091 0-0.4-0.17909-0.4-0.4 0-0.22091 0.17909-0.4 0.4-0.4s0.4 0.17909 0.4 0.4c0 0.22091-0.17909 0.4-0.4 0.4zm1 0c-0.22091 0-0.4-0.17909-0.4-0.4 0-0.22091 0.17909-0.4 0.4-0.4s0.4 0.17909 0.4 0.4c0 0.22091-0.17909 0.4-0.4 0.4zm1 0c-0.22091 0-0.4-0.17909-0.4-0.4 0-0.22091 0.17909-0.4 0.4-0.4s0.4 0.17909 0.4 0.4c0 0.22091-0.17909 0.4-0.4 0.4zm-1 1c-0.22091 0-0.4-0.17909-0.4-0.4 0-0.22091 0.17909-0.4 0.4-0.4s0.4 0.17909 0.4 0.4c0 0.22091-0.17909 0.4-0.4 0.4zm0 1c-0.22091 0-0.4-0.17909-0.4-0.4 0-0.22091 0.17909-0.4 0.4-0.4s0.4 0.17909 0.4 0.4c0 0.22091-0.17909 0.4-0.4 0.4zm-1-1c-0.22091 0-0.4-0.17909-0.4-0.4 0-0.22091 0.17909-0.4 0.4-0.4s0.4 0.17909 0.4 0.4c0 0.22091-0.17909 0.4-0.4 0.4zm0 1c-0.22091 0-0.4-0.17909-0.4-0.4 0-0.22091 0.17909-0.4 0.4-0.4s0.4 0.17909 0.4 0.4c0 0.22091-0.17909 0.4-0.4 0.4zm-1 1c-0.22091 0-0.4-0.17909-0.4-0.4 0-0.22091 0.17909-0.4 0.4-0.4s0.4 0.17909 0.4 0.4c0 0.22091-0.17909 0.4-0.4 0.4zm0 1c-0.22091 0-0.4-0.17909-0.4-0.4 0-0.22091 0.17909-0.4 0.4-0.4s0.4 0.17909 0.4 0.4c0 0.22091-0.17909 0.4-0.4 0.4zm-3-7c-0.22091 0-0.4-0.17909-0.4-0.4 0-0.22091 0.17909-0.4 0.4-0.4 0.22091 0 0.4 0.17909 0.4 0.4 0 0.22091-0.17909 0.4-0.4 0.4zm1 0c-0.22091 0-0.4-0.17909-0.4-0.4 0-0.22091 0.17909-0.4 0.4-0.4 0.22091 0 0.4 0.17909 0.4 0.4 0 0.22091-0.17909 0.4-0.4 0.4zm-1-1c-0.22091 0-0.4-0.17909-0.4-0.4 0-0.22091 0.17909-0.4 0.4-0.4 0.22091 0 0.4 0.17909 0.4 0.4 0 0.22091-0.17909 0.4-0.4 0.4z" fill="#fff"/>
</g>
</svg>
