<svg width="50" height="30" viewBox="0 0 50 30" fill="none" xmlns="http://www.w3.org/2000/svg">
<path fill-rule="evenodd" clip-rule="evenodd" d="M0 2.00036C0 0.895591 0.894407 0 1.99866 0H48.0013C49.1052 0 50 0.89784 50 2.00036V27.9996C50 29.1044 49.1056 30 48.0013 30H1.99866C0.894831 30 0 29.1022 0 27.9996V2.00036Z" fill="#404040"/>
<path fill-rule="evenodd" clip-rule="evenodd" d="M30.679 9.08081C31.7871 9.08081 32.6765 9.32085 33.2421 9.54097L32.8547 11.9186L32.5978 11.7932C32.0701 11.5703 31.3928 11.3568 30.4572 11.3717C29.3369 11.3717 28.8193 11.8598 28.8186 12.3156C28.8116 12.8303 29.4251 13.1672 30.4246 13.6758C32.0753 14.4581 32.8375 15.4056 32.8272 16.6557C32.8043 18.9316 30.8515 20.402 27.8461 20.402C26.5628 20.3881 25.3264 20.1229 24.6594 19.8174L25.0594 17.3624L25.4273 17.537C26.368 17.9465 26.9764 18.1122 28.1216 18.1122C28.9439 18.1122 29.8259 17.7756 29.8336 17.0411C29.838 16.5608 29.4635 16.2171 28.3489 15.68C27.2645 15.1561 25.826 14.2769 25.844 12.7004C25.8605 10.5692 27.8511 9.08081 30.679 9.08081ZM21.7958 9.27178L20.0065 20.2394H22.8669L24.6561 9.27178H21.7958ZM40.5794 9.28295H38.3689C37.6833 9.28295 37.1701 9.47699 36.8697 10.1921L32.622 20.2433H35.6263C35.6263 20.2433 36.1164 18.8911 36.2276 18.5944C36.3816 18.5944 37.1081 18.5956 37.8782 18.597C38.7465 18.5985 39.6703 18.6001 39.8912 18.6001C39.9769 18.9828 40.2395 20.2433 40.2395 20.2433H42.8943L40.5794 9.28295ZM38.1901 13.2853C38.1901 13.2853 37.2878 15.7205 37.0507 16.3509H39.4253C39.3122 15.8026 38.7634 13.1849 38.7634 13.1849L38.5703 12.2389C38.4937 12.4569 38.3868 12.7461 38.3057 12.9654L38.3056 12.9657L38.3054 12.9662C38.2337 13.16 38.1823 13.2989 38.1901 13.2853ZM17.6068 9.28101L14.8072 16.7583L14.5073 15.2383C14.5073 15.2382 14.5072 15.2381 14.5072 15.2379C14.5073 15.2381 14.5073 15.2382 14.5074 15.2383L13.505 10.1989C13.3321 9.50387 12.8295 9.29784 12.2084 9.27355H7.59582L7.55786 9.5008C8.67994 9.78482 9.68333 10.1944 10.5627 10.7038L13.1063 20.2298L16.1335 20.228L20.6379 9.28101H17.6068Z" fill="#FFFFFE"/>
</svg>
