<svg width="64" height="32" viewBox="0 0 64 32" fill="none" xmlns="http://www.w3.org/2000/svg">
<g clip-path="url(#clip0)">
<g clip-path="url(#clip1)">
<path d="M4.20764 5C2.24128 5 0.650391 6.57747 0.650391 8.52499V23.4755C0.650391 25.4214 2.24128 26.9998 4.20764 26.9998H19.3004C21.2652 26.9998 22.8567 25.4215 22.8567 23.4755V23.3225C22.7906 23.2952 17.0856 20.9377 14.1858 19.5563C12.2295 21.9414 9.70618 23.3884 7.08627 23.3884C2.65606 23.3884 1.15162 19.5472 3.24932 17.0186C3.70672 16.4674 4.48477 15.9408 5.69235 15.646C7.58142 15.1862 10.5878 15.9331 13.4056 16.8543C13.9124 15.9293 14.3388 14.9106 14.6564 13.8259H5.973V12.9546H10.4505V11.3924H5.02744V10.5204H10.4505V8.29187C10.4505 8.29187 10.4505 7.91647 10.8345 7.91647H13.0234V10.5204H18.3845V11.3924H13.0234V12.9546H17.3995C16.9807 14.6542 16.3449 16.2186 15.5468 17.5919C16.8749 18.0679 18.0671 18.5193 18.9556 18.8141C21.9192 19.7965 22.7498 19.9166 22.857 19.9291V8.52506C22.857 6.57755 21.2654 5.00007 19.3006 5.00007H4.20789L4.20764 5ZM6.64282 16.9196C6.45266 16.9218 6.26164 16.932 6.06919 16.9508C5.51444 17.0061 4.47287 17.2486 3.90344 17.7476C2.19668 19.2222 3.21821 21.9181 6.67265 21.9181C8.68073 21.9181 10.6871 20.6462 12.2633 18.6097C10.2313 17.6274 8.48105 16.8985 6.6428 16.9196L6.64282 16.9196Z" fill="#00A1E9"/>
<path d="M61.4786 20.2938L60.4874 22.4325L59.4814 20.2938H58.4986L60.0291 23.2507V25.3134H60.9307V23.2507L60.9362 23.2392L62.4605 20.2938L61.4786 20.2938ZM54.2209 21.5877L54.9201 23.6695H53.4969L54.2209 21.5877ZM55.1349 24.3021L55.4718 25.3131H56.4167L54.5562 20.2934H53.8338L51.9795 25.3131H52.9252L53.2768 24.3021H55.1349ZM48.0829 22.6934H47.0793V20.9761H48.0829C48.5874 20.9761 48.8888 21.4145 48.8888 21.8382C48.8888 22.2527 48.6067 22.6933 48.0829 22.6933V22.6934ZM48.1339 20.2936H46.1706V25.3133H47.0792V23.3834H48.1338C49.1135 23.3834 49.798 22.7478 49.798 21.8382C49.798 20.9285 49.1135 20.2937 48.1338 20.2937L48.1339 20.2936ZM41.5774 25.3134H42.4868V20.2937H41.5774V25.3134ZM35.1854 20.2938V25.3134H38.2442V24.6295H36.094V20.2938L35.1854 20.2938ZM30.009 21.5877L30.7075 23.6695H29.2851L30.009 21.5877ZM30.9231 24.3021L31.2599 25.3131H32.2041L30.3436 20.2934H29.622L27.7677 25.3131H28.7126L29.0641 24.3021H30.9231ZM37.3199 10.481H33.4221V9.09306H37.942V8.22868H33.4221V6.47H31.4071C31.1861 6.47 31.0076 6.65423 31.0076 6.88069V8.2287H26.5194V9.09308H31.0076V10.481H27.2194V11.3446H34.7647C34.7647 11.3446 34.3467 12.9666 32.2769 14.7099C30.4226 13.3151 29.8029 12.2043 29.8029 12.2043H27.7786C28.5976 13.6145 29.7612 14.7437 31.0144 15.6395C29.8632 16.3826 28.3704 17.0989 26.4404 17.6723V18.7071C26.4404 18.7071 29.4181 18.149 32.2962 16.464C35.1788 18.136 38.0739 18.7071 38.0739 18.7071V17.7276C36.2211 17.0574 34.7531 16.3204 33.6004 15.6096C35.2701 14.3806 36.7334 12.7125 37.3198 10.481L37.3199 10.481ZM49.9815 6.64316H47.9526V8.74959H42.9514V9.59783H47.9526V17.171C47.9348 17.3445 47.7973 17.4796 47.625 17.4888H46.5936V18.3662H49.2236C49.6401 18.3493 49.9723 18.0062 49.9816 17.5809V9.59781H50.8052V8.74956H49.9816L49.9815 6.64316ZM45.7027 11.0268C45.6285 10.8763 45.4771 10.7727 45.3009 10.7712H43.6104L44.9278 14.8919H46.9274L45.7027 11.0268ZM40.7093 6.54343L38.3821 12.0129H40.1676V18.521H42.12V9.88823H41.4123L42.8827 6.54357L40.7093 6.54343ZM63.3495 18.2225L62.6363 15.829C62.5884 15.6762 62.4493 15.5657 62.284 15.5657H60.3934L60.942 17.4042H58.7191V13.8423H63.0837V12.9948H58.7191V11.3183H63.0837V10.4708H52.1922V11.3183H56.556V12.9948H52.1922V13.8423H56.556V17.4042H52.1922V18.2517H63.3499L63.3406 18.2225L63.3495 18.2225ZM54.4615 8.44863H60.8178V9.69911H63.0886V8.21755C63.0878 8.21448 63.0878 8.21295 63.0878 8.20911C63.0878 7.87595 62.8251 7.60651 62.4999 7.60113H58.8253V6.43506H56.4494V7.60113H52.1915V9.69912H54.4614L54.4615 8.44863Z" fill="#3F3B3A"/>
</g>
</g>
<defs>
<clipPath id="clip0">
<rect width="62.7" height="32" fill="white" transform="translate(0.650391)"/>
</clipPath>
<clipPath id="clip1">
<rect width="62.7" height="22" fill="white" transform="translate(0.650391 5)"/>
</clipPath>
</defs>
</svg>
