<svg width="51" height="32" viewBox="0 0 51 32" fill="none" xmlns="http://www.w3.org/2000/svg">
<g clip-path="url(#clip0)">
<path fill-rule="evenodd" clip-rule="evenodd" d="M4.1232 5H46.8772C49.0442 5 50.8002 6.76743 50.8002 8.94732V23.0536C50.8002 25.2322 49.0442 27 46.8772 27H4.1232C1.95709 27 0.200195 25.2322 0.200195 23.0536V8.94732C0.200195 6.76743 1.95709 5 4.1232 5ZM1.81029 9.08237V22.9198C1.81029 24.2818 2.90845 25.3864 4.26306 25.3864H26.6623V6.6158H4.26306C2.90845 6.6158 1.81029 7.7204 1.81029 9.08237ZM30.1495 20.9849H28.2603V13.2253H30.0027V14.2228H30.0238C30.4028 13.4476 31.2008 13.0969 32.0611 13.0969C33.5735 13.0969 34.4027 14.5522 34.4027 15.8893C34.4027 17.5242 33.5313 18.8827 31.9042 18.8827C31.243 18.8827 30.5285 18.6387 30.1706 17.9803H30.1495V20.9849ZM31.3053 17.4185C32.0189 17.4185 32.4498 16.813 32.4498 15.932C32.4498 15.1994 32.0409 14.5624 31.3053 14.5624C30.6117 14.5624 30.1495 15.1781 30.1495 16.0062C30.1495 16.813 30.675 17.4185 31.3053 17.4185ZM40.7939 18.7556C40.7104 18.3208 40.6893 17.8848 40.6893 17.45V15.3905C40.6893 13.7027 39.4824 13.0969 38.0856 13.0969C37.2776 13.0969 36.5741 13.2138 35.9018 13.4903L35.934 14.786C36.4572 14.4882 37.0674 14.3713 37.6764 14.3713C38.3578 14.3713 38.9144 14.5735 38.9258 15.3275C38.6845 15.2848 38.3477 15.2523 38.0434 15.2523C37.0363 15.2523 35.2195 15.4545 35.2195 17.142C35.2195 18.3422 36.1851 18.8827 37.2665 18.8827C38.0434 18.8827 38.5688 18.576 38.9991 17.8848H39.0203C39.0203 18.0586 39.0315 18.2315 39.0429 18.4069L39.043 18.407C39.0504 18.5218 39.058 18.6377 39.0625 18.7556H40.7939ZM36.983 17.0038C36.983 16.4735 37.4864 16.2725 38.1278 16.2725C38.3403 16.2725 38.5472 16.2838 38.7393 16.2943L38.7393 16.2943C38.8032 16.2978 38.8655 16.3012 38.9258 16.304C38.9258 16.9512 38.4743 17.6096 37.7598 17.6096C37.3188 17.6096 36.983 17.387 36.983 17.0038ZM42.8197 21.1132C42.4209 21.1132 42.0328 21.0702 41.6441 20.9849L41.7695 19.5309C42.0218 19.6153 42.2518 19.6478 42.5151 19.6478C42.9776 19.6478 43.3342 19.3713 43.4709 18.8827L41.256 13.2253H43.292L44.4679 16.8343H44.4891L45.6124 13.2253H47.5029L45.4968 18.3737C45.4664 18.4527 45.4364 18.5315 45.4066 18.6099C44.9106 19.9134 44.454 21.1132 42.8197 21.1132Z" fill="#000066"/>
<path fill-rule="evenodd" clip-rule="evenodd" d="M11.8921 10.9365H13.7861V12.3337H11.8921V10.9365ZM8.87071 13.2335V14.2283H8.85081C8.44993 13.5505 7.79716 13.1055 6.98782 13.1055C5.28391 13.1055 4.51562 14.3347 4.51562 15.9752C4.51562 17.6055 5.45216 18.7483 6.95531 18.7483C7.71383 18.7483 8.34514 18.4513 8.79715 17.8059H8.81831V18.1029C8.81831 19.1821 8.2293 19.7008 7.13587 19.7008C6.34641 19.7008 5.86189 19.5315 5.28391 19.246L5.18922 20.7495C5.6302 20.9087 6.37736 21.0992 7.28297 21.0992C9.49223 21.0992 10.5857 20.3684 10.5857 18.1029V13.2335H8.87071ZM6.47205 15.9437C6.47205 15.1919 6.84073 14.5669 7.54558 14.5669C8.39755 14.5669 8.75487 15.2548 8.75487 15.8687C8.75487 16.7158 8.21825 17.2872 7.54558 17.2872C6.97773 17.2872 6.47205 16.801 6.47205 15.9437ZM11.8931 18.7482H13.7861V13.2335H11.8931V18.7482ZM18.4174 13.1055C18.6377 13.1055 18.8694 13.1382 19.0588 13.1694L18.9641 14.7571C18.7535 14.6945 18.5443 14.6945 18.3227 14.6945C17.4395 14.6945 16.9442 15.3399 16.9442 16.4201V18.7483H15.0509V13.2335H16.7759V14.2496H16.7971C17.1235 13.5505 17.5967 13.1055 18.4174 13.1055ZM22.3192 18.875C24.1288 18.875 25.5073 17.8173 25.5073 15.9964C25.5073 14.1645 24.1288 13.1055 22.3192 13.1055C20.5099 13.1055 19.1323 14.1645 19.1323 15.9964C19.1323 17.8173 20.5099 18.875 22.3192 18.875ZM21.0888 15.9964C21.0888 16.8111 21.4461 17.5416 22.3192 17.5416C23.1932 17.5416 23.5509 16.8111 23.5509 15.9964C23.5509 15.1706 23.1932 14.4401 22.3192 14.4401C21.4461 14.4401 21.0888 15.1706 21.0888 15.9964Z" fill="#FF0009"/>
</g>
<defs>
<clipPath id="clip0">
<rect width="50.6" height="32" fill="white" transform="translate(0.200195)"/>
</clipPath>
</defs>
</svg>
