<svg xmlns="http://www.w3.org/2000/svg" xmlns:xlink="http://www.w3.org/1999/xlink" width="120px" height="28px" viewBox="0 0 120 28" version="1.1">
    <!-- Generator: sketchtool 3.8.3 (29802) - http://www.bohemiancoding.com/sketch -->
    <title>98440ED5-8356-4FDB-A23D-FBFDB696E83D</title>
    <desc>Created with sketchtool.</desc>
    <defs>
        <polygon id="path-1" points="20.1393103 27.5881941 20.1393103 0.354941176 0.103944828 0.354941176 0.103944828 27.5881941"/>
    </defs>
    <g id="Symbols" stroke="none" stroke-width="1" fill="none" fill-rule="evenodd">
        <g id="Main-Navigation" transform="translate(-17.000000, -61.000000)">
            <g id="Main-Nav">
                <g transform="translate(0.000000, 38.000000)">
                    <g id="MVMT-Logo" transform="translate(17.000000, 23.000000)">
                        <g id="Group-3" transform="translate(99.724138, 0.056865)">
                            <mask id="mask-2" fill="white">
                                <use xlink:href="#path-1"/>
                            </mask>
                            <g id="Clip-2"/>
                            <path d="M19.1524966,0.3549 C19.1078069,1.61819412 10.5451862,10.9158412 10.4616,13.2497235 C10.4537379,13.4761941 10.4537379,14.4623706 10.4611862,14.6855471 C10.5422897,17.0251941 19.1078069,26.3249 19.1524966,27.5881941 L20.1393931,27.5881941 L20.1393931,0.3549 L19.1524966,0.3549 Z M1.08835862,0.3549 L0.103944828,0.3549 L0.103944828,27.5881941 L1.08835862,27.5881941 C1.13304828,26.3249 9.70601379,17.0186059 9.77966897,14.6641353 L9.77884138,13.2563118 C9.69732414,10.9170765 1.13304828,1.61819412 1.08835862,0.3549 L1.08835862,0.3549 Z" id="Fill-1" fill="#FFFFFF" mask="url(#mask-2)"/>
                        </g>
                        <path d="M64.8928138,20.6812941 L57.8090897,4.05176471 L52.5547448,4.05176471 L52.5547448,25.5549412 L55.9619172,25.5549412 L55.710331,6.88758824 L63.6175034,25.5549412 L66.1350207,25.5549412 L74.0752966,6.88758824 L73.8402621,25.5549412 L77.1638483,25.5549412 L77.1638483,4.05176471 L71.9769517,4.05176471 L64.8928138,20.6812941 Z M81.694469,4.05176471 L81.694469,6.94688235 L86.2606759,6.94688235 L86.2606759,25.5549412 L89.8027448,25.5549412 L89.8027448,6.94688235 L94.3681241,6.94688235 L94.3681241,4.05176471 L81.694469,4.05176471 Z M38.6074345,20.076 L31.8924,4.05176471 L28.1492276,4.05176471 L37.5667448,25.5549412 L39.6646759,25.5549412 L49.0482621,4.05176471 L45.3386069,4.05176471 L38.6074345,20.076 Z M12.3381931,20.6812941 L5.25446897,4.05176471 L0.000124137931,4.05176471 L0.000124137931,25.5549412 L3.40771034,25.5549412 L3.15571034,6.88758824 L11.0620552,25.5549412 L13.5804,25.5549412 L21.5206759,6.88758824 L21.2852276,25.5549412 L24.6092276,25.5549412 L24.6092276,4.05176471 L19.422331,4.05176471 L12.3381931,20.6812941 Z" id="Fill-4" fill="#FFFFFF"/>
                    </g>
                </g>
            </g>
        </g>
    </g>
</svg>
