<svg width="50" height="30" viewBox="0 0 50 30" fill="none" xmlns="http://www.w3.org/2000/svg">
<path fill-rule="evenodd" clip-rule="evenodd" d="M0 2.00036C0 0.895591 0.894407 0 1.99866 0H48.0013C49.1052 0 50 0.89784 50 2.00036V27.9996C50 29.1044 49.1056 30 48.0013 30H1.99866C0.894831 30 0 29.1022 0 27.9996V2.00036Z" fill="#404040"/>
<path fill-rule="evenodd" clip-rule="evenodd" d="M21.9435 23.2665C21.9442 23.361 21.9066 23.4519 21.8393 23.5183C21.7719 23.5847 21.6806 23.6211 21.5861 23.6191C21.4919 23.6211 21.4011 23.5846 21.3345 23.518C21.268 23.4514 21.2314 23.3606 21.2334 23.2665C21.2315 23.1719 21.2678 23.0806 21.3343 23.0133C21.4007 22.9459 21.4915 22.9083 21.5861 22.909C21.6796 22.9071 21.7701 22.9424 21.8376 23.0071C21.9051 23.0719 21.944 23.1609 21.9459 23.2544L21.9435 23.2665ZM18.7602 25.2059C18.7488 25.5342 18.8761 25.8522 19.111 26.082C19.3458 26.3117 19.6664 26.4321 19.9944 26.4135C20.2969 26.4295 20.5943 26.3312 20.8277 26.1382L20.5862 25.7324C20.4117 25.8652 20.1991 25.9381 19.9799 25.9402C19.5875 25.9177 19.2807 25.593 19.2807 25.1999C19.2807 24.8068 19.5875 24.482 19.9799 24.4596C20.1991 24.4617 20.4117 24.5346 20.5862 24.6673L20.8277 24.2616C20.5943 24.0685 20.2969 23.9703 19.9944 23.9862C19.6664 23.9677 19.3458 24.088 19.111 24.3178C18.8761 24.5476 18.7488 24.8655 18.7602 25.1938V25.2059ZM23.6463 23.9983C23.396 23.9906 23.1616 24.1203 23.0352 24.3364V24.0563H22.5377V26.3701H23.04V25.0828C23.04 24.7011 23.2043 24.4862 23.5231 24.4862C23.6305 24.4848 23.7372 24.5045 23.8371 24.5441L23.9916 24.0611C23.8769 24.0201 23.756 23.9988 23.6342 23.9983H23.6463ZM28.3247 25.3895C28.3303 25.5553 28.2989 25.7203 28.2329 25.8725C28.1773 25.997 28.0948 26.1075 27.9914 26.1962C27.8909 26.2808 27.7742 26.3441 27.6484 26.3821C27.3902 26.4611 27.1144 26.4611 26.8562 26.3821C26.7297 26.344 26.6122 26.2808 26.5108 26.1962C26.4069 26.108 26.3243 25.9973 26.2693 25.8725C26.2037 25.7202 26.1724 25.5553 26.1775 25.3895V24.0563H26.6847V25.3436C26.6822 25.4404 26.697 25.5369 26.7282 25.6286C26.7528 25.7008 26.7942 25.7662 26.849 25.8194C26.9002 25.8685 26.9622 25.9049 27.0301 25.9257C27.175 25.9692 27.3296 25.9692 27.4745 25.9257C27.5424 25.9049 27.6044 25.8685 27.6556 25.8194C27.7104 25.7662 27.7518 25.7008 27.7764 25.6286C27.8077 25.5369 27.8224 25.4404 27.8199 25.3436V24.0563H28.3271L28.3247 25.3895ZM24.8273 24.3364C24.9537 24.1203 25.1882 23.9906 25.4384 23.9983H25.4263C25.5482 23.9988 25.669 24.0201 25.7838 24.0611L25.6292 24.5441C25.5293 24.5045 25.4227 24.4848 25.3152 24.4862C24.9964 24.4862 24.8322 24.7011 24.8322 25.0828V26.3701H24.3298V24.0563H24.8273V24.3364ZM29.7979 23.9983C30.1293 23.9867 30.4571 24.0705 30.7423 24.2398L30.5177 24.6456C30.297 24.5189 30.0476 24.4507 29.7931 24.4475C29.5178 24.4475 29.3535 24.5635 29.3535 24.718C29.3535 24.8726 29.5274 24.9161 29.7448 24.9451L29.9863 24.9789C30.4911 25.0513 30.7954 25.2301 30.7954 25.6721C30.7954 26.114 30.409 26.428 29.74 26.428C29.3824 26.4382 29.031 26.3332 28.7376 26.1285L28.9792 25.7373C29.2016 25.9019 29.473 25.9869 29.7496 25.9788C30.095 25.9788 30.2786 25.8774 30.2786 25.6986C30.2786 25.5682 30.1481 25.4957 29.8728 25.4571L29.6313 25.4233C29.112 25.3508 28.8318 25.1165 28.8318 24.7398C28.8318 24.2785 29.211 23.9983 29.7979 23.9983ZM31.6795 26.0199C31.6508 26.0085 31.6203 26.0028 31.5895 26.0029C31.5575 26.0023 31.5257 26.0081 31.4959 26.0199C31.4682 26.0312 31.4428 26.0476 31.421 26.0682C31.3998 26.089 31.3826 26.1136 31.3703 26.1406C31.3459 26.1977 31.3459 26.2623 31.3703 26.3194C31.4095 26.4042 31.4942 26.4587 31.5877 26.4594C31.6193 26.4595 31.6505 26.4529 31.6795 26.4401C31.7072 26.4288 31.7326 26.4124 31.7543 26.3918C31.7755 26.371 31.7927 26.3464 31.805 26.3194C31.8298 26.2623 31.8298 26.1976 31.805 26.1406C31.7927 26.1136 31.7755 26.089 31.7543 26.0682C31.7326 26.0476 31.7072 26.0312 31.6795 26.0199ZM31.6577 26.3966C31.6362 26.4061 31.6131 26.411 31.5897 26.4111H31.59C31.5666 26.4142 31.5428 26.4125 31.52 26.4063C31.4984 26.3973 31.4787 26.3842 31.462 26.3677C31.4106 26.3164 31.3953 26.239 31.4234 26.172C31.441 26.1294 31.4749 26.0955 31.5176 26.0778C31.5397 26.0684 31.5635 26.0635 31.5876 26.0633C31.6117 26.0633 31.6356 26.0682 31.6577 26.0778C31.6785 26.0871 31.6973 26.1002 31.7132 26.1165C31.7758 26.1848 31.7758 26.2897 31.7132 26.358C31.6973 26.3743 31.6784 26.3874 31.6577 26.3966ZM31.6021 26.1237C31.6247 26.1226 31.6469 26.1295 31.6649 26.143C31.6799 26.1554 31.688 26.1743 31.6867 26.1938C31.6874 26.21 31.6812 26.2257 31.6697 26.2372C31.6557 26.2499 31.6379 26.2576 31.619 26.259L31.6891 26.3387H31.6335L31.5683 26.259H31.5514V26.3387H31.5055V26.1261L31.6021 26.1237ZM31.549 26.2227V26.1648L31.6021 26.1793C31.6115 26.1765 31.6216 26.1765 31.6311 26.1793C31.6345 26.1861 31.6345 26.1942 31.6311 26.201C31.6345 26.2078 31.6345 26.2159 31.6311 26.2227C31.6216 26.2256 31.6115 26.2256 31.6021 26.2227H31.549ZM21.3348 26.3797H21.842V24.0659H21.3348V26.3797Z" fill="white"/>
<rect x="20.9846" y="6.46606" width="7.60805" height="13.6728" fill="#BFBFBF"/>
<path d="M21.4677 13.3037C21.4648 10.6352 22.6895 8.11367 24.7886 6.4661C21.2237 3.66441 16.1042 4.0725 13.0281 7.40357C9.95204 10.7346 9.95204 15.8703 13.0281 19.2014C16.1042 22.5324 21.2237 22.9405 24.7886 20.1389C22.6902 18.4918 21.4656 15.9713 21.4677 13.3037Z" fill="#808080"/>
<path fill-rule="evenodd" clip-rule="evenodd" d="M33.9604 21.1221C36.9538 19.6675 38.8543 16.6318 38.8551 13.3036L38.8575 13.3012C38.8575 9.97219 36.9566 6.93543 33.9622 5.48066C30.9679 4.0259 27.4058 4.40853 24.7887 6.46606C26.8862 8.11451 28.1109 10.6346 28.1109 13.3024C28.1109 15.9702 26.8862 18.4904 24.7887 20.1388C27.4058 22.1949 30.9669 22.5766 33.9604 21.1221ZM38.0267 18.6921V18.4119H38.1402V18.3539H37.8528V18.4119H37.9663V18.6921H38.0267ZM38.5846 18.6921V18.3539H38.4976L38.3962 18.5955L38.2948 18.3539H38.2054V18.6921H38.2682V18.4385L38.3624 18.6583H38.4276L38.5218 18.4385V18.6945L38.5846 18.6921Z" fill="#E6E6E6"/>
</svg>
