<svg width="50" height="30" viewBox="0 0 50 30" fill="none" xmlns="http://www.w3.org/2000/svg">
<path fill-rule="evenodd" clip-rule="evenodd" d="M0 2.00036C0 0.895591 0.894407 0 1.99866 0H48.0013C49.1052 0 50 0.89784 50 2.00036V27.9996C50 29.1044 49.1056 30 48.0013 30H1.99866C0.894831 30 0 29.1022 0 27.9996V2.00036Z" fill="#12438C"/>
<path fill-rule="evenodd" clip-rule="evenodd" d="M11.7299 16.5997L11.6609 16.5666V8.33049C11.6609 8.09818 11.6847 7.87141 11.7299 7.65249C11.7396 7.60548 11.7504 7.5589 11.7621 7.51264C11.772 7.47302 11.7828 7.43373 11.7942 7.3947C11.8043 7.35991 11.8151 7.32539 11.8263 7.29108C11.8366 7.25968 11.8472 7.22841 11.8584 7.19741C11.8688 7.16873 11.8794 7.14021 11.8906 7.11191C11.9009 7.08544 11.9117 7.05906 11.9227 7.03291C11.9331 7.00826 11.9438 6.98377 11.9548 6.95944C11.9653 6.93631 11.976 6.91337 11.987 6.89053C11.9974 6.86871 12.0082 6.84705 12.0191 6.82549C12.0296 6.80479 12.0403 6.78425 12.0512 6.76381C12.0617 6.74409 12.0725 6.72451 12.0833 6.70504C12.0939 6.68618 12.1046 6.66742 12.1155 6.6488C12.1261 6.63071 12.1367 6.61268 12.1476 6.5948C12.1582 6.57752 12.1689 6.56036 12.1798 6.54329C12.1903 6.52675 12.2011 6.51031 12.2119 6.49396C12.2225 6.47795 12.2331 6.462 12.244 6.44618L12.2492 6.43863C12.2581 6.42563 12.267 6.41266 12.2761 6.39981C12.2856 6.38653 12.2953 6.3734 12.3049 6.36026L12.3049 6.36025L12.3083 6.35574C12.3189 6.34133 12.3296 6.32703 12.3404 6.31281L12.3467 6.30459C12.3552 6.29333 12.3638 6.28204 12.3725 6.27093C12.3811 6.26005 12.3898 6.24932 12.3985 6.23858L12.4047 6.23104C12.4153 6.21795 12.426 6.2049 12.4368 6.19196C12.4474 6.17924 12.4581 6.16654 12.4689 6.15397C12.4783 6.14305 12.4879 6.13229 12.4975 6.12152L12.4975 6.12152L12.5011 6.11745C12.5117 6.10542 12.5224 6.09341 12.5332 6.08157C12.543 6.07081 12.553 6.06019 12.563 6.04958L12.563 6.04958L12.5653 6.04707C12.576 6.03573 12.5867 6.0245 12.5975 6.01332C12.6081 6.00231 12.6188 5.99129 12.6296 5.9804C12.6394 5.97052 12.6493 5.96078 12.6593 5.95104L12.6593 5.95104L12.6617 5.94863L12.6707 5.93982L12.6707 5.93982C12.6784 5.93225 12.686 5.92469 12.6938 5.91726C12.7013 5.91011 12.7089 5.90308 12.7165 5.89604L12.7165 5.89603L12.726 5.8873L12.7326 5.88108C12.7411 5.8732 12.7495 5.86533 12.7581 5.85758L12.7827 5.83574L12.7902 5.82908L12.7966 5.82352L12.8224 5.80094C12.8328 5.79196 12.8434 5.78313 12.8539 5.77429L12.8545 5.77378C12.8651 5.76484 12.8758 5.75591 12.8866 5.7471L12.9188 5.7212L12.9509 5.69588C12.9615 5.68758 12.9723 5.67939 12.983 5.67123L13.0152 5.64714L13.0473 5.62371L13.0794 5.60077L13.1115 5.57849L13.1437 5.55667L13.1758 5.53552L13.1818 5.53158L13.2079 5.51468L13.2339 5.49843L13.2401 5.49462L13.2489 5.4891L13.2722 5.47474L13.2952 5.46112L13.3043 5.45575L13.3154 5.4492L13.3365 5.43678L13.3566 5.42548L13.3686 5.41883L13.379 5.41299L13.4007 5.40084L13.4245 5.38814L13.4329 5.38374L13.465 5.36678L13.4971 5.35042L13.5293 5.33447L13.5614 5.31884L13.5935 5.30382L13.6042 5.29882L13.6256 5.28888L13.6467 5.27961L13.6578 5.27482L13.6672 5.27068L13.6899 5.26076L13.7221 5.24742L13.7542 5.23429L13.7863 5.22154L13.8184 5.20932L13.8302 5.20483L13.8506 5.19713L13.8705 5.19009L13.8827 5.18582L13.9148 5.17451L13.947 5.16375L13.9791 5.15332L13.9885 5.15029L14.0112 5.14311L14.0344 5.13617L14.0433 5.13353L14.0755 5.12398L14.0974 5.1179L14.1076 5.11509L14.1398 5.10637L14.1719 5.09794L14.1924 5.09292L14.204 5.09012L14.2143 5.08759L14.2361 5.08228L14.2683 5.0751L14.3004 5.06811L14.3054 5.06705L14.3325 5.06134L14.3647 5.05517L14.3746 5.05326L14.3968 5.04904L14.4289 5.04349L14.4611 5.03815L14.4732 5.03618L14.4932 5.03298L14.5132 5.03014L14.5253 5.02847L14.5575 5.02396L14.5896 5.01993L14.6217 5.01628L14.6343 5.01481L14.6539 5.0126L14.6735 5.01081L14.686 5.00971L14.7181 5.00689L14.7502 5.00433L14.7824 5.00227L14.8145 5.00024L14.8466 4.99878L14.8788 4.99755L14.8912 4.99706L14.9109 4.99635L14.9305 4.99608L14.943 4.99595L14.9752 4.99555L14.9894 4.99536H15.0073H15.0394H15.0716H15.1037H15.1358H15.1679H15.2001H15.2322H15.2643H15.2965H15.3286H15.3607H15.3929H15.425H15.4571H15.4893H15.5214H15.5535H15.5856H15.6178H15.6499H15.6821H15.7142H15.7463H15.7785H15.8106H15.8427H15.8748H15.907H15.9391H15.9712H16.0034H16.0355H16.0676H16.0998H16.1319H16.164H16.1962H16.2283H16.2604H16.2925H16.3247H16.3568H16.3889H16.4211H16.4532H16.4853H16.5175H16.5496H16.5817H16.6139H16.646H16.6781H16.7102H16.7424H16.7745H16.8066H16.8388H16.8709H16.903H16.9352H16.9673H16.9994H17.0316H17.0637H17.0958H17.1279H17.1601H17.1922H17.2243H17.2565H17.2886H17.3208H17.3529H17.385H17.4171H17.4493H17.4814H17.5135H17.5457H17.5778H17.6099H17.6421H17.6742H17.7063H17.7385H17.7706H17.8027H17.8348H17.867H17.8991H17.9312H17.9634H17.9955H18.0276H18.0598H18.0919H18.124H18.1562H18.1883H18.2204H18.2525H18.2847H18.3168H18.3489H18.3811H18.4132H18.4454H18.4775H18.5096H18.5417H18.5739H18.606H18.6381H18.6702H18.7024H18.7345H18.7666H18.7988H18.8309H18.863H18.8952H18.9273H18.9594H18.9916H19.0237H19.0558H19.088H19.1201H19.1522H19.1843H19.2165H19.2486H19.2808H19.3129H19.345H19.3771H19.4093H19.4414H19.4735H19.5057H19.5378H19.5699H19.6021H19.6342H19.6663H19.6985H19.7306H19.7627H19.7948H19.827H19.8591H19.8864V21.6698C19.8864 21.8148 19.8771 21.9577 19.8591 22.0979C19.8505 22.1654 19.8396 22.2322 19.827 22.2983C19.8174 22.3486 19.8067 22.3986 19.7948 22.4481C19.7849 22.4898 19.7742 22.5312 19.7627 22.5723C19.7526 22.6083 19.7418 22.6441 19.7306 22.6796C19.7204 22.7118 19.7096 22.7437 19.6985 22.7754C19.6881 22.8048 19.6774 22.834 19.6663 22.863C19.6559 22.8901 19.6452 22.917 19.6342 22.9437C19.6238 22.9689 19.6131 22.9939 19.6021 23.0188C19.5916 23.0424 19.5809 23.0658 19.5699 23.0891C19.5595 23.1113 19.5487 23.1334 19.5378 23.1553C19.5273 23.1764 19.5166 23.1973 19.5057 23.2182C19.4951 23.2382 19.4844 23.2581 19.4735 23.2779C19.463 23.2971 19.4524 23.3161 19.4414 23.3351C19.4309 23.3533 19.4202 23.3715 19.4093 23.3895C19.3988 23.4069 19.388 23.4242 19.3771 23.4414C19.3666 23.4583 19.3559 23.475 19.345 23.4916C19.3344 23.5079 19.3238 23.5241 19.3129 23.5401C19.3023 23.5557 19.2916 23.5711 19.2808 23.5865C19.2702 23.6015 19.2594 23.6164 19.2486 23.6312C19.238 23.6458 19.2273 23.6604 19.2165 23.6748C19.2059 23.6889 19.1952 23.7029 19.1843 23.7167C19.1737 23.7303 19.163 23.7438 19.1522 23.7572C19.1416 23.7705 19.1309 23.7837 19.1201 23.7968L19.1068 23.8127L19.088 23.8348C19.0773 23.8472 19.0666 23.8596 19.0558 23.8718C19.0452 23.8839 19.0345 23.8961 19.0237 23.9081C19.0156 23.917 19.0074 23.9258 18.9991 23.9346C18.9966 23.9374 18.9941 23.9401 18.9916 23.9428L18.9862 23.9486L18.986 23.9487C18.9772 23.9582 18.9684 23.9676 18.9594 23.977C18.9489 23.988 18.9381 23.9989 18.9274 24.0098L18.9273 24.0099C18.9166 24.0207 18.906 24.0314 18.8952 24.0421C18.8845 24.0526 18.8738 24.0631 18.863 24.0735C18.8524 24.0837 18.8417 24.0938 18.8309 24.1039L18.8263 24.1082C18.8172 24.1167 18.808 24.1253 18.7988 24.1338C18.7901 24.1417 18.7814 24.1494 18.7726 24.1572L18.7666 24.1625C18.7559 24.172 18.7453 24.1816 18.7345 24.191C18.7239 24.2002 18.7131 24.2091 18.7024 24.2182L18.694 24.2253L18.6702 24.2453C18.6596 24.254 18.6489 24.2626 18.6381 24.2712L18.6297 24.2779L18.606 24.2969C18.5954 24.3052 18.5846 24.3133 18.5739 24.3215C18.5632 24.3297 18.5525 24.3379 18.5417 24.3459C18.5311 24.3539 18.5203 24.3616 18.5096 24.3694L18.4957 24.3795L18.4775 24.3926C18.4688 24.3988 18.4601 24.4048 18.4514 24.4108L18.4454 24.4149L18.4353 24.4219L18.4132 24.4371L18.3903 24.4522L18.3811 24.4583L18.3696 24.4659L18.3489 24.4794C18.3383 24.4862 18.3275 24.4928 18.3168 24.4995C18.3061 24.5062 18.2955 24.513 18.2847 24.5195C18.274 24.526 18.2632 24.5323 18.2525 24.5387L18.2401 24.5461L18.2204 24.5576L18.1883 24.5759L18.1562 24.5939L18.124 24.6113L18.0919 24.6282L18.0598 24.6449L18.0276 24.6608L18.016 24.6666L17.9955 24.6767L17.9751 24.6863L17.9634 24.6918L17.9531 24.6966L17.9312 24.7068L17.9102 24.7161L17.8991 24.721L17.867 24.7351L17.8348 24.7487L17.8027 24.7618L17.786 24.7686L17.7706 24.7749L17.7499 24.7827L17.7385 24.7871L17.7218 24.7934L17.7063 24.7993L17.6831 24.8076L17.6742 24.8108L17.6421 24.8221L17.6099 24.8332L17.5837 24.8417L17.5778 24.8436L17.5662 24.8474L17.5457 24.854L17.5255 24.8601L17.5135 24.8636L17.4814 24.8732L17.4493 24.8823L17.4171 24.891L17.4057 24.8942L17.385 24.8997C17.3786 24.9014 17.3721 24.9029 17.3657 24.9045C17.3614 24.9055 17.3571 24.9065 17.3529 24.9076L17.3208 24.9154L17.2886 24.9228L17.2565 24.9298L17.2444 24.9325L17.2243 24.9368L17.2051 24.9405L17.1922 24.943L17.1601 24.9491L17.1279 24.9549C17.1204 24.9562 17.1128 24.9575 17.1052 24.9587C17.1021 24.9592 17.0989 24.9597 17.0958 24.9602L17.0871 24.9617L17.0637 24.9656L17.0435 24.9685L17.0316 24.9701L16.9994 24.9747L16.9673 24.9789L16.9459 24.9814L16.9352 24.9826L16.9202 24.9843L16.903 24.9863L16.8709 24.9894L16.8388 24.9922C16.8305 24.9929 16.8222 24.9937 16.8139 24.9945C16.8115 24.9947 16.8091 24.9949 16.8066 24.995L16.7866 24.9963L16.7745 24.9971L16.7424 24.9991L16.7102 25.0008L16.6781 25.002L16.646 25.0033L16.6139 25.0039L16.5817 25.0043C16.5776 25.0043 16.5734 25.0044 16.5692 25.0044C16.5635 25.0045 16.5577 25.0046 16.5519 25.0046H16.5496H16.5175H16.4853H16.4532H16.4211H16.3889H16.3568H16.3247H16.2925H16.2604H16.2283H16.1962H16.164H16.1319H16.0998H16.0676H16.0355H16.0034H15.9712H15.9391H15.907H15.8748H15.8427H15.8106H15.7785H15.7463H15.7142H15.6821H15.6499H15.6178H15.5856H15.5535H15.5214H15.4893H15.4571H15.425H15.3929H15.3607H15.3286H15.2965H15.2643H15.2322H15.2001H15.1679H15.1358H15.1037H15.0716H15.0394H15.0073H14.9752H14.943H14.9109H14.8788H14.8466H14.8145H14.7824H14.7502H14.7181H14.686H14.6539H14.6217H14.5896H14.5575H14.5253H14.4932H14.4611H14.4289H14.3968H14.3647H14.3325H14.3004H14.2683H14.2361H14.204H14.1719H14.1398H14.1076H14.0755H14.0433H14.0112H13.9791H13.947H13.9148H13.8827H13.8506H13.8184H13.7863H13.7542H13.7221H13.6899H13.6578H13.6256H13.5935H13.5614H13.5293H13.4971H13.465H13.4329H13.4007H13.3686H13.3365H13.3043H13.2722H13.2401H13.2079H13.1758H13.1437H13.1115H13.0794H13.0473H13.0152H12.983H12.9509H12.9188H12.8866H12.8545H12.8224H12.7902H12.7581H12.726H12.6938H12.6617H12.6296H12.5975H12.5653H12.5332H12.5011H12.4689H12.4368H12.4047H12.3725H12.3404H12.3083H12.2761H12.244H12.2119H12.1798H12.1476H12.1155H12.0833H12.0512H12.0191H11.987H11.9548H11.9227H11.8906H11.8584H11.8263H11.7942H11.7621H11.7299H11.6609V17.9765C11.6609 17.9765 11.6846 17.9831 11.7299 17.9945L11.7621 18.0025L11.7942 18.0104L11.8263 18.0181L11.8584 18.0257L11.8906 18.0332L11.9227 18.0405L11.9548 18.0478L11.987 18.0549L12.0191 18.062L12.0512 18.0689L12.0833 18.0758L12.1155 18.0826L12.1476 18.0893L12.1798 18.0958L12.2119 18.1023L12.244 18.1088L12.2761 18.1151L12.3083 18.1214L12.3404 18.1276L12.3725 18.1337L12.4047 18.1397L12.4368 18.1456L12.4689 18.1515L12.5011 18.1573L12.5332 18.163L12.5653 18.1687L12.5975 18.1742L12.6296 18.1797L12.6617 18.1851L12.6938 18.1905L12.726 18.1957L12.7581 18.2009L12.7902 18.2061L12.8224 18.2111L12.8545 18.2161L12.8866 18.2211L12.9188 18.2259L12.9509 18.2307L12.983 18.2354L13.0152 18.24L13.0473 18.2446L13.0794 18.2491L13.1115 18.2535L13.1437 18.2578L13.1758 18.2621L13.2079 18.2663L13.2401 18.2705L13.2722 18.2745L13.3043 18.2786L13.3365 18.2825L13.3686 18.2864L13.4007 18.2902L13.4329 18.2939L13.465 18.2975L13.4971 18.3012L13.5293 18.3047L13.5614 18.3081L13.5935 18.3115L13.6256 18.3148L13.6578 18.3181L13.6899 18.3213L13.7221 18.3244L13.7542 18.3274L13.7863 18.3304L13.8184 18.3333L13.8506 18.3361L13.8827 18.3389L13.9148 18.3416L13.947 18.3442L13.9791 18.3468L14.0112 18.3492L14.0433 18.3517L14.0755 18.354L14.1076 18.3563L14.1398 18.3585L14.1719 18.3606L14.204 18.3627L14.2361 18.3647L14.2683 18.3666L14.3004 18.3685L14.3325 18.3702L14.3647 18.3719L14.3968 18.3735L14.4289 18.3751L14.4611 18.3766L14.4932 18.378L14.5253 18.3793L14.5575 18.3806L14.5896 18.3818L14.6217 18.3829L14.6539 18.384L14.686 18.3849L14.7181 18.3859L14.7502 18.3867L14.7824 18.3874L14.8145 18.3881L14.8466 18.3887L14.8788 18.3892L14.9109 18.3897L14.943 18.39L14.9752 18.3904L15.0073 18.3906L15.0394 18.3907L15.0716 18.3908L15.084 18.3908L15.1037 18.3907L15.1358 18.3905L15.1679 18.3903L15.2001 18.3901L15.2322 18.39L15.2643 18.3894L15.2965 18.3888L15.3286 18.3882L15.3607 18.3876L15.3929 18.3868L15.425 18.3858L15.4571 18.3848L15.4893 18.3838L15.5214 18.3828L15.5535 18.3813L15.5856 18.3799L15.6178 18.3785L15.6499 18.3771L15.6821 18.3753L15.7142 18.3734L15.7463 18.3716L15.7785 18.3697L15.8106 18.3676L15.8427 18.3653L15.8748 18.363L15.907 18.3606L15.9391 18.3581L15.9712 18.3553L16.0034 18.3525L16.0355 18.3497L16.0676 18.3467L16.0998 18.3434L16.1319 18.3402L16.164 18.3369L16.1962 18.3333L16.2283 18.3296L16.2604 18.3258L16.2925 18.322L16.3247 18.3178L16.3568 18.3135L16.3889 18.3092L16.4211 18.3049L16.4532 18.3L16.4853 18.2952L16.5175 18.2903L16.5496 18.2852L16.5817 18.2798L16.6139 18.2744L16.646 18.269L16.6781 18.2631L16.7102 18.2571L16.7424 18.2511L16.7745 18.2448L16.8066 18.2382L16.8388 18.2315L16.8709 18.2248L16.8909 18.2203L16.903 18.2176L16.9352 18.2103C16.9458 18.2079 16.9567 18.2056 16.9673 18.2031L16.9994 18.1953L17.0316 18.1873L17.0637 18.1794L17.0958 18.171L17.1279 18.1624L17.1601 18.1538L17.1922 18.1447L17.2243 18.1354L17.2565 18.1261L17.2886 18.1162L17.3208 18.1061C17.3314 18.1028 17.3423 18.0995 17.3529 18.096L17.385 18.0853L17.4171 18.0745L17.4302 18.0701L17.4493 18.0636C17.4601 18.0598 17.4707 18.0558 17.4814 18.0519L17.5135 18.0402L17.5457 18.0283C17.5528 18.0256 17.5598 18.0228 17.5668 18.02C17.5705 18.0186 17.5741 18.0172 17.5778 18.0157L17.6099 18.0031L17.6421 17.9901L17.6742 17.9766L17.6867 17.9714L17.7063 17.9631L17.726 17.9543L17.7385 17.9486L17.7706 17.9342L17.8027 17.9193L17.8348 17.9038L17.8453 17.8988L17.867 17.8882C17.8738 17.8848 17.8804 17.8814 17.8871 17.8779C17.8911 17.8758 17.8951 17.8738 17.8991 17.8717L17.9084 17.867L17.9312 17.8552C17.9421 17.8495 17.9527 17.8436 17.9634 17.8378L17.9955 17.8202L18.0276 17.802C18.0385 17.7957 18.0491 17.7894 18.0598 17.7831L18.0622 17.7816L18.0919 17.7639C18.1027 17.7573 18.1134 17.7505 18.124 17.7438L18.1276 17.7416L18.1276 17.7416C18.1372 17.7356 18.1468 17.7295 18.1562 17.7235C18.1641 17.7183 18.1719 17.713 18.1797 17.7078L18.1883 17.702L18.2108 17.6869L18.2204 17.6803C18.2289 17.6745 18.2372 17.6685 18.2455 17.6626C18.2479 17.6609 18.2502 17.6592 18.2525 17.6575L18.2557 17.6553C18.2654 17.6483 18.2752 17.6414 18.2847 17.6343C18.2956 17.6263 18.3062 17.6182 18.3168 17.61C18.3276 17.6018 18.3384 17.5935 18.3489 17.5852C18.3598 17.5766 18.3705 17.5679 18.3811 17.5592C18.3919 17.5503 18.4026 17.5413 18.4132 17.5324C18.424 17.5232 18.4348 17.514 18.4454 17.5047C18.4541 17.4971 18.4626 17.4892 18.4711 17.4814L18.4775 17.4756L18.4821 17.4714L18.4822 17.4713C18.4914 17.4629 18.5006 17.4544 18.5096 17.4459C18.5205 17.4355 18.5311 17.425 18.5417 17.4145C18.5526 17.4037 18.5633 17.3929 18.5739 17.3819L18.5769 17.3788C18.5867 17.3687 18.5965 17.3586 18.606 17.3484C18.6169 17.3366 18.6274 17.3247 18.638 17.3128L18.6381 17.3126C18.649 17.3003 18.6597 17.2879 18.6702 17.2755C18.6811 17.2626 18.6919 17.2498 18.7024 17.2368C18.7133 17.2232 18.724 17.2097 18.7345 17.196C18.7455 17.1817 18.7561 17.1672 18.7666 17.1527C18.7776 17.1376 18.7883 17.1224 18.7988 17.1071C18.8097 17.0912 18.8204 17.0751 18.8309 17.0589C18.8419 17.0419 18.8526 17.0248 18.863 17.0076C18.874 16.9894 18.8848 16.9711 18.8952 16.9526C18.9062 16.9331 18.9169 16.9134 18.9273 16.8935C18.9384 16.8723 18.9491 16.8509 18.9594 16.8294C18.9706 16.8063 18.9813 16.7829 18.9916 16.7594C19.0027 16.7338 19.0135 16.7081 19.0237 16.6821C19.035 16.6535 19.0457 16.6247 19.0558 16.5955C19.0673 16.5625 19.0779 16.5291 19.088 16.4955C19.0996 16.4562 19.1103 16.4165 19.1201 16.3764C19.1322 16.3266 19.143 16.2763 19.1522 16.2254C19.166 16.1497 19.1766 16.0727 19.1843 15.9948C19.1951 15.8861 19.2004 15.7754 19.2004 15.663V11.7937H19.1843H19.1522H19.1201H19.088H19.0558H19.0237H18.9916H18.9594H18.9273H18.8952H18.863H18.8309H18.7988H18.7666H18.7345H18.7024H18.6702H18.6381H18.606H18.5739H18.5417H18.5096H18.4775H18.4454H18.4132H18.3811H18.3489H18.3168H18.2847H18.2525H18.2204H18.1883H18.1562H18.124H18.0919H18.0598H18.0276H17.9955H17.9634H17.9312H17.8991H17.867H17.8348H17.8027H17.7706H17.7385H17.7063H17.6742H17.6421H17.6099H17.5778H17.5457H17.5135H17.4814H17.4493H17.4171H17.385H17.3529H17.3208H17.2886H17.2565H17.2243H17.1922H17.1601H17.1279H17.0958H17.0637H17.0316H16.9994H16.9673H16.9352H16.903H16.8709H16.8388H16.8066H16.7745H16.7424H16.7102H16.6781H16.646H16.6139H16.5817H16.5496H16.5175H16.4853H16.4532H16.4211H16.3889H16.3568H16.3325V15.663C16.3325 15.7236 16.3298 15.7832 16.3247 15.8416C16.3181 15.9161 16.3073 15.9887 16.2925 16.0593C16.2834 16.1029 16.2727 16.1456 16.2604 16.1876C16.2507 16.2211 16.24 16.254 16.2283 16.2864C16.2183 16.3139 16.2075 16.341 16.1962 16.3678C16.186 16.3916 16.1753 16.4151 16.164 16.4383C16.1537 16.4593 16.1431 16.4802 16.1319 16.5006C16.1216 16.5195 16.1108 16.5379 16.0998 16.5562C16.0894 16.5734 16.0787 16.5904 16.0676 16.6072C16.0572 16.6228 16.0465 16.6383 16.0355 16.6536C16.025 16.6681 16.0144 16.6825 16.0034 16.6967C15.9929 16.7102 15.9822 16.7233 15.9712 16.7364C15.9607 16.7489 15.95 16.7612 15.9391 16.7734C15.9286 16.7852 15.9179 16.7968 15.907 16.8082C15.8964 16.8192 15.8858 16.8301 15.8748 16.8407C15.8643 16.8511 15.8536 16.8613 15.8427 16.8713C15.8322 16.8811 15.8214 16.8906 15.8106 16.9C15.8 16.9092 15.7893 16.9182 15.7785 16.9271C15.7679 16.9358 15.7571 16.9443 15.7463 16.9527C15.7357 16.9608 15.725 16.9689 15.7142 16.9768C15.7036 16.9846 15.6929 16.9922 15.6821 16.9997C15.6715 17.007 15.6608 17.0142 15.6499 17.0214C15.6393 17.0283 15.6286 17.0351 15.6178 17.0418C15.6072 17.0484 15.5965 17.0549 15.5856 17.0612C15.5751 17.0674 15.5643 17.0735 15.5535 17.0795C15.5429 17.0854 15.5322 17.0912 15.5214 17.0969C15.5108 17.1025 15.5001 17.108 15.4893 17.1133C15.4786 17.1186 15.4679 17.1238 15.4571 17.129C15.4465 17.134 15.4358 17.139 15.425 17.1438C15.4143 17.1485 15.4037 17.1532 15.3929 17.1578C15.3823 17.1623 15.3715 17.1666 15.3607 17.1709C15.3501 17.1751 15.3394 17.1793 15.3286 17.1833C15.318 17.1873 15.3073 17.1912 15.2965 17.1951C15.2858 17.1989 15.2751 17.2026 15.2643 17.2062C15.2537 17.2098 15.243 17.2133 15.2322 17.2166C15.2216 17.22 15.2108 17.2232 15.2001 17.2264C15.1894 17.2295 15.1787 17.2326 15.1679 17.2356L15.1643 17.2366L15.1643 17.2366C15.1548 17.2392 15.1454 17.2418 15.1358 17.2442C15.1252 17.247 15.1145 17.2496 15.1037 17.2522C15.0931 17.2548 15.0823 17.2572 15.0716 17.2596L15.0394 17.2666C15.0288 17.2688 15.0181 17.271 15.0073 17.273L14.9752 17.2788L14.943 17.2843L14.9109 17.2892L14.8788 17.2936C14.8681 17.295 14.8574 17.2964 14.8466 17.2976L14.8145 17.3012L14.7824 17.3043L14.7777 17.3047L14.7502 17.307L14.7181 17.3093L14.686 17.3111L14.6539 17.3127L14.6217 17.3136L14.5896 17.3144L14.5575 17.3147L14.5454 17.3148L14.5253 17.3147L14.4932 17.3145L14.4611 17.3141L14.4289 17.3134L14.3968 17.3126L14.3647 17.3115L14.3325 17.3102L14.3004 17.3087L14.2683 17.3071L14.2361 17.3052L14.204 17.3031L14.1719 17.3008L14.1398 17.2983L14.1076 17.2956L14.0755 17.2927L14.0433 17.2897L14.0112 17.2864L13.9791 17.2829L13.947 17.2792L13.9148 17.2753L13.8827 17.2713L13.8506 17.267L13.8184 17.2626L13.7863 17.2579L13.7542 17.2531L13.7221 17.2481L13.6899 17.2428L13.6578 17.2375L13.6256 17.2319L13.5935 17.2261L13.5614 17.2201L13.5293 17.214L13.4971 17.2077L13.465 17.2011L13.4329 17.1944L13.4007 17.1876L13.3686 17.1805L13.3365 17.1732L13.3043 17.1658L13.2722 17.1582L13.2401 17.1505L13.2079 17.1425L13.1758 17.1344L13.1437 17.126L13.1115 17.1176L13.0794 17.1089L13.0473 17.1001L13.0152 17.0911L12.983 17.0819L12.9509 17.0726L12.9188 17.0631L12.8866 17.0534L12.8545 17.0436L12.8224 17.0336L12.7902 17.0234L12.7581 17.013L12.726 17.0026L12.6938 16.9919L12.6617 16.981L12.6296 16.97L12.5975 16.9589L12.5653 16.9475L12.5332 16.936L12.5011 16.9245L12.4689 16.9126L12.4368 16.9007L12.4047 16.8886L12.3725 16.8763L12.3404 16.8639L12.3083 16.8513L12.2761 16.8386L12.244 16.8257L12.2119 16.8127L12.1798 16.7995L12.1476 16.7862L12.1155 16.7727L12.0833 16.7591L12.0512 16.7453L12.0191 16.7314L11.987 16.7173L11.9548 16.7031L11.9227 16.6888L11.8906 16.6743L11.8584 16.6596L11.8263 16.6448L11.7942 16.6299L11.7621 16.6149L11.7299 16.5997V16.5997ZM31.7435 15.4054H31.7602H31.7923H31.8245H31.8567H31.8889H31.9211H31.9533H31.9854H32.0176H32.0498H32.082H32.1142H32.1464H32.1785H32.2107H32.2429H32.2751H32.3073H32.3395H32.3716H32.4038H32.436H32.4682H32.5004H32.5326H32.5647H32.5969H32.6291H32.6613H32.6935H32.7257H32.7579H32.79H32.8222H32.8544H32.8866H32.9188H32.951H32.9831H33.0153H33.0475H33.0797H33.1119H33.1441H33.1762H33.2084H33.2406H33.2728H33.305H33.3372H33.3693H33.4015H33.4337H33.4659H33.498H33.5303H33.5624H33.5946H33.6268H33.659H33.6858L33.6912 15.4055C33.7011 15.4057 33.7119 15.4062 33.7233 15.4068C33.7337 15.4074 33.7445 15.4081 33.7555 15.4089C33.7661 15.4097 33.7769 15.4106 33.7877 15.4116C33.7986 15.4126 33.8093 15.4137 33.8199 15.4148C33.8252 15.4154 33.8304 15.416 33.8356 15.4167C33.8412 15.4173 33.8467 15.418 33.8521 15.4188C33.8636 15.4203 33.8745 15.4219 33.8843 15.4236C33.8913 15.4248 33.8979 15.426 33.9037 15.4273L33.9164 15.4302C33.9272 15.4327 33.9379 15.4354 33.9486 15.4383C33.9594 15.4413 33.9701 15.4445 33.9808 15.4479C33.9916 15.4513 34.0023 15.455 34.013 15.4589C34.0238 15.4628 34.0345 15.4669 34.0452 15.4713C34.056 15.4757 34.0667 15.4804 34.0774 15.4852C34.0882 15.4902 34.0989 15.4953 34.1095 15.5007C34.1204 15.5062 34.1311 15.512 34.1417 15.518C34.1526 15.5241 34.1633 15.5305 34.1739 15.5371C34.1848 15.5439 34.1955 15.5508 34.2061 15.5581C34.217 15.5655 34.2277 15.5732 34.2383 15.5812C34.2492 15.5894 34.2599 15.5979 34.2705 15.6067C34.2814 15.6158 34.2921 15.6253 34.3026 15.6349C34.3136 15.645 34.3244 15.6553 34.3348 15.666C34.3459 15.6772 34.3566 15.6889 34.367 15.7007C34.3781 15.7133 34.3888 15.7263 34.3992 15.7396C34.4104 15.7539 34.4211 15.7686 34.4314 15.7837C34.4426 15.8003 34.4534 15.8173 34.4636 15.8347C34.475 15.8543 34.4858 15.8745 34.4957 15.8953C34.5076 15.9199 34.5184 15.9452 34.5279 15.9713C34.5408 16.0063 34.5516 16.0426 34.5601 16.0801C34.5748 16.1451 34.5828 16.2135 34.5828 16.285C34.5828 16.3567 34.5749 16.4255 34.5601 16.4906C34.5516 16.5282 34.5408 16.5646 34.5279 16.5997C34.5183 16.6259 34.5076 16.6512 34.4957 16.6759C34.4858 16.6967 34.475 16.7169 34.4636 16.7366C34.4534 16.754 34.4427 16.771 34.4314 16.7875C34.4211 16.8026 34.4103 16.8174 34.3992 16.8317C34.3888 16.845 34.3781 16.8579 34.367 16.8706C34.3566 16.8824 34.3459 16.894 34.3348 16.9052C34.3244 16.9159 34.3136 16.9262 34.3026 16.9363C34.2921 16.946 34.2814 16.9553 34.2705 16.9644L34.2563 16.9759C34.2504 16.9806 34.2444 16.9853 34.2383 16.9899C34.2328 16.994 34.2272 16.998 34.2217 17.002C34.2165 17.0057 34.2113 17.0093 34.2061 17.0129L34.1945 17.0207C34.1877 17.0252 34.1808 17.0295 34.1739 17.0338C34.1633 17.0404 34.1526 17.0467 34.1417 17.0528C34.1311 17.0588 34.1204 17.0645 34.1095 17.0699C34.0989 17.0753 34.0882 17.0804 34.0774 17.0854L34.0594 17.0933L34.0452 17.0992C34.0345 17.1035 34.0238 17.1076 34.013 17.1115L33.9977 17.1168L33.9808 17.1223C33.9701 17.1257 33.9594 17.1288 33.9486 17.1317C33.9379 17.1346 33.9272 17.1373 33.9164 17.1398L33.9037 17.1426C33.901 17.1433 33.8981 17.1439 33.895 17.1445C33.8916 17.1452 33.888 17.1459 33.8843 17.1465L33.8739 17.1483L33.8521 17.1515L33.8386 17.1532L33.8199 17.1554C33.8138 17.1561 33.8077 17.1568 33.8015 17.1574C33.7969 17.1578 33.7923 17.1582 33.7877 17.1586C33.7769 17.1596 33.7661 17.1605 33.7555 17.1613C33.7445 17.1621 33.7337 17.1627 33.7233 17.1633C33.7119 17.1639 33.7011 17.1643 33.6912 17.1645L33.6739 17.1647H33.659H33.6268H33.5946H33.5624H33.5303H33.498H33.4659H33.4337H33.4015H33.3693H33.3372H33.305H33.2728H33.2406H33.2084H33.1762H33.1441H33.1119H33.0797H33.0475H33.0153H32.9831H32.951H32.9188H32.8866H32.8544H32.8222H32.79H32.7579H32.7257H32.6935H32.6613H32.6291H32.5969H32.5647H32.5326H32.5004H32.4682H32.436H32.4038H32.3716H32.3395H32.3073H32.2751H32.2429H32.2107H32.1785H32.1464H32.1142H32.082H32.0498H32.0176H31.9854H31.9533H31.9211H31.8889H31.8567H31.8245H31.7923H31.7602H31.7435V15.4054ZM34.3349 13.4141C34.3479 13.4732 34.3548 13.5357 34.3548 13.6016C34.3548 13.6674 34.3479 13.7299 34.3349 13.7889C34.3266 13.8268 34.3158 13.8632 34.3027 13.8982C34.2932 13.9237 34.2824 13.9484 34.2706 13.9722C34.2606 13.9922 34.2499 14.0116 34.2384 14.0303C34.2282 14.0469 34.2175 14.063 34.2062 14.0787C34.1959 14.0929 34.1852 14.1067 34.174 14.1202C34.1636 14.1326 34.1529 14.1448 34.1419 14.1565C34.1314 14.1676 34.1207 14.1783 34.1097 14.1886C34.0992 14.1985 34.0885 14.2081 34.0775 14.2173C34.067 14.2262 34.0562 14.2348 34.0453 14.2431C34.0348 14.2511 34.024 14.2588 34.0131 14.2662C34.0026 14.2734 33.9918 14.2804 33.9809 14.2871C33.9703 14.2936 33.9596 14.2999 33.9488 14.3059C33.9382 14.3117 33.9274 14.3174 33.9166 14.3228C33.906 14.3281 33.8952 14.3331 33.8844 14.3379C33.8738 14.3427 33.863 14.3471 33.8522 14.3514C33.8416 14.3556 33.8308 14.3596 33.82 14.3633C33.8094 14.367 33.7987 14.3705 33.7879 14.3738C33.7772 14.377 33.7665 14.3801 33.7557 14.3829C33.7497 14.3844 33.7437 14.3859 33.7377 14.3873C33.733 14.3884 33.7282 14.3895 33.7235 14.3905C33.7128 14.3929 33.7021 14.395 33.6913 14.3969L33.6835 14.3983C33.6772 14.3994 33.6689 14.4006 33.6591 14.4019C33.6496 14.4031 33.6387 14.4043 33.6269 14.4055C33.6217 14.406 33.6163 14.4065 33.6108 14.4071C33.6055 14.4075 33.6002 14.408 33.5948 14.4085C33.5842 14.4093 33.5734 14.4101 33.5626 14.4108C33.5518 14.4115 33.5409 14.4121 33.5304 14.4125L33.5245 14.4127C33.5154 14.4131 33.5066 14.4133 33.4982 14.4133L33.4931 14.4133H33.466H33.4338H33.4017H33.3695H33.3373H33.3051H33.2729H33.2408H33.2086H33.1764H33.1442H33.112H33.0798H33.0477H33.0155H32.9833H32.9511H32.9189H32.8867H32.8546H32.8224H32.7902H32.758H32.7258H32.6936H32.6615H32.6293H32.5971H32.5649H32.5327H32.5006H32.4684H32.4362H32.404H32.3719H32.3396H32.3075H32.2753H32.2431H32.2109H32.1788H32.1466H32.1144H32.0822H32.05H32.0178H31.9857H31.9535H31.9213H31.8891H31.8569H31.8247H31.7926H31.7604H31.7435V12.7898H31.7604H31.7926H31.8247H31.8569H31.8891H31.9213H31.9535H31.9857H32.0178H32.05H32.0822H32.1144H32.1466H32.1788H32.2109H32.2431H32.2753H32.3075H32.3396H32.3719H32.404H32.4362H32.4684H32.5006H32.5327H32.5649H32.5971H32.6293H32.6615H32.6936H32.7258H32.758H32.7902H32.8224H32.8546H32.8867H32.9189H32.9511H32.9833H33.0155H33.0477H33.0798H33.112H33.1442H33.1764H33.2086H33.2408H33.2729H33.3051H33.3373H33.3695H33.4017H33.4338H33.466H33.4982H33.5118L33.5304 12.7904C33.5409 12.7908 33.5518 12.7915 33.5626 12.7922L33.5948 12.7945C33.6059 12.7954 33.6167 12.7964 33.6269 12.7974L33.6591 12.8008C33.6689 12.8019 33.6772 12.803 33.6835 12.8039L33.6913 12.8053C33.7021 12.8072 33.7128 12.8094 33.7235 12.8118C33.7343 12.8141 33.745 12.8167 33.7557 12.8195C33.7665 12.8224 33.7772 12.8254 33.7879 12.8287C33.7987 12.832 33.8094 12.8355 33.82 12.8392C33.8308 12.843 33.8416 12.847 33.8522 12.8512C33.863 12.8555 33.8738 12.86 33.8844 12.8648C33.8952 12.8696 33.906 12.8747 33.9166 12.8799C33.9274 12.8854 33.9382 12.891 33.9488 12.8969C33.9596 12.9029 33.9703 12.9092 33.9809 12.9157C33.9918 12.9224 34.0026 12.9293 34.0131 12.9365C34.024 12.944 34.0348 12.9518 34.0453 12.9598C34.0562 12.9681 34.067 12.9766 34.0775 12.9855C34.0885 12.9948 34.0992 13.0044 34.1097 13.0142C34.1207 13.0246 34.1314 13.0353 34.1419 13.0464C34.1529 13.0581 34.1636 13.0702 34.174 13.0827C34.1852 13.0961 34.1959 13.11 34.2062 13.1242C34.2175 13.1399 34.2282 13.1559 34.2384 13.1726C34.2499 13.1913 34.2606 13.2107 34.2706 13.2307C34.2824 13.2545 34.2932 13.2793 34.3027 13.3048C34.3158 13.3397 34.3266 13.3762 34.3349 13.4141ZM38.3261 4.99536H38.3393L38.3393 21.6698C38.3393 21.7694 38.3347 21.8679 38.3261 21.9653C38.3186 22.0511 38.3078 22.1359 38.2939 22.2196C38.2846 22.2759 38.2738 22.3316 38.2617 22.3869C38.2519 22.4318 38.2412 22.4765 38.2295 22.5208C38.2195 22.559 38.2087 22.5969 38.1973 22.6345C38.1871 22.6686 38.1765 22.7024 38.1651 22.736C38.1549 22.7665 38.1441 22.7967 38.133 22.8267C38.1226 22.8547 38.1118 22.8825 38.1008 22.9102C38.0904 22.9361 38.0796 22.9619 38.0686 22.9875C38.0581 23.0118 38.0474 23.0359 38.0364 23.0599C38.0259 23.0828 38.0152 23.1055 38.0042 23.128C37.9937 23.1497 37.983 23.1712 37.972 23.1925C37.9615 23.213 37.9508 23.2334 37.9399 23.2536C37.9293 23.273 37.9185 23.2922 37.9076 23.3115C37.8971 23.33 37.8864 23.3485 37.8755 23.3669C37.8649 23.3847 37.8542 23.4025 37.8433 23.4202C37.8327 23.4373 37.822 23.4545 37.8111 23.4715C37.8005 23.4879 37.7897 23.5042 37.7789 23.5205C37.7683 23.5363 37.7575 23.5519 37.7467 23.5675C37.7415 23.575 37.7364 23.5824 37.7312 23.5898C37.7256 23.5977 37.7201 23.6055 37.7145 23.6133C37.7039 23.6281 37.6932 23.6428 37.6823 23.6574C37.6717 23.6717 37.6609 23.6857 37.6501 23.6998L37.6327 23.7224L37.618 23.7411C37.6073 23.7546 37.5966 23.7679 37.5858 23.7811L37.5716 23.7981L37.5536 23.8196L37.5386 23.8374L37.5214 23.8575C37.5108 23.8697 37.5 23.8817 37.4892 23.8937C37.4858 23.8975 37.4824 23.9013 37.4789 23.9051C37.4717 23.9132 37.4643 23.9212 37.457 23.9292C37.4463 23.9408 37.4357 23.9523 37.4248 23.9637C37.4161 23.9729 37.4073 23.982 37.3984 23.9911L37.3926 23.997L37.3807 24.0093L37.3604 24.0299C37.3556 24.0347 37.3507 24.0395 37.3458 24.0443C37.3426 24.0474 37.3395 24.0504 37.3364 24.0534L37.3283 24.0613C37.3176 24.0717 37.3069 24.0821 37.2961 24.0924C37.2854 24.1024 37.2747 24.1124 37.2639 24.1223L37.2317 24.1516C37.2255 24.1572 37.2192 24.1627 37.213 24.1683C37.2085 24.1723 37.204 24.1762 37.1995 24.1802L37.1891 24.1892L37.1673 24.2079L37.1491 24.2234L37.1351 24.2351C37.1245 24.244 37.1137 24.2527 37.1029 24.2614L37.1002 24.2636C37.0904 24.2716 37.0806 24.2795 37.0708 24.2873C37.0601 24.2958 37.0493 24.304 37.0386 24.3123L37.0332 24.3164L37.0064 24.337L36.9821 24.3549L36.9742 24.3607C36.9635 24.3686 36.9528 24.3765 36.942 24.3842C36.9313 24.3918 36.9206 24.3993 36.9098 24.4068C36.9071 24.4086 36.9045 24.4105 36.9018 24.4123C36.8938 24.4179 36.8857 24.4236 36.8776 24.4291L36.8535 24.4452L36.8454 24.4506C36.8347 24.4577 36.824 24.4648 36.8132 24.4718C36.8026 24.4787 36.7918 24.4855 36.7811 24.4922L36.7489 24.5123L36.7167 24.5319L36.6845 24.5509L36.6523 24.5695L36.6201 24.5875C36.6094 24.5935 36.5987 24.5995 36.5879 24.6053L36.5647 24.6176L36.5557 24.6223C36.5484 24.6262 36.5411 24.6301 36.5337 24.634C36.5304 24.6357 36.5269 24.6375 36.5235 24.6393L36.5031 24.6495L36.4914 24.6553L36.4851 24.6585L36.4592 24.6713L36.427 24.6866L36.3948 24.7017L36.3626 24.7162L36.3304 24.7303C36.3197 24.735 36.309 24.7398 36.2982 24.7443L36.2775 24.7528L36.266 24.7574L36.2547 24.7621L36.2339 24.7706C36.2232 24.7748 36.2124 24.7789 36.2017 24.783L36.1695 24.7952L36.1373 24.8071L36.1051 24.8184L36.0937 24.8225L36.0729 24.8297C36.0622 24.8333 36.0514 24.8367 36.0407 24.8402L36.0085 24.8506L35.9763 24.8606L35.9442 24.8701L35.9346 24.873L35.912 24.8795L35.8906 24.8854L35.8798 24.8883C35.8691 24.8912 35.8584 24.8942 35.8476 24.897L35.8154 24.9051L35.7832 24.9129L35.751 24.9206L35.7353 24.9241L35.7188 24.9276C35.7081 24.93 35.6974 24.9324 35.6866 24.9346L35.6545 24.9411L35.6223 24.9472L35.6102 24.9495L35.5901 24.9533C35.5794 24.9552 35.5686 24.9568 35.5579 24.9586L35.5257 24.964L35.4935 24.9688L35.4613 24.9733C35.4506 24.9748 35.4399 24.9764 35.4291 24.9778L35.4096 24.9801L35.397 24.9815L35.3648 24.9852L35.3326 24.9885L35.3004 24.9914L35.2682 24.9942L35.236 24.9965L35.2038 24.9985C35.1931 24.9991 35.1824 24.9999 35.1716 25.0005C35.1609 25.001 35.1502 25.0013 35.1394 25.0017L35.1073 25.0029L35.0751 25.0037L35.0429 25.0042L35.0107 25.0046L35.004 25.0046H34.9785H34.9463H34.9141H34.8819H34.8497H34.8176H34.7854H34.7532H34.721H34.6888H34.6566H34.6244H34.5922H34.5601H34.5279H34.4957H34.4635H34.4313H34.3991H34.3669H34.3347H34.3025H34.2704H34.2382H34.206H34.1738H34.1416H34.1094H34.0772H34.045H34.0128H33.9807H33.9485H33.9163H33.8841H33.8519H33.8197H33.7875H33.7553H33.7232H33.691H33.6588H33.6266H33.5944H33.5622H33.53H33.4978H33.4656H33.4335H33.4013H33.3691H33.3369H33.3047H33.2725H33.2403H33.2081H33.1759H33.1438H33.1116H33.0794H33.0472H33.015H32.9828H32.9506H32.9184H32.8863H32.8541H32.8219H32.7897H32.7575H32.7253H32.6931H32.6609H32.6287H32.5966H32.5644H32.5322H32.5H32.4678H32.4356H32.4034H32.3712H32.339H32.3069H32.2747H32.2425H32.2103H32.1781H32.1459H32.1137H32.0815H32.0494H32.0172H31.985H31.9528H31.9206H31.8884H31.8562H31.824H31.7918H31.7597H31.7275H31.6953H31.6631H31.6309H31.5987H31.5665H31.5343H31.5021H31.47H31.4378H31.4056H31.3734H31.3412H31.309H31.2768H31.2446H31.2125H31.1803H31.1481H31.1159H31.0837H31.0515H31.0193H30.9871H30.9549H30.9228H30.8906H30.8584H30.8262H30.794H30.7618H30.7296H30.6974H30.6652H30.6331H30.6009H30.5687H30.5365H30.5043H30.4721H30.4399H30.4077H30.3756H30.3434H30.3112H30.279H30.2468H30.2146H30.1824H30.113V18.2059H30.1824H30.2146H30.2468H30.279H30.3112H30.3434H30.3756H30.4077H30.4399H30.4721H30.5043H30.5365H30.5687H30.6009H30.6331H30.6652H30.6974H30.7296H30.7618H30.794H30.8262H30.8584H30.8906H30.9228H30.9549H30.9871H31.0193H31.0515H31.0837H31.1159H31.1481H31.1803H31.2125H31.2446H31.2768H31.309H31.3412H31.3734H31.4056H31.4378H31.47H31.5021H31.5343H31.5665H31.5987H31.6309H31.6631H31.6953H31.7275H31.7597H31.7918H31.824H31.8562H31.8884H31.9206H31.9528H31.985H32.0172H32.0494H32.0815H32.1137H32.1459H32.1781H32.2103H32.2425H32.2747H32.3069H32.339H32.3712H32.4034H32.4356H32.4678H32.5H32.5322H32.5644H32.5966H32.6287H32.6609H32.6931H32.7253H32.7575H32.7897H32.8219H32.8541H32.8863H32.9184H32.9506H32.9828H33.015H33.0472H33.0794H33.1116H33.1438H33.1759H33.2081H33.2403H33.2725H33.3047H33.3369H33.3691H33.4013H33.4335H33.4656H33.4978H33.53H33.5622H33.5944H33.6266H33.6588H33.691H33.7232H33.7553H33.7875H33.8197H33.8519H33.8841H33.9163H33.9485H33.9807H34.0128H34.045H34.0772H34.1094H34.1416H34.1738H34.206H34.2382H34.2704H34.3025H34.3347H34.3669H34.3991H34.4313H34.4635H34.4957H34.5279H34.5601H34.5922H34.6244H34.6566H34.6888H34.721H34.7532H34.7854H34.8176H34.8497H34.8819H34.9141H34.9463H34.9785H35.0107H35.0429H35.0751H35.1073H35.1394H35.1716H35.2038H35.236H35.2682H35.2853L35.3004 18.2058L35.3326 18.2055L35.3648 18.2048C35.3755 18.2046 35.3863 18.2044 35.397 18.204L35.4291 18.2027L35.4613 18.2012L35.4935 18.1992L35.5257 18.197L35.5579 18.1945L35.5901 18.1915L35.6223 18.1884L35.6497 18.1853L35.6545 18.1848L35.6866 18.1809L35.7188 18.1766L35.751 18.1719L35.7832 18.1669L35.8154 18.1615L35.8476 18.1557L35.8798 18.1497L35.912 18.143L35.9442 18.136L35.9763 18.1287C35.9871 18.1262 35.9978 18.1235 36.0085 18.1208L36.0407 18.1126L36.0729 18.104C36.0837 18.101 36.0944 18.0979 36.1051 18.0948L36.1373 18.0853L36.1695 18.0752C36.1752 18.0733 36.181 18.0715 36.1867 18.0696C36.1917 18.0679 36.1967 18.0662 36.2017 18.0646C36.2073 18.0627 36.213 18.0608 36.2186 18.0588C36.2237 18.0571 36.2288 18.0553 36.2339 18.0535C36.2446 18.0498 36.2554 18.046 36.266 18.042L36.2917 18.0323L36.2982 18.0298L36.3304 18.0171L36.3341 18.0156L36.3341 18.0156C36.3436 18.0118 36.3532 18.0079 36.3626 18.004C36.3696 18.001 36.3766 17.998 36.3836 17.995C36.3873 17.9934 36.3911 17.9917 36.3948 17.9901L36.4046 17.9857L36.427 17.9756C36.4378 17.9706 36.4485 17.9656 36.4592 17.9605C36.4699 17.9554 36.4807 17.9502 36.4914 17.9449C36.4977 17.9417 36.5041 17.9385 36.5104 17.9352C36.5148 17.933 36.5192 17.9307 36.5235 17.9284C36.5343 17.9228 36.5451 17.917 36.5557 17.9112C36.5666 17.9053 36.5773 17.8993 36.5879 17.8933C36.5987 17.8871 36.6095 17.8809 36.6201 17.8746L36.6365 17.8648L36.6523 17.8551L36.6681 17.8452L36.6845 17.8346C36.6953 17.8276 36.706 17.8205 36.7167 17.8132C36.7275 17.8059 36.7382 17.7984 36.7489 17.7909C36.7597 17.7832 36.7704 17.7754 36.7811 17.7675C36.7879 17.7624 36.7947 17.7573 36.8014 17.7521C36.8054 17.7491 36.8093 17.746 36.8132 17.743L36.8218 17.7363L36.8454 17.7173C36.8563 17.7084 36.867 17.6994 36.8776 17.6903L36.8916 17.6781L36.9098 17.6619C36.917 17.6554 36.9242 17.6487 36.9313 17.6421C36.9349 17.6387 36.9384 17.6353 36.942 17.632C36.9529 17.6216 36.9636 17.611 36.9742 17.6004C36.9851 17.5893 36.9958 17.5782 37.0064 17.5669C37.0173 17.5552 37.028 17.5433 37.0386 17.5313C37.0495 17.5189 37.0602 17.5062 37.0708 17.4935C37.0817 17.4801 37.0924 17.4667 37.1029 17.453C37.1139 17.4387 37.1247 17.4244 37.1351 17.4097C37.1462 17.3942 37.1568 17.3783 37.1673 17.3624C37.1784 17.3455 37.1891 17.3283 37.1995 17.311C37.2107 17.2924 37.2214 17.2734 37.2317 17.2543C37.2429 17.2335 37.2537 17.2124 37.2639 17.191C37.2753 17.167 37.286 17.1427 37.2961 17.118C37.3076 17.0898 37.3184 17.0611 37.3283 17.0319C37.3404 16.996 37.351 16.9593 37.3604 16.922C37.3742 16.8674 37.3849 16.8114 37.3926 16.754C37.402 16.6844 37.4069 16.6129 37.4069 16.5394C37.4069 16.4678 37.402 16.3983 37.3926 16.3308C37.3849 16.2753 37.3741 16.2213 37.3604 16.1686C37.3511 16.1327 37.3403 16.0975 37.3283 16.063C37.3184 16.0347 37.3077 16.0068 37.2961 15.9794C37.286 15.9557 37.2752 15.9324 37.2639 15.9094C37.2537 15.8887 37.2429 15.8682 37.2317 15.8481C37.2214 15.8296 37.2107 15.8113 37.1995 15.7933C37.1891 15.7766 37.1784 15.7601 37.1673 15.7438C37.1569 15.7285 37.1462 15.7132 37.1351 15.6982C37.1247 15.6841 37.1139 15.6702 37.1029 15.6564C37.0924 15.6432 37.0817 15.6302 37.0708 15.6174C37.0602 15.6051 37.0495 15.5928 37.0386 15.5808C37.028 15.5692 37.0173 15.5578 37.0064 15.5465C36.9958 15.5356 36.9851 15.5249 36.9742 15.5143C36.9636 15.504 36.9529 15.4938 36.942 15.4838C36.9314 15.474 36.9207 15.4644 36.9098 15.4549C36.8992 15.4457 36.8885 15.4365 36.8776 15.4275C36.867 15.4187 36.8563 15.41 36.8454 15.4014C36.8348 15.3931 36.8241 15.3848 36.8132 15.3766C36.8026 15.3686 36.7919 15.3607 36.7811 15.3529C36.7704 15.3453 36.7597 15.3377 36.7489 15.3303C36.7382 15.323 36.7275 15.3158 36.7167 15.3086C36.706 15.3017 36.6953 15.2947 36.6845 15.2879C36.6738 15.2813 36.6631 15.2747 36.6523 15.2681L36.6424 15.2622L36.6201 15.2493C36.6095 15.2431 36.5987 15.2371 36.5879 15.2312C36.5773 15.2253 36.5666 15.2195 36.5557 15.2139C36.5451 15.2082 36.5343 15.2027 36.5235 15.1972C36.5176 15.1942 36.5117 15.1912 36.5057 15.1882C36.5009 15.1859 36.4961 15.1835 36.4914 15.1812C36.4807 15.176 36.47 15.1708 36.4592 15.1658C36.4517 15.1624 36.4443 15.159 36.4368 15.1556C36.4335 15.1541 36.4303 15.1527 36.427 15.1512C36.4163 15.1465 36.4056 15.1418 36.3948 15.1372L36.3626 15.1237L36.3612 15.1231C36.351 15.1189 36.3408 15.1148 36.3304 15.1107L36.2982 15.0983L36.266 15.0866L36.2339 15.0753L36.2017 15.0644L36.1695 15.054L36.1373 15.0442L36.1051 15.0347L36.0729 15.0256L36.0407 15.0172L36.0085 15.009L35.9763 15.0013L35.9442 14.994L35.912 14.9871L35.8798 14.9805L35.8476 14.9743L35.8154 14.9686L35.7832 14.9631L35.751 14.9581L35.7188 14.9534L35.6866 14.949L35.6545 14.945L35.6223 14.9413L35.5901 14.9379L35.5579 14.935L35.5257 14.9323L35.496 14.93L35.496 14.8914L35.5257 14.8868L35.5579 14.8815L35.5901 14.8758L35.6223 14.8697L35.6545 14.863L35.6866 14.856L35.7188 14.8486L35.751 14.8405C35.7618 14.8378 35.7725 14.8349 35.7832 14.832L35.8154 14.823L35.8476 14.8136L35.8798 14.8035L35.8937 14.799L35.912 14.7929L35.918 14.7908L35.9442 14.7817C35.9499 14.7796 35.9557 14.7776 35.9615 14.7755C35.9664 14.7736 35.9714 14.7718 35.9763 14.77L36.0085 14.7576L36.0264 14.7505L36.0407 14.7446C36.0515 14.7401 36.0623 14.7356 36.0729 14.731C36.0837 14.7262 36.0944 14.7214 36.1051 14.7165C36.1159 14.7116 36.1266 14.7065 36.1373 14.7014C36.1481 14.6962 36.1588 14.6909 36.1695 14.6855C36.1803 14.6801 36.191 14.6745 36.2017 14.6689C36.2125 14.6632 36.2232 14.6573 36.2339 14.6514C36.2447 14.6454 36.2554 14.6393 36.266 14.6331C36.2769 14.6268 36.2876 14.6203 36.2982 14.6138C36.3091 14.6072 36.3198 14.6005 36.3304 14.5936C36.3413 14.5867 36.352 14.5796 36.3626 14.5724C36.3692 14.5679 36.3758 14.5634 36.3824 14.5588C36.3865 14.5559 36.3907 14.553 36.3948 14.55L36.4115 14.538L36.427 14.5266C36.4379 14.5184 36.4486 14.5102 36.4592 14.5019C36.47 14.4933 36.4808 14.4846 36.4914 14.4758C36.5022 14.4668 36.513 14.4576 36.5235 14.4483C36.5345 14.4386 36.5452 14.4289 36.5557 14.4191C36.5666 14.4089 36.5774 14.3986 36.5879 14.3882C36.5988 14.3774 36.6096 14.3665 36.6201 14.3555C36.6311 14.344 36.6418 14.3324 36.6523 14.3206C36.6633 14.3083 36.674 14.2958 36.6845 14.2833C36.6955 14.2701 36.7062 14.2568 36.7167 14.2433C36.7277 14.2291 36.7384 14.2147 36.7489 14.2001C36.7599 14.1847 36.7706 14.169 36.7811 14.1532C36.7922 14.1364 36.8029 14.1194 36.8132 14.1021C36.8244 14.0834 36.8352 14.0645 36.8454 14.0453C36.8567 14.0243 36.8674 14.003 36.8776 13.9815C36.889 13.9573 36.8998 13.9327 36.9098 13.9079C36.9215 13.879 36.9322 13.8496 36.942 13.8199C36.9542 13.7826 36.965 13.7447 36.9742 13.7063C36.989 13.6439 36.9998 13.5803 37.0064 13.5156C37.0116 13.4645 37.0143 13.4128 37.0143 13.3605C37.0143 13.3053 37.0116 13.2515 37.0064 13.199C36.9997 13.132 36.9889 13.0672 36.9742 13.0047C36.965 12.9656 36.9542 12.9274 36.942 12.8902C36.9322 12.8604 36.9215 12.8312 36.9098 12.8025C36.8997 12.7778 36.889 12.7536 36.8776 12.7298C36.8674 12.7086 36.8567 12.6877 36.8454 12.6671C36.8351 12.6483 36.8244 12.6298 36.8132 12.6116C36.8028 12.5946 36.7922 12.5779 36.7811 12.5615C36.7706 12.5461 36.7599 12.5309 36.7489 12.516C36.7384 12.5018 36.7277 12.4879 36.7167 12.4742C36.7062 12.461 36.6955 12.448 36.6845 12.4353C36.674 12.4231 36.6632 12.4112 36.6523 12.3994C36.6418 12.388 36.631 12.3768 36.6201 12.3657C36.6096 12.3551 36.5988 12.3446 36.5879 12.3342C36.5774 12.3241 36.5666 12.3142 36.5557 12.3044C36.5452 12.2949 36.5344 12.2856 36.5235 12.2763C36.5129 12.2674 36.5022 12.2585 36.4914 12.2498C36.4808 12.2413 36.47 12.2329 36.4592 12.2247C36.4486 12.2166 36.4378 12.2087 36.427 12.2009C36.4164 12.1932 36.4056 12.1857 36.3948 12.1782C36.3842 12.171 36.3735 12.1638 36.3626 12.1568C36.352 12.1498 36.3412 12.143 36.3304 12.1363C36.3198 12.1297 36.309 12.1232 36.2982 12.1168C36.2876 12.1105 36.2769 12.1043 36.266 12.0982C36.2554 12.0922 36.2447 12.0863 36.2339 12.0805C36.2232 12.0747 36.2125 12.0691 36.2017 12.0636C36.191 12.0581 36.1803 12.0527 36.1695 12.0474C36.1588 12.0422 36.1481 12.037 36.1373 12.0319C36.1266 12.0269 36.1159 12.022 36.1051 12.0172C36.0944 12.0124 36.0837 12.0078 36.0729 12.0032L36.0407 11.9898L36.0085 11.9771C35.9979 11.9729 35.9871 11.9688 35.9763 11.9648L35.9442 11.9532L35.912 11.9421L35.8798 11.9316L35.8476 11.9216L35.8462 11.9212C35.836 11.918 35.8258 11.9149 35.8154 11.9119L35.7832 11.903L35.751 11.8944L35.7188 11.8862L35.6866 11.8785L35.6545 11.8713L35.6223 11.8644L35.6176 11.8634L35.5901 11.8579L35.5579 11.8519L35.5257 11.8462L35.4935 11.8409L35.4613 11.836L35.4291 11.8315L35.397 11.8272L35.3648 11.8234L35.3326 11.8199L35.3004 11.8167L35.2682 11.8138L35.236 11.8114L35.2038 11.8091L35.1716 11.8072L35.1589 11.8065L35.1394 11.8053L35.1073 11.8034L35.0751 11.8016L35.0429 11.7999L35.0107 11.7984L34.9785 11.797L34.9463 11.7958L34.9141 11.7948L34.8819 11.7941L34.8497 11.7937L34.832 11.7936H34.8176H34.7854H34.7532H34.721H34.6888H34.6566H34.6244H34.5922H34.5601H34.5279H34.4957H34.4635H34.4313H34.3991H34.3669H34.3347H34.3025H34.2704H34.2382H34.206H34.1738H34.1416H34.1094H34.0772H34.045H34.0128H33.9807H33.9485H33.9163H33.8841H33.8519H33.8197H33.7875H33.7553H33.7232H33.691H33.6588H33.6266H33.5944H33.5622H33.53H33.4978H33.4656H33.4335H33.4013H33.3691H33.3369H33.3047H33.2725H33.2403H33.2081H33.1759H33.1438H33.1116H33.0794H33.0472H33.015H32.9828H32.9506H32.9184H32.8863H32.8541H32.8219H32.7897H32.7575H32.7253H32.6931H32.6609H32.6287H32.5966H32.5644H32.5322H32.5H32.4678H32.4356H32.4034H32.3712H32.339H32.3069H32.2747H32.2425H32.2103H32.1781H32.1459H32.1137H32.0815H32.0494H32.0172H31.985H31.9528H31.9206H31.8884H31.8562H31.824H31.7918H31.7597H31.7275H31.6953H31.6631H31.6309H31.5987H31.5665H31.5343H31.5021H31.47H31.4378H31.4056H31.3734H31.3412H31.309H31.2768H31.2446H31.2125H31.1803H31.1481H31.1159H31.0837H31.0515H31.0193H30.9871H30.9549H30.9228H30.8906H30.8584H30.8262H30.794H30.7618H30.7296H30.6974H30.6652H30.6331H30.6009H30.5687H30.5365H30.5043H30.4721H30.4399H30.4077H30.3756H30.3434H30.3112H30.279H30.2468H30.2146H30.1824H30.113V8.33052C30.113 8.09754 30.137 7.87018 30.1824 7.65068C30.1922 7.60367 30.2029 7.55706 30.2146 7.51083C30.2246 7.47126 30.2354 7.43199 30.2468 7.39302C30.257 7.3582 30.2677 7.32363 30.279 7.28929C30.2893 7.25792 30.3 7.2267 30.3112 7.19576C30.3215 7.16705 30.3322 7.13851 30.3434 7.11017C30.3538 7.08371 30.3645 7.05738 30.3756 7.03126C30.386 7.00661 30.3967 6.98206 30.4077 6.95771C30.4182 6.93458 30.429 6.91161 30.4399 6.88877C30.4504 6.86697 30.4612 6.84534 30.4721 6.82381C30.4826 6.80311 30.4934 6.78256 30.5043 6.7621C30.5148 6.74239 30.5256 6.72281 30.5365 6.70333C30.5471 6.68444 30.5578 6.66571 30.5687 6.64707C30.5793 6.62898 30.59 6.61097 30.6009 6.59312C30.6115 6.57581 30.6222 6.55863 30.6331 6.54153C30.6436 6.52496 30.6544 6.50855 30.6652 6.4922C30.6759 6.47619 30.6866 6.46024 30.6974 6.44442L30.6993 6.44164C30.7094 6.42707 30.7194 6.4125 30.7296 6.3981C30.7402 6.38327 30.751 6.36862 30.7618 6.35398C30.7724 6.33957 30.7832 6.32527 30.794 6.31105L30.7995 6.30379C30.8084 6.29219 30.8172 6.2806 30.8262 6.26917C30.8348 6.25826 30.8435 6.2475 30.8523 6.23673L30.8584 6.2292C30.869 6.21611 30.8797 6.20311 30.8906 6.1902C30.9012 6.17745 30.9119 6.1647 30.9228 6.1521C30.9317 6.14178 30.9407 6.13161 30.9498 6.12143L30.9549 6.11566L30.9604 6.10957C30.9692 6.09959 30.9781 6.08962 30.9871 6.07978C30.9978 6.06817 31.0085 6.05668 31.0193 6.0452C31.03 6.03389 31.0407 6.02266 31.0515 6.01148C31.0622 6.00046 31.0729 5.98945 31.0837 5.97856C31.0943 5.96786 31.1051 5.95733 31.1159 5.94679L31.1246 5.93826C31.1323 5.93059 31.1401 5.92292 31.1481 5.91539C31.1556 5.90823 31.1632 5.9012 31.1708 5.89416L31.1803 5.88543L31.1847 5.88129L31.185 5.88103C31.1941 5.87257 31.2032 5.86411 31.2125 5.85576C31.2216 5.84752 31.2308 5.83941 31.24 5.8313L31.2401 5.83124L31.2446 5.82722C31.2553 5.8178 31.266 5.80838 31.2768 5.7991C31.2875 5.78995 31.2982 5.78093 31.309 5.77191C31.3197 5.76297 31.3304 5.75406 31.3412 5.74526C31.3519 5.73654 31.3626 5.72792 31.3734 5.71936L31.4056 5.69404L31.4378 5.66939L31.47 5.64532L31.5021 5.62185L31.5343 5.59898L31.5665 5.57668L31.5987 5.55488L31.6309 5.53368L31.6631 5.51295L31.6953 5.49283L31.6999 5.48998L31.7275 5.47304L31.7527 5.45809L31.7597 5.45399L31.7682 5.44897L31.7918 5.4351L31.813 5.42325L31.824 5.41709L31.8342 5.41139L31.8562 5.39911L31.878 5.38751L31.8884 5.38204L31.9206 5.36507L31.9477 5.35135L31.9528 5.34879L31.985 5.33279L32.0172 5.31723L32.0494 5.30219L32.0593 5.29759L32.0815 5.28733L32.1027 5.27805L32.1137 5.27324L32.1236 5.26889L32.1459 5.25918L32.1671 5.25042L32.1781 5.2459L32.1851 5.24302L32.2103 5.23274L32.2425 5.22007L32.2747 5.20783L32.2833 5.20454L32.3069 5.19574L32.3276 5.18839L32.339 5.1844L32.3495 5.18069L32.3712 5.17307L32.3927 5.16594L32.4034 5.16242L32.4356 5.15199L32.4678 5.14182L32.4901 5.13518L32.5 5.13227L32.5097 5.12935L32.5322 5.1227L32.5536 5.11681L32.5644 5.11389L32.5966 5.10517L32.6287 5.09685L32.6609 5.089L32.6733 5.08596L32.6931 5.08116L32.7129 5.07678L32.7253 5.07409L32.7575 5.06707L32.7897 5.06043L32.8219 5.05427L32.8336 5.05199L32.8541 5.04808L32.8748 5.04455L32.8863 5.04266L32.9184 5.03733L32.9506 5.03226L32.9731 5.02908L32.9828 5.02775L32.9945 5.02609L33.015 5.02324L33.0472 5.01935L33.0794 5.01566L33.0908 5.01438L33.1116 5.01212L33.1322 5.01026L33.1438 5.00926L33.1759 5.00641L33.2081 5.00398L33.2403 5.00192L33.2535 5.00108L33.2725 4.9999L33.2932 4.99902L33.3047 4.99856L33.3369 4.99736L33.3477 4.99699L33.3691 4.99632L33.4013 4.99589L33.4335 4.99549L33.4415 4.99539H33.4656H33.4978H33.53H33.5622H33.5944H33.6266H33.6588H33.691H33.7232H33.7553H33.7875H33.8197H33.8519H33.8841H33.9163H33.9485H33.9807H34.0128H34.045H34.0772H34.1094H34.1416H34.1738H34.206H34.2382H34.2704H34.3025H34.3347H34.3669H34.3991H34.4313H34.4635H34.4957H34.5279H34.5601H34.5922H34.6244H34.6566H34.6888H34.721H34.7532H34.7854H34.8176H34.8497H34.8819H34.9141H34.9463H34.9785H35.0107H35.0429H35.0751H35.1073H35.1394H35.1716H35.2038H35.236H35.2682H35.3004H35.3326H35.3648H35.397H35.4291H35.4613H35.4935H35.5257H35.5579H35.5901H35.6223H35.6545H35.6866H35.7188H35.751H35.7832H35.8154H35.8476H35.8798H35.912H35.9442H35.9763H36.0085H36.0407H36.0729H36.1051H36.1373H36.1695H36.2017H36.2339H36.266H36.2982H36.3304H36.3626H36.3948H36.427H36.4592H36.4914H36.5235H36.5557H36.5879H36.6201H36.6523H36.6845H36.7167H36.7489H36.7811H36.8132H36.8454H36.8776H36.9098H36.942H36.9742H37.0064H37.0386H37.0708H37.1029H37.1351H37.1673H37.1995H37.2317H37.2639H37.2961H37.3283H37.3604H37.3926H37.4248H37.457H37.4892H37.5214H37.5536H37.5858H37.618H37.6501H37.6823H37.7145H37.7467H37.7789H37.8111H37.8433H37.8755H37.9076H37.9399H37.972H38.0042H38.0364H38.0686H38.1008H38.133H38.1651H38.1973H38.2295H38.2617H38.2939H38.3261V4.99536ZM20.8871 12.6966C20.9096 12.6772 20.9327 12.6581 20.9561 12.6392V12.6392L20.9882 12.6136L21.0203 12.5886C21.031 12.5804 21.0417 12.5722 21.0525 12.5641C21.0577 12.5602 21.063 12.5563 21.0683 12.5524C21.0737 12.5484 21.0792 12.5445 21.0846 12.5405C21.0952 12.5328 21.106 12.525 21.1168 12.5174L21.1489 12.4948L21.181 12.4728C21.1901 12.4666 21.1993 12.4605 21.2086 12.4544L21.2132 12.4514L21.2453 12.4304L21.2774 12.4098L21.3095 12.3899L21.3417 12.3703L21.3738 12.3512L21.4059 12.3327L21.4381 12.3144L21.4702 12.2966L21.5023 12.2792C21.513 12.2734 21.5237 12.2677 21.5345 12.262L21.5666 12.2455L21.5987 12.2291L21.6309 12.2131L21.663 12.1976L21.6951 12.1822L21.7273 12.1674L21.7594 12.1527L21.7915 12.1385L21.8236 12.1244L21.8558 12.1107L21.8879 12.0973L21.92 12.0841L21.9522 12.0713L21.9843 12.0586L22.0164 12.0464L22.0486 12.0342L22.0807 12.0225L22.1129 12.0108L22.145 11.9996L22.1771 11.9884L22.2092 11.9776L22.2414 11.9669L22.2735 11.9566L22.3056 11.9463L22.3378 11.9364L22.3699 11.9265L22.402 11.917L22.4342 11.9076L22.4663 11.8985L22.4984 11.8895L22.5306 11.8808L22.5627 11.8722L22.5948 11.8637L22.627 11.8556L22.6591 11.8475L22.6912 11.8397L22.7234 11.8319L22.7555 11.8245L22.7876 11.8171L22.8198 11.8099L22.8519 11.8029L22.884 11.796L22.9162 11.7894L22.9483 11.7827L22.9804 11.7765L23.0126 11.7702L23.0447 11.7641L23.0768 11.7582L23.109 11.7523L23.1411 11.7467L23.1732 11.7412L23.2054 11.7358L23.2375 11.7305L23.2696 11.7254L23.3018 11.7205L23.3339 11.7156L23.366 11.7109L23.3982 11.7063L23.4303 11.7018L23.4624 11.6975L23.4945 11.6933L23.5267 11.6892L23.5588 11.6852L23.591 11.6813L23.6231 11.6776L23.6552 11.674L23.6874 11.6704L23.7195 11.6671L23.7516 11.6638L23.7837 11.6606L23.8159 11.6575L23.848 11.6545L23.8802 11.6517L23.9123 11.649L23.9444 11.6463L23.9765 11.6438L24.0087 11.6413L24.0408 11.6389L24.073 11.6367L24.1051 11.6346L24.1372 11.6324L24.1694 11.6305L24.2015 11.6287L24.2336 11.6268L24.2658 11.6253L24.2979 11.6237L24.33 11.6221L24.3622 11.6208L24.3943 11.6195L24.4264 11.6181L24.4585 11.6171L24.4907 11.616L24.5228 11.615L24.555 11.6142L24.5871 11.6134L24.6192 11.6126L24.6513 11.612L24.6835 11.6115L24.7156 11.6109L24.7477 11.6106L24.7799 11.6103L24.812 11.61L24.8441 11.6099L24.8763 11.6098L24.9084 11.6098L24.9405 11.6098L24.9727 11.61L25.0048 11.6102L25.037 11.6105L25.0691 11.6109L25.1012 11.6113L25.1333 11.6117L25.1655 11.6124L25.1976 11.613L25.2297 11.6137L25.2619 11.6145L25.294 11.6154L25.3261 11.6163L25.3583 11.6173L25.3904 11.6184L25.4225 11.6195L25.4547 11.6206L25.4868 11.622L25.5189 11.6233L25.5511 11.6246L25.5668 11.6253L25.5832 11.6261L25.6153 11.6276L25.6475 11.6293L25.6796 11.6311L25.7117 11.633L25.7439 11.6349L25.776 11.6371L25.8081 11.6392L25.8403 11.6416L25.8724 11.644L25.9045 11.6465L25.9367 11.6491L25.9688 11.6519L26.0009 11.6547L26.0331 11.6576L26.0652 11.6606L26.0973 11.6637L26.1295 11.6669L26.1616 11.6701L26.1937 11.6735L26.2258 11.6769L26.258 11.6805L26.2901 11.6841L26.3223 11.6878L26.3544 11.6915L26.3865 11.6954L26.4187 11.6993L26.4508 11.7034L26.4829 11.7075L26.515 11.7116L26.5472 11.7159L26.5793 11.7202L26.6115 11.7246L26.6436 11.729L26.6757 11.7336L26.7078 11.7382L26.74 11.7429L26.7721 11.7476L26.8042 11.7525L26.8364 11.7574L26.8685 11.7623L26.9007 11.7674L26.9328 11.7725L26.9649 11.7776L26.997 11.7829L27.0292 11.7882L27.0613 11.7935L27.0935 11.799L27.1256 11.8044L27.1577 11.81L27.1898 11.8156L27.222 11.8213L27.2541 11.8271L27.2863 11.8329L27.3184 11.8388L27.3505 11.8447L27.3826 11.8507L27.4148 11.8568L27.4469 11.8629L27.479 11.8691L27.5112 11.8754L27.5433 11.8817L27.5755 11.8881L27.6076 11.8945L27.6397 11.901L27.6718 11.9076L27.704 11.9143L27.7361 11.921L27.7682 11.9277L27.8004 11.9346L27.8325 11.9415L27.8646 11.9484L27.8968 11.9555L27.9289 11.9626L27.961 11.9698L27.9932 11.9771L28.0253 11.9844L28.0574 11.9919L28.0896 11.9994L28.1217 12.0071L28.1538 12.0148L28.1858 12.0227V13.4344L28.1538 13.4183L28.1217 13.4023L28.0896 13.3864L28.0574 13.3707L28.0253 13.3551L27.9932 13.3397L27.961 13.3244L27.9289 13.3093L27.8968 13.2944L27.8646 13.2796L27.8325 13.265L27.8004 13.2505L27.7682 13.2363L27.7361 13.2221L27.704 13.2082L27.6718 13.1945L27.6397 13.1809L27.6076 13.1675L27.5755 13.1542L27.5433 13.1412L27.5112 13.1283L27.479 13.1156L27.4469 13.1032L27.4148 13.0908L27.3826 13.0787L27.3505 13.0667L27.3184 13.055L27.2863 13.0434L27.2541 13.032L27.222 13.0208L27.1898 13.0098L27.1577 12.999L27.1256 12.9884L27.0935 12.9779L27.0613 12.9676L27.0292 12.9576L26.997 12.9477L26.9649 12.938L26.9328 12.9285L26.9007 12.9191L26.8685 12.91L26.8364 12.901L26.8042 12.8923L26.7721 12.8837L26.74 12.8753L26.7078 12.8671L26.6757 12.8591L26.6436 12.8512L26.6115 12.8436L26.5793 12.8361L26.5472 12.8288L26.515 12.8217L26.4829 12.8148L26.4508 12.808L26.4187 12.8015L26.3865 12.7951L26.3544 12.7889L26.3223 12.7829L26.2901 12.777L26.258 12.7713L26.2258 12.7658L26.1937 12.7605L26.1616 12.7554L26.1295 12.7504L26.0973 12.7456L26.0652 12.741L26.0331 12.7365L26.0009 12.7323L25.9688 12.7282L25.9367 12.7243L25.9045 12.7205L25.8724 12.7169L25.8403 12.7135L25.8081 12.7102L25.776 12.7071L25.7439 12.7042L25.7117 12.7014L25.6796 12.6989L25.6601 12.6973L25.6475 12.6965L25.6153 12.6943L25.5832 12.6922L25.5511 12.6904L25.5189 12.6888L25.4868 12.6873L25.4547 12.6863L25.4225 12.6852L25.3904 12.6845L25.3583 12.684L25.3261 12.6836L25.294 12.6838L25.2619 12.6839L25.2297 12.6843L25.1976 12.685L25.1655 12.6859L25.1333 12.6872C25.1226 12.6876 25.1119 12.6879 25.1012 12.6885L25.0691 12.6903L25.037 12.6922L25.0048 12.6944L24.9727 12.697C24.9688 12.6973 24.965 12.6976 24.9612 12.6979C24.9543 12.6984 24.9474 12.6989 24.9405 12.6996L24.9084 12.7028L24.8763 12.706L24.8441 12.7098L24.812 12.7137L24.7799 12.7179L24.7477 12.7225L24.7156 12.7273L24.6835 12.7326C24.6796 12.7332 24.6758 12.7338 24.6719 12.7345C24.665 12.7356 24.6582 12.7367 24.6513 12.7379C24.6445 12.7391 24.6377 12.7404 24.6309 12.7417C24.627 12.7425 24.6231 12.7432 24.6192 12.7439C24.6156 12.7446 24.612 12.7453 24.6083 12.7459C24.6012 12.7472 24.5941 12.7485 24.5871 12.7499C24.58 12.7513 24.573 12.7528 24.5659 12.7543C24.5623 12.7551 24.5586 12.7559 24.555 12.7567C24.5522 12.7572 24.5495 12.7578 24.5467 12.7584C24.5387 12.76 24.5307 12.7617 24.5228 12.7634C24.5145 12.7653 24.5062 12.7672 24.4979 12.7692C24.4955 12.7697 24.4931 12.7703 24.4907 12.7708L24.4585 12.7784C24.4501 12.7804 24.4418 12.7826 24.4335 12.7847L24.4264 12.7865L24.3943 12.7948C24.3859 12.7971 24.3775 12.7994 24.3692 12.8018L24.3622 12.8037L24.33 12.8129L24.2979 12.8226L24.2658 12.8326L24.2336 12.8433L24.2015 12.8542C24.1907 12.858 24.18 12.8619 24.1694 12.8658C24.1667 12.8668 24.164 12.8677 24.1613 12.8687C24.1533 12.8716 24.1452 12.8746 24.1372 12.8776C24.1264 12.8817 24.1158 12.886 24.1051 12.8902C24.1026 12.8912 24.1002 12.8922 24.0977 12.8931C24.0894 12.8964 24.0812 12.8996 24.073 12.903C24.0641 12.9067 24.0553 12.9105 24.0466 12.9143L24.0408 12.9167C24.0386 12.9177 24.0365 12.9186 24.0343 12.9195C24.0257 12.9232 24.0171 12.9269 24.0087 12.9307C24 12.9345 23.9915 12.9385 23.983 12.9425C23.9808 12.9435 23.9787 12.9445 23.9765 12.9455C23.9658 12.9505 23.955 12.9555 23.9444 12.9606L23.9123 12.9765L23.8802 12.9931C23.8694 12.9987 23.8586 13.0043 23.848 13.0101C23.8389 13.0151 23.8299 13.0202 23.8208 13.0253L23.8159 13.0281C23.8051 13.0343 23.7944 13.0403 23.7837 13.0466C23.7729 13.053 23.7623 13.0595 23.7516 13.066C23.7408 13.0726 23.7301 13.0794 23.7195 13.0862C23.7087 13.093 23.6979 13.0999 23.6874 13.1069C23.6787 13.1126 23.6702 13.1185 23.6617 13.1244C23.6596 13.1259 23.6574 13.1274 23.6552 13.1289C23.6444 13.1364 23.6337 13.144 23.6231 13.1516C23.6123 13.1594 23.6015 13.1672 23.591 13.1751C23.5801 13.1833 23.5695 13.1916 23.5588 13.2C23.548 13.2085 23.5373 13.2171 23.5267 13.2257L23.5234 13.2284C23.5137 13.2364 23.504 13.2443 23.4945 13.2524C23.4838 13.2616 23.4732 13.271 23.4627 13.2804L23.4624 13.2806C23.4516 13.2903 23.4409 13.3002 23.4303 13.3101C23.4195 13.3202 23.4087 13.3304 23.3982 13.3407C23.3874 13.3513 23.3766 13.3619 23.366 13.3727C23.3551 13.3838 23.3445 13.3952 23.3339 13.4066C23.323 13.4183 23.3123 13.4303 23.3018 13.4422C23.2909 13.4546 23.2802 13.467 23.2696 13.4796C23.2588 13.4926 23.248 13.5057 23.2375 13.519C23.2266 13.5327 23.2159 13.5466 23.2054 13.5606C23.1945 13.5751 23.1837 13.5898 23.1732 13.6046C23.1623 13.6201 23.1516 13.6357 23.1411 13.6515C23.1301 13.668 23.1195 13.6847 23.109 13.7017C23.098 13.7194 23.0873 13.7373 23.0768 13.7555C23.0658 13.7746 23.0551 13.7939 23.0447 13.8135C23.0336 13.8342 23.023 13.8553 23.0126 13.8765C23.0015 13.8992 22.9908 13.9221 22.9804 13.9453C22.9693 13.9703 22.9585 13.9954 22.9483 14.0211C22.937 14.0494 22.9264 14.0783 22.9162 14.1074C22.9048 14.1397 22.8941 14.1725 22.884 14.2058C22.8724 14.2444 22.8617 14.2837 22.8519 14.3236C22.8397 14.3733 22.8291 14.4241 22.8198 14.4757C22.8059 14.5523 22.7951 14.6311 22.7876 14.7119C22.779 14.8053 22.7746 14.9016 22.7746 15.0006C22.7746 15.0995 22.779 15.1957 22.7876 15.289C22.7951 15.3699 22.8059 15.4486 22.8198 15.5251C22.8291 15.5768 22.8397 15.6275 22.8519 15.6772C22.8617 15.7171 22.8724 15.7563 22.884 15.7949C22.8941 15.8282 22.9048 15.8609 22.9162 15.8932C22.9264 15.9224 22.937 15.9512 22.9483 15.9795C22.9585 16.0051 22.9693 16.0303 22.9804 16.0553C22.9908 16.0785 23.0015 16.1014 23.0126 16.124C23.023 16.1453 23.0336 16.1663 23.0447 16.187C23.0551 16.2066 23.0658 16.2259 23.0768 16.245C23.0873 16.2631 23.098 16.2811 23.109 16.2988C23.1195 16.3157 23.1301 16.3324 23.1411 16.3489C23.1516 16.3647 23.1623 16.3803 23.1732 16.3958C23.1837 16.4106 23.1945 16.4253 23.2054 16.4398C23.2159 16.4538 23.2266 16.4677 23.2375 16.4814C23.248 16.4947 23.2588 16.5078 23.2696 16.5207C23.2802 16.5333 23.2909 16.5458 23.3018 16.5581C23.3123 16.5701 23.323 16.582 23.3339 16.5937C23.3445 16.6051 23.3551 16.6165 23.366 16.6276C23.3766 16.6384 23.3874 16.649 23.3982 16.6596C23.4087 16.6699 23.4195 16.6801 23.4303 16.6902C23.4409 16.7001 23.4516 16.7099 23.4624 16.7196C23.473 16.7291 23.4837 16.7386 23.4945 16.7479C23.5051 16.7569 23.5159 16.7657 23.5267 16.7745C23.5373 16.7832 23.548 16.7917 23.5588 16.8002C23.5695 16.8086 23.5801 16.8169 23.591 16.8251C23.6015 16.833 23.6123 16.8408 23.6231 16.8485C23.6337 16.8562 23.6444 16.8638 23.6552 16.8713C23.6574 16.8728 23.6596 16.8743 23.6617 16.8758C23.6702 16.8817 23.6787 16.8875 23.6874 16.8933C23.6961 16.8991 23.7049 16.9047 23.7138 16.9104L23.7195 16.914C23.7301 16.9208 23.7408 16.9275 23.7516 16.9342C23.7623 16.9407 23.7729 16.9472 23.7837 16.9536C23.793 16.959 23.8024 16.9644 23.8118 16.9697L23.8159 16.972L23.8208 16.9748C23.8299 16.98 23.8389 16.9851 23.848 16.9901C23.8586 16.9958 23.8694 17.0014 23.8802 17.007L23.9123 17.0236L23.9444 17.0395C23.955 17.0446 23.9658 17.0496 23.9765 17.0546C23.9872 17.0596 23.9979 17.0646 24.0087 17.0694C24.0193 17.0742 24.0301 17.0788 24.0408 17.0834C24.0515 17.088 24.0621 17.0926 24.073 17.0971C24.0787 17.0994 24.0844 17.1017 24.0902 17.104C24.0952 17.106 24.1001 17.1079 24.1051 17.1099L24.1107 17.1121C24.1195 17.1156 24.1283 17.1191 24.1372 17.1225C24.1435 17.1248 24.1497 17.1271 24.156 17.1294C24.1605 17.1311 24.1649 17.1327 24.1694 17.1343L24.1749 17.1363C24.1837 17.1396 24.1926 17.1428 24.2015 17.1459L24.2336 17.1568L24.2658 17.1674L24.2979 17.1774L24.33 17.1872C24.3407 17.1903 24.3514 17.1933 24.3622 17.1964L24.3943 17.2052L24.4264 17.2136C24.4288 17.2142 24.4312 17.2148 24.4336 17.2154C24.4419 17.2175 24.4502 17.2196 24.4585 17.2217L24.4907 17.2292C24.5014 17.2317 24.512 17.2342 24.5228 17.2366C24.5303 17.2383 24.5378 17.2398 24.5454 17.2414C24.5486 17.242 24.5518 17.2427 24.555 17.2434C24.5586 17.2441 24.5623 17.2449 24.5659 17.2457C24.573 17.2472 24.58 17.2487 24.5871 17.2501C24.5941 17.2515 24.6012 17.2528 24.6084 17.2541C24.612 17.2548 24.6156 17.2554 24.6192 17.2561C24.6231 17.2568 24.627 17.2576 24.6309 17.2583C24.6377 17.2596 24.6445 17.2609 24.6513 17.2621C24.6582 17.2633 24.6651 17.2645 24.672 17.2656C24.6758 17.2662 24.6796 17.2668 24.6835 17.2675L24.7156 17.2728L24.7477 17.2775L24.7799 17.2821L24.812 17.2863L24.8441 17.2902L24.8763 17.294L24.9084 17.2972L24.9405 17.3004C24.9474 17.3011 24.9542 17.3016 24.9611 17.3021C24.965 17.3024 24.9688 17.3027 24.9727 17.303L25.0048 17.3056L25.037 17.3078L25.0691 17.3097L25.1012 17.3115C25.1119 17.3121 25.1226 17.3124 25.1333 17.3128L25.1655 17.3141L25.1976 17.315L25.2297 17.3157L25.2619 17.3161L25.294 17.3162L25.3261 17.3164L25.3583 17.316L25.3904 17.3155L25.4225 17.3148L25.4547 17.3137L25.4868 17.3127L25.5189 17.3112L25.5511 17.3096L25.5832 17.3078L25.6153 17.3057L25.6475 17.3035L25.6601 17.3027L25.6796 17.3011L25.7117 17.2985L25.7439 17.2957L25.776 17.2927L25.8081 17.2896L25.8403 17.2863L25.8724 17.2828L25.9045 17.2792L25.9367 17.2753L25.9688 17.2713L26.0009 17.2672L26.0331 17.2629L26.0652 17.2584L26.0973 17.2537L26.1295 17.2489L26.1616 17.2438L26.1937 17.2386L26.2258 17.2333L26.258 17.2277L26.2901 17.2219L26.3223 17.216L26.3544 17.21L26.3865 17.2037L26.4187 17.1972L26.4508 17.1906L26.4829 17.1838L26.515 17.1769L26.5472 17.1697L26.5793 17.1624L26.6115 17.1548L26.6436 17.1471L26.6757 17.1392L26.7078 17.1312L26.74 17.1229L26.7721 17.1145L26.8042 17.1059L26.8364 17.0971L26.8685 17.0881L26.9007 17.079L26.9328 17.0696L26.9649 17.0601L26.997 17.0504L27.0292 17.0405L27.0613 17.0304L27.0935 17.0201L27.1256 17.0097L27.1577 16.9991L27.1898 16.9883L27.222 16.9773L27.2541 16.9661L27.2863 16.9548L27.3184 16.9432L27.3505 16.9315L27.3826 16.9196L27.4148 16.9075L27.4469 16.8953L27.479 16.8829L27.5112 16.8702L27.5433 16.8574L27.5755 16.8444L27.6076 16.8313L27.6397 16.818L27.6718 16.8045L27.704 16.7908L27.7361 16.777L27.7682 16.763L27.8004 16.7489L27.8325 16.7345L27.8646 16.72L27.8968 16.7053L27.9289 16.6905L27.961 16.6755L27.9932 16.6604L28.0253 16.6452L28.0574 16.6297L28.0896 16.6141L28.1217 16.5984L28.1538 16.5825L28.1858 16.5666V17.9773L28.1538 17.9852L28.1217 17.9929L28.0896 18.0006L28.0574 18.0081L28.0253 18.0156L27.9932 18.0229L27.961 18.0302L27.9289 18.0374L27.8968 18.0445L27.8646 18.0516L27.8325 18.0585L27.8004 18.0654L27.7682 18.0723L27.7361 18.0791L27.704 18.0858L27.6718 18.0924L27.6397 18.099L27.6076 18.1055L27.5755 18.112L27.5433 18.1184L27.5112 18.1247L27.479 18.1309L27.4469 18.1371L27.4148 18.1433L27.3826 18.1494L27.3505 18.1554L27.3184 18.1613L27.2863 18.1672L27.2541 18.173L27.222 18.1788L27.1898 18.1845L27.1577 18.1901L27.1256 18.1957L27.0935 18.2012L27.0613 18.2066L27.0292 18.212L26.997 18.2173L26.9649 18.2226L26.9328 18.2277L26.9007 18.2328L26.8685 18.2379L26.8364 18.2429L26.8042 18.2477L26.7721 18.2526L26.74 18.2574L26.7078 18.262L26.6757 18.2667L26.6436 18.2712L26.6115 18.2757L26.5793 18.2801L26.5472 18.2844L26.515 18.2887L26.4829 18.2929L26.4508 18.297L26.4187 18.301L26.3865 18.3049L26.3544 18.3088L26.3223 18.3126L26.2901 18.3163L26.258 18.3199L26.2258 18.3235L26.1937 18.3269L26.1616 18.3303L26.1295 18.3336L26.0973 18.3368L26.0652 18.3399L26.0331 18.3429L26.0009 18.3458L25.9688 18.3486L25.9367 18.3514L25.9045 18.354L25.8724 18.3566L25.8403 18.359L25.8081 18.3613L25.776 18.3635L25.7439 18.3657L25.7117 18.3677L25.6796 18.3696L25.6475 18.3714L25.6153 18.3731L25.5832 18.3746L25.5668 18.3754L25.5511 18.3761L25.5189 18.3774L25.4868 18.3788L25.4547 18.3801L25.4225 18.3812L25.3904 18.3823L25.3583 18.3834L25.3261 18.3844L25.294 18.3853L25.2619 18.3862L25.2297 18.387L25.1976 18.3877L25.1655 18.3883L25.1333 18.389L25.1012 18.3894L25.0691 18.3898L25.037 18.3903L25.0048 18.3905L24.9727 18.3907L24.9405 18.3909L24.9084 18.391L24.8763 18.3909L24.8441 18.3909L24.812 18.3907L24.7799 18.3904L24.7477 18.3902L24.7156 18.3898L24.6835 18.3893L24.6513 18.3887L24.6192 18.3882L24.5871 18.3874L24.555 18.3866L24.5228 18.3858L24.4907 18.3847L24.4585 18.3837L24.4264 18.3826L24.3943 18.3813L24.3622 18.38L24.33 18.3787L24.2979 18.3771L24.2658 18.3755L24.2336 18.3739L24.2015 18.3721L24.1694 18.3702L24.1372 18.3684L24.1051 18.3662L24.073 18.3641L24.0408 18.3619L24.0087 18.3594L23.9765 18.357L23.9444 18.3545L23.9123 18.3518L23.8802 18.3491L23.848 18.3463L23.8159 18.3433L23.7837 18.3402L23.7516 18.337L23.7195 18.3337L23.6874 18.3304L23.6552 18.3268L23.6231 18.3232L23.591 18.3195L23.5588 18.3156L23.5267 18.3117L23.4945 18.3076L23.4624 18.3033L23.4303 18.2991L23.3982 18.2945L23.366 18.29L23.3339 18.2853L23.3018 18.2804L23.2696 18.2755L23.2375 18.2703L23.2054 18.2651L23.1732 18.2597L23.1411 18.2542L23.109 18.2486L23.0768 18.2427L23.0447 18.2368L23.0126 18.2307L22.9804 18.2245L22.9483 18.2182L22.9162 18.2115L22.884 18.2049L22.8519 18.198L22.8198 18.191L22.7876 18.1838L22.7555 18.1765L22.7234 18.169L22.6912 18.1613L22.6591 18.1535L22.627 18.1454L22.5948 18.1372L22.5627 18.1288L22.5306 18.1202L22.4984 18.1115L22.4663 18.1025L22.4342 18.0934L22.402 18.084L22.3699 18.0745L22.3378 18.0647L22.3056 18.0548L22.2735 18.0445L22.2414 18.0342L22.2092 18.0234L22.1771 18.0127L22.145 18.0015L22.1129 17.9903L22.0807 17.9786L22.0486 17.9669L22.0164 17.9547L21.9843 17.9425L21.9522 17.9298L21.92 17.917L21.8879 17.9038L21.8558 17.8904L21.8236 17.8767L21.7915 17.8627L21.7594 17.8485L21.7273 17.8338L21.6951 17.8189L21.663 17.8036L21.6309 17.788L21.5987 17.772L21.5666 17.7557L21.5608 17.7527C21.552 17.7482 21.5432 17.7437 21.5345 17.7392L21.5023 17.722L21.4702 17.7047L21.4381 17.6869L21.4059 17.6686L21.3738 17.65L21.3417 17.6309L21.3095 17.6114L21.2774 17.5915L21.2453 17.5709L21.2132 17.5499L21.181 17.5286L21.1489 17.5065L21.1168 17.4839L21.0846 17.4608C21.0739 17.453 21.0631 17.4452 21.0525 17.4373L21.0203 17.4128L20.9882 17.3878L20.9561 17.3622C20.9327 17.3432 20.9096 17.3242 20.8871 17.3049V25.0047H20.9561H20.9882H21.0203H21.0525H21.0846H21.1168H21.1489H21.181H21.2132H21.2453H21.2774H21.3095H21.3417H21.3738H21.4059H21.4381H21.4702H21.5023H21.5345H21.5666H21.5987H21.6309H21.663H21.6951H21.7273H21.7594H21.7915H21.8236H21.8558H21.8879H21.92H21.9522H21.9843H22.0164H22.0486H22.0807H22.1129H22.145H22.1771H22.2092H22.2414H22.2735H22.3056H22.3378H22.3699H22.402H22.4342H22.4663H22.4984H22.5306H22.5627H22.5948H22.627H22.6591H22.6912H22.7234H22.7555H22.7876H22.8198H22.8519H22.884H22.9162H22.9483H22.9804H23.0126H23.0447H23.0768H23.109H23.1411H23.1732H23.2054H23.2375H23.2696H23.3018H23.3339H23.366H23.3982H23.4303H23.4624H23.4945H23.5267H23.5588H23.591H23.6231H23.6552H23.6874H23.7195H23.7516H23.7837H23.8159H23.848H23.8802H23.9123H23.9444H23.9765H24.0087H24.0408H24.073H24.1051H24.1372H24.1694H24.2015H24.2336H24.2658H24.2979H24.33H24.3622H24.3943H24.4264H24.4585H24.4907H24.5228H24.555H24.5871H24.6192H24.6513H24.6835H24.7156H24.7477H24.7799H24.812H24.8441H24.8763H24.9084H24.9405H24.9727H25.0048H25.037H25.0691H25.1012H25.1333H25.1655H25.1976H25.2297H25.2619H25.294H25.3261H25.3583H25.3904H25.4225H25.4547H25.4868H25.5189H25.5511H25.5832H25.6153H25.6475H25.6796H25.7117H25.7439H25.776H25.7781C25.7839 25.0047 25.7897 25.0046 25.7955 25.0045C25.7997 25.0044 25.8039 25.0043 25.8081 25.0043L25.8403 25.0039L25.8724 25.0033L25.9045 25.002C25.9081 25.0019 25.9117 25.0018 25.9153 25.0017C25.9225 25.0014 25.9296 25.0012 25.9367 25.0008L25.9688 24.9991L26.0009 24.9971C26.0116 24.9964 26.0224 24.9959 26.0331 24.9951C26.0438 24.9942 26.0545 24.9932 26.0652 24.9922L26.0973 24.9894L26.1295 24.9863C26.1402 24.9852 26.1509 24.9838 26.1616 24.9826C26.1652 24.9822 26.1687 24.9818 26.1723 24.9814C26.1794 24.9806 26.1866 24.9798 26.1937 24.9789L26.2258 24.9747L26.258 24.9702C26.2637 24.9693 26.2695 24.9685 26.2752 24.9677C26.2802 24.967 26.2852 24.9663 26.2901 24.9655C26.2951 24.9648 26.3002 24.9639 26.3052 24.9631C26.3109 24.9621 26.3166 24.9612 26.3223 24.9602L26.3544 24.9549L26.3865 24.9491L26.4187 24.943C26.4294 24.9409 26.4401 24.939 26.4508 24.9368C26.4577 24.9354 26.4645 24.9338 26.4714 24.9323C26.4752 24.9315 26.4791 24.9306 26.4829 24.9298L26.515 24.9228L26.5472 24.9154L26.5793 24.9075C26.59 24.9049 26.6008 24.9025 26.6115 24.8997C26.6182 24.898 26.6248 24.8961 26.6315 24.8943C26.6355 24.8932 26.6395 24.8921 26.6436 24.891L26.6757 24.8823L26.7078 24.8732L26.74 24.8636C26.744 24.8624 26.748 24.8612 26.752 24.86C26.7587 24.858 26.7654 24.8561 26.7721 24.854C26.7829 24.8506 26.7935 24.847 26.8042 24.8435C26.8105 24.8415 26.8167 24.8396 26.8229 24.8375C26.8274 24.8361 26.8319 24.8346 26.8364 24.8331L26.8685 24.8221L26.9007 24.8108C26.9036 24.8097 26.9066 24.8087 26.9095 24.8076C26.9173 24.8048 26.9251 24.8021 26.9328 24.7992C26.9401 24.7965 26.9474 24.7937 26.9547 24.7909C26.9581 24.7896 26.9615 24.7883 26.9649 24.787C26.9689 24.7855 26.9729 24.784 26.977 24.7825C26.9837 24.78 26.9904 24.7774 26.997 24.7748C27.0044 24.7719 27.0117 24.7689 27.019 24.766C27.0224 24.7646 27.0258 24.7632 27.0292 24.7618L27.0613 24.7486L27.0935 24.735L27.1256 24.721C27.1291 24.7194 27.1327 24.7178 27.1362 24.7163C27.1434 24.7131 27.1506 24.71 27.1577 24.7067C27.1653 24.7033 27.1728 24.6997 27.1803 24.6962C27.1835 24.6947 27.1866 24.6932 27.1898 24.6917C27.2005 24.6867 27.2113 24.6818 27.222 24.6767C27.2295 24.6731 27.2369 24.6694 27.2443 24.6657C27.2476 24.664 27.2508 24.6624 27.2541 24.6608L27.2863 24.6448L27.3184 24.6281L27.3505 24.6112L27.3826 24.5938L27.4148 24.5758L27.4469 24.5576L27.479 24.5386C27.4898 24.5322 27.5005 24.5259 27.5112 24.5194C27.519 24.5147 27.5267 24.5098 27.5344 24.505C27.5374 24.5031 27.5403 24.5012 27.5433 24.4994C27.5471 24.497 27.5509 24.4947 27.5547 24.4923C27.5616 24.488 27.5686 24.4837 27.5755 24.4793C27.5863 24.4724 27.5969 24.4652 27.6076 24.4582C27.6183 24.4511 27.6291 24.4442 27.6397 24.437C27.6505 24.4297 27.6611 24.4222 27.6718 24.4148C27.6826 24.4074 27.6933 24.4001 27.704 24.3925C27.7116 24.3871 27.7192 24.3816 27.7268 24.3761C27.7299 24.3738 27.733 24.3715 27.7361 24.3693C27.7468 24.3615 27.7576 24.3538 27.7682 24.3458C27.779 24.3378 27.7897 24.3296 27.8004 24.3214C27.8032 24.3192 27.806 24.3171 27.8088 24.315C27.8168 24.3089 27.8247 24.3029 27.8325 24.2968C27.8405 24.2905 27.8484 24.2842 27.8562 24.2778C27.859 24.2756 27.8618 24.2733 27.8646 24.2711C27.8682 24.2682 27.8718 24.2653 27.8753 24.2625C27.8825 24.2568 27.8897 24.251 27.8968 24.2452C27.9047 24.2386 27.9125 24.232 27.9204 24.2253C27.9232 24.2229 27.926 24.2205 27.9289 24.2181C27.9318 24.2157 27.9347 24.2132 27.9377 24.2108C27.9455 24.2042 27.9533 24.1976 27.961 24.1909C27.9688 24.1842 27.9765 24.1773 27.9842 24.1704C27.9872 24.1678 27.9902 24.1651 27.9932 24.1624C28.0039 24.1529 28.0147 24.1434 28.0253 24.1337C28.0361 24.1238 28.0468 24.1137 28.0574 24.1037C28.0645 24.0971 28.0715 24.0906 28.0785 24.084C28.0822 24.0804 28.0859 24.0769 28.0896 24.0733C28.1004 24.0629 28.1111 24.0525 28.1217 24.0419C28.1325 24.0313 28.1432 24.0205 28.1538 24.0097C28.1595 24.004 28.1651 23.9984 28.1707 23.9927C28.1758 23.9874 28.1809 23.9822 28.186 23.9769C28.1968 23.9656 28.2074 23.9541 28.2181 23.9426C28.221 23.9395 28.2239 23.9364 28.2268 23.9332C28.2347 23.9248 28.2425 23.9164 28.2502 23.9079C28.2611 23.8959 28.2717 23.8838 28.2824 23.8717C28.2932 23.8594 28.3039 23.8471 28.3145 23.8347L28.3166 23.8322C28.3267 23.8204 28.3367 23.8086 28.3466 23.7966C28.3523 23.7898 28.358 23.7829 28.3636 23.7759C28.3686 23.7697 28.3737 23.7634 28.3788 23.757C28.3895 23.7436 28.4003 23.7302 28.4109 23.7165C28.4217 23.7026 28.4324 23.6887 28.443 23.6747C28.4539 23.6603 28.4645 23.6457 28.4752 23.6311C28.486 23.6162 28.4967 23.6014 28.5073 23.5863C28.5181 23.571 28.5289 23.5555 28.5394 23.54C28.5499 23.5245 28.5602 23.5088 28.5704 23.4932L28.5716 23.4914C28.5824 23.4748 28.5931 23.4581 28.6037 23.4413C28.6145 23.424 28.6253 23.4068 28.6358 23.3893C28.6467 23.3713 28.6574 23.3532 28.668 23.335C28.6789 23.3161 28.6895 23.297 28.7001 23.2778C28.711 23.258 28.7217 23.2381 28.7322 23.218C28.7431 23.1972 28.7539 23.1763 28.7643 23.1552C28.7753 23.1333 28.786 23.1111 28.7965 23.0889C28.8075 23.0656 28.8182 23.0422 28.8286 23.0186C28.8396 22.9938 28.8503 22.9687 28.8608 22.9435C28.8718 22.9168 28.8825 22.8899 28.8929 22.8629C28.904 22.8339 28.9147 22.8047 28.925 22.7753C28.9362 22.7435 28.9469 22.7116 28.9571 22.6795C28.9684 22.6439 28.9792 22.6081 28.9893 22.5721C29.0008 22.531 29.0114 22.4896 29.0214 22.4479C29.0333 22.3984 29.044 22.3484 29.0536 22.2981C29.0662 22.2319 29.077 22.1652 29.0857 22.0977C29.1036 21.9576 29.1129 21.8148 29.1129 21.6698V4.9954H29.0857H29.0536H29.0214H28.9893H28.9571H28.925H28.8929H28.8608H28.8286H28.7965H28.7643H28.7322H28.7001H28.668H28.6358H28.6037H28.5716H28.5394H28.5073H28.4752H28.443H28.4109H28.3788H28.3466H28.3145H28.2824H28.2502H28.2181H28.186H28.1538H28.1217H28.0896H28.0574H28.0253H27.9932H27.961H27.9289H27.8968H27.8646H27.8325H27.8004H27.7682H27.7361H27.704H27.6718H27.6397H27.6076H27.5755H27.5433H27.5112H27.479H27.4469H27.4148H27.3826H27.3505H27.3184H27.2863H27.2541H27.222H27.1898H27.1577H27.1256H27.0935H27.0613H27.0292H26.997H26.9649H26.9328H26.9007H26.8685H26.8364H26.8042H26.7721H26.74H26.7078H26.6757H26.6436H26.6115H26.5793H26.5472H26.515H26.4829H26.4508H26.4187H26.3865H26.3544H26.3223H26.2901H26.258H26.2258H26.1937H26.1616H26.1295H26.0973H26.0652H26.0331H26.0009H25.9688H25.9367H25.9045H25.8724H25.8403H25.8081H25.776H25.7439H25.7117H25.6796H25.6475H25.6153H25.5832H25.5511H25.5189H25.4868H25.4547H25.4225H25.3904H25.3583H25.3261H25.294H25.2619H25.2297H25.1976H25.1655H25.1333H25.1012H25.0691H25.037H25.0048H24.9727H24.9405H24.9084H24.8763H24.8441H24.812H24.7799H24.7477H24.7156H24.6835H24.6513H24.6192H24.5871H24.555H24.5228H24.4907H24.4585H24.4264H24.3943H24.3622H24.33H24.2979H24.2658H24.2336H24.2157L24.2015 4.99559L24.1694 4.99599C24.1652 4.99605 24.161 4.99608 24.1569 4.99612C24.1503 4.99617 24.1438 4.99622 24.1372 4.99639C24.1307 4.99655 24.1241 4.99682 24.1176 4.99709C24.1134 4.99727 24.1093 4.99744 24.1051 4.99759L24.073 4.99881L24.0408 5.00028L24.0087 5.00231L23.9765 5.00436L23.9444 5.00692L23.9123 5.00975C23.9081 5.01014 23.9039 5.01049 23.8998 5.01085C23.8932 5.01141 23.8867 5.01197 23.8802 5.01263C23.8736 5.0133 23.8671 5.01408 23.8605 5.01486C23.8563 5.01535 23.8522 5.01585 23.848 5.01632L23.8159 5.02L23.7837 5.02403L23.7516 5.02851C23.7476 5.02908 23.7436 5.02963 23.7395 5.03018C23.7329 5.03109 23.7262 5.032 23.7195 5.03302C23.7124 5.03409 23.7053 5.03527 23.6982 5.03644C23.6946 5.03704 23.691 5.03763 23.6874 5.03822L23.6552 5.04353L23.6231 5.04908C23.6159 5.05038 23.6087 5.05179 23.6015 5.05319C23.598 5.05388 23.5945 5.05456 23.591 5.05524C23.5874 5.05591 23.5839 5.05658 23.5804 5.05724C23.5732 5.05859 23.566 5.05995 23.5588 5.0614C23.5515 5.06288 23.5442 5.06444 23.5369 5.06601C23.5335 5.06673 23.5301 5.06746 23.5267 5.06818L23.4945 5.07517L23.4624 5.08234C23.4551 5.08405 23.4478 5.08585 23.4406 5.08765C23.4371 5.0885 23.4337 5.08935 23.4303 5.09019L23.3982 5.09803L23.366 5.10646L23.3339 5.11518C23.3305 5.11613 23.3271 5.11706 23.3236 5.11799C23.3163 5.11999 23.309 5.12198 23.3018 5.12407C23.2941 5.12629 23.2864 5.1286 23.2787 5.13091C23.2757 5.13183 23.2727 5.13274 23.2696 5.13365C23.2663 5.13464 23.2629 5.13563 23.2595 5.13662C23.2522 5.13878 23.2448 5.14095 23.2375 5.1432L23.2054 5.15344L23.1732 5.16387L23.1681 5.16556C23.1591 5.16854 23.1501 5.17153 23.1411 5.17462L23.109 5.18594C23.1049 5.18737 23.1008 5.18879 23.0968 5.1902C23.0901 5.19251 23.0834 5.19483 23.0768 5.19725C23.07 5.19975 23.0632 5.20235 23.0565 5.20494C23.0525 5.20645 23.0486 5.20795 23.0447 5.20944L23.0126 5.22166L22.9804 5.23444L22.9483 5.24756L22.9162 5.26093C22.9086 5.26417 22.901 5.26751 22.8934 5.27085C22.8903 5.27223 22.8872 5.27361 22.884 5.27499C22.8804 5.2766 22.8767 5.27819 22.873 5.27978C22.8659 5.28282 22.8589 5.28587 22.8519 5.28905C22.8452 5.29205 22.8386 5.29516 22.832 5.29827C22.8279 5.30018 22.8239 5.3021 22.8198 5.30399L22.7876 5.31901L22.7555 5.33464L22.7234 5.35062L22.6912 5.36697L22.6591 5.38394C22.6558 5.3857 22.6525 5.38746 22.6492 5.38921C22.6417 5.39313 22.6343 5.39705 22.627 5.40107C22.6193 5.40523 22.6118 5.40948 22.6042 5.41375C22.6011 5.4155 22.598 5.41725 22.5948 5.419C22.5909 5.4212 22.587 5.42338 22.5831 5.42556C22.5762 5.42933 22.5694 5.43311 22.5627 5.43698C22.5557 5.44098 22.5488 5.4451 22.5419 5.44922C22.5381 5.45147 22.5344 5.45372 22.5306 5.45595C22.5276 5.45769 22.5247 5.45943 22.5217 5.46116C22.5139 5.46573 22.5061 5.47029 22.4984 5.47497C22.4906 5.47968 22.4829 5.48449 22.4752 5.48931C22.4722 5.49116 22.4693 5.493 22.4663 5.49484L22.4342 5.51491C22.4234 5.52176 22.4127 5.52875 22.402 5.53574L22.3699 5.5569L22.3378 5.57875L22.3056 5.60102L22.2735 5.62397C22.2628 5.63173 22.252 5.63952 22.2414 5.64742L22.2092 5.67151L22.1771 5.69613L22.145 5.72147L22.1129 5.74735L22.0807 5.77406L22.08 5.77464C22.0695 5.78346 22.059 5.79226 22.0486 5.80122C22.0378 5.8105 22.0271 5.81992 22.0164 5.82936C22.0143 5.83124 22.0122 5.83312 22.01 5.835C22.0014 5.84259 21.9928 5.85018 21.9843 5.85788C21.9748 5.86644 21.9655 5.87515 21.9562 5.88386L21.9522 5.8876C21.949 5.89053 21.9459 5.89344 21.9427 5.89636C21.9351 5.90339 21.9275 5.91041 21.92 5.91756C21.9122 5.92508 21.9044 5.93272 21.8967 5.94036C21.8937 5.94323 21.8908 5.9461 21.8879 5.94896L21.8878 5.94908C21.8771 5.95958 21.8664 5.97008 21.8558 5.98071C21.845 5.99159 21.8343 6.00261 21.8236 6.01363C21.8129 6.02481 21.8021 6.03604 21.7915 6.04735C21.7808 6.05879 21.77 6.07027 21.7594 6.08187C21.7492 6.09303 21.7392 6.10436 21.7292 6.11565L21.7273 6.11781L21.7248 6.12062C21.7149 6.13179 21.7049 6.14298 21.6951 6.1543C21.6843 6.16687 21.6736 6.17957 21.663 6.19232C21.6522 6.20523 21.6415 6.21828 21.6309 6.23138C21.6286 6.23423 21.6263 6.23708 21.6239 6.23993C21.6155 6.25034 21.607 6.26075 21.5987 6.27129C21.589 6.28366 21.5795 6.29621 21.57 6.30875L21.5666 6.31315C21.5558 6.32736 21.5451 6.34169 21.5345 6.3561L21.5313 6.36032C21.5216 6.37353 21.5119 6.38674 21.5023 6.40014C21.4921 6.41453 21.4821 6.4291 21.4721 6.44368L21.4702 6.44651C21.4593 6.46233 21.4487 6.47826 21.4381 6.49429C21.4272 6.51067 21.4165 6.52708 21.4059 6.54367C21.3951 6.56072 21.3843 6.57787 21.3738 6.59513C21.3629 6.61301 21.3523 6.63102 21.3417 6.6491C21.3308 6.66773 21.3201 6.68651 21.3095 6.70537C21.2987 6.72484 21.2879 6.74443 21.2774 6.76414C21.2665 6.7846 21.2558 6.80515 21.2453 6.82585C21.2344 6.8474 21.2236 6.86901 21.2132 6.89084C21.2022 6.91367 21.1914 6.93664 21.181 6.95977C21.17 6.98413 21.1593 7.00862 21.1489 7.03327C21.1378 7.05942 21.1272 7.08575 21.1168 7.11221C21.1056 7.14052 21.095 7.16906 21.0846 7.19774C21.0734 7.22869 21.0628 7.2599 21.0525 7.29128C21.0412 7.32561 21.0305 7.36019 21.0203 7.395C21.009 7.43409 20.9982 7.47344 20.9882 7.51311C20.9765 7.55934 20.9658 7.60589 20.9561 7.65287C20.9109 7.87172 20.8871 8.09835 20.8871 8.33053V12.6966Z" fill="white"/>
</svg>
