<svg width="27" height="32" viewBox="0 0 27 32" fill="none" xmlns="http://www.w3.org/2000/svg">
<g clip-path="url(#clip0)">
<g clip-path="url(#clip1)">
<path d="M19.3903 21.8834L19.1519 21.7826C19.051 21.7459 18.9318 21.7275 18.8125 21.7275C18.7025 21.7275 18.6108 21.7367 18.5466 21.7642C18.4732 21.7917 18.4182 21.8192 18.3723 21.8651C18.2714 21.9476 18.2256 22.0577 18.2256 22.1861C18.2256 22.2778 18.2623 22.3695 18.3356 22.4429C18.3723 22.4796 18.409 22.5071 18.464 22.5254C18.5099 22.5438 18.5741 22.5529 18.6566 22.5529C18.785 22.5529 18.9226 22.5163 19.0693 22.4429C19.1885 22.3787 19.2986 22.3053 19.3903 22.2136V21.8834Z" fill="#D71675"/>
<path d="M7.81644 21.7275C7.70639 21.7275 7.61468 21.7367 7.55048 21.7642C7.47711 21.7917 7.42209 21.8192 7.37623 21.8651C7.27535 21.9476 7.22949 22.0577 7.22949 22.1861C7.22949 22.2778 7.26618 22.3695 7.33955 22.4429C7.37623 22.4796 7.41292 22.5071 7.46794 22.5254C7.5138 22.5438 7.578 22.5529 7.66054 22.5529C7.78893 22.5529 7.9265 22.5163 8.07324 22.4429C8.19246 22.3787 8.30251 22.3053 8.39423 22.2136V21.8926C8.31169 21.8468 8.23832 21.8192 8.15578 21.7917C8.04572 21.7459 7.93567 21.7275 7.81644 21.7275Z" fill="#D71675"/>
<path d="M5.68846 19.6181C5.63344 19.5631 5.5509 19.5264 5.44084 19.4897C5.33079 19.4622 5.19322 19.4438 5.01897 19.4438H4.42285V20.8562H5.01897C5.17488 20.8562 5.31245 20.8378 5.41333 20.8103C5.52338 20.7828 5.60592 20.737 5.67929 20.6819C5.74349 20.6361 5.78934 20.5719 5.82603 20.4893C5.86271 20.4068 5.88106 20.3059 5.88106 20.1867C5.88106 20.04 5.86271 19.9207 5.82603 19.829C5.78934 19.7465 5.74349 19.6731 5.68846 19.6181Z" fill="#D71675"/>
<path d="M0.333008 3V29H26.333V3H0.333008ZM21.4081 18.8751C21.4907 18.9668 21.5274 19.0586 21.5274 19.1686C21.5274 19.2878 21.4907 19.3887 21.4081 19.4713C21.3164 19.5538 21.2247 19.5905 21.1147 19.5905C21.0046 19.5905 20.9129 19.5538 20.8212 19.4713C20.7387 19.3795 20.702 19.2878 20.702 19.1778C20.702 19.0586 20.7387 18.9577 20.8212 18.8751C20.9129 18.7926 21.0046 18.7559 21.1147 18.7559C21.2155 18.7559 21.3164 18.7926 21.4081 18.8751ZM6.97287 5.19189C7.56899 5.19189 8.05505 5.66878 8.05505 6.24656C8.05505 6.68677 7.77992 7.07196 7.37639 7.22787C7.57816 8.53016 8.19262 9.69489 9.08221 10.5937C10.1736 11.685 11.6776 12.3637 13.3468 12.3637C15.0159 12.3637 16.52 11.685 17.6113 10.5937C18.5009 9.70406 19.1154 8.53933 19.308 7.23704C18.9319 7.06279 18.6752 6.68677 18.6752 6.25573C18.6752 5.65961 19.1612 5.17355 19.7573 5.17355C20.3535 5.17355 20.8395 5.65961 20.8395 6.25573C20.8395 6.76014 20.491 7.18201 20.0233 7.30123C19.8124 8.77778 19.1245 10.0984 18.1157 11.1072C16.896 12.327 15.2085 13.0882 13.3376 13.0882C11.4759 13.0882 9.78839 12.3362 8.55946 11.1072C7.55064 10.0984 6.85364 8.75944 6.65188 7.26455C6.2025 7.13616 5.88151 6.73263 5.88151 6.25573C5.89068 5.66878 6.37675 5.19189 6.97287 5.19189ZM6.17498 21.1404C6.03742 21.2596 5.89068 21.3513 5.71643 21.4155C5.54218 21.4705 5.34959 21.4981 5.14782 21.4981H4.44165V22.672V23.1213H3.21273V22.4885H3.73548V19.4529H3.21273V18.8201H5.07445C5.29456 18.8201 5.49632 18.8476 5.67975 18.9026C5.86317 18.9577 6.01907 19.0494 6.16581 19.1686C6.30338 19.2878 6.40426 19.4346 6.46846 19.5996C6.53266 19.7647 6.56934 19.9481 6.56934 20.1591C6.56934 20.3517 6.53266 20.5351 6.46846 20.7002C6.40426 20.8653 6.30338 21.012 6.17498 21.1404ZM9.51325 23.1122H8.39438V22.9012C8.27516 22.9746 8.14676 23.0296 8.0092 23.0847C7.87163 23.1305 7.73407 23.158 7.58733 23.158C7.29385 23.158 7.04624 23.0571 6.84447 22.8646C6.65188 22.672 6.551 22.4427 6.551 22.1675C6.551 21.8649 6.67022 21.6173 6.8995 21.4247C7.00955 21.3238 7.13795 21.2504 7.28468 21.2046C7.43142 21.1587 7.58733 21.1404 7.76158 21.1404C7.89915 21.1404 8.03671 21.1587 8.19262 21.1954C8.22013 21.2046 8.25682 21.2138 8.2935 21.2229C8.33019 21.2321 8.36687 21.2413 8.39438 21.2596V20.9019C8.39438 20.8286 8.38521 20.7644 8.36687 20.7185C8.34853 20.6727 8.32101 20.6452 8.28433 20.6176C8.23848 20.5901 8.18345 20.5626 8.11008 20.5443C8.03671 20.5259 7.945 20.5168 7.84412 20.5168C7.79826 20.5168 7.73407 20.5259 7.66987 20.5351C7.60567 20.5443 7.54147 20.5626 7.46811 20.5901C7.40391 20.6085 7.33971 20.636 7.27551 20.6543C7.21131 20.6727 7.16546 20.691 7.1196 20.7093L6.90867 20.1958C7.04624 20.1407 7.15629 20.0949 7.25717 20.0674C7.34888 20.0307 7.45893 20.0032 7.55982 19.9757C7.66987 19.9481 7.76158 19.939 7.84412 19.939C8.01837 19.939 8.18345 19.9573 8.33019 19.994C8.47692 20.0307 8.60532 20.0857 8.71537 20.1683C8.8346 20.26 8.91713 20.3608 8.97216 20.4892C9.02719 20.6085 9.0547 20.7552 9.0547 20.9019V22.4885H9.51325V23.1122ZM12.8424 20.636H12.3655L10.9715 24.3319H10.3203L10.8431 22.8554L9.93512 20.636H9.42154V20.0032H10.3845L10.5312 20.3792L11.1824 21.975L11.6868 20.6268H11.3383V19.994H12.8424V20.636ZM13.1633 20.0123H13.6494V19.4071L14.3189 19.3887V20.0123H14.8875V20.6451H14.3189V22.4243C14.3189 22.4885 14.3281 22.5252 14.3372 22.5436H14.3648L14.8875 22.461V23.0938L14.3372 23.1855C14.2272 23.1855 14.1355 23.1672 14.0438 23.1397C13.9521 23.1122 13.8787 23.0571 13.8145 22.9929C13.7503 22.9287 13.7044 22.8554 13.6769 22.7637C13.6494 22.6811 13.6402 22.5802 13.6402 22.4794V20.6451H13.1542V20.0123H13.1633ZM15.0067 25.9644C15.0067 26.4413 14.7041 26.6522 14.2914 26.6522C14.0896 26.6522 13.8512 26.6064 13.6586 26.5422C13.6311 26.533 13.6219 26.5146 13.6219 26.4871V24.4236C13.6219 24.3961 13.6402 24.3778 13.6678 24.3778H13.9337C13.9612 24.3778 13.9796 24.3961 13.9796 24.4236V25.0289C14.0805 24.9922 14.1905 24.9647 14.3189 24.9647C14.7133 24.9647 15.0067 25.2215 15.0067 25.625V25.9644V25.9644ZM16.6942 26.5055C16.6942 26.9915 16.4741 27.2392 15.9972 27.2392C15.7312 27.2392 15.5478 27.175 15.3827 27.0466C15.3552 27.0282 15.3552 27.0099 15.3736 26.9824L15.5111 26.7898C15.5295 26.7623 15.5478 26.7623 15.5662 26.7714C15.6854 26.854 15.823 26.9182 15.988 26.9182C16.2081 26.9182 16.3457 26.8265 16.3274 26.5146C16.2265 26.5422 16.1073 26.5697 15.988 26.5697C15.667 26.5697 15.3185 26.3587 15.3185 25.9277V25.0381C15.3185 25.0106 15.3369 24.9922 15.3644 24.9922H15.6395C15.667 24.9922 15.6854 25.0106 15.6854 25.0381V25.9185C15.6854 26.157 15.8505 26.2395 16.0431 26.2395C16.1531 26.2395 16.254 26.212 16.3274 26.1753V25.0381C16.3274 25.0106 16.3457 24.9922 16.3732 24.9922H16.6392C16.6667 24.9922 16.685 25.0106 16.685 25.0381V26.5055H16.6942ZM16.9143 22.4794V23.1122H15.6854V22.6628V20.636H15.1626V20.0032H16.3549V20.3242C16.3732 20.315 16.4007 20.2966 16.4558 20.26C16.5108 20.2233 16.5658 20.1958 16.6208 20.1683C16.7492 20.1041 16.8685 20.0674 16.9693 20.0399C17.0794 20.0123 17.1986 20.0032 17.327 20.0123L17.6113 20.0215V20.6268H17.3178C17.1344 20.6268 16.9785 20.6451 16.8593 20.691C16.7401 20.7369 16.6392 20.7827 16.5658 20.8561C16.4924 20.9203 16.4466 20.9937 16.4007 21.0762C16.364 21.1587 16.3457 21.2871 16.3457 21.443V22.4794H16.9143ZM19.1429 26.5605C19.1429 26.588 19.1245 26.6063 19.097 26.6063H18.8219C18.7944 26.6063 18.776 26.588 18.776 26.5605V25.6526C18.776 25.3591 18.6385 25.2674 18.4092 25.2674C18.2991 25.2674 18.1891 25.2857 18.1157 25.3041V26.5513C18.1157 26.5788 18.0974 26.5972 18.0699 26.5972H17.8039C17.7764 26.5972 17.7581 26.5788 17.7581 26.5513V25.1206C17.7581 25.0931 17.7672 25.0748 17.7947 25.0656C17.9782 24.9831 18.1983 24.9464 18.4184 24.9464C18.8494 24.9464 19.1429 25.1481 19.1429 25.6434V26.5605V26.5605ZM19.0053 23.0847C18.8678 23.1305 18.7302 23.158 18.5834 23.158C18.29 23.158 18.0424 23.0571 17.8406 22.8646C17.648 22.672 17.5471 22.4427 17.5471 22.1675C17.5471 21.8649 17.6663 21.6173 17.8956 21.4247C18.0057 21.3238 18.1341 21.2504 18.2808 21.2046C18.4275 21.1587 18.5834 21.1404 18.7577 21.1404C18.8953 21.1404 19.0328 21.1587 19.1887 21.1954C19.2163 21.2046 19.2529 21.2138 19.2896 21.2229C19.3263 21.2321 19.363 21.2413 19.3905 21.2596V20.9019C19.3905 20.8286 19.3813 20.7644 19.363 20.7185C19.3446 20.6727 19.3171 20.6452 19.2805 20.6176C19.2346 20.5901 19.1796 20.5626 19.1062 20.5443C19.0328 20.5259 18.9503 20.5168 18.8494 20.5168C18.8036 20.5168 18.7394 20.5259 18.6752 20.5351C18.611 20.5443 18.5468 20.5626 18.4734 20.5901C18.4092 20.6085 18.345 20.636 18.2808 20.6543C18.2166 20.6727 18.1708 20.691 18.1249 20.7093L17.914 20.1958C18.0515 20.1407 18.1616 20.0949 18.2625 20.0674C18.3542 20.0307 18.4642 20.0032 18.5651 19.9757C18.6752 19.9481 18.7669 19.939 18.8494 19.939C19.0237 19.939 19.1887 19.9573 19.3355 19.994C19.4822 20.0307 19.6106 20.0857 19.7207 20.1683C19.8399 20.26 19.9224 20.3608 19.9775 20.4892C20.0325 20.6085 20.06 20.7552 20.06 20.9019V22.4885H20.5185V23.1213H19.3905V22.9012C19.2713 22.9746 19.1429 23.0388 19.0053 23.0847ZM20.8395 25.9093C20.8395 25.9369 20.8212 25.9552 20.7937 25.9552H19.8399V26.0469C19.8399 26.2395 19.9683 26.3312 20.17 26.3312C20.3626 26.3312 20.491 26.267 20.6103 26.1845C20.6286 26.1661 20.6561 26.1753 20.6745 26.1937L20.8028 26.3679C20.8212 26.3862 20.8212 26.4138 20.7937 26.4321C20.6286 26.5605 20.4268 26.6522 20.1609 26.6522C19.8032 26.6522 19.473 26.4596 19.473 26.0377V25.5975C19.473 25.139 19.8215 24.9556 20.1609 24.9556C20.5002 24.9556 20.8395 25.139 20.8395 25.5975V25.9093ZM21.9401 26.5972C21.9401 26.6247 21.9309 26.643 21.8942 26.643C21.8392 26.643 21.775 26.6522 21.7291 26.6522C21.4081 26.6522 21.1514 26.4871 21.1514 26.0744V24.6437C21.1514 24.6162 21.1697 24.5979 21.1972 24.5979H21.4357C21.4632 24.5979 21.4815 24.6162 21.4815 24.6346L21.509 25.0106H21.8484C21.8759 25.0106 21.8942 25.0289 21.8942 25.0564V25.2857C21.8942 25.3132 21.8759 25.3316 21.8484 25.3316H21.5182V26.0469C21.5182 26.2212 21.6099 26.322 21.7658 26.322C21.7933 26.322 21.8484 26.322 21.8942 26.3129C21.9217 26.3129 21.9401 26.3312 21.9401 26.3587V26.5972ZM21.9951 23.1122H20.867L20.8579 22.8554V20.6451H20.381V20.0123H21.5274V22.4885H21.9951V23.1122ZM22.7655 26.6522C22.5545 26.6522 22.3252 26.5972 22.1327 26.4504C22.1051 26.4321 22.1051 26.4138 22.1235 26.3862L22.2427 26.1845C22.2611 26.157 22.2794 26.157 22.3069 26.1753C22.4445 26.2762 22.6187 26.3312 22.7838 26.3312C22.9489 26.3312 23.0773 26.267 23.0773 26.1478C23.0773 26.0194 22.9305 25.9919 22.7838 25.9644C22.5454 25.9185 22.151 25.8268 22.151 25.4416C22.151 25.0931 22.4812 24.9464 22.8113 24.9464C22.9856 24.9464 23.169 24.9922 23.3524 25.0931C23.3799 25.1023 23.3799 25.1298 23.3708 25.1573L23.2515 25.3591C23.2332 25.3774 23.2148 25.3866 23.1873 25.3774C23.0681 25.3132 22.9305 25.2765 22.793 25.2765C22.6096 25.2765 22.5087 25.3499 22.5087 25.4508C22.5087 25.5792 22.6462 25.6067 22.8572 25.6526C23.114 25.6984 23.4349 25.781 23.4349 26.1386C23.4258 26.478 23.1415 26.6522 22.7655 26.6522ZM23.49 23.1122H22.3252V22.6628V19.4437H21.83V18.8109H22.9947V22.4702H23.49V23.1122Z" fill="#D71675"/>
<path d="M20.1608 25.2764C19.9774 25.2764 19.8398 25.3681 19.8398 25.5974V25.6799H20.4818V25.5974C20.4818 25.3589 20.3351 25.2764 20.1608 25.2764Z" fill="#D71675"/>
<path d="M14.2821 25.2764C14.1629 25.2764 14.062 25.3039 13.9795 25.3589V26.2852C14.0529 26.3127 14.1629 26.331 14.273 26.331C14.5022 26.331 14.6306 26.2393 14.6306 25.9734V25.6249C14.6306 25.3772 14.5022 25.2764 14.2821 25.2764Z" fill="#D71675"/>
</g>
</g>
<defs>
<clipPath id="clip0">
<rect width="26" height="32" fill="white" transform="translate(0.333008)"/>
</clipPath>
<clipPath id="clip1">
<rect width="26" height="26" fill="white" transform="translate(0.333008 3)"/>
</clipPath>
</defs>
</svg>
