<svg width="50" height="30" viewBox="0 0 50 30" fill="none" xmlns="http://www.w3.org/2000/svg">
<path fill-rule="evenodd" clip-rule="evenodd" d="M2 0H48C49.1046 0 50 0.89543 50 2V28C50 29.1046 49.1046 30 48 30H2C0.89543 30 0 29.1046 0 28V2C0 0.89543 0.89543 0 2 0Z" fill="url(#paint0_linear)"/>
<path fill-rule="evenodd" clip-rule="evenodd" d="M25.4903 15.75C25.2718 21.3527 21.3617 25 15 25C8.45101 25 4.5 21.1348 4.5 15.25C4.5 9.36522 8.45101 5.5 15 5.5C21.3617 5.5 25.2718 9.14726 25.4903 14.75H15.25V15.75H25.4903ZM26.5 6H40C44.25 6 44.75 8.75 44.75 10.375C44.75 12 44.25 14.75 40 14.75H26.5V6ZM40 15.75H26.5V24.5H40C44.25 24.5 44.75 21.75 44.75 20.125C44.75 18.5 44.25 15.75 40 15.75Z" fill="white"/>
<defs>
<linearGradient id="paint0_linear" x1="-1.91667" y1="-20.35" x2="-15.5637" y2="35.9085" gradientUnits="userSpaceOnUse">
<stop stop-color="#00254D"/>
<stop offset="0.495986" stop-color="#0283AE"/>
<stop offset="1" stop-color="#03A655"/>
</linearGradient>
</defs>
</svg>
