<svg width="80" height="32" viewBox="0 0 80 32" fill="none" xmlns="http://www.w3.org/2000/svg">
<g clip-path="url(#clip0)">
<path fill-rule="evenodd" clip-rule="evenodd" d="M26.371 16.4754C26.3982 19.2059 25.4962 21.7803 23.831 23.7275C23.7784 23.7929 23.7197 23.8529 23.6552 23.9067C23.1197 24.3535 22.3233 24.2817 21.8766 23.7462C21.3308 23.1029 21.3218 22.1619 21.855 21.5082C24.2275 18.7348 24.1889 14.2546 21.7548 11.5341C21.2098 10.8908 21.2002 9.95062 21.7319 9.29623C21.7849 9.22988 21.8445 9.16911 21.9097 9.11468C22.4449 8.66864 23.2403 8.74101 23.6863 9.27619C25.3902 11.1948 26.3437 13.745 26.371 16.4754ZM20.4563 12.1584C22.5866 14.6683 22.6233 18.3406 20.5436 20.8926V20.8854C20.491 20.9511 20.4319 21.0112 20.3674 21.0651C19.8322 21.5112 19.0368 21.4391 18.5906 20.9039C18.0439 20.2614 18.0343 19.3198 18.5677 18.6661C19.5787 17.4834 19.56 15.5776 18.5248 14.4164C17.9791 13.7731 17.9701 12.8321 18.5034 12.1784C18.5565 12.1119 18.6163 12.0508 18.6819 11.9963C19.2166 11.5511 20.0111 11.6236 20.4563 12.1584Z" fill="#7DBAF2"/>
<path fill-rule="evenodd" clip-rule="evenodd" d="M50.7737 19.5196C51.3306 19.9525 51.4312 20.7549 50.9984 21.3118C50.9305 21.399 50.8516 21.4772 50.7636 21.5442C50.5132 21.7381 50.2475 21.9115 49.969 22.0625C49.1114 22.5317 48.1486 22.775 47.1712 22.7698C45.5845 22.793 44.061 22.1482 42.9732 20.993C40.6478 18.6247 40.6478 14.8304 42.9732 12.4621C44.0614 11.3077 45.5847 10.6634 47.1712 10.6866C48.1497 10.6824 49.1129 10.9289 49.969 11.4026C50.2996 11.5817 50.613 11.7906 50.9054 12.0269C51.4067 12.4382 51.4796 13.178 51.0684 13.6793C51.0122 13.7478 50.9484 13.8097 50.8782 13.8639L50.7121 13.9914C50.2899 14.3295 49.6896 14.3295 49.2674 13.9914C48.6776 13.5082 47.9333 13.254 47.1712 13.2755C46.2703 13.2641 45.4063 13.632 44.7901 14.2891C43.4727 15.6584 43.4727 17.8239 44.7901 19.1931C45.4064 19.8499 46.2705 20.2173 47.1712 20.2055C47.9065 20.2247 48.6258 19.9877 49.2059 19.5354C49.6662 19.1695 50.3172 19.1664 50.7807 19.5282L50.7737 19.5196ZM35.3759 15.4461H38.7679C39.4796 15.4461 40.0565 16.023 40.0565 16.7347C40.0819 18.3354 39.4481 19.8761 38.3041 20.9959C36.0518 23.3159 32.3453 23.3711 30.0251 21.1189C29.9835 21.0785 29.9425 21.0374 29.9021 20.9959C27.5652 18.6324 27.5652 14.8285 29.9021 12.465C30.9905 11.3106 32.5137 10.6663 34.1002 10.6895C35.6026 10.6895 36.8803 11.1554 37.9332 12.087C38.3728 12.4757 38.4141 13.147 38.0254 13.5867C37.9806 13.6374 37.931 13.6837 37.8773 13.725L37.5008 14.0114C37.1159 14.3124 36.5738 14.3072 36.195 13.9985C35.6085 13.5087 34.8641 13.2486 34.1002 13.2669C33.1994 13.2555 32.3352 13.6233 31.719 14.2806C30.4017 15.6498 30.4017 17.8153 31.719 19.1845C32.3355 19.8414 33.1996 20.2088 34.1002 20.1968C34.7892 20.2026 35.4621 19.989 36.0218 19.5869C36.5773 19.1992 37.003 18.6527 37.2431 18.019H35.3817C34.67 18.019 34.093 17.4421 34.093 16.7304C34.0954 16.0226 34.6682 15.4493 35.3759 15.4461ZM58.3755 19.5697C58.0073 19.9622 57.4907 20.1816 56.9524 20.174C56.4118 20.181 55.8927 19.962 55.5205 19.5697C54.7278 18.7397 54.7278 17.4331 55.5205 16.603C55.8931 16.2116 56.412 15.9931 56.9524 16.0003C57.4903 15.9928 58.0066 16.2114 58.3755 16.603C58.7642 16.9969 58.9782 17.5303 58.9698 18.0836V18.0907C58.9786 18.6434 58.7644 19.1766 58.3755 19.5697ZM59.1086 22.6496H60.9285H60.9328C61.2649 22.6496 61.5343 22.3804 61.5343 22.0483V14.2019C61.5326 13.8297 61.2306 13.5288 60.8584 13.5288H59.1316C59.0425 13.5297 58.9706 13.6016 58.9698 13.6907C58.9706 13.7203 58.9633 13.7496 58.9484 13.7753C58.9041 13.852 58.8059 13.8781 58.7293 13.8338C58.2787 13.5685 57.6865 13.4358 56.9524 13.4358C55.7261 13.4147 54.5468 13.9067 53.6993 14.7932C51.908 16.6232 51.908 19.5495 53.6993 21.3796C54.5459 22.2649 55.7233 22.7572 56.9481 22.7384C57.6984 22.7384 58.3006 22.6196 58.755 22.3819C58.7752 22.3711 58.7976 22.3653 58.8205 22.3651C58.8996 22.364 58.9645 22.4273 58.9655 22.5064C58.9655 22.5855 59.0296 22.6496 59.1086 22.6496ZM68.0103 17.5924C67.6285 17.306 67.0524 17.054 66.282 16.8363C65.7781 16.6979 65.5045 16.6068 65.4616 16.5629C65.419 16.5207 65.3957 16.4626 65.3971 16.4025C65.3924 16.3785 65.39 16.3541 65.39 16.3295C65.3874 16.1806 65.4452 16.0369 65.5504 15.9315C65.7646 15.714 66.1145 15.7113 66.332 15.9256L66.3378 15.9315C66.4434 16.0368 66.5018 16.1804 66.4997 16.3295V16.341C66.5185 16.3587 66.5341 16.3794 66.5455 16.4025H68.4213C68.7375 16.405 68.9959 16.1505 68.9982 15.8341C68.9986 15.7819 68.9919 15.7299 68.9782 15.6795C68.8384 15.1493 68.5473 14.6713 68.1405 14.3035C66.9033 13.1463 64.9807 13.1463 63.7435 14.3035C63.1498 14.8388 62.8145 15.6032 62.8227 16.4025C62.8227 17.3304 63.1636 18.0487 63.8451 18.5574C64.227 18.8438 64.8082 19.0958 65.589 19.3134C66.1092 19.4576 66.3908 19.5563 66.4338 19.6098C66.4735 19.654 66.4936 19.7124 66.4896 19.7716C66.4956 19.795 66.4984 19.819 66.4983 19.8433C66.5008 19.9924 66.4425 20.1362 66.3365 20.2412C66.1223 20.4587 65.7723 20.4614 65.555 20.2472L65.5489 20.2412C65.4433 20.136 65.3854 19.9922 65.3886 19.8433C65.3716 19.8224 65.3585 19.7985 65.3499 19.7731H63.4886C63.1628 19.7719 62.8977 20.0353 62.8967 20.361C62.8965 20.412 62.903 20.4626 62.9158 20.5119C63.0553 21.0346 63.3421 21.5064 63.742 21.8707C64.9787 23.0292 66.9024 23.0292 68.1392 21.8707C68.7356 21.3377 69.0729 20.573 69.0641 19.7731C69.0641 18.8386 68.7127 18.1117 68.0103 17.5924ZM77.698 14.7946C76.9366 13.9349 75.8395 13.448 74.6912 13.4601C74.0952 13.4599 73.5067 13.5944 72.9702 13.8539V12.0656V12.0627C72.9694 11.3684 72.4059 10.8062 71.7116 10.807H71.7101C71.0159 10.8078 70.4537 11.3712 70.4544 12.0656V21.5571C70.4544 22.1604 70.9436 22.6496 71.5469 22.6496H71.8777C72.4807 22.6488 72.9694 22.1601 72.9702 21.5571V18.019C72.9579 17.491 73.1381 16.9766 73.477 16.5715C73.5544 16.4727 73.6434 16.3836 73.7422 16.3063C74.4171 15.7779 75.3927 15.8966 75.9211 16.5715C76.2609 16.9789 76.441 17.4959 76.428 18.0263V21.391V21.3925C76.428 22.0868 76.9909 22.6496 77.6852 22.6496H77.688C78.3823 22.6488 78.9445 22.0853 78.9437 21.391V18.0263C78.9673 16.8275 78.5201 15.6673 77.698 14.7946Z" fill="#0033B2"/>
<path fill-rule="evenodd" clip-rule="evenodd" d="M11.8946 14.8777H15.3883C16.0382 14.8777 16.5652 15.4046 16.5652 16.0546V16.1635C16.5905 17.7641 15.9568 19.3049 14.8127 20.4245C12.5605 22.7447 8.85379 22.7998 6.53375 20.5475C6.49208 20.5071 6.45104 20.4662 6.41074 20.4245C4.07402 18.0616 4.07402 14.2581 6.41074 11.8952C7.4986 10.7399 9.02206 10.0951 10.6088 10.1183C11.9948 10.1183 13.188 10.5154 14.1884 11.3095C14.7385 11.7536 14.8245 12.5595 14.3804 13.1096C14.3158 13.1898 14.2416 13.2618 14.1598 13.3242L14.1426 13.3356C13.6741 13.6856 13.0296 13.6798 12.5675 13.3213C12.0018 12.9022 11.3127 12.6831 10.6088 12.6985C9.70799 12.6871 8.84388 13.0549 8.22768 13.7122C6.91026 15.0814 6.91026 17.2469 8.22768 18.6162C8.84388 19.2733 9.70799 19.6412 10.6088 19.6299C11.2979 19.6352 11.971 19.4209 12.5303 19.0185C13.0859 18.6307 13.5116 18.0843 13.7517 17.4507H11.8903C11.1786 17.4507 10.6016 16.8738 10.6016 16.162C10.6041 15.4503 11.1828 14.8754 11.8946 14.8777Z" fill="#0033B2"/>
<path fill-rule="evenodd" clip-rule="evenodd" d="M10.4924 8.20086C8.39238 8.20086 6.59348 8.96159 5.09587 10.4832C3.59816 12.0048 2.85125 13.8437 2.85505 16C2.85505 18.1564 3.60196 19.9952 5.09587 21.5168C6.58968 23.0384 8.38858 23.7976 10.4924 23.7949C11.7419 23.7992 12.9728 23.49 14.0719 22.8956C14.8968 22.4496 15.6314 21.8538 16.2382 21.1388C16.5987 20.7131 17.2218 20.6267 17.6844 20.9384C18.1846 21.273 18.3188 21.9498 17.9841 22.45C17.9631 22.4813 17.9405 22.5116 17.9164 22.5406C17.1305 23.4727 16.1773 24.2497 15.1057 24.8315C13.6897 25.6041 12.1012 26.0062 10.488 25.9999C7.77618 25.9999 5.45856 25.0195 3.53518 23.0589C1.61169 21.0982 0.655798 18.7453 0.667091 16C0.667091 13.2443 1.62456 10.8908 3.5394 8.93964C5.45424 6.98862 7.77186 6.00878 10.4924 6.00007C12.1053 5.99412 13.6936 6.39542 15.11 7.16712C16.181 7.74966 17.1341 8.52652 17.9207 9.45804C18.3054 9.9218 18.2413 10.6096 17.7775 10.9944C17.7486 11.0183 17.7186 11.0408 17.6873 11.0617C17.2245 11.3721 16.6024 11.2852 16.2426 10.8598C14.8115 9.16941 12.7071 8.19738 10.4924 8.20371V8.20086Z" fill="#2C7EF6"/>
</g>
<defs>
<clipPath id="clip0">
<rect width="78.6667" height="32" fill="white" transform="translate(0.666992)"/>
</clipPath>
</defs>
</svg>
