<svg width="504" height="200" viewBox="0 0 504 200" fill="none" xmlns="http://www.w3.org/2000/svg">
<g clip-path="url(#clip0)">
<rect width="504" height="200" fill="#3F8AE5"/>
<circle cx="252" cy="100" r="200" fill="#5698E8"/>
<path d="M235 99.6384C235 97.4884 235 95.3384 235 93.1784C235 92.5484 235.16 92.2984 235.84 92.2984C238.92 92.2984 242.003 92.2984 245.09 92.2984C245.88 92.2984 245.89 92.6984 245.88 93.2984C245.87 93.8984 245.88 94.2984 245.1 94.2984C242.85 94.2984 240.61 94.2984 238.37 94.2984C237.31 94.2984 237.23 94.3884 237.23 95.4084V97.5984C237.23 98.6484 237.23 98.6984 238.36 98.6984H243.36C244.53 98.6984 244.53 98.6984 244.53 99.6984C244.53 100.698 244.53 100.698 243.39 100.698H238.22C237.28 100.698 237.22 100.778 237.22 101.698C237.22 102.438 237.22 103.188 237.22 103.938C237.22 105.088 237.28 105.148 238.46 105.148H245C245.184 105.156 245.362 105.211 245.519 105.307C245.676 105.403 245.805 105.538 245.895 105.698C245.985 105.858 246.033 106.039 246.034 106.223C246.035 106.406 245.989 106.587 245.9 106.748C245.826 106.827 245.736 106.89 245.636 106.931C245.536 106.972 245.428 106.992 245.32 106.988C242.1 106.988 238.88 106.988 235.67 106.988C235.12 106.988 234.97 106.748 234.97 106.248C234.97 104.028 234.97 101.808 234.97 99.5784L235 99.6384Z" fill="white"/>
<path d="M317.75 92.3384C317.5 92.6784 317.39 92.8684 317.24 93.0284C315.53 94.9584 313.83 96.8984 312.1 98.8184C311.49 99.4984 311.48 99.4984 312.1 100.178C314.1 102.258 316.1 104.342 318.1 106.428C318.295 106.652 318.479 106.886 318.65 107.128C317.65 107.128 316.86 107.128 316.04 107.128C315.87 107.128 315.69 106.868 315.54 106.708C313.8 104.868 312.06 103.018 310.31 101.178C310.178 101.022 310.023 100.887 309.85 100.778C309.72 100.667 309.56 100.598 309.389 100.581C309.219 100.564 309.048 100.6 308.899 100.685C308.75 100.769 308.631 100.897 308.558 101.052C308.484 101.206 308.461 101.38 308.49 101.548C308.49 103.138 308.49 104.718 308.49 106.308C308.49 106.858 308.31 107.068 307.75 107.068C306.02 107.068 306.29 107.068 306.29 105.678C306.29 101.488 306.29 97.2884 306.29 93.0984C306.29 92.3984 306.5 92.1984 307.18 92.2184C308.68 92.2184 308.5 92.1284 308.51 93.5284C308.52 94.9284 308.51 96.3884 308.51 97.8184C308.51 98.0984 308.69 98.6084 308.8 98.6084C309.205 98.6598 309.615 98.5678 309.96 98.3484C310.96 97.3484 311.91 96.2684 312.86 95.1984C313.52 94.4484 314.16 93.6884 314.78 92.8984C314.909 92.7142 315.084 92.5666 315.287 92.4702C315.491 92.3738 315.716 92.3319 315.94 92.3484C316.46 92.3584 317 92.3384 317.75 92.3384Z" fill="white"/>
<path d="M216.72 99.7484C216.672 98.5553 216.897 97.367 217.377 96.2737C217.857 95.1803 218.579 94.2107 219.49 93.4384C221.68 91.6584 226.82 91.0984 229.28 94.3184C229.676 94.9204 230.011 95.5602 230.28 96.2284C230.47 96.6084 230.28 96.8284 229.88 96.8684C229.79 96.863 229.7 96.863 229.61 96.8684C228.61 97.1884 228.03 96.9384 227.53 95.8684C226.78 94.2584 224.63 93.6384 222.65 94.1884C221.612 94.4776 220.698 95.1025 220.053 95.9654C219.407 96.8283 219.065 97.8807 219.08 98.9584C218.917 100.453 219.239 101.961 220 103.258C221.58 105.868 226.44 105.848 227.64 103.588C227.74 103.408 228.11 103.298 228.37 103.268C228.755 103.262 229.139 103.285 229.52 103.338C230.19 103.388 230.3 103.558 229.98 104.128C229.601 104.857 229.069 105.494 228.42 105.997C227.771 106.499 227.02 106.854 226.22 107.038C223.65 107.618 221.22 107.408 219.13 105.598C218.331 104.854 217.701 103.947 217.285 102.937C216.869 101.927 216.677 100.84 216.72 99.7484Z" fill="white"/>
<path d="M186.26 99.6384C186.26 97.4784 186.26 95.3284 186.26 93.1784C186.24 92.5484 186.42 92.2884 187.09 92.2984C190.063 92.2984 193.03 92.2984 195.99 92.2984C196.68 92.2984 196.78 92.6084 196.77 93.1684C196.77 94.1684 196.77 94.2384 195.99 94.2384H189.53C188.53 94.2384 188.53 94.3284 188.47 95.2384C188.41 96.1484 188.47 97.0484 188.47 97.9584C188.47 98.5084 188.69 98.7284 189.24 98.7184H194.81C195.62 98.7184 195.64 98.7184 195.64 99.7184C195.64 100.718 195.64 100.718 194.79 100.718H189.43C188.59 100.718 188.43 100.838 188.43 101.658C188.43 103.198 188.43 104.738 188.43 106.278C188.43 106.818 188.23 106.988 187.72 106.998C186.22 106.998 186.22 106.998 186.22 105.568L186.26 99.6384Z" fill="white"/>
<path d="M282.31 99.0384C282.07 95.7484 280.38 93.0484 276.93 92.2884C273.93 91.6284 271.02 91.9884 268.93 94.5584C267.968 95.766 267.369 97.2228 267.204 98.7582C267.04 100.294 267.316 101.844 268 103.228C269.22 106.158 271.71 107.228 274.57 107.318C275.587 107.383 276.607 107.24 277.567 106.896C278.526 106.552 279.406 106.015 280.15 105.318C280.963 104.504 281.58 103.516 281.954 102.428C282.329 101.339 282.45 100.18 282.31 99.0384ZM278.84 103.368C278.13 104.201 277.183 104.798 276.125 105.078C275.067 105.359 273.949 105.31 272.92 104.938C271.978 104.591 271.163 103.969 270.579 103.152C269.996 102.335 269.672 101.362 269.65 100.358C269.65 100.158 269.65 99.9484 269.65 99.7484C269.65 97.5184 270.32 95.5884 272.5 94.6184C275.3 93.3584 279.41 94.3584 279.89 98.7284C280.036 99.5327 280.019 100.358 279.838 101.156C279.658 101.953 279.318 102.706 278.84 103.368Z" fill="white"/>
<path d="M301.26 99.7484C301.26 95.3384 298.8 92.5084 294.7 92.0684C290.05 91.5784 286.63 94.3384 286.29 98.8684C285.93 103.568 288.39 106.768 292.81 107.258C294.012 107.464 295.246 107.368 296.401 106.979C297.557 106.59 298.598 105.919 299.43 105.028C300.067 104.312 300.556 103.476 300.87 102.57C301.184 101.664 301.317 100.706 301.26 99.7484ZM298.9 99.7484C298.9 101.948 298.2 103.838 296.06 104.748C292.85 106.078 288.93 104.748 288.61 100.288C288.456 98.8502 288.81 97.4034 289.61 96.1984C290.284 95.2935 291.231 94.6297 292.312 94.3055C293.393 93.9813 294.549 94.0139 295.61 94.3984C296.586 94.7183 297.437 95.3361 298.043 96.1649C298.649 96.9936 298.98 97.9916 298.99 99.0184C298.91 99.2584 298.9 99.5084 298.9 99.7484Z" fill="white"/>
<path d="M213.76 106.388C212.26 102.428 210.747 98.4751 209.22 94.5284C208.93 93.7484 208.7 92.7984 208.12 92.4384C207.54 92.0784 206.54 92.3384 205.72 92.2984C205.499 92.2696 205.275 92.3229 205.091 92.4483C204.906 92.5736 204.774 92.7623 204.72 92.9784C203.39 96.3784 202 99.7484 200.71 103.158C200.23 104.378 199.81 105.608 199.29 107.038C199.92 107.038 200.36 107.038 200.81 107.038C201.023 107.07 201.24 107.017 201.415 106.889C201.589 106.762 201.705 106.571 201.74 106.358C202.03 105.478 202.39 104.618 202.68 103.738C202.723 103.54 202.837 103.364 203.002 103.244C203.166 103.125 203.368 103.069 203.57 103.088H209.57C209.79 103.055 210.015 103.105 210.2 103.229C210.386 103.353 210.517 103.542 210.57 103.758C210.87 104.658 211.19 105.558 211.57 106.438C211.66 106.658 211.88 106.958 212.07 106.978C212.689 107.014 213.31 107.014 213.93 106.978C213.892 106.777 213.835 106.579 213.76 106.388ZM204.5 101.058C204.02 101.058 203.75 100.878 203.96 100.348C204.69 98.5184 205.41 96.6884 206.15 94.8684C206.22 94.6884 206.47 94.4184 206.57 94.4484C206.68 94.4831 206.783 94.5401 206.87 94.6157C206.958 94.6914 207.029 94.7842 207.08 94.8884C207.83 96.7084 208.55 98.5384 209.27 100.358C209.45 100.828 209.24 101.058 208.77 101.058H204.5Z" fill="white"/>
<path d="M261.31 99.7484C261.06 99.6484 260.83 99.5184 260.42 99.3084C260.79 99.0584 261.02 98.9284 261.21 98.7684C261.585 98.4793 261.921 98.1432 262.21 97.7684C262.472 97.3376 262.636 96.8546 262.69 96.3534C262.745 95.8522 262.689 95.3451 262.526 94.8681C262.362 94.391 262.096 93.9557 261.746 93.5929C261.396 93.23 260.971 92.9486 260.5 92.7684C259.659 92.5001 258.783 92.3553 257.9 92.3384C255.98 92.2784 254.05 92.3384 252.13 92.3384C251.43 92.3384 251.24 92.5884 251.25 93.2584C251.25 97.5784 251.25 101.912 251.25 106.258C251.25 106.898 251.44 107.128 252.1 107.118C254.23 107.118 256.36 107.118 258.49 107.118C259.371 107.102 260.246 106.964 261.09 106.708C261.835 106.488 262.487 106.027 262.943 105.398C263.398 104.768 263.633 104.005 263.61 103.228C263.661 102.477 263.463 101.729 263.048 101.1C262.632 100.471 262.022 99.9964 261.31 99.7484ZM254.08 94.2184C255.57 94.2184 257.08 94.2184 258.55 94.3784C258.825 94.3891 259.094 94.4562 259.341 94.5757C259.589 94.6951 259.809 94.8642 259.988 95.0725C260.168 95.2808 260.302 95.5238 260.383 95.7863C260.464 96.0489 260.49 96.3253 260.46 96.5984C260.453 97.1313 260.241 97.641 259.869 98.0225C259.497 98.4039 258.992 98.628 258.46 98.6484C257.7 98.7184 256.92 98.6484 256.15 98.6484V98.7484H254.15C254.059 98.7668 253.966 98.7624 253.877 98.7357C253.789 98.709 253.708 98.6609 253.643 98.5955C253.577 98.5302 253.529 98.4497 253.503 98.3612C253.476 98.2727 253.472 98.179 253.49 98.0884V94.8784C253.48 94.4684 253.65 94.2084 254.08 94.2184ZM259.85 104.878C259.485 104.999 259.104 105.066 258.72 105.078C257.2 105.078 255.72 105.078 254.17 105.128C253.68 105.128 253.48 104.888 253.48 104.418C253.48 103.378 253.48 102.338 253.48 101.298C253.48 100.798 253.73 100.618 254.2 100.628H256.64C257.52 100.628 258.41 100.578 259.29 100.628C259.797 100.648 260.28 100.852 260.648 101.202C261.016 101.551 261.244 102.023 261.29 102.528C261.397 103.03 261.307 103.554 261.039 103.991C260.771 104.428 260.346 104.746 259.85 104.878Z" fill="white"/>
</g>
<defs>
<clipPath id="clip0">
<rect width="504" height="200" fill="white"/>
</clipPath>
</defs>
</svg>
