<svg xmlns="http://www.w3.org/2000/svg" viewBox="0 0 132.88 15.82"><defs><style>.cls-1{fill:#FFFFFF;stroke:#FFFFFF;stroke-linecap:round;stroke-linejoin:round;stroke-width:0.5px;}</style></defs><title>Facebook</title><g id="Layer_2" data-name="Layer 2"><g id="Layer_1-2" data-name="Layer 1"><path class="cls-1" d="M49,7.89c0-2.15,0-4.3,0-6.46,0-.63.16-.88.84-.88q4.62,0,9.25,0c.79,0,.8.4.79,1s0,1-.78,1c-2.25,0-4.49,0-6.73,0-1.06,0-1.14.09-1.14,1.11V5.85c0,1.05,0,1.1,1.13,1.1h5c1.17,0,1.17,0,1.17,1s0,1-1.14,1H52.22c-.94,0-1,.08-1,1,0,.74,0,1.49,0,2.24,0,1.15.06,1.21,1.24,1.21H59A1.08,1.08,0,0,1,59.9,15a.76.76,0,0,1-.58.24c-3.22,0-6.44,0-9.65,0-.55,0-.7-.24-.7-.74,0-2.22,0-4.44,0-6.67Z"/><path class="cls-1" d="M131.75.59c-.25.34-.36.53-.51.69-1.71,1.93-3.41,3.87-5.14,5.79-.61.68-.62.68,0,1.36q3,3.12,6,6.25a8.7,8.7,0,0,1,.55.7c-1,0-1.79,0-2.61,0-.17,0-.35-.26-.5-.42-1.74-1.84-3.48-3.69-5.23-5.53a2,2,0,0,0-.46-.4.83.83,0,0,0-1.36.77c0,1.59,0,3.17,0,4.76,0,.55-.18.76-.74.76-1.73,0-1.46,0-1.46-1.39,0-4.19,0-8.39,0-12.58,0-.7.21-.9.89-.88,1.5,0,1.32-.09,1.33,1.31s0,2.86,0,4.29c0,.28.18.79.29.79a1.75,1.75,0,0,0,1.16-.26c1-1,1.95-2.08,2.9-3.15.66-.75,1.3-1.51,1.92-2.3a1.3,1.3,0,0,1,1.16-.55C130.46.61,131,.59,131.75.59Z"/><path class="cls-1" d="M30.72,8a7.86,7.86,0,0,1,2.77-6.31c2.19-1.78,7.33-2.34,9.79.88a10.87,10.87,0,0,1,1,1.91c.19.38,0,.6-.4.64a2.23,2.23,0,0,0-.27,0c-1,.32-1.58.07-2.08-1-.75-1.61-2.9-2.23-4.88-1.68a4.88,4.88,0,0,0-3.57,4.77A7,7,0,0,0,34,11.51c1.58,2.61,6.44,2.59,7.64.33.1-.18.47-.29.73-.32a7.4,7.4,0,0,1,1.15.07c.67.05.78.22.46.79a5.67,5.67,0,0,1-3.76,2.91c-2.57.58-5,.37-7.09-1.44A7.58,7.58,0,0,1,30.72,8Z"/><path class="cls-1" d="M.26,7.89c0-2.16,0-4.31,0-6.46C.24.8.42.54,1.09.55q4.46,0,8.9,0c.69,0,.79.31.78.87,0,1,0,1.07-.78,1.07H3.53c-1,0-1,.09-1.06,1s0,1.81,0,2.72c0,.55.22.77.77.76H8.81c.81,0,.83,0,.83,1s0,1-.85,1H3.43c-.84,0-1,.12-1,.94,0,1.54,0,3.08,0,4.62,0,.54-.2.71-.71.72-1.5,0-1.5,0-1.5-1.43Z"/><path class="cls-1" d="M96.31,7.29C96.07,4,94.38,1.3,90.93.54c-3-.66-5.91-.3-8,2.27A8.13,8.13,0,0,0,82,11.48c1.22,2.93,3.71,4,6.57,4.09a7.47,7.47,0,0,0,5.58-2A7.58,7.58,0,0,0,96.31,7.29Zm-3.47,4.33a5.38,5.38,0,0,1-5.92,1.57,5,5,0,0,1-3.27-4.58c0-.2,0-.41,0-.61,0-2.23.67-4.16,2.85-5.13,2.8-1.26,6.91-.26,7.39,4.11A6.07,6.07,0,0,1,92.84,11.62Z"/><path class="cls-1" d="M115.26,8c0-4.41-2.46-7.24-6.56-7.68-4.65-.49-8.07,2.27-8.41,6.8-.36,4.7,2.1,7.9,6.52,8.39a7.36,7.36,0,0,0,6.62-2.23A7.3,7.3,0,0,0,115.26,8ZM112.9,8c0,2.2-.7,4.09-2.84,5-3.21,1.33-7.13,0-7.45-4.46a6.2,6.2,0,0,1,1-4.09,5.25,5.25,0,0,1,6-1.8,4.91,4.91,0,0,1,3.38,4.62C112.91,7.51,112.9,7.76,112.9,8Z"/><path class="cls-1" d="M27.76,14.64Q25.51,8.7,23.22,2.78C22.93,2,22.7,1.05,22.12.69s-1.58-.1-2.4-.14a.91.91,0,0,0-1,.68C17.39,4.63,16,8,14.71,11.41c-.48,1.22-.9,2.45-1.42,3.88.63,0,1.07,0,1.52,0a.82.82,0,0,0,.93-.68c.29-.88.65-1.74.94-2.62a.83.83,0,0,1,.89-.65h6a.89.89,0,0,1,1,.67c.3.9.62,1.8,1,2.68.09.22.31.52.5.54a16.22,16.22,0,0,0,1.86,0A3.31,3.31,0,0,0,27.76,14.64Zm-5-5.33H18.5c-.48,0-.75-.18-.54-.71.73-1.83,1.45-3.66,2.19-5.48.07-.18.32-.45.42-.42a.85.85,0,0,1,.51.44c.75,1.82,1.47,3.65,2.19,5.47C23.45,9.08,23.24,9.31,22.77,9.31Z"/><path class="cls-1" d="M75.31,8c-.25-.1-.48-.23-.89-.44.37-.25.6-.38.79-.54a5.53,5.53,0,0,0,1-1,3.44,3.44,0,0,0-1.71-5,9.13,9.13,0,0,0-2.6-.43c-1.92-.06-3.85,0-5.77,0-.7,0-.89.25-.88.92q0,6.48,0,13c0,.64.19.87.85.86,2.13,0,4.26,0,6.39,0a9.6,9.6,0,0,0,2.6-.41,3.52,3.52,0,0,0,2.52-3.48A3.44,3.44,0,0,0,75.31,8ZM68.08,2.47c1.49,0,3,0,4.47.16a2,2,0,0,1,1.91,2.22,2.08,2.08,0,0,1-2,2.05c-.76.07-1.54,0-2.31,0V7h-2a.56.56,0,0,1-.66-.66V3.13C67.48,2.72,67.65,2.46,68.08,2.47Zm5.77,10.66a4,4,0,0,1-1.13.2c-1.52,0-3,0-4.55.05-.49,0-.69-.24-.69-.71q0-1.56,0-3.12c0-.5.25-.68.72-.67h2.44v0c.88,0,1.77-.05,2.65,0a2.09,2.09,0,0,1,2,1.9A2,2,0,0,1,73.85,13.13Z"/></g></g></svg>