<svg xmlns="http://www.w3.org/2000/svg" viewBox="0 0 45.51 45.51"><defs><style>.cls-1,.cls-5{fill:#4285f4;}.cls-1,.cls-2,.cls-3,.cls-4,.cls-6{fill-rule:evenodd;}.cls-2{fill:#34a853;}.cls-3{fill:#fbbc05;}.cls-4{fill:#ea4335;}.cls-6{fill:#fff;}</style></defs><title>Google Shopping</title><g id="Layer_2" data-name="Layer 2"><g id="Layer_1-2" data-name="Layer 1"><path class="cls-1" d="M36.57,12.19a3.25,3.25,0,1,0-3.25-3.25A3.26,3.26,0,0,0,36.57,12.19Zm-23-1,10-10a4.17,4.17,0,0,1,3-1.23H41.28a4.21,4.21,0,0,1,4.23,4.2V19a4.12,4.12,0,0,1-1.25,3l-10,10Z"/><path class="cls-2" d="M34.3,32,22,44.26a4.33,4.33,0,0,1-3,1.25,4.21,4.21,0,0,1-3-1.25L1.25,29.47a4.11,4.11,0,0,1-1.25-3,4.24,4.24,0,0,1,1.25-3L13.54,11.2Z"/><path class="cls-3" d="M8.42,36.65,1.25,29.47a4.11,4.11,0,0,1-1.25-3,4.24,4.24,0,0,1,1.25-3L13.54,11.2,23.71,21.36Z"/><path class="cls-4" d="M44.05,1a4.25,4.25,0,0,0-2.77-1H26.49a4.17,4.17,0,0,0-3,1.23l-10,10L23.71,21.36,34.06,11a3.25,3.25,0,0,1,4.58-4.58Z"/><circle class="cls-5" cx="23.7" cy="22.52" r="6.6"/><path class="cls-6" d="M32.7,20.57H23.92v3.77h5c-.47,2.4-2.44,3.77-5,3.77a5.77,5.77,0,0,1,0-11.53,5.36,5.36,0,0,1,3.47,1.29L30.13,15a9.24,9.24,0,0,0-6.21-2.43,9.56,9.56,0,0,0-9.43,9.75,9.57,9.57,0,0,0,9.43,9.75c4.71,0,9-3.55,9-9.75a8.32,8.32,0,0,0-.21-1.78Z"/></g></g></svg>