<svg width="32" height="32" viewBox="0 0 32 32" fill="none" xmlns="http://www.w3.org/2000/svg">
<g clip-path="url(#clip0)">
<path fill-rule="evenodd" clip-rule="evenodd" d="M25.7104 11.1527C25.4431 11.153 25.1757 11.152 24.9085 11.1533C24.6165 11.1717 24.3526 11.4084 24.3065 11.6978C23.9119 14.3887 23.5181 17.0796 23.1239 19.7705C23.0703 20.0958 23.3402 20.2254 23.629 20.2268C23.8678 20.2266 24.1064 20.2268 24.3453 20.2268C24.6809 20.2364 24.9647 19.972 25.0096 19.6451C25.1272 18.8431 25.2446 18.0408 25.3622 17.2388C25.4271 16.7718 25.561 16.3425 25.9282 16.0177C26.2863 15.704 26.7238 15.5394 27.2025 15.5974C27.7335 15.6636 27.9468 16.0316 27.9731 16.5339C27.9875 16.8222 27.9413 17.0861 27.9015 17.3689C27.7834 18.1854 27.6656 19.0018 27.5474 19.8183C27.4892 20.0993 27.8432 20.2227 28.0667 20.2184H28.8108C29.0747 20.2098 29.3182 20.0218 29.4049 19.7743C29.4303 19.7058 29.4353 19.6323 29.4475 19.5609C29.5942 18.6108 29.7406 17.6608 29.8874 16.7108C30.0195 15.8237 29.8512 14.9899 29.1133 14.4289C28.7025 14.117 28.2177 14.0055 27.7085 14.0115C26.9426 14.0191 26.3233 14.2212 25.7324 14.7259C25.8854 13.665 26.0389 12.604 26.1922 11.5428C26.2112 11.4194 26.148 11.3187 26.0462 11.2508C25.9474 11.1852 25.828 11.1562 25.7104 11.1527V11.1527ZM17.0469 11.4298C17.0063 11.4291 16.9646 11.4306 16.922 11.4343C16.3432 11.4864 15.8788 11.9875 15.8455 12.5654C15.8177 13.0453 16.1482 13.435 16.6277 13.4763C17.2088 13.5263 17.7634 13.1194 17.8902 12.5505C18.0292 11.9288 17.6554 11.4392 17.0469 11.4298V11.4298ZM2.79066 11.5315C2.55038 11.5186 2.3697 11.8139 2.31664 12.0255C2.24595 12.3038 2.17494 12.5819 2.10456 12.8602C2.03046 13.1744 2.18651 13.5234 2.46325 13.6861C2.5228 13.7219 2.5888 13.744 2.65222 13.7713C3.39114 14.0757 4.13007 14.3804 4.86915 14.6847C4.75685 15.4945 4.64407 16.3042 4.53131 17.1139C4.51429 17.2295 4.50018 17.3457 4.49415 17.4624C4.40675 19.0831 5.63354 20.2663 7.24333 20.2171C7.99742 20.194 8.66952 19.9175 9.25407 19.4412C9.93824 20.1382 10.8765 20.3406 11.8116 20.157C13.155 19.8936 14.3213 18.733 14.5913 17.3938C14.6221 17.242 14.6413 17.0881 14.6625 16.9349C14.774 16.1255 14.8854 15.3161 14.9969 14.5068C15.0096 14.4283 14.9868 14.3462 14.9378 14.2839C14.8267 14.1413 14.6249 14.0848 14.4515 14.0836C14.1737 14.0837 13.8959 14.0833 13.6179 14.0838C13.316 14.0931 13.0372 14.317 12.9554 14.6065C12.9396 14.6601 12.9345 14.716 12.9266 14.771C12.8244 15.5134 12.7222 16.2556 12.6198 16.9979C12.5355 17.568 12.2707 18.0629 11.6405 18.1692C11.0207 18.2754 10.5202 17.8338 10.5937 17.208C10.6591 16.7289 10.7247 16.25 10.7901 15.771C10.7958 15.721 10.8082 15.6715 10.8028 15.6212C10.7948 15.4758 10.7239 15.3342 10.6082 15.2451C10.5116 15.1691 10.3878 15.1314 10.2656 15.1329C10.0156 15.1331 9.7653 15.1327 9.51533 15.1329C9.46691 15.1332 9.41819 15.1311 9.37008 15.1379C9.08995 15.1736 8.84214 15.3894 8.76804 15.6618C8.75938 15.7043 8.75543 15.7476 8.74878 15.7905C8.6866 16.2293 8.62516 16.668 8.56298 17.1067C8.50575 17.5653 8.24159 17.9429 7.80414 18.1137C7.60321 18.1918 7.37686 18.2087 7.16788 18.1529C6.72549 18.0328 6.48928 17.5953 6.55904 17.1491C6.70939 16.0688 6.85975 14.9887 7.00995 13.9084C7.0678 13.5551 6.8712 13.1925 6.53276 13.0642C5.32081 12.5617 4.10926 12.0585 2.89716 11.5569C2.8606 11.5413 2.82499 11.5334 2.79066 11.5315L2.79066 11.5315ZM21.004 13.8765C20.6285 13.8767 20.2522 13.9353 19.8951 14.0473C18.9967 14.3251 18.2219 15.0075 18.113 15.9812C18.0576 16.4762 18.1706 16.9243 18.5718 17.2422C18.8951 17.5016 19.3548 17.6806 19.7437 17.8003C20.0651 17.8997 20.8173 18.0611 20.9666 18.384C21.0056 18.4681 20.992 18.5669 20.9546 18.6489C20.8025 18.9782 20.3001 18.9965 19.9911 18.9819C19.6094 18.9637 19.232 18.8645 18.8906 18.6928C18.7082 18.6042 18.5206 18.4891 18.3407 18.3912C18.1888 18.3136 17.9866 18.3577 17.8809 18.4914C17.7199 18.7034 17.5594 18.9158 17.3985 19.1279C17.3702 19.1653 17.3393 19.2021 17.3219 19.2461C17.2811 19.3423 17.2982 19.4598 17.3652 19.5402C17.486 19.6968 18.029 19.9903 18.2136 20.0734C18.4301 20.171 18.6562 20.2459 18.8865 20.3032C19.659 20.4959 20.5138 20.4995 21.2546 20.181C22.1445 19.7985 22.7368 19.054 22.7691 18.0688C22.7812 17.6999 22.7043 17.3315 22.4351 17.0609C22.2317 16.8532 21.7852 16.6485 21.5057 16.5593C21.256 16.4785 21.0031 16.4089 20.7507 16.3383C20.551 16.2808 19.9197 16.1379 19.867 15.8818C19.8455 15.7758 19.876 15.6596 19.9506 15.5804C20.3042 15.1988 21.2877 15.3874 21.6958 15.5736C21.8607 15.6458 22.082 15.8196 22.2389 15.8457C22.4092 15.8754 22.5258 15.762 22.6223 15.6384C22.729 15.5026 22.8356 15.3669 22.9422 15.2312C23.0907 15.0535 23.1038 14.7823 22.9855 14.5857C22.9229 14.4875 22.8771 14.4479 22.7804 14.3829C22.2535 14.0373 21.6299 13.876 21.004 13.8765ZM16.3216 14.082C16.2884 14.0821 16.2553 14.083 16.2223 14.0863C15.9727 14.1149 15.75 14.3026 15.6776 14.5429C15.659 14.6021 15.6543 14.6645 15.6447 14.7255C15.4048 16.4326 15.1647 18.1397 14.9247 19.8468C14.9072 19.9743 14.9917 20.0799 15.098 20.14C15.2019 20.1985 15.3232 20.2212 15.4417 20.2184H16.1691C16.4359 20.2084 16.6814 20.0118 16.7575 19.7573C16.7704 19.7156 16.7762 19.6722 16.7822 19.6291C17.0241 17.9081 17.2663 16.1871 17.5082 14.4661C17.5156 14.4204 17.5113 14.3729 17.4939 14.3301C17.4367 14.1876 17.2747 14.1157 17.1327 14.0922C17.0678 14.0815 17.0017 14.0822 16.9361 14.0822H16.421C16.3879 14.0825 16.3547 14.0818 16.3216 14.082L16.3216 14.082Z" fill="#2EB7EB"/>
</g>
<defs>
<clipPath id="clip0">
<rect width="28" height="9.52" fill="white" transform="translate(2 11)"/>
</clipPath>
</defs>
</svg>
