<svg width="32" height="32" viewBox="0 0 32 32" fill="none" xmlns="http://www.w3.org/2000/svg">
<g clip-path="url(#clip0)">
<path d="M8.98706 17.8511V13.5404H11.5349V14.0808H9.51463V15.4062H11.329V15.9467H9.51463V17.2978H11.6764V17.8382H8.98706V17.8511Z" fill="#E43225"/>
<path d="M14.3529 17.8512L13.4779 16.7059L12.6029 17.8512H11.9852L13.1819 16.3199L11.9209 14.7372H12.6158L13.4779 15.921L14.3529 14.7372H15.0349L13.8382 16.3199L14.9705 17.8512H14.3529Z" fill="#E43225"/>
<path d="M15.8198 17.3879V19.511H15.2922V16.3327C15.2922 15.522 15.9099 14.6599 16.875 14.6599C17.8529 14.6599 18.5864 15.2776 18.5864 16.2941C18.5864 17.2849 17.84 17.9669 16.9908 17.9669C16.579 17.9669 16.0257 17.7868 15.8198 17.3879ZM18.033 16.2941C18.033 15.5992 17.5827 15.1875 16.7849 15.2261C16.3989 15.239 15.8069 15.522 15.8584 16.5129C15.8713 16.8345 16.2058 17.4393 16.9393 17.4393C17.5698 17.4393 18.033 17.079 18.033 16.2941Z" fill="#E43225"/>
<path d="M19.0366 17.851V14.7371H19.5642V15.0716C19.8215 14.7757 20.2204 14.6727 20.6451 14.6727V15.2389C20.5807 15.226 19.9502 15.1488 19.5642 15.9724V17.8639H19.0366V17.851Z" fill="#E43225"/>
<path d="M20.7866 16.2941C20.7866 15.3934 21.43 14.6599 22.3179 14.6599C23.4245 14.6599 23.8363 15.3934 23.8363 16.3327V16.5901H21.3657C21.4043 17.182 21.9318 17.4908 22.4208 17.4779C22.7811 17.4651 23.0256 17.3621 23.2829 17.1048L23.6304 17.4651C23.3087 17.7739 22.8969 17.9798 22.3951 17.9798C21.4557 17.9669 20.7866 17.272 20.7866 16.2941ZM22.2793 15.1875C21.7774 15.1875 21.3914 15.625 21.3657 16.1011H23.2829C23.2829 15.6379 22.9484 15.1875 22.2793 15.1875Z" fill="#E43225"/>
<path d="M24.1064 17.4136L24.4925 17.0662C24.4796 17.0662 24.6855 17.2721 24.7112 17.285C24.8013 17.3622 24.8914 17.4136 25.0072 17.4394C25.3417 17.5295 25.9465 17.5037 25.998 17.0405C26.0237 16.7831 25.8307 16.6416 25.612 16.5515C25.3289 16.4486 25.02 16.41 24.737 16.2813C24.4153 16.1397 24.2094 15.8953 24.2094 15.535C24.2094 14.5956 25.5476 14.4412 26.1524 14.8787C26.1781 14.9044 26.4741 15.1747 26.4612 15.1747L26.0752 15.4835C25.8822 15.2519 25.702 15.1361 25.2903 15.1361C25.0844 15.1361 24.8013 15.2261 24.7498 15.4449C24.6726 15.7537 25.02 15.8695 25.2517 15.9339C25.5605 16.0111 25.895 16.0625 26.1653 16.2298C26.5384 16.4614 26.6285 16.9633 26.487 17.3493C26.3325 17.7739 25.8693 17.9412 25.4575 17.9541C24.9686 17.9798 24.5439 17.8254 24.1965 17.478C24.1708 17.478 24.1064 17.4136 24.1064 17.4136Z" fill="#E43225"/>
<path d="M26.8218 17.4136L27.2078 17.0662C27.1949 17.0662 27.4008 17.2721 27.4266 17.285C27.5166 17.3622 27.6067 17.4136 27.7225 17.4394C28.0571 17.5295 28.6618 17.5037 28.7133 17.0405C28.7391 16.7831 28.546 16.6416 28.3273 16.5515C28.0442 16.4486 27.7354 16.41 27.4523 16.2813C27.1306 16.1397 26.9247 15.8953 26.9247 15.535C26.9247 14.5956 28.263 14.4412 28.8677 14.8787C28.8935 14.9044 29.1894 15.1747 29.1766 15.1747L28.7905 15.4835C28.5975 15.2519 28.4174 15.1361 28.0056 15.1361C27.7997 15.1361 27.5166 15.2261 27.4652 15.4449C27.388 15.7537 27.7354 15.8695 27.967 15.9339C28.2758 16.0111 28.6104 16.0625 28.8806 16.2298C29.2538 16.4614 29.3438 16.9633 29.2023 17.3493C29.0479 17.7739 28.5846 17.9412 28.1729 17.9541C27.6839 17.9798 27.2593 17.8254 26.9118 17.478C26.8861 17.478 26.8218 17.4136 26.8218 17.4136Z" fill="#E43225"/>
<path d="M29.3309 14.7372V14.4026H29.2151V14.3383H29.5239V14.4026H29.4081V14.7372H29.3309Z" fill="#E43225"/>
<path d="M29.9098 14.7372V14.4283L29.794 14.7372H29.7683L29.6525 14.4283V14.7372H29.5881V14.3383H29.6911L29.794 14.6085L29.897 14.3383H29.9999V14.7372H29.9098Z" fill="#E43225"/>
<path d="M5.40993 17.8511L5.0239 16.8217H2.93934L2.55331 17.8511H2L3.67279 13.5404H4.27757L5.9375 17.8511H5.40993ZM3.95588 14.1581L3.17096 16.2941H4.80515L3.95588 14.1581Z" fill="#F7971D"/>
<path d="M6.28491 17.8511V13.5404H6.82535V17.8511H6.28491Z" fill="#F7971D"/>
<path d="M7.63599 17.851V14.8014H8.17643V17.851H7.63599Z" fill="#F7971D"/>
<path d="M8.69105 13.8107C8.69105 13.7978 8.69105 13.7978 8.69105 13.7849C8.69105 13.7721 8.69105 13.7721 8.69105 13.7592C8.27928 13.7463 7.94472 13.4118 7.93186 13C7.91899 13 7.90612 13 7.89325 13C7.88038 13 7.86752 13 7.85465 13C7.84178 13.4118 7.50722 13.7463 7.09546 13.7592C7.09546 13.7721 7.09546 13.7721 7.09546 13.7849C7.09546 13.7978 7.09546 13.7978 7.09546 13.8107C7.50722 13.8235 7.84178 14.1581 7.85465 14.5699C7.86752 14.5699 7.88038 14.5699 7.89325 14.5699C7.90612 14.5699 7.91899 14.5699 7.93186 14.5699C7.94472 14.1581 8.27928 13.8235 8.69105 13.8107Z" fill="#F7971D"/>
</g>
<defs>
<clipPath id="clip0">
<rect width="28" height="6.51103" fill="white" transform="translate(2 13)"/>
</clipPath>
</defs>
</svg>
