<svg width="32" height="32" viewBox="0 0 32 32" fill="none" xmlns="http://www.w3.org/2000/svg">
<rect x="2" y="2" width="28" height="28" rx="6" fill="#FFFC00"/>
<path d="M24.7322 20.7169C21.5805 19.1912 21.0782 16.8356 21.0558 16.6609C21.0288 16.4493 20.9981 16.2829 21.2316 16.0676C21.4568 15.8596 22.4557 15.2413 22.7328 15.0479C23.191 14.7276 23.3927 14.4078 23.244 14.0146C23.14 13.7427 22.8868 13.6402 22.62 13.6402C22.5359 13.6405 22.452 13.6499 22.3699 13.6683C21.8665 13.7775 21.3777 14.0297 21.0948 14.0978C21.0609 14.1066 21.0259 14.1113 20.9908 14.1119C20.84 14.1119 20.7828 14.0448 20.7974 13.8633C20.8328 13.3132 20.9076 12.2394 20.8208 11.2363C20.7017 9.8562 20.2566 9.1724 19.7288 8.56764C19.4735 8.27436 18.2879 7.0144 15.9999 7.0144C13.7119 7.0144 12.5278 8.27436 12.2741 8.564C11.7447 9.16876 11.3001 9.85257 11.1821 11.2326C11.0952 12.2357 11.1732 13.309 11.2055 13.8597C11.2159 14.0323 11.1628 14.1082 11.012 14.1082C10.9769 14.1076 10.942 14.1029 10.908 14.0942C10.6257 14.0261 10.1369 13.7739 9.63352 13.6647C9.55142 13.6463 9.46755 13.6369 9.3834 13.6366C9.1156 13.6366 8.8634 13.7406 8.7594 14.011C8.61068 14.4041 8.8114 14.7239 9.27108 15.0442C9.54824 15.2377 10.5472 15.8554 10.7723 16.064C11.0053 16.2792 10.9751 16.4456 10.9481 16.6573C10.9257 16.8346 10.4229 19.1902 7.27168 20.7133C7.08708 20.8027 6.773 20.992 7.3268 21.2978C8.19624 21.7782 8.775 21.7268 9.2248 22.0164C9.60648 22.2624 9.3808 22.7928 9.65848 22.9841C9.9996 23.2197 11.0079 22.9675 12.3105 23.3975C13.4025 23.7574 14.066 24.774 16.0025 24.774C17.939 24.774 18.6217 23.7527 19.6945 23.3975C20.9945 22.9675 22.0048 23.2197 22.3465 22.9841C22.6236 22.7928 22.3985 22.2624 22.7802 22.0164C23.23 21.7268 23.8082 21.7782 24.6782 21.2978C25.2309 20.9956 24.9168 20.8064 24.7322 20.7169Z" fill="white"/>
<path d="M26.1035 20.5376C25.962 20.1528 25.6927 19.9469 25.3859 19.7763C25.3282 19.7425 25.2751 19.7155 25.2299 19.6947C25.1384 19.6473 25.0448 19.6016 24.9517 19.5532C23.9954 19.0462 23.2487 18.4066 22.7308 17.6485C22.5837 17.435 22.4561 17.2088 22.3496 16.9725C22.3054 16.8461 22.3075 16.7743 22.3392 16.7088C22.3707 16.6583 22.4123 16.615 22.4614 16.5814C22.6257 16.4727 22.7952 16.3625 22.9102 16.2881C23.115 16.1555 23.2773 16.0505 23.3818 15.9761C23.7744 15.7016 24.049 15.4099 24.2206 15.0838C24.3403 14.8586 24.4101 14.6102 24.4253 14.3555C24.4404 14.1009 24.4006 13.8459 24.3084 13.6081C24.0484 12.9237 23.4021 12.4989 22.619 12.4989C22.4538 12.4988 22.2891 12.5162 22.1276 12.5509C22.0844 12.5603 22.0412 12.5701 21.9991 12.5811C22.0064 12.1131 21.996 11.6191 21.9544 11.1329C21.8067 9.42363 21.2082 8.52767 20.5842 7.81319C20.1846 7.36546 19.7139 6.98668 19.1911 6.69207C18.2442 6.15127 17.1704 5.87671 15.9999 5.87671C14.8294 5.87671 13.7608 6.15127 12.8128 6.69207C12.2887 6.98677 11.8171 7.36631 11.4171 7.81527C10.7931 8.52975 10.1946 9.42727 10.0469 11.1349C10.0053 11.6211 9.99493 12.1177 10.0017 12.5831C9.95957 12.5722 9.91693 12.5623 9.87377 12.553C9.71228 12.5183 9.54755 12.5008 9.38237 12.501C8.59873 12.501 7.95133 12.9258 7.69237 13.6101C7.5998 13.8481 7.55956 14.1032 7.57436 14.3582C7.58917 14.6131 7.65868 14.8618 7.77817 15.0875C7.95029 15.4135 8.22485 15.7052 8.61745 15.9798C8.72145 16.0526 8.88421 16.1576 9.08909 16.2918C9.19985 16.3635 9.36157 16.4686 9.52017 16.5736C9.57566 16.6095 9.62282 16.6568 9.65849 16.7125C9.69177 16.7806 9.69281 16.8539 9.64341 16.9891C9.53834 17.2205 9.41287 17.442 9.26849 17.6511C8.76201 18.3921 8.03713 19.0202 7.11153 19.5231C6.62117 19.7831 6.11157 19.9567 5.89629 20.5417C5.73405 20.9832 5.84013 21.4855 6.25249 21.9088C6.40383 22.0668 6.57936 22.1997 6.77249 22.3025C7.17434 22.5233 7.60165 22.6943 8.04493 22.8115C8.13641 22.8351 8.22325 22.874 8.30181 22.9265C8.45209 23.058 8.43077 23.2561 8.63097 23.5463C8.73146 23.6963 8.85916 23.8261 9.00745 23.929C9.42761 24.2192 9.89977 24.2374 10.4 24.2566C10.8519 24.2738 11.3641 24.2935 11.9491 24.4865C12.1914 24.5665 12.4431 24.7215 12.7348 24.9025C13.4352 25.333 14.3941 25.9222 15.9988 25.9222C17.6036 25.9222 18.5692 25.3299 19.2748 24.8978C19.5645 24.7199 19.8146 24.5665 20.0502 24.4885C20.6352 24.2951 21.1474 24.2759 21.5992 24.2587C22.0995 24.2395 22.5716 24.2213 22.9918 23.9311C23.1674 23.8086 23.3138 23.6488 23.4203 23.4631C23.5643 23.2182 23.5607 23.0471 23.6959 22.9275C23.7696 22.8775 23.8511 22.8403 23.9372 22.8173C24.3865 22.6996 24.8196 22.5271 25.2268 22.3035C25.432 22.1934 25.6167 22.0488 25.7728 21.8761L25.778 21.8698C26.1648 21.4559 26.2621 20.9681 26.1035 20.5376ZM24.6771 21.3041C23.8072 21.7845 23.2289 21.7331 22.7791 22.0227C22.3969 22.2687 22.6231 22.7991 22.3454 22.9904C22.0043 23.226 20.996 22.9738 19.6934 23.4038C18.6191 23.759 17.9338 24.7803 16.0014 24.7803C14.0691 24.7803 13.3999 23.7611 12.3079 23.4012C11.0079 22.9712 9.99753 23.2234 9.65589 22.9878C9.37873 22.7965 9.60389 22.2661 9.22221 22.0201C8.77189 21.7305 8.19365 21.7819 7.32421 21.3041C6.77041 20.9983 7.08449 20.809 7.26909 20.7196C10.4203 19.1939 10.9231 16.8383 10.9455 16.6636C10.9725 16.4519 11.0027 16.2855 10.7697 16.0703C10.5446 15.8623 9.54565 15.244 9.26849 15.0505C8.80985 14.7302 8.60809 14.4104 8.75681 14.0173C8.86081 13.7453 9.11457 13.6429 9.38081 13.6429C9.46495 13.6432 9.54882 13.6526 9.63093 13.671C10.1343 13.7802 10.6231 14.0324 10.9054 14.1005C10.9394 14.1092 10.9744 14.1139 11.0094 14.1145C11.1602 14.1145 11.2133 14.0386 11.2029 13.866C11.1706 13.3153 11.0926 12.242 11.1795 11.2389C11.2986 9.85887 11.7432 9.17507 12.2715 8.57031C12.5252 8.27963 13.7176 7.01967 15.9978 7.01967C18.278 7.01967 19.4735 8.27443 19.7272 8.56407C20.2561 9.16883 20.7012 9.85263 20.8192 11.2327C20.9061 12.2358 20.8312 13.3096 20.7958 13.8597C20.7839 14.0412 20.8385 14.1083 20.9893 14.1083C21.0244 14.1077 21.0593 14.103 21.0933 14.0943C21.3762 14.0261 21.865 13.7739 22.3683 13.6647C22.4504 13.6463 22.5343 13.6369 22.6184 13.6367C22.8862 13.6367 23.1384 13.7407 23.2424 14.0111C23.3912 14.4042 23.1904 14.724 22.7313 15.0443C22.4541 15.2377 21.4552 15.8555 21.23 16.064C20.9966 16.2793 21.0272 16.4457 21.0543 16.6573C21.0766 16.8347 21.579 19.1903 24.7307 20.7133C24.9168 20.8064 25.2309 20.9957 24.6771 21.3041Z" fill="black"/>
</svg>
