<svg width="32" height="32" viewBox="0 0 32 32" fill="none" xmlns="http://www.w3.org/2000/svg">
<g clip-path="url(#clip0)">
<path d="M19.2894 16.4527C19.2894 17.3588 18.9467 18.5524 17.4182 18.5524C15.8897 18.5524 15.547 17.3588 15.547 16.4527V13.9551H16.6224V16.6064C16.6224 16.9491 16.717 17.3273 17.0242 17.5124C17.1267 17.5754 17.2527 17.6109 17.4064 17.6148H17.4182C17.5758 17.6148 17.7058 17.5754 17.8121 17.5124C18.1155 17.3273 18.21 16.9491 18.21 16.6064V13.9551H19.2894V16.4527V16.4527ZM14.9324 16.4527C14.9324 17.3588 14.5897 18.5524 13.0612 18.5524C11.5327 18.5524 11.19 17.3588 11.19 16.4527V14.877C10.9536 14.7864 10.7567 14.7115 10.3942 14.7115C9.69697 14.7115 9.15727 15.3418 9.15727 15.98V18.576H7.99515V13.9551H9.03515V14.7588L9.12576 14.5618C9.39758 13.9709 10.0633 13.5376 11.2648 13.9551H12.2655V16.6064C12.2655 16.953 12.3639 17.3273 12.6673 17.5124C12.7697 17.5754 12.8958 17.6109 13.0494 17.6148H13.0612C13.2188 17.6148 13.3488 17.5754 13.4552 17.5124C13.7585 17.3273 13.857 16.953 13.857 16.6064V13.9551H14.9324V16.4527ZM8.46 11.426L8.0503 12.2691C7.66722 12.0505 7.22267 11.9647 6.78576 12.0248C6.18303 12.1824 6.04909 12.596 6.04909 13.2264V13.9551H7.38455V14.8691H6.04515V18.5721H4.89091V14.8691H4.10303V13.9551H4.89091V12.9979C4.89091 12.0997 5.30849 11.1503 6.45485 10.973C7.15779 10.863 7.87624 11.025 8.46394 11.426H8.46ZM29 16.4133V16.0036C29 14.6327 28.2358 12.8482 26.1242 12.8482C25.5964 12.8482 25.1079 13.0018 24.7888 13.1673C24.4854 12.9827 24.1352 12.8897 23.7803 12.8994C23.4258 12.8994 23.0633 13.0018 22.8388 13.1357C22.4741 12.9414 22.0662 12.8425 21.653 12.8482C20.7982 12.8482 20.2506 13.1554 20.0064 13.3879C19.9827 13.2973 19.8527 13.1003 19.5336 13.1003H11.6745C11.2654 12.8942 10.8129 12.7889 10.3548 12.793C9.85061 12.793 9.40939 12.9112 9.03515 13.1003L8.90121 13.1712C8.79485 13.2224 8.65697 13.1003 8.70424 13.0018L9.55121 11.4024C9.65758 11.2015 9.61818 11.0518 9.38576 10.8588C8.49315 10.2128 7.3927 9.92088 6.29727 10.0394C4.47727 10.3191 3.94545 11.7333 3.94545 12.9979V13.1003H3.28364C3.07879 13.1003 3 13.2027 3 13.4154V15.4757C3 15.6964 3.08667 15.7673 3.28364 15.7673H3.94545V19.0488C3.94545 19.3639 4.09515 19.5491 4.41424 19.5491H6.50212C6.80152 19.5491 6.94727 19.3915 7.01424 19.1827C7.09303 19.3876 7.21909 19.5491 7.52636 19.5491H9.59849C9.91364 19.5491 10.1106 19.3639 10.1106 19.0488V16.9688C10.1106 16.8782 10.15 16.8585 10.213 16.8585C10.2682 16.8585 10.3194 16.8742 10.3233 16.9609C10.3864 18.2964 11.0009 19.5294 13.0652 19.5294C14.18 19.5294 14.8891 19.1039 15.2436 18.576C15.6061 19.1079 16.2955 19.5294 17.4221 19.5294C18.3085 19.5294 18.8442 19.2694 19.1948 18.9385C19.5021 20.0888 20.9755 20.4827 21.9248 20.3448C22.3818 20.2739 22.6655 20.0297 22.6891 19.7854C22.7167 19.49 22.4764 19.3639 22.0824 19.3876C21.7515 19.4033 21.3655 19.3994 21.0739 19.3482C20.3215 19.2103 19.9512 18.8006 19.9748 18.3397C19.9945 17.9221 20.2506 17.7094 20.5067 17.5557L20.4673 17.5242C20.0967 17.1367 19.8942 16.6185 19.9039 16.0824V15.7239C19.9039 14.94 20.2861 13.8645 21.6806 13.8645C22.091 13.8468 22.4948 13.9721 22.823 14.2191C23.0003 14.0221 23.3352 13.8409 23.8079 13.8409C24.2688 13.8409 24.647 14.0773 24.7888 14.3057C25.1483 14.0116 25.6008 13.8552 26.0652 13.8645C27.6133 13.8645 28.0585 15.1251 28.0585 16.0312V16.3857C28.0585 17.2879 27.5936 18.5524 26.0652 18.5524C24.5327 18.5524 24.0679 17.3154 24.0679 16.4133V16.1139C24.0679 15.7239 24.1545 15.3182 24.2964 14.9597C24.2373 14.8021 24.06 14.6091 23.7567 14.6091C23.4927 14.6091 23.343 14.7588 23.2839 14.8533C23.4021 15.1251 23.4573 15.4836 23.4573 15.72V16.0824C23.4573 16.8624 23.0752 17.9418 21.6845 17.9418C21.5844 17.9414 21.4845 17.9348 21.3852 17.9221C21.3418 17.9182 21.3182 17.9142 21.3064 17.9221C21.2039 17.9576 21.1409 18.0167 21.1212 18.1191C21.0897 18.3042 21.2197 18.4145 21.6058 18.4382C21.8342 18.4539 22.1258 18.4303 22.5355 18.4303C23.2288 18.4303 23.7173 18.9227 23.7173 19.6357C23.7173 20.5024 23.0318 21.3454 21.6255 21.3454C20.9242 21.3454 20.1285 21.1012 19.4903 20.6954C19.4076 20.6442 19.2894 20.6206 19.2067 20.7506L18.797 21.3848C18.6867 21.5582 18.793 21.6606 18.8521 21.7118C19.443 22.2042 20.6682 22.6691 21.9367 22.5982C23.7252 22.4997 24.9976 21.2509 24.773 19.2339C24.9936 19.3679 25.5373 19.5018 26.1124 19.5018C28.4052 19.5018 29 17.6897 29 16.4133V16.4133ZM20.8848 15.8106V15.9997C20.8848 16.4251 21.0542 17.0082 21.6767 17.0082C22.2991 17.0082 22.4724 16.4251 22.4724 15.9997V15.8106C22.4724 15.3851 22.2991 14.8021 21.6767 14.8021C21.0542 14.8021 20.8848 15.3851 20.8848 15.8106ZM26.0612 14.8021C25.3167 14.8021 25.1118 15.5467 25.1118 16.0864V16.3306C25.1118 16.8703 25.3167 17.6148 26.0573 17.6148C26.8058 17.6148 27.0106 16.8703 27.0106 16.3306V16.0864C27.0106 15.5467 26.8018 14.8021 26.0612 14.8021V14.8021Z" fill="#00A9FF"/>
</g>
<defs>
<clipPath id="clip0">
<rect width="26" height="12.6061" fill="white" transform="translate(3 10)"/>
</clipPath>
</defs>
</svg>
