<svg width="32" height="32" viewBox="0 0 32 32" fill="none" xmlns="http://www.w3.org/2000/svg">
<g clip-path="url(#clip0)">
<path d="M6.42181 15.9258C6.42181 14.3204 5.15913 13.0181 3.51403 13.0181C2.42091 13.0181 1.47209 13.6169 0.974233 14.508L2.39205 15.9258C2.39205 15.3053 2.91516 14.8039 3.51403 14.8039C4.14898 14.8039 4.63601 15.3053 4.63601 15.9258C4.63601 16.5464 4.14537 17.0478 3.51403 17.0478H3.51042H1.09689C0.498021 17.0478 0.0109863 17.5349 0.0109863 18.1337V18.8336H3.51403C5.1483 18.8336 6.42181 17.5313 6.42181 15.9258Z" fill="#0DBDFF"/>
<path d="M19.669 15.5831H21.0255C21.5522 15.5831 21.8264 15.3342 21.8264 14.8688C21.8264 14.3962 21.5522 14.1473 21.0255 14.1473H19.669V15.5831ZM20.4519 16.7159H19.669V18.8336H18.4532V13.6711C18.4532 13.3103 18.7454 13.0181 19.1098 13.0181H21.0616C22.3206 13.0181 23.0855 13.7757 23.0855 14.8616C23.0855 15.7346 22.5948 16.3984 21.7434 16.6329L23.2586 18.8336H21.8011L20.4519 16.7159ZM32 18.6785C31.7619 18.8336 31.4805 18.9419 31.1775 18.9419C30.3405 18.9419 29.9472 18.3682 29.9472 17.5529V13.3211L31.0981 13.0469V17.5637C31.0981 17.791 31.2099 17.9317 31.412 17.9317C31.4733 17.9317 31.5418 17.9173 31.6068 17.8884L32 18.6785ZM29.9905 18.6785C29.7524 18.8336 29.471 18.9419 29.168 18.9419C28.331 18.9419 27.9378 18.3682 27.9378 17.5529V13.8009L29.0886 13.5159V17.5637C29.0886 17.791 29.2005 17.9317 29.4025 17.9317C29.4638 17.9317 29.5324 17.9173 29.5973 17.8884L29.9905 18.6785ZM26.3793 16.7304C26.3793 16.0557 25.9463 15.5903 25.297 15.5903C24.6476 15.5903 24.2147 16.0485 24.2147 16.7304C24.2147 17.4122 24.6476 17.8704 25.297 17.8704C25.9463 17.8704 26.3793 17.4122 26.3793 16.7304ZM23.0386 16.7304C23.0386 15.4352 23.9874 14.5297 25.297 14.5297C26.6065 14.5297 27.5626 15.428 27.5626 16.7304C27.5626 18.0363 26.6029 18.9419 25.297 18.9419C23.9874 18.9419 23.0386 18.0363 23.0386 16.7304ZM9.77679 16.485L10.6066 14.2627L11.4363 16.485H9.77679ZM9.7335 13.4293L7.60498 18.8336H8.89652L9.35109 17.6142H11.8584L12.313 18.8336H13.6045L11.3137 13.0181H10.3432C10.0762 13.0181 9.83452 13.1804 9.7335 13.4293ZM15.6753 17.8704C15.0332 17.8704 14.593 17.4122 14.593 16.7304C14.593 16.0485 15.0332 15.5903 15.6753 15.5903C16.3175 15.5903 16.7576 16.0485 16.7576 16.7304C16.7576 17.4302 16.3067 17.8704 15.6753 17.8704ZM16.6819 15.0528C16.3969 14.7209 15.9639 14.5297 15.4408 14.5297C14.3152 14.5297 13.4169 15.428 13.4169 16.7231C13.4169 18.0291 14.3152 18.9419 15.4084 18.9419C15.9928 18.9419 16.451 18.6857 16.7432 18.26L16.7937 18.8336H17.8255V13.0181H17.3385C16.9777 13.0181 16.6819 13.3103 16.6819 13.6711V15.0528Z" fill="#333333"/>
</g>
<defs>
<clipPath id="clip0">
<rect width="32" height="5.95265" fill="white" transform="translate(0 13)"/>
</clipPath>
</defs>
</svg>
