<svg width="32" height="32" viewBox="0 0 32 32" fill="none" xmlns="http://www.w3.org/2000/svg">
<path d="M4.0024 10L6.06759 10.7264V17.9958L8.97642 16.3165L7.55031 15.6475L6.65032 13.4082L11.2336 15.0186V17.3597L6.06625 20.3382L4 19.1888L4.0024 10ZM13.3971 18.6101V12.6687H15.0876C15.6014 12.6687 16.0089 12.7943 16.3099 13.0458C16.6109 13.2974 16.7639 13.6246 16.7639 14.0278C16.7639 14.3649 16.6731 14.6575 16.4905 14.9091C16.3078 15.1607 16.0543 15.3313 15.7339 15.4363V15.4529C16.1345 15.4999 16.4549 15.651 16.6953 15.9069C16.9356 16.1627 17.0558 16.4944 17.0558 16.903C17.0558 17.4112 16.8734 17.8228 16.5089 18.1376C16.1443 18.4525 15.6845 18.6103 15.1292 18.6103L13.3971 18.6101ZM14.093 13.2955V15.2138H14.8056C15.1867 15.2138 15.4866 15.122 15.7048 14.9382C15.923 14.7545 16.0322 14.4957 16.0322 14.1638C16.0322 13.5864 15.6524 13.2979 14.8929 13.2979L14.093 13.2955ZM14.093 15.8396V17.9774H15.0376C15.4462 17.9774 15.7632 17.8807 15.9884 17.6874C16.2135 17.494 16.3259 17.2288 16.3259 16.8915C16.3259 16.1899 15.8452 15.8393 14.8924 15.8393L14.093 15.8396ZM18.2897 13.424C18.2322 13.4251 18.175 13.4147 18.1216 13.3934C18.0682 13.3721 18.0197 13.3402 17.9788 13.2998C17.9366 13.2592 17.9033 13.2102 17.8812 13.156C17.8591 13.1018 17.8486 13.0435 17.8503 12.9849C17.8487 12.9261 17.8593 12.8676 17.8813 12.8131C17.9034 12.7585 17.9365 12.7091 17.9785 12.6679C18.019 12.6269 18.0675 12.5945 18.1209 12.5728C18.1744 12.5511 18.2317 12.5405 18.2894 12.5416C18.4136 12.5416 18.5191 12.5838 18.6064 12.6679C18.6498 12.7083 18.6841 12.7575 18.7072 12.8121C18.7302 12.8668 18.7413 12.9257 18.7399 12.9849C18.7408 13.043 18.7297 13.1006 18.7072 13.1541C18.6848 13.2076 18.6514 13.2558 18.6093 13.2958C18.5679 13.3375 18.5184 13.3704 18.464 13.3925C18.4095 13.4145 18.3511 13.4254 18.2923 13.4243L18.2897 13.424ZM18.6208 18.6103H17.9414V14.3993H18.6181L18.6208 18.6103ZM23.2378 18.6098H22.5584V16.2212C22.5584 15.3207 22.255 14.8704 21.5977 14.8704C21.4375 14.8669 21.2784 14.8996 21.1325 14.9659C20.9865 15.0322 20.8574 15.1306 20.7546 15.2536C20.5322 15.5092 20.4208 15.8316 20.4208 16.2212V18.6098H19.7414V14.3993H20.4208V15.0891H20.4374C20.7578 14.5531 21.2118 14.2986 21.8042 14.2986C22.2683 14.2986 22.6233 14.4482 22.869 14.7481C23.1146 15.048 23.2375 15.4806 23.2375 16.0471L23.2378 18.6098ZM27.9995 18.2511C27.9995 19.8089 27.2536 20.5879 25.7623 20.5879C25.2375 20.5879 24.8049 20.4944 24.4126 20.2955L24.5907 19.7133C24.5907 19.7133 25.0514 20.0193 25.7537 20.0193C26.7953 20.0193 27.3198 19.474 27.3198 18.3636V17.9042H27.3032C26.9828 18.4455 26.525 18.7094 25.8758 18.7094C25.3483 18.7094 24.9235 18.5505 24.6019 18.1734C24.2804 17.7963 24.1196 17.2902 24.1196 16.6549C24.1196 15.9338 24.2932 15.3607 24.6396 14.9356C24.9859 14.5104 25.4605 14.2946 26.063 14.2946C26.6345 14.2946 27.0276 14.5238 27.304 14.9823H27.3206V14.3993H28L27.9995 18.2511ZM27.3201 16.6915V16.0997C27.3229 15.94 27.2942 15.7812 27.2355 15.6327C27.1769 15.4841 27.0894 15.3485 26.9782 15.2339C26.7504 14.9935 26.4863 14.8733 26.1466 14.8733C25.7268 14.8733 25.398 15.0256 25.1606 15.3311C24.9232 15.6366 24.8043 16.0636 24.8043 16.6135C24.8043 17.0862 24.9184 17.4296 25.1462 17.713C25.374 17.9963 25.6758 18.1403 26.0542 18.1403C26.4353 18.1403 26.7256 18.0049 26.9622 17.7344C27.1988 17.4638 27.3206 17.1169 27.3206 16.6944L27.3201 16.6915Z" fill="#008373"/>
</svg>
