<?xml version="1.0" encoding="UTF-8"?>
<svg fill="none" viewBox="0 0 32 32" xmlns="http://www.w3.org/2000/svg">
<path d="m7.66 19.601h-0.76054v-4.5399h0.76054v0.5553c0.27062-0.3873 0.7232-0.6066 1.2504-0.6066 0.08865 0 0.18197 0.0047 0.27062 0.0187l0.05599 0.0093v0.8119l-0.07932-0.0187c-0.13531-0.028-0.27062-0.042-0.40592-0.042-0.63923 0-1.0872 0.4713-1.0872 1.1478l-0.00466 2.6642z" fill="#2C2F33"/>
<path d="m16.502 19.591c0.7512 0 1.2924-0.2333 1.759-0.7558l0.042-0.0467-0.4852-0.5039-0.0467 0.0466c-0.3453 0.364-0.6625 0.5786-1.2644 0.5786-0.8446 0-1.3998-0.5459-1.4558-1.4231h3.4294l0.0047-0.0606c0.0093-0.126 0.0093-0.266 0.0093-0.2706 0-0.6206-0.1913-1.1852-0.5412-1.5958-0.3686-0.4339-0.8725-0.6625-1.4604-0.6625-1.3018 0-2.207 0.9891-2.207 2.4076v0.0326c-0.0046 1.3484 0.8865 2.2536 2.2163 2.2536zm-1.4091-2.7762c0.0747-0.6625 0.6859-1.1944 1.3951-1.1944 0.6579 0 1.1945 0.5272 1.2271 1.1944h-2.6222z" fill="#2C2F33"/>
<path d="m10.739 15.056h-0.76054v4.5445h0.76054v-4.5445z" fill="#2C2F33"/>
<path d="m13.352 19.652c-0.2333 0-0.5786-0.0233-0.8492-0.2332-0.2986-0.224-0.4479-0.6206-0.4479-1.1712v-4.2459h0.7605v1.0498h0.9892v0.7186h-0.9892v2.4775c0 0.5739 0.2006 0.6859 0.5272 0.6859 0.1307 0.0047 0.2613-0.0047 0.3873-0.0233l0.0747-0.014v0.6999l-0.0467 0.014c-0.1306 0.0326-0.2706 0.0466-0.4059 0.0419z" fill="#2C2F33"/>
<path d="m21.303 19.652c0.6158 0.0046 1.2084-0.238 1.6423-0.6719 0.448-0.4526 0.6906-1.0685 0.6859-1.7031 0.0093-0.6345-0.2379-1.2504-0.6859-1.703-0.9098-0.8958-2.3749-0.8958-3.2847 0-0.4479 0.4526-0.6906 1.0685-0.6812 1.703-0.0094 0.6393 0.2379 1.2505 0.6858 1.7077 0.4293 0.434 1.0219 0.6719 1.6378 0.6673zm0-4.0313c0.4245-0.0047 0.8305 0.1679 1.1198 0.4712 0.2846 0.3033 0.4432 0.7232 0.4432 1.1851 0 0.462-0.1586 0.8819-0.4432 1.1852-0.6019 0.6159-1.5911 0.6299-2.2117 0.028-0.0093-0.0094-0.0186-0.0187-0.0279-0.028-0.2847-0.3033-0.4433-0.7232-0.4433-1.1852 0-0.4619 0.1586-0.8818 0.4433-1.1851 0.2892-0.3033 0.6952-0.4759 1.1198-0.4712z" fill="#2C2F33"/>
<path d="m4.3425 19.652c-0.62056 0.0047-1.2131-0.2379-1.6564-0.6719-0.44792-0.4525-0.69521-1.0638-0.68588-1.703-0.00933-0.6346 0.23796-1.2504 0.68588-1.703 0.43859-0.434 1.0358-0.6766 1.6564-0.6719 0.66255 0 1.2411 0.2333 1.6657 0.6719l0.04199 0.042-0.46658 0.5552-0.04666-0.0513c-0.30795-0.3266-0.71854-0.4993-1.1945-0.4993-0.42459-0.0046-0.83519 0.168-1.1291 0.4713-0.28929 0.3033-0.44793 0.7232-0.44793 1.1851s0.15864 0.8818 0.44793 1.1851c0.29394 0.308 0.70454 0.4759 1.1291 0.4713 0.47125 0 0.88185-0.1727 1.1898-0.4946l0.04666-0.0513 0.46658 0.5505-0.04199 0.042c-0.41992 0.4433-0.99382 0.6719-1.661 0.6719z" fill="#2C2F33"/>
<path d="m10.357 13.176c-0.322 0.0046-0.58791-0.2567-0.59258-0.5833-0.00466-0.3219 0.25658-0.5879 0.58328-0.5925 0.3219-0.0047 0.5878 0.2566 0.5925 0.5832v0.0047c0 0.3266-0.2613 0.5879-0.5832 0.5879z" fill="url(#c)"/>
<path d="m29.417 19.652c-0.3219 0.0046-0.5879-0.2567-0.5925-0.5833-0.0047-0.3219 0.2566-0.5879 0.5832-0.5925 0.322-0.0047 0.5879 0.2566 0.5926 0.5832v0.0047c0 0.3266-0.2613 0.5879-0.5833 0.5879z" fill="url(#b)"/>
<path d="m27.756 18.789h-1.549c-0.4013 0-0.7233-0.3266-0.7233-0.7279v-4.5632c0-0.6578-0.5319-1.1851-1.1851-1.1851h-12.271v0.5273h12.201c0.4013 0 0.7232 0.3266 0.7232 0.7232v4.5632c0 0.6579 0.5319 1.1898 1.1852 1.1898h1.6143v-0.5273h0.0047z" fill="url(#a)"/>
<defs>
<linearGradient id="c" x1="5.5444" x2="31.82" y1="12.591" y2="12.591" gradientUnits="userSpaceOnUse">
<stop stop-color="#F68C21" offset="0"/>
<stop stop-color="#F16324" offset="1"/>
</linearGradient>
<linearGradient id="b" x1="5.5445" x2="31.82" y1="19.067" y2="19.067" gradientUnits="userSpaceOnUse">
<stop stop-color="#F68C21" offset="0"/>
<stop stop-color="#F16324" offset="1"/>
</linearGradient>
<linearGradient id="a" x1="5.5446" x2="31.82" y1="15.818" y2="15.818" gradientUnits="userSpaceOnUse">
<stop stop-color="#F68C21" offset="0"/>
<stop stop-color="#F16324" offset="1"/>
</linearGradient>
</defs>
</svg>
