<svg width="32" height="32" viewBox="0 0 32 32" fill="none" xmlns="http://www.w3.org/2000/svg">
<rect width="32" height="32" fill="white"/>
<path d="M13.6096 12.1149L14.9263 11.7808V18.5388H13.6096V12.1149ZM15.8205 18.5388H17.1667V14.117H15.823L15.8205 18.5388ZM16.4838 12.0019C16.3303 12.0019 16.1802 12.0474 16.0525 12.1327C15.9249 12.218 15.8254 12.3392 15.7666 12.4811C15.7079 12.6229 15.6925 12.779 15.7225 12.9296C15.7524 13.0802 15.8263 13.2185 15.9349 13.327C16.0435 13.4356 16.1818 13.5095 16.3324 13.5395C16.483 13.5694 16.639 13.5541 16.7809 13.4953C16.9227 13.4366 17.044 13.3371 17.1293 13.2094C17.2146 13.0817 17.2601 12.9317 17.2601 12.7781C17.2601 12.5722 17.1783 12.3748 17.0327 12.2292C16.8871 12.0836 16.6897 12.0019 16.4838 12.0019V12.0019ZM22.2518 14.6672V12.9992L20.6673 13.832L22.2518 14.6672ZM22.8193 18.5732H24.136V11.793L22.8193 12.1271V18.5732ZM25.7672 13.9597C24.5733 13.9597 24.3645 14.6746 24.2932 14.8171V14.962C24.3897 14.8356 24.5148 14.734 24.6584 14.6656C24.8019 14.5973 24.9597 14.5641 25.1186 14.569C25.2234 14.5598 25.329 14.5738 25.4277 14.6101C25.5264 14.6463 25.6159 14.704 25.6898 14.7788C25.7638 14.8536 25.8202 14.9439 25.8553 15.0431C25.8903 15.1423 25.903 15.2479 25.8925 15.3526V18.5732H27.2215V15.4582C27.2215 15.102 27.1772 13.9548 25.7475 13.9548L25.7672 13.9597ZM30.8228 17.8264C30.8228 17.8264 30.1349 18.3349 29.6633 17.8853C29.4823 17.6434 29.395 17.344 29.4176 17.0427V14.2619H30.7466L30.6729 14.1071H29.4176V12.7781L28.1009 13.1098V14.112H27.5138L27.5875 14.2668H28.1353V17.2147C28.1353 17.7895 28.2753 18.6542 29.4643 18.6542C30.6533 18.6542 30.9382 17.9173 30.9382 17.9173L30.8228 17.8264ZM7.59841 17.8853C7.41555 17.6443 7.32808 17.3443 7.35276 17.0427V14.2619H8.54174L8.46804 14.112H7.39206V12.7781L6.04586 13.1098V14.112H5.45383L5.52999 14.2619H6.04586V17.2098C6.04586 17.7846 6.20063 18.6493 7.38715 18.6493C8.57367 18.6493 8.86109 17.9123 8.86109 17.9123L8.78494 17.8288C8.78494 17.8288 8.09955 18.3373 7.62789 17.8878L7.59841 17.8853ZM17.9332 15.5491C17.9332 14.6918 18.7758 13.999 19.8149 13.999C20.854 13.999 21.6991 14.6918 21.6991 15.5491C21.6991 16.4065 20.8565 17.0992 19.8149 17.0992C18.7733 17.0992 17.9332 16.4065 17.9332 15.5491ZM19.331 15.5491C19.323 15.8593 19.3378 16.1697 19.3752 16.4777C19.3835 16.589 19.4336 16.693 19.5153 16.7689C19.5971 16.8448 19.7046 16.887 19.8161 16.887C19.9277 16.887 20.0352 16.8448 20.1169 16.7689C20.1987 16.693 20.2488 16.589 20.2571 16.4777C20.2945 16.1697 20.3093 15.8593 20.3013 15.5491C20.3093 15.2389 20.2946 14.9286 20.2571 14.6206C20.2488 14.5093 20.1987 14.4053 20.1169 14.3294C20.0352 14.2535 19.9277 14.2113 19.8161 14.2113C19.7046 14.2113 19.5971 14.2535 19.5153 14.3294C19.4336 14.4053 19.3835 14.5093 19.3752 14.6206C19.3377 14.9286 19.323 15.2389 19.331 15.5491V15.5491ZM22.2518 19.2585C22.2518 20.1355 21.6377 20.8701 19.8616 20.8701C18.3262 20.8701 17.5991 20.3321 17.5991 19.7056C17.6179 19.519 17.6861 19.3408 17.7966 19.1893C17.9072 19.0377 18.056 18.9183 18.228 18.8434C18.099 18.737 17.9952 18.6035 17.9238 18.4523C17.8525 18.3011 17.8154 18.136 17.8153 17.9688C17.8207 17.7419 17.8909 17.5211 18.0175 17.3327C18.1441 17.1443 18.322 16.9959 18.5301 16.9052L18.6235 16.9641C18.5406 16.9982 18.4683 17.0537 18.4139 17.1249C18.3595 17.1962 18.325 17.2805 18.314 17.3694C18.314 17.4203 18.324 17.4707 18.3435 17.5176C18.3631 17.5646 18.3917 17.6072 18.4278 17.643C18.4639 17.6789 18.5067 17.7072 18.5537 17.7265C18.6008 17.7457 18.6512 17.7555 18.7021 17.7551H20.7484C21.1456 17.7558 21.5264 17.9139 21.8073 18.1947C22.0882 18.4756 22.2463 18.8564 22.2469 19.2536L22.2518 19.2585ZM21.4731 19.7597C21.4728 19.6727 21.4553 19.5866 21.4216 19.5064C21.388 19.4262 21.3388 19.3534 21.2769 19.2923C21.2151 19.2311 21.1418 19.1827 21.0612 19.15C20.9806 19.1172 20.8944 19.1007 20.8074 19.1013H18.9527C18.87 19.0998 18.7877 19.0899 18.707 19.0718C18.5494 19.2628 18.4626 19.5023 18.4613 19.7499C18.4613 20.4107 19.2818 20.6981 19.9525 20.6981C20.2129 20.6981 21.4559 20.6391 21.4559 19.7597H21.4731ZM8.71124 14.1096L10.8337 18.7427L11.7033 17.0943L10.281 14.112L8.71124 14.1096ZM12.4231 15.6941L13.2657 14.112H11.61L12.4231 15.6941ZM9.72334 19.089C9.56971 19.0886 9.41938 19.1337 9.2914 19.2187C9.16342 19.3037 9.06354 19.4247 9.00441 19.5665C8.94528 19.7083 8.92956 19.8645 8.95923 20.0153C8.9889 20.166 9.06264 20.3045 9.17111 20.4134C9.27957 20.5222 9.41789 20.5963 9.56854 20.6265C9.71919 20.6566 9.8754 20.6414 10.0174 20.5827C10.1594 20.5241 10.2808 20.4246 10.3662 20.2968C10.4516 20.1691 10.4972 20.019 10.4972 19.8653C10.4972 19.6599 10.4157 19.4628 10.2707 19.3173C10.1256 19.1718 9.9288 19.0897 9.72334 19.089V19.089ZM1.17204 18.6567H2.73687L1.17204 17.3203V18.6567ZM4.78073 15.4632L2.66072 13.4758C2.50365 13.3278 2.41102 13.124 2.40278 12.9083C2.41423 12.6841 2.51391 12.4736 2.68006 12.3226C2.84621 12.1716 3.06533 12.0925 3.2896 12.1026H3.35593V11.9896H3.06851C1.96551 11.9896 1.06641 12.7265 1.06641 13.6527C1.0716 14.0444 1.22729 14.4191 1.50122 14.6992L3.63843 16.6963C3.83959 16.9056 3.95147 17.1848 3.95041 17.4751C3.9631 17.7441 3.86859 18.0071 3.68761 18.2065C3.50662 18.4059 3.25394 18.5254 2.98498 18.5388H2.90637V18.6567H3.23555C4.42207 18.6567 5.4047 17.8165 5.4047 16.7823C5.40181 16.5325 5.34551 16.2862 5.23958 16.06C5.13366 15.8337 4.98056 15.6327 4.79056 15.4705L4.78073 15.4632ZM5.05833 11.9896H3.51315L5.05833 13.3333V11.9896Z" fill="#010101"/>
</svg>
