<svg width="32" height="32" viewBox="0 0 32 32" fill="none" xmlns="http://www.w3.org/2000/svg">
<path fill-rule="evenodd" clip-rule="evenodd" d="M24.2992 9.433C25.3939 9.433 26.2814 8.54553 26.2814 7.45087C26.2814 6.35621 25.3939 5.46874 24.2992 5.46874C23.2046 5.46874 22.3171 6.35621 22.3171 7.45087C22.3171 8.54553 23.2046 9.433 24.2992 9.433ZM10.2573 8.82796L16.338 2.74727C16.8018 2.28342 17.446 2.00002 18.1546 2.00002H27.1733C27.512 1.99883 27.8477 2.06468 28.1608 2.19375C28.474 2.32282 28.7585 2.51258 28.998 2.75209C29.2375 2.9916 29.4273 3.27613 29.5564 3.58929C29.6855 3.90245 29.7513 4.23805 29.7501 4.57677V13.5955C29.7501 14.3041 29.4667 14.9483 28.99 15.4121L22.9186 21.4894L10.2573 8.82796Z" fill="#4285F4"/>
<path fill-rule="evenodd" clip-rule="evenodd" d="M22.9184 21.4895L15.425 28.9899C14.9483 29.4537 14.3041 29.7501 13.5955 29.7501C12.887 29.7501 12.2427 29.4537 11.7789 28.9899L2.76011 19.9712C2.2834 19.5073 2 18.8632 2 18.1545C2 17.433 2.29631 16.7888 2.76011 16.325L10.2571 8.828L22.9184 21.4895Z" fill="#34A853"/>
<path fill-rule="evenodd" clip-rule="evenodd" d="M7.1367 24.3475L2.76011 19.971C2.2834 19.5073 2 18.863 2 18.1544C2 17.433 2.29631 16.7888 2.76011 16.325L10.2571 8.828L16.4567 15.0277L7.1367 24.3475Z" fill="#FBBC05"/>
<path fill-rule="evenodd" clip-rule="evenodd" d="M28.8602 2.62415C28.3915 2.21952 27.7924 1.99786 27.1732 2.00002H18.1546C17.4459 2.00002 16.8018 2.28342 16.3379 2.74727L10.2573 8.82796L16.4568 15.0277L22.7711 8.71336C22.477 8.35844 22.3164 7.9118 22.3171 7.45088C22.3171 6.35621 23.2045 5.46874 24.2991 5.46874C24.7601 5.46803 25.2067 5.62864 25.5617 5.92273L28.8602 2.62415Z" fill="#EA4335"/>
<path d="M16.4531 19.7566C18.6767 19.7566 20.4793 17.954 20.4793 15.7304C20.4793 13.5068 18.6767 11.7042 16.4531 11.7042C14.2296 11.7042 12.427 13.5068 12.427 15.7304C12.427 17.954 14.2296 19.7566 16.4531 19.7566Z" fill="#4285F4"/>
<path fill-rule="evenodd" clip-rule="evenodd" d="M21.9386 14.546H16.5836V16.8435H19.666C19.3786 18.303 18.1771 19.1409 16.5836 19.1409C14.7029 19.1409 13.1878 17.5733 13.1878 15.6272C13.1878 13.6811 14.7029 12.1134 16.5836 12.1134C17.3935 12.1134 18.1248 12.4107 18.6995 12.8973L20.3713 11.1674C19.3526 10.2484 18.0465 9.68079 16.5836 9.68079C13.3968 9.68079 10.8369 12.3297 10.8369 15.6272C10.8369 18.9247 13.3968 21.5735 16.5836 21.5735C19.457 21.5735 22.0692 19.4112 22.0692 15.6272C22.0692 15.2758 22.0169 14.8974 21.9386 14.546Z" fill="white"/>
</svg>
