<svg width="32" height="32" viewBox="0 0 32 32" fill="none" xmlns="http://www.w3.org/2000/svg">
<g clip-path="url(#clip0)">
<path d="M3 16.0002C3 21.3235 6.20105 25.8967 10.7816 27.9073C10.7451 26.9995 10.7751 25.9098 11.0079 24.9221C11.2578 23.8667 12.6806 17.8383 12.6806 17.8383C12.6806 17.8383 12.2653 17.0082 12.2653 15.7814C12.2653 13.8549 13.3819 12.4161 14.7725 12.4161C15.955 12.4161 16.5263 13.3042 16.5263 14.3678C16.5263 15.5565 15.7681 17.3345 15.3782 18.9814C15.0525 20.3604 16.0697 21.4852 17.4301 21.4852C19.8932 21.4852 21.5521 18.3216 21.5521 14.5734C21.5521 11.7241 19.6331 9.59151 16.1427 9.59151C12.1992 9.59151 9.74253 12.5324 9.74253 15.8173C9.74253 16.9499 10.0765 17.7486 10.5995 18.3671C10.84 18.6512 10.8734 18.7654 10.7864 19.0917C10.724 19.3308 10.5808 19.9067 10.5215 20.1349C10.435 20.4642 10.1682 20.5819 9.8706 20.4603C8.05426 19.7188 7.20834 17.7297 7.20834 15.4937C7.20834 11.8008 10.3229 7.37267 16.4995 7.37267C21.4628 7.37267 24.7296 10.9643 24.7296 14.8197C24.7296 19.9195 21.8944 23.7294 17.7151 23.7294C16.3116 23.7294 14.9914 22.9707 14.5391 22.109C14.5391 22.109 13.7844 25.1043 13.6246 25.6827C13.3489 26.685 12.8094 27.6868 12.3161 28.4676C13.4853 28.8127 14.7204 29.0007 16.0005 29.0007C23.1794 29.0007 29.0001 23.1803 29.0001 16.0002C29.0001 8.82045 23.1794 3 16.0005 3C8.82095 3 3 8.82045 3 16.0002Z" fill="#CB1F27"/>
</g>
<defs>
<clipPath id="clip0">
<rect width="26" height="26" fill="white" transform="translate(3 3)"/>
</clipPath>
</defs>
</svg>
