<svg width="32" height="32" viewBox="0 0 32 32" fill="none" xmlns="http://www.w3.org/2000/svg">
<g clip-path="url(#clip0)">
<path fill-rule="evenodd" clip-rule="evenodd" d="M19.1299 20.1273C17.619 21.241 15.429 21.8352 13.5435 21.8352C10.8997 21.8352 8.51958 20.8573 6.71894 19.231C6.57747 19.1031 6.70423 18.9288 6.874 19.0284C8.81723 20.159 11.22 20.8392 13.7019 20.8392C15.3758 20.8392 17.2172 20.4929 18.9103 19.7742C19.1661 19.6656 19.38 19.9417 19.1299 20.1273Z" fill="#FF9900"/>
<path fill-rule="evenodd" clip-rule="evenodd" d="M19.7579 19.4087C19.5655 19.162 18.4813 19.2921 17.9947 19.3498C17.8464 19.3679 17.8238 19.2389 17.9573 19.1461C18.8209 18.5384 20.2378 18.7138 20.403 18.9175C20.5683 19.1223 20.36 20.5427 19.5486 21.2206C19.4241 21.3248 19.3052 21.2693 19.3607 21.1312C19.5429 20.6763 19.9515 19.6565 19.7579 19.4087Z" fill="#FF9900"/>
<path fill-rule="evenodd" clip-rule="evenodd" d="M18.0287 14.8557V14.2649C18.0287 14.1755 18.0966 14.1155 18.1781 14.1155H20.823C20.9079 14.1155 20.9758 14.1766 20.9758 14.2649V14.7708C20.9747 14.8557 20.9034 14.9666 20.7766 15.142L19.4061 17.0988C19.9153 17.0864 20.4529 17.1622 20.9147 17.4225C21.0188 17.4813 21.0471 17.5674 21.055 17.6522V18.2826C21.055 18.3686 20.96 18.4694 20.8604 18.4173C20.0466 17.9906 18.9658 17.9442 18.066 18.4218C17.9744 18.4716 17.8782 18.372 17.8782 18.286V17.6873C17.8782 17.5911 17.8793 17.427 17.9755 17.281L19.5634 15.0039H18.1815C18.0966 15.0039 18.0287 14.9439 18.0287 14.8557Z" fill="black"/>
<path fill-rule="evenodd" clip-rule="evenodd" d="M8.3803 18.5417H7.57562C7.49866 18.536 7.43754 18.4783 7.43188 18.4048V14.275C7.43188 14.1923 7.50092 14.1267 7.58694 14.1267H8.3373C8.41539 14.1301 8.47763 14.1901 8.48329 14.2648V14.8046H8.49801C8.6938 14.2829 9.06162 14.0396 9.55734 14.0396C10.061 14.0396 10.3756 14.2829 10.602 14.8046C10.7966 14.2829 11.2391 14.0396 11.7133 14.0396C12.0506 14.0396 12.4196 14.1788 12.6448 14.4911C12.8994 14.8386 12.8474 15.3433 12.8474 15.7859L12.8462 18.3923C12.8462 18.4749 12.7772 18.5417 12.6912 18.5417H11.8876C11.8073 18.536 11.7428 18.4715 11.7428 18.3923V16.2035C11.7428 16.0292 11.7586 15.5946 11.7201 15.4294C11.6602 15.1521 11.4802 15.074 11.2471 15.074C11.0524 15.074 10.8487 15.2041 10.7661 15.4124C10.6834 15.6206 10.6914 15.9692 10.6914 16.2035V18.3923C10.6914 18.4749 10.6223 18.5417 10.5363 18.5417H9.73276C9.65127 18.536 9.58789 18.4715 9.58789 18.3923L9.58676 16.2035C9.58676 15.7429 9.66259 15.0649 9.09105 15.0649C8.51272 15.0649 8.53535 15.7259 8.53535 16.2035V18.3923C8.53535 18.4749 8.46632 18.5417 8.3803 18.5417" fill="black"/>
<path fill-rule="evenodd" clip-rule="evenodd" d="M23.2527 14.0396C24.4467 14.0396 25.093 15.0649 25.093 16.3687C25.093 17.6284 24.3788 18.6277 23.2527 18.6277C22.0802 18.6277 21.4419 17.6023 21.4419 16.3246C21.4419 15.0389 22.0881 14.0396 23.2527 14.0396ZM23.2595 14.8827C22.6665 14.8827 22.6291 15.6908 22.6291 16.1944C22.6291 16.6992 22.6212 17.7766 23.2527 17.7766C23.8763 17.7766 23.9057 16.9074 23.9057 16.3778C23.9057 16.0292 23.891 15.6127 23.7858 15.2822C23.6952 14.9948 23.5153 14.8827 23.2595 14.8827Z" fill="black"/>
<path fill-rule="evenodd" clip-rule="evenodd" d="M26.6416 18.5417H25.8403C25.76 18.536 25.6955 18.4715 25.6955 18.3923L25.6943 14.2614C25.7011 14.1855 25.7679 14.1267 25.8494 14.1267H26.5952C26.6654 14.1301 26.7231 14.1776 26.739 14.2421V14.8737H26.7537C26.9789 14.3089 27.2946 14.0396 27.8503 14.0396C28.2114 14.0396 28.5634 14.1697 28.7897 14.5262C29.0002 14.8567 29.0002 15.4124 29.0002 15.8119V18.4116C28.9912 18.484 28.9244 18.5417 28.8452 18.5417H28.0382C27.9647 18.536 27.9035 18.4817 27.8956 18.4116V16.1684C27.8956 15.7168 27.9477 15.0559 27.392 15.0559C27.1962 15.0559 27.0162 15.1872 26.9268 15.3863C26.8136 15.6387 26.7989 15.89 26.7989 16.1684V18.3923C26.7978 18.4749 26.7276 18.5417 26.6416 18.5417" fill="black"/>
<path fill-rule="evenodd" clip-rule="evenodd" d="M15.9204 16.5691C15.9204 16.8826 15.9283 17.144 15.7699 17.4225C15.642 17.6488 15.4382 17.788 15.213 17.788C14.904 17.788 14.723 17.5526 14.723 17.2052C14.723 16.5193 15.3375 16.3948 15.9204 16.3948V16.5691ZM16.7319 18.5304C16.6787 18.578 16.6017 18.5814 16.5417 18.5497C16.2746 18.3279 16.226 18.2249 16.08 18.0132C15.6386 18.4637 15.3251 18.5984 14.7535 18.5984C14.0756 18.5984 13.5493 18.1807 13.5493 17.3444C13.5493 16.6913 13.9024 16.2466 14.4072 16.0293C14.8441 15.8369 15.4541 15.8029 15.9204 15.7497V15.6456C15.9204 15.4543 15.9351 15.228 15.8219 15.0627C15.7246 14.9145 15.5367 14.8533 15.3703 14.8533C15.0636 14.8533 14.7909 15.0107 14.7241 15.3366C14.7105 15.409 14.6573 15.4803 14.5838 15.4837L13.804 15.4C13.7383 15.3853 13.6648 15.3321 13.684 15.2314C13.8628 14.2852 14.7184 14 15.4835 14C15.8751 14 16.3867 14.1041 16.6956 14.4006C17.0872 14.7662 17.0499 15.254 17.0499 15.7848V17.0388C17.0499 17.4157 17.2061 17.5809 17.3532 17.7846C17.4041 17.857 17.4154 17.9442 17.3498 17.9985C17.1857 18.1355 16.8937 18.3901 16.733 18.5327L16.7319 18.5304" fill="black"/>
<path fill-rule="evenodd" clip-rule="evenodd" d="M5.37104 16.5693C5.37104 16.8828 5.37897 17.1443 5.22052 17.4227C5.09263 17.649 4.89004 17.7883 4.66369 17.7883C4.35472 17.7883 4.17477 17.5528 4.17477 17.2054C4.17477 16.5195 4.78932 16.3951 5.37104 16.3951V16.5693ZM6.18252 18.5307C6.12933 18.5782 6.05236 18.5816 5.99238 18.5499C5.72529 18.3281 5.67775 18.2251 5.53062 18.0135C5.08923 18.4639 4.77687 18.5986 4.2042 18.5986C3.5274 18.5986 3 18.181 3 17.3446C3 16.6916 3.35424 16.2468 3.85788 16.0295C4.29474 15.8371 4.90476 15.8031 5.37104 15.75V15.6458C5.37104 15.4546 5.38576 15.2282 5.27371 15.063C5.17525 14.9147 4.98738 14.8536 4.82214 14.8536C4.51543 14.8536 4.24154 15.0109 4.17477 15.3369C4.16119 15.4093 4.108 15.4806 4.03556 15.484L3.25465 15.4002C3.189 15.3855 3.11657 15.3323 3.13468 15.2316C3.31463 14.2854 4.16911 14.0002 4.93418 14.0002C5.32577 14.0002 5.83733 14.1044 6.1463 14.4009C6.53789 14.7664 6.50054 15.2542 6.50054 15.785V17.039C6.50054 17.4159 6.65673 17.5811 6.80386 17.7849C6.85592 17.8573 6.86723 17.9444 6.80159 17.9988C6.63749 18.1357 6.34549 18.3904 6.18478 18.533L6.18252 18.5307" fill="black"/>
</g>
<defs>
<clipPath id="clip0">
<rect width="26" height="7.8352" fill="white" transform="translate(3 14)"/>
</clipPath>
</defs>
</svg>
