<svg width="95" height="32" viewBox="0 0 95 32" fill="none" xmlns="http://www.w3.org/2000/svg">
<path d="M40.2605 16.4106C40.2605 20.8523 36.7857 24.1254 32.5214 24.1254C28.257 24.1254 24.7822 20.8523 24.7822 16.4106C24.7822 11.9375 28.257 8.6958 32.5214 8.6958C36.7857 8.6958 40.2605 11.9375 40.2605 16.4106ZM36.8727 16.4106C36.8727 13.6349 34.8587 11.7358 32.5214 11.7358C30.184 11.7358 28.1701 13.6349 28.1701 16.4106C28.1701 19.1584 30.184 21.0854 32.5214 21.0854C34.8587 21.0854 36.8727 19.1549 36.8727 16.4106Z" fill="#EA4335"/>
<path d="M56.9568 16.4106C56.9568 20.8523 53.482 24.1254 49.2176 24.1254C44.9533 24.1254 41.4785 20.8523 41.4785 16.4106C41.4785 11.941 44.9533 8.6958 49.2176 8.6958C53.482 8.6958 56.9568 11.9375 56.9568 16.4106ZM53.5689 16.4106C53.5689 13.6349 51.555 11.7358 49.2176 11.7358C46.8803 11.7358 44.8663 13.6349 44.8663 16.4106C44.8663 19.1584 46.8803 21.0854 49.2176 21.0854C51.555 21.0854 53.5689 19.1549 53.5689 16.4106Z" fill="#FBBC05"/>
<path d="M72.9566 9.16189V23.0123C72.9566 28.7097 69.5966 31.0367 65.6244 31.0367C61.8853 31.0367 59.6348 28.5358 58.7861 26.4906L61.7357 25.2628C62.2609 26.5184 63.5479 28.0001 65.6209 28.0001C68.1635 28.0001 69.7392 26.4314 69.7392 23.4784V22.3688H69.6209C68.8626 23.3045 67.4018 24.1219 65.5583 24.1219C61.7009 24.1219 58.167 20.7619 58.167 16.4384C58.167 12.0836 61.7009 8.6958 65.5583 8.6958C67.3983 8.6958 68.8592 9.51319 69.6209 10.421H69.7392V9.16537H72.9566V9.16189ZM69.9792 16.4384C69.9792 13.7219 68.167 11.7358 65.8609 11.7358C63.5235 11.7358 61.5653 13.7219 61.5653 16.4384C61.5653 19.1271 63.5235 21.0854 65.8609 21.0854C68.167 21.0854 69.9792 19.1271 69.9792 16.4384Z" fill="#4285F4"/>
<path d="M78.3044 1V23.6087H75V1H78.3044Z" fill="#34A853"/>
<path d="M91.1375 18.9493L93.7671 20.7023C92.9184 21.958 90.8732 24.1215 87.3393 24.1215C82.9566 24.1215 79.6836 20.7336 79.6836 16.4067C79.6836 11.8188 82.9845 8.69189 86.9601 8.69189C90.9636 8.69189 92.9219 11.878 93.5619 13.5997L93.9132 14.4762L83.6001 18.7475C84.3897 20.2954 85.6175 21.0849 87.3393 21.0849C89.0645 21.0849 90.261 20.2362 91.1375 18.9493ZM83.0436 16.1736L89.9375 13.311C89.5584 12.3475 88.4175 11.6762 87.0749 11.6762C85.3532 11.6762 82.9566 13.1962 83.0436 16.1736Z" fill="#EA4335"/>
<path d="M12.2746 14.4036V11.1305H23.3041C23.412 11.701 23.4676 12.3757 23.4676 13.1062C23.4676 15.5618 22.7963 18.5984 20.6328 20.7618C18.5285 22.9531 15.8398 24.1218 12.278 24.1218C5.6763 24.1218 0.125 18.7444 0.125 12.1427C0.125 5.54097 5.6763 0.163574 12.278 0.163574C15.9302 0.163574 18.532 1.59662 20.4867 3.46444L18.1772 5.77401C16.7754 4.45923 14.8763 3.43662 12.2746 3.43662C7.4537 3.43662 3.68326 7.32184 3.68326 12.1427C3.68326 16.9636 7.4537 20.8488 12.2746 20.8488C15.4015 20.8488 17.1824 19.5931 18.3233 18.4523C19.2485 17.5271 19.8572 16.2053 20.0972 14.4001L12.2746 14.4036Z" fill="#4285F4"/>
</svg>
