<svg width="32" height="32" viewBox="0 0 32 32" fill="none" xmlns="http://www.w3.org/2000/svg">
<g clip-path="url(#clip0)">
<path d="M7.61899 15.5601C7.61899 14.1553 6.51414 13.0157 5.07468 13.0157C4.1182 13.0157 3.28799 13.5398 2.85236 14.3195L4.09295 15.5601C4.09295 15.0171 4.55067 14.5783 5.07468 14.5783C5.63027 14.5783 6.05642 15.0171 6.05642 15.5601C6.05642 16.103 5.62711 16.5418 5.07468 16.5418H5.07153H2.95969C2.43568 16.5418 2.00952 16.9679 2.00952 17.492V18.1044H5.07468C6.50467 18.1044 7.61899 16.9648 7.61899 15.5601Z" fill="#0DBDFF"/>
<path d="M19.2106 15.2602H20.3975C20.8584 15.2602 21.0983 15.0424 21.0983 14.6351C21.0983 14.2216 20.8584 14.0038 20.3975 14.0038H19.2106V15.2602ZM19.8956 16.2514H19.2106V18.1044H18.1468V13.5871C18.1468 13.2714 18.4025 13.0157 18.7213 13.0157H20.4291C21.5307 13.0157 22.2 13.6787 22.2 14.6288C22.2 15.3927 21.7707 15.9736 21.0257 16.1788L22.3515 18.1044H21.0762L19.8956 16.2514ZM30.0002 17.9686C29.7918 18.1044 29.5456 18.1991 29.2805 18.1991C28.5481 18.1991 28.204 17.6971 28.204 16.9837V13.2809L29.211 13.041V16.9932C29.211 17.1921 29.3089 17.3152 29.4856 17.3152C29.5393 17.3152 29.5993 17.3026 29.6561 17.2773L30.0002 17.9686ZM28.2419 17.9686C28.0336 18.1044 27.7873 18.1991 27.5222 18.1991C26.7898 18.1991 26.4457 17.6971 26.4457 16.9837V13.7008L27.4527 13.4514V16.9932C27.4527 17.1921 27.5506 17.3152 27.7274 17.3152C27.781 17.3152 27.841 17.3026 27.8978 17.2773L28.2419 17.9686ZM25.082 16.264C25.082 15.6737 24.7032 15.2665 24.135 15.2665C23.5668 15.2665 23.188 15.6674 23.188 16.264C23.188 16.8606 23.5668 17.2615 24.135 17.2615C24.7032 17.2615 25.082 16.8606 25.082 16.264ZM22.1589 16.264C22.1589 15.1307 22.9891 14.3384 24.135 14.3384C25.2809 14.3384 26.1174 15.1244 26.1174 16.264C26.1174 17.4067 25.2778 18.1991 24.135 18.1991C22.9891 18.1991 22.1589 17.4067 22.1589 16.264ZM10.5549 16.0493L11.2809 14.1048L12.007 16.0493H10.5549ZM10.517 13.3756L8.65454 18.1044H9.78464L10.1824 17.0374H12.3763L12.774 18.1044H13.9041L11.8996 13.0157H11.0505C10.8169 13.0157 10.6054 13.1578 10.517 13.3756ZM15.7161 17.2615C15.1542 17.2615 14.7691 16.8606 14.7691 16.264C14.7691 15.6674 15.1542 15.2665 15.7161 15.2665C16.278 15.2665 16.6631 15.6674 16.6631 16.264C16.6631 16.8764 16.2685 17.2615 15.7161 17.2615ZM16.5968 14.7961C16.3474 14.5057 15.9686 14.3384 15.5109 14.3384C14.526 14.3384 13.74 15.1244 13.74 16.2577C13.74 17.4004 14.526 18.1991 15.4825 18.1991C15.9939 18.1991 16.3948 17.9749 16.6505 17.6024L16.6947 18.1044H17.5975V13.0157H17.1713C16.8557 13.0157 16.5968 13.2714 16.5968 13.5871V14.7961Z" fill="#333333"/>
</g>
<defs>
<clipPath id="clip0">
<rect width="28" height="5.20857" fill="white" transform="translate(2 13)"/>
</clipPath>
</defs>
</svg>
