<svg width="32" height="32" viewBox="0 0 32 32" fill="none" xmlns="http://www.w3.org/2000/svg">
<path d="M30 16C30 8.2674 23.7326 2 16 2C8.2674 2 2 8.2674 2 16C2 22.9885 7.11671 28.7803 13.8137 29.8312V20.0504H10.2619V16H13.8137V12.9162C13.8137 9.41041 15.9003 7.46959 19.0992 7.46959C20.6334 7.46959 22.2367 7.74575 22.2367 7.74575V11.1901H20.4723C18.731 11.1901 18.194 12.2718 18.194 13.3764V16H22.0756L21.4542 20.0504H18.194V29.8312C24.8833 28.7803 30 22.9885 30 16Z" fill="#1877F2"/>
<path d="M21.4465 20.0503L22.0678 15.9999H18.1862V13.3763C18.1862 12.2717 18.7309 11.19 20.4646 11.19H22.2289V7.74565C22.2289 7.74565 20.6257 7.46948 19.0914 7.46948C15.8925 7.46948 13.8059 9.4103 13.8059 12.9161V15.9999H10.2542V20.0503H13.8059V29.8311C14.5194 29.9462 15.2481 29.9999 15.9922 29.9999C16.7363 29.9999 17.4651 29.9385 18.1785 29.8311V20.0503H21.4465Z" fill="white"/>
</svg>
