<svg width="86" height="32" viewBox="0 0 86 32" fill="none" xmlns="http://www.w3.org/2000/svg">
<g clip-path="url(#clip0)">
<path fill-rule="evenodd" clip-rule="evenodd" d="M46.4135 13.0152C44.7445 14.6846 44.7445 17.3908 46.4135 19.0602C47.2189 19.8534 48.3048 20.2966 49.4351 20.2936C50.0785 20.2936 50.8135 20.2052 51.4568 19.5786L51.5451 19.4902V20.1336H53.7118V11.9436H51.5451V12.6586L51.4568 12.5869C50.9112 12.069 50.1874 11.7808 49.4351 11.7819C48.3035 11.7722 47.2152 12.2165 46.4135 13.0152ZM49.4435 18.1486C48.2781 18.1486 47.3335 17.2039 47.3335 16.0386C47.3335 14.8719 48.2985 13.8719 49.4435 13.8719C50.5885 13.8719 51.5535 14.8719 51.5535 16.0386C51.5535 17.2039 50.6088 18.1486 49.4435 18.1486ZM43.1401 19.0606C44.8091 17.3912 44.8091 14.685 43.1401 13.0156C42.3349 12.2222 41.2489 11.7789 40.1185 11.7823C39.4751 11.7823 38.7418 11.8723 38.0968 12.4973L38.0085 12.5873V11.944H35.8418V24.8906L38.0085 24.2073V19.419L38.0968 19.4906C38.643 20.0073 39.3666 20.2949 40.1185 20.294C41.2502 20.304 42.3386 19.8597 43.1401 19.0606ZM40.1185 13.9286C41.2838 13.9286 42.2285 14.8732 42.2285 16.0386C42.2285 17.2052 41.2635 18.2052 40.1185 18.2052C38.9735 18.2052 38.0085 17.2052 38.0085 16.0386C38.0085 14.8732 38.9531 13.9286 40.1185 13.9286ZM57.8235 20.1519L55.8735 24.8902H58.2168L63.4385 11.9435H61.0601L58.9851 17.0385L56.9468 11.9435H54.5501L57.8235 20.1519Z" fill="#373737"/>
<path fill-rule="evenodd" clip-rule="evenodd" d="M46.4129 13.0152C44.7439 14.6846 44.7439 17.3908 46.4129 19.0602C47.2183 19.8534 48.3042 20.2966 49.4345 20.2936C50.0779 20.2936 50.8129 20.2052 51.4562 19.5786L51.5445 19.4902V20.1336H53.7112V11.9436H51.5445V12.6586L51.4562 12.5869C50.9106 12.069 50.1868 11.7808 49.4345 11.7819C48.3029 11.7722 47.2146 12.2165 46.4129 13.0152ZM49.4429 18.1486C48.2776 18.1486 47.3329 17.2039 47.3329 16.0386C47.3329 14.8719 48.2979 13.8719 49.4429 13.8719C50.5879 13.8719 51.5529 14.8719 51.5529 16.0386C51.5529 17.2039 50.6082 18.1486 49.4429 18.1486Z" fill="#373737"/>
<path fill-rule="evenodd" clip-rule="evenodd" d="M55.8731 24.89L57.8231 20.1517L54.5498 11.9434H56.9465L58.9848 17.0384L61.0598 11.9434H63.4381L58.2165 24.89H55.8731Z" fill="#373737"/>
<path fill-rule="evenodd" clip-rule="evenodd" d="M10.7882 20.0284V13.3034H9.5732V12.0484H10.7882V9.69006C10.7854 8.99929 11.061 8.33652 11.5527 7.85137C12.0444 7.36623 12.7109 7.09961 13.4015 7.11172H15.0682L14.7349 8.36839H13.4382C12.707 8.39676 12.1265 8.9934 12.1182 9.72506V12.0484H14.6382V13.3034H12.1165V20.0284H10.7882ZM0.0332031 16.0401C0.0332031 18.3412 1.89868 20.2067 4.19987 20.2067V20.2117C5.33154 20.2117 6.28487 19.6101 6.88487 19.1101L7.05154 18.9651V20.0334H8.38487V12.0534H7.05154V13.1201L6.88487 12.9751C6.28487 12.4734 5.33154 11.8734 4.19987 11.8734C1.89868 11.8734 0.0332031 13.7389 0.0332031 16.0401ZM1.52578 14.9312C1.97721 13.8555 3.0333 13.1586 4.19987 13.1667C5.78026 13.175 7.05731 14.458 7.05821 16.0384C7.06088 17.205 6.35913 18.2578 5.28132 18.7043C4.20352 19.1507 2.96285 18.9024 2.13986 18.0756C1.31687 17.2487 1.07435 16.0069 1.52578 14.9312ZM17.0299 17.415C17.0317 18.8569 18.1996 20.0256 19.6415 20.0284H21.3065L20.9732 18.7717H19.6782C18.9865 18.7717 18.3565 18.1084 18.3565 17.3784V13.3034H20.8849V12.0484H18.3632V7.1117H17.0299V12.0484H15.8132V13.3034H17.0299V17.415ZM22.6632 18.9501C23.3418 19.7265 24.3237 20.1703 25.3549 20.1667C26.0948 20.1452 26.8181 19.9426 27.4615 19.5767C27.8228 19.3562 28.1525 19.0876 28.4415 18.7784L27.3349 18.1117C26.7783 18.615 26.0644 18.9096 25.3149 18.9451C24.0832 18.9267 23.0182 17.8567 22.8332 16.4451V16.3034H29.1699C29.1818 15.9072 29.1499 15.5109 29.0749 15.1217C28.9245 14.3985 28.5786 13.7304 28.0749 13.1901C27.3836 12.4265 26.4016 11.9909 25.3715 11.9909C24.3415 11.9909 23.3595 12.4265 22.6682 13.1901C22.1714 13.7371 21.8266 14.4049 21.6682 15.1267C21.5996 15.4365 21.5644 15.7528 21.5632 16.0701C21.5602 16.1931 21.5663 16.3162 21.5815 16.4384C21.6446 17.3746 22.0263 18.261 22.6632 18.9501ZM22.9849 15.0434C23.3765 13.95 24.3299 13.21 25.3549 13.21L25.3565 13.1984C26.4015 13.1984 27.3549 13.9434 27.7215 15.0317L27.8165 15.22H22.8965L22.9715 15.0667L22.9849 15.0434ZM30.4615 12.0484V20.0284L31.7949 20.0351V15.7767C31.7949 14.3834 32.9699 13.2467 34.4282 13.2051L34.7532 11.8717C33.8332 11.9117 32.4499 12.3351 31.9799 12.8534L31.7949 13.0567V12.0484H30.4615Z" fill="#373737"/>
<path fill-rule="evenodd" clip-rule="evenodd" d="M74.897 14.205L77.2203 12.8601C76.9637 12.4084 77.027 12.5167 76.7937 12.0917C76.5603 11.6667 76.6387 11.465 77.1503 11.4601C78.6425 11.4501 80.1337 11.4501 81.6237 11.4601C82.067 11.4601 82.1737 11.6517 81.957 12.0417C81.2181 13.3395 80.4726 14.6323 79.7203 15.92C79.4803 16.3317 79.2703 16.33 79.0187 15.92C78.767 15.51 78.8303 15.6084 78.5537 15.14L76.237 16.485C76.2797 16.5819 76.3304 16.675 76.3887 16.7634C76.9637 17.7634 77.222 18.24 77.812 19.2267C78.5153 20.3934 79.987 20.4667 80.8237 19.3934C80.917 19.2731 81.0022 19.1467 81.0787 19.015C82.4853 16.5773 83.8898 14.1384 85.292 11.6984C85.4419 11.452 85.5542 11.1846 85.6253 10.9051C85.7442 10.3835 85.6187 9.83612 85.2844 9.41844C84.9502 9.00076 84.4436 8.75836 83.9087 8.76005C80.892 8.74505 77.877 8.74172 74.862 8.76838C74.2367 8.75916 73.6528 9.07996 73.3252 9.61267C72.9977 10.1454 72.9749 10.8112 73.2653 11.3651C73.462 11.7584 73.6987 12.1317 73.9203 12.5134C74.3353 13.2301 74.4453 13.4201 74.9037 14.2084" fill="#2778B3"/>
<path fill-rule="evenodd" clip-rule="evenodd" d="M68.1915 21.735C68.1915 20.83 68.1915 19.0683 68.1915 19.0683C68.1915 19.0683 67.8198 19.0683 67.3198 19.0683C66.8198 19.0683 66.7031 18.8883 66.9548 18.4467C67.6903 17.1633 68.4326 15.8856 69.1815 14.6133C69.4031 14.2333 69.6015 14.2 69.8481 14.6217C70.5898 15.9033 71.3315 17.185 72.0615 18.4717C72.2948 18.8833 72.1898 19.0617 71.7198 19.0767H70.8181V21.76H73.9548C75.3081 21.74 76.1031 20.5117 75.5915 19.26C75.5345 19.1196 75.4682 18.9832 75.3931 18.8517C74.0031 16.4306 72.6103 14.0106 71.2148 11.5917C71.0779 11.3411 70.9044 11.1125 70.6998 10.9133C70.3147 10.5474 69.7836 10.3774 69.2576 10.4517C68.7316 10.5261 68.2683 10.8366 67.9998 11.295C66.4865 13.8761 64.9865 16.4644 63.4998 19.06C63.1782 19.5919 63.1612 20.254 63.4552 20.8016C63.7492 21.3492 64.3105 21.7009 64.9315 21.7267C65.3681 21.7533 67.2265 21.7383 68.1865 21.7383" fill="#074578"/>
</g>
<defs>
<clipPath id="clip0">
<rect width="85.95" height="32" fill="white"/>
</clipPath>
</defs>
</svg>
