<svg width="50" height="30" viewBox="0 0 50 30" fill="none" xmlns="http://www.w3.org/2000/svg">
<path fill-rule="evenodd" clip-rule="evenodd" d="M2 0H48C49.1046 0 50 0.89543 50 2V28C50 29.1046 49.1046 30 48 30H2C0.89543 30 0 29.1046 0 28V2C0 0.89543 0.89543 0 2 0Z" fill="white"/>
<path d="M2 0.75H48C48.6904 0.75 49.25 1.30964 49.25 2V28C49.25 28.6904 48.6904 29.25 48 29.25H2C1.30964 29.25 0.75 28.6904 0.75 28V2C0.75 1.30964 1.30964 0.75 2 0.75Z" stroke="#E6772F" stroke-width="1.5"/>
<path fill-rule="evenodd" clip-rule="evenodd" d="M26.0837 16.4919C27.8272 16.4919 29.2393 15.1402 29.2393 13.4725C29.2393 11.8046 27.8272 10.4526 26.0837 10.4526C24.3406 10.4526 22.9283 11.8046 22.9283 13.4725C22.9283 15.1402 24.3406 16.4919 26.0837 16.4919ZM48 30H12.0577C36.5998 25.934 50 16.849 50 16.849V28C50 29.1046 49.1046 30 48 30Z" fill="#E6772F"/>
<path fill-rule="evenodd" clip-rule="evenodd" d="M20.9326 16.4825C19.1339 16.4825 17.7365 15.1625 17.7365 13.4591C17.7365 11.7763 19.1684 10.4304 20.9568 10.4304C21.4683 10.4304 21.8927 10.5341 22.4101 10.7844V12.1141C21.9202 11.6524 21.4925 11.4625 20.9326 11.4625C19.823 11.4625 18.9538 12.3415 18.9538 13.451C18.9538 14.6252 19.7957 15.4482 20.9843 15.4482C21.5216 15.4482 21.9369 15.2687 22.4101 14.8137V16.1449C21.8746 16.3867 21.4398 16.4825 20.9326 16.4825ZM15.6221 12.7814C14.9121 12.5322 14.7045 12.3662 14.7045 12.0532C14.7045 11.6893 15.0754 11.4133 15.5855 11.4133C15.939 11.4133 16.2302 11.5487 16.5404 11.8795L17.1546 11.1085C16.6471 10.6812 16.0398 10.4648 15.3777 10.4648C14.3064 10.4648 13.4899 11.178 13.4899 12.1211C13.4899 12.9218 13.8694 13.3279 14.9772 13.7137C15.4402 13.8677 15.6755 13.973 15.7946 14.0443C16.0306 14.1903 16.1481 14.3994 16.1481 14.6412C16.1481 15.1124 15.758 15.4588 15.2305 15.4588C14.669 15.4588 14.2147 15.1898 13.9428 14.6846L13.1817 15.3899C13.7258 16.1528 14.3781 16.4938 15.2766 16.4938C16.5021 16.4938 17.3656 15.7086 17.3656 14.5904C17.3656 13.6689 16.9651 13.2513 15.6221 12.7814ZM7.52695 15.3724C8.29106 15.3724 8.76889 15.232 9.14425 14.9111C9.55063 14.5654 9.79484 14.0092 9.79484 13.451C9.79484 12.8955 9.55063 12.3584 9.14425 12.0102C8.75056 11.6733 8.29106 11.5424 7.52695 11.5424H7.20988V15.3724H7.52695ZM6.02881 10.5613H7.76363C9.67731 10.5613 11.0123 11.7491 11.0123 13.4591C11.0123 14.3133 10.6031 15.1378 9.91353 15.6839C9.33298 16.1449 8.67064 16.3539 7.75305 16.3539H6.02881V10.5613ZM12.7333 10.5613H11.5569V16.3539H12.7333V10.5613ZM31.9743 14.4502L30.36 10.5613H29.0729L31.6391 16.5001H32.2721L34.888 10.5613H33.6111L31.9743 14.4502ZM38.7713 16.3539H35.4237V10.5613H38.7713V11.5424H36.6047V12.8275H38.6891V13.8088H36.6047V15.3724H38.7713V16.3539ZM43.4446 12.2704C43.4446 11.1857 42.6671 10.5613 41.3041 10.5613H39.5507V16.3539H40.7344V14.0249H40.8878L42.5188 16.3539H43.9711L42.0666 13.9125C42.9566 13.7384 43.4446 13.1568 43.4446 12.2704ZM40.7344 13.2249H41.077C41.8339 13.2249 42.229 12.9132 42.229 12.3334C42.229 11.7691 41.8339 11.4729 41.0963 11.4729H40.7344V13.2249Z" fill="#1A1919"/>
</svg>
