<svg width="50" height="30" viewBox="0 0 50 30" fill="none" xmlns="http://www.w3.org/2000/svg">
<path fill-rule="evenodd" clip-rule="evenodd" d="M34.2847 0L47.9852 0C49.0909 0 49.9862 0.895591 49.9867 2.00036L50.0001 27.9996C50.0006 29.1022 49.1049 30 47.9994 30H27.2201C25.6788 29.9762 24.7207 28.6856 25.0729 27.0994L30.4175 2.89621C30.7697 1.32471 32.7034 0.0502709 34.2847 0Z" fill="#01798A"/>
<path fill-rule="evenodd" clip-rule="evenodd" d="M0 2.00036C0 0.895591 0.895911 0 2.00167 0H22.5V30H2.00167C0.896177 30 0 29.1022 0 27.9996V2.00036Z" fill="#DD0228"/>
<path fill-rule="evenodd" clip-rule="evenodd" d="M30.5486 2.8989C30.901 1.32756 32.8357 0.0532464 34.3892 0.00457164L29.8931 0.00159101L19.2926 0C17.7348 0.0325834 15.7748 1.31584 15.4226 2.8989L10.0733 27.0997C9.71963 28.6857 10.6797 29.9763 12.2209 30H27.3494C25.8071 29.9763 24.8485 28.6857 25.2009 27.0997L30.5486 2.8989Z" fill="#024381"/>
<path fill-rule="evenodd" clip-rule="evenodd" d="M21.837 0.0666504L29.8753 0.0872731L21.7748 0.0797769C21.7958 0.0732076 21.8168 0.0666504 21.837 0.0666504ZM34.3973 0.0775411L29.8754 0.0709839L34.3715 0.0850374C34.3757 0.0850374 34.38 0.0831845 34.3843 0.0813213C34.3886 0.0794369 34.3929 0.0775419 34.3973 0.0775419V0.0775411ZM13.1287 12.3639C12.9699 13.1546 12.6017 13.7619 12.0306 14.1931C11.4647 14.6171 10.7348 14.8297 9.84116 14.8297C9.00016 14.8297 8.38361 14.6126 7.99016 14.1769C7.71729 13.8674 7.58154 13.4743 7.58154 12.999C7.58154 12.8025 7.6047 12.5912 7.65091 12.3639L8.60306 7.6991H10.0411L9.10191 12.311C9.07301 12.4387 9.06147 12.5575 9.06298 12.6646C9.06147 12.9008 9.1192 13.0944 9.23614 13.2454C9.40651 13.47 9.68301 13.5814 10.0678 13.5814C10.5103 13.5814 10.8749 13.4714 11.1578 13.2498C11.4409 13.0298 11.6257 12.7174 11.7087 12.311L12.6508 7.6991H14.0816L13.1287 12.3639ZM27.4425 17.1197L27.499 16.6224H26.2946L24.5896 23.0153C24.508 23.3188 24.7138 23.47 25.2083 23.47H26.4968L26.6831 22.7732H26.1763C26.0464 22.7732 25.9972 22.7116 26.032 22.5913L26.6354 20.3468H29.2112C29.7571 20.3468 30.0661 20.165 30.1382 19.7996L31.0073 16.6031H28.7347C28.1197 16.6031 27.4425 17.1197 27.4425 17.1197ZM29.4236 17.526H27.3952L27.1525 18.3885C27.1525 18.3885 27.4903 18.1407 28.0548 18.1318C28.6178 18.1229 29.2604 18.1318 29.2604 18.1318L29.4236 17.526ZM28.6887 19.5269C28.8387 19.5475 28.9226 19.4872 28.9327 19.3449L29.0568 18.8903H27.0253L26.8549 19.5269H28.6887ZM22.19 17.5875H21.9936L21.7727 18.4061H22.7883C23.1207 18.4252 23.3971 18.2638 23.6216 17.9206H25.5714L25.7793 17.1386H24.1407L24.4257 16.6282H23.0591L22.5488 17.4042C22.4918 17.526 22.3704 17.5875 22.19 17.5875ZM25.3591 18.7083H21.7692L21.541 19.5578H22.3994L22.1793 20.3777H21.2812L21.053 21.2271H21.951L21.5338 22.7733C21.4031 23.2587 21.546 23.5009 21.9627 23.5009H24.1609L24.373 22.7116H23.2281C22.9365 22.7322 22.8303 22.6412 22.9111 22.4387L23.2374 21.2271H24.6423L24.8711 20.3777H23.4663L23.6865 19.5578H25.1303L25.3591 18.7083ZM28.4893 20.5596H27.3183L27.2288 22.9244C27.2247 23.3291 27.418 23.5199 27.8121 23.5009H29.2183L29.4075 22.8041H28.8213C28.5629 22.8041 28.4374 22.7322 28.4489 22.5913L28.4518 21.7112H29.0756C29.5492 21.6906 29.8405 21.4793 29.9505 21.0744L30.0804 20.5889H29.1072L29.0149 20.922C29.0149 21.0231 28.9369 21.0744 28.7793 21.0744H28.4675L28.4893 20.5596ZM20.2943 10.5287H19.1681L18.2881 14.6919H19.4121L20.2943 10.5287ZM19.5226 9.01196H20.6589L20.4466 10.0225H19.3104L19.5226 9.01196ZM21.2912 14.375C20.9966 14.0889 20.8479 13.7031 20.8464 13.2132C20.8464 13.1295 20.8514 13.0342 20.8624 12.93C20.8732 12.8244 20.887 12.7217 20.9064 12.6264C21.0399 11.9502 21.3244 11.4133 21.7625 11.0171C22.2 10.6196 22.7278 10.4201 23.3457 10.4201C23.8518 10.4201 24.2531 10.5639 24.547 10.8514C24.8407 11.1404 24.988 11.5305 24.988 12.0265C24.988 12.1115 24.9816 12.2098 24.9707 12.3154C24.9577 12.4225 24.9419 12.5252 24.9237 12.6264C24.7931 13.2923 24.5095 13.8234 24.0713 14.2122C23.633 14.6039 23.1068 14.7988 22.4931 14.7988C21.985 14.7988 21.585 14.6581 21.2912 14.375ZM23.4375 13.5506C23.636 13.332 23.7782 13.0004 23.8648 12.559C23.8778 12.49 23.8893 12.4181 23.8965 12.3462C23.9037 12.2758 23.9066 12.2098 23.9066 12.1497C23.9066 11.8929 23.8423 11.6935 23.7131 11.5526C23.5847 11.4103 23.4021 11.34 23.1661 11.34C22.8541 11.34 22.6 11.4513 22.4009 11.6743C22.2 11.8974 22.0579 12.2348 21.9683 12.6836C21.9561 12.7526 21.946 12.8216 21.9366 12.889C21.9294 12.9579 21.9273 13.0225 21.9287 13.0811C21.9287 13.3364 21.993 13.533 22.1221 13.6723C22.2506 13.8117 22.4324 13.8806 22.6715 13.8806C22.9848 13.8806 23.2389 13.7706 23.4375 13.5506ZM32.5668 16.6517L32.2953 17.6228H32.5608L31.2789 22.2026H31.0161L30.7604 23.1121H33.3837L33.2728 23.5067H34.6024L34.7136 23.1121H34.9807L35.2347 22.2026H34.9676L36.2484 17.6228H36.5155L36.7853 16.6517H35.0875C34.5822 16.6517 33.8806 17.0081 33.8806 17.0081L33.9398 16.6517H32.5668ZM33.4272 18.8623L33.7767 17.6228H34.8031C34.8031 17.6228 34.6543 18.1303 34.5405 18.5631C34.0251 18.6291 33.4272 18.8623 33.4272 18.8623ZM32.9147 20.7415L33.2654 19.4433H34.2949C34.2949 19.4433 34.1634 19.8804 34.0321 20.3821C33.5773 20.41 32.9147 20.7415 32.9147 20.7415ZM33.5223 22.2026L33.7851 21.2609H32.7602L32.496 22.2026H33.5223ZM38.134 16.5916H36.8432L36.8881 17.6521C36.9054 17.9558 37.0917 18.0965 37.4539 18.0775H38.4027L38.6335 17.2576H38.4054C38.2523 17.2576 38.1803 17.1987 38.1888 17.0755L38.134 16.5916ZM36.465 18.3504H40.6462L40.4008 19.2306H39.0696L38.8413 20.049H40.1712L39.9243 20.9278H38.4431L38.108 21.4428H38.833L39.0004 22.4739C39.0204 22.5766 39.11 22.6265 39.2631 22.6265H39.4882L39.2516 23.4757H38.4546C38.0416 23.4964 37.8281 23.3555 37.8106 23.0519L37.6185 22.1102L36.9588 23.1121C36.8028 23.3952 36.5631 23.5272 36.2399 23.5067H35.0226L35.2594 22.6572H35.6392C35.7952 22.6572 35.925 22.5868 36.0419 22.4446L37.0744 20.9278H35.7431L35.9898 20.049H37.4338L37.6634 19.2306H36.2181L36.465 18.3504ZM15.469 10.5273H14.4533L13.634 14.6934H14.68L15.1456 12.3008C15.2055 12.0001 15.3275 11.7639 15.5123 11.5937C15.6964 11.425 15.9224 11.34 16.1909 11.34C16.4096 11.34 16.5613 11.403 16.6406 11.5306C16.7209 11.6583 16.7353 11.8563 16.6833 12.1219L16.178 14.6934H17.2218L17.7814 11.8563C17.8715 11.406 17.8195 11.0554 17.629 10.8016C17.4355 10.5478 17.1273 10.4216 16.6999 10.4216C16.2277 10.4216 15.8278 10.5992 15.4986 10.9571L15.3528 11.1287L15.469 10.5273ZM26.1011 10.5273H27.1177L27.0023 11.1287L27.1464 10.9571C27.4759 10.5992 27.8772 10.4216 28.3479 10.4216C28.7753 10.4216 29.0841 10.5478 29.276 10.8016C29.4654 11.0554 29.5202 11.406 29.4278 11.8563L28.8704 14.6934H27.8251L28.3306 12.1219C28.3825 11.8563 28.3681 11.6583 28.2886 11.5306C28.2063 11.403 28.0575 11.34 27.8397 11.34C27.5711 11.34 27.3459 11.425 27.1596 11.5937C26.9747 11.7639 26.8521 12.0001 26.7944 12.3008L26.3266 14.6934H25.2819L26.1011 10.5273ZM31.1259 7.94537H34.077C34.6444 7.94537 35.0833 8.07603 35.3849 8.33261C35.6853 8.59235 35.8356 8.96498 35.8356 9.45051V9.46511C35.8356 9.55748 35.8296 9.66169 35.821 9.77459C35.8065 9.8861 35.7876 9.99899 35.7633 10.1164C35.6334 10.759 35.3315 11.2754 34.8653 11.667C34.3973 12.0572 33.8431 12.2538 33.205 12.2538H31.6224L31.133 14.6933H29.7628L31.1259 7.94537ZM31.8633 11.0803H33.1759C33.518 11.0803 33.7894 10.9995 33.9874 10.8397C34.1838 10.6783 34.3137 10.4319 34.3858 10.0975C34.3927 10.0604 34.398 10.0255 34.4031 9.99246L34.4031 9.99243L34.4031 9.99237L34.4031 9.99218C34.4065 9.97028 34.4097 9.94917 34.4132 9.92875L34.4156 9.90357L34.4156 9.90351C34.4194 9.86355 34.4233 9.8237 34.4233 9.78506C34.4233 9.54585 34.3397 9.37276 34.1721 9.26421C34.0046 9.15408 33.742 9.10138 33.378 9.10138H32.2633L31.8633 11.0803ZM41.9686 15.4987C41.5354 16.4346 41.1227 16.9802 40.8802 17.234C40.8662 17.2484 40.8514 17.264 40.8358 17.2805L40.8355 17.2808C40.5794 17.5505 40.0897 18.0662 38.9988 18.0247L39.0985 17.3104C39.9544 17.0423 40.4651 15.9492 40.7802 15.2747C40.8238 15.1813 40.8637 15.0959 40.9002 15.0219L40.5422 10.5389L41.2959 10.5287H41.9282L41.9962 13.3408L43.1814 10.5287H44.3813L41.9686 15.4987ZM38.6133 10.8675L38.1366 11.2006C37.6385 10.8045 37.1838 10.5595 36.3061 10.9732C35.1105 11.5364 34.1114 15.8566 37.4033 14.4337L37.5909 14.6595L38.8861 14.6933L39.7365 10.7677L38.6133 10.8675ZM37.877 13.0137C37.669 13.6372 37.2043 14.0493 36.8405 13.932C36.4766 13.8176 36.3467 13.2161 36.5574 12.5912C36.7653 11.9663 37.2331 11.5556 37.594 11.6729C37.9578 11.7873 38.0892 12.3887 37.877 13.0137Z" fill="white"/>
</svg>
