<svg width="58" height="32" viewBox="0 0 58 32" fill="none" xmlns="http://www.w3.org/2000/svg">
<g clip-path="url(#clip0)">
<g clip-path="url(#clip1)">
<path d="M19.4952 7.3457C18.7301 7.3457 17.9883 7.52121 17.2915 7.84874C16.2964 8.31921 15.3938 9.10373 14.6569 10.1448C14.1783 10.8207 13.7685 11.6042 13.4477 12.4804C12.8428 14.1343 12.8496 15.4759 13.468 16.36C13.8187 16.8597 14.5476 17.4568 16.0297 17.4585H16.0354C18.7353 17.4585 20.7506 15.692 22.027 12.2079C22.3641 11.2861 22.8089 9.56571 21.996 8.40473C21.505 7.70297 20.665 7.34683 19.4952 7.3457H19.4952ZM35.7856 7.3457C35.0212 7.3457 34.2787 7.52121 33.5825 7.84874C32.5869 8.31921 31.6849 9.10373 30.9481 10.1448C30.4689 10.8207 30.0595 11.6042 29.7387 12.4804C29.1333 14.1343 29.1406 15.4759 29.7596 16.36C30.1097 16.8597 30.8381 17.4568 32.3213 17.4585H32.3259C35.0263 17.4585 37.0422 15.692 38.3175 12.2079C38.6557 11.2861 39.0994 9.56571 38.287 8.40473C37.7954 7.70297 36.9554 7.34683 35.7856 7.3457ZM10.8245 7.48578C9.93605 7.48578 9.07295 7.48571 8.29947 7.87738C7.52655 8.26906 6.84381 9.053 6.31839 10.6209C6.20451 10.958 6.14427 11.2484 6.13638 11.5005C6.12849 11.7532 6.17248 11.9681 6.26832 12.155C6.38671 12.3829 6.57839 12.5973 6.81799 12.778C7.05815 12.9592 7.34503 13.1061 7.65454 13.2001C7.66637 13.2035 7.82881 13.2496 8.02612 13.3058C8.22231 13.3621 8.45172 13.4296 8.59717 13.4735C8.6823 13.4994 8.77581 13.5332 8.86037 13.5844C8.9455 13.6345 9.02166 13.702 9.06957 13.7954C9.10114 13.8573 9.11809 13.9254 9.11978 13.998C9.12203 14.0712 9.10956 14.15 9.08081 14.2333C9.00865 14.446 8.89927 14.5833 8.69068 14.6672C8.48321 14.751 8.17713 14.778 7.71259 14.7813H1.91373L0.99707 17.2952H7.20405C7.78811 17.2952 8.85586 17.2952 9.8819 16.8597C10.9079 16.4247 11.8924 15.5552 12.309 13.8146C12.4657 13.1606 12.4172 12.6277 12.1607 12.209C11.903 11.7909 11.4374 11.487 10.7592 11.2929C10.7592 11.2929 10.6076 11.2489 10.4289 11.1977C10.2513 11.1464 10.0455 11.088 9.94063 11.0576C9.76699 11.008 9.63335 10.9079 9.55443 10.7801C9.47606 10.6529 9.45238 10.4982 9.49691 10.34C9.5437 10.1757 9.65648 10.0446 9.81884 9.95397C9.98233 9.86392 10.1966 9.81443 10.4469 9.81443H14.0549C14.0803 9.77785 14.1034 9.73795 14.1288 9.70137C14.7878 8.77056 15.5856 8.01759 16.4594 7.48578H10.8245ZM27.0417 7.48578C25.4361 7.48578 24.2409 8.29666 23.6765 9.81443L20.949 17.2952H23.937L25.3385 13.4498L27.9792 13.4516L28.7306 11.3919L26.0985 11.3901L26.5224 10.1977C26.6104 9.9838 26.8218 9.81389 27.1307 9.81389C27.3027 9.81389 29.2414 9.81444 30.2443 9.81497C30.2702 9.77783 30.2933 9.73794 30.3187 9.70136C30.9777 8.77056 31.9108 8.01759 32.7846 7.48578H27.0417ZM40.9034 7.49118L37.3252 17.3012H40.3644L41.665 13.8482C41.7287 13.9906 42.496 17.3012 42.496 17.3012H45.6914C45.6914 17.3012 45.1102 14.8685 44.6829 13.8859C44.573 13.6332 44.4584 13.3501 44.3051 13.1132C45.2077 12.7784 46.5156 12.0597 47.0574 10.6033C47.39 9.70794 47.3709 8.98418 47.0011 8.4535C46.5529 7.80913 45.6407 7.49287 44.2116 7.49118H40.9034ZM47.1373 7.49132C47.3296 7.64327 47.4953 7.81653 47.6334 8.01462C47.9869 8.52336 48.1222 9.12789 48.0415 9.82065H49.8513L47.1238 17.3037H49.849L52.5781 9.82065H56.0797L56.9292 7.49132H47.1373ZM42.9059 9.51658H43.4077C44.3249 9.5172 44.667 9.78502 44.3564 10.6207C44.0649 11.4052 43.5406 11.8898 42.5439 11.8898H42.54L42.0241 11.8893L42.9059 9.51657L42.9059 9.51658ZM18.7781 9.56521H18.7786C19.7122 9.56634 19.926 10.1066 19.1063 12.3453H19.1061C18.2639 14.6464 17.6528 15.2255 16.7327 15.2255H16.731C15.8346 15.2249 15.5201 14.6587 16.359 12.3683C16.9853 10.6586 17.7966 9.56521 18.7781 9.56521H18.7781ZM35.0686 9.56521H35.0697C36.0027 9.56634 36.2169 10.1066 35.3966 12.3453C34.5549 14.6464 33.9432 15.2255 33.0238 15.2255H33.0216C32.1246 15.2249 31.8117 14.6587 32.65 12.3683C33.2758 10.6586 34.0876 9.56521 35.0686 9.56521H35.0686Z" fill="#EE7F00"/>
<path d="M3.95204 18.335C3.76092 18.335 3.61769 18.3698 3.52186 18.4379C3.42658 18.5077 3.34649 18.631 3.28166 18.8094C3.21908 18.9804 3.20957 19.0991 3.25297 19.1666C3.29638 19.2347 3.41412 19.2685 3.60805 19.2685C3.80142 19.2685 3.94582 19.2336 4.04054 19.1627C4.13525 19.0924 4.21472 18.9697 4.27843 18.7941C4.34157 18.6208 4.35226 18.5015 4.30942 18.4345C4.2677 18.3681 4.14822 18.335 3.95204 18.335ZM5.59983 18.335C5.40589 18.335 5.26217 18.3698 5.16802 18.4379C5.07331 18.5077 4.99388 18.631 4.92905 18.8094C4.86703 18.9804 4.85688 19.0991 4.8986 19.1666C4.94088 19.2347 5.05812 19.2685 5.25205 19.2685C5.44542 19.2685 5.58976 19.2336 5.68616 19.1627C5.782 19.0924 5.86195 18.9697 5.92622 18.7941C5.98936 18.6208 5.99899 18.5015 5.95558 18.4345C5.91161 18.3681 5.7932 18.335 5.59983 18.335ZM36.3605 19.6111C36.1361 19.6111 35.9141 19.6398 35.6931 19.6972C35.4721 19.7552 35.2668 19.8424 35.0774 19.9589C34.8874 20.0759 34.7178 20.2223 34.5661 20.399C34.415 20.5763 34.2971 20.7817 34.212 21.0147C34.1376 21.2184 34.1044 21.3922 34.1117 21.538C34.1185 21.6832 34.1511 21.8098 34.2091 21.9162C34.2666 22.0231 34.3433 22.1143 34.4392 22.1908C34.5345 22.2674 34.6359 22.336 34.7447 22.3956C34.8535 22.4558 34.9595 22.5138 35.0638 22.5673C35.167 22.6213 35.2561 22.6787 35.33 22.7406C35.405 22.8019 35.4573 22.8723 35.4889 22.9511C35.5204 23.0304 35.516 23.125 35.476 23.2353C35.4411 23.3304 35.3919 23.4171 35.3282 23.4948C35.2645 23.573 35.1895 23.6383 35.1044 23.6906C35.0182 23.7435 34.9229 23.7846 34.8163 23.8133C34.7103 23.842 34.597 23.8566 34.4764 23.8566C34.2926 23.8566 34.1387 23.8357 34.0147 23.7941C33.8907 23.753 33.787 23.7069 33.7047 23.6569C33.6229 23.6068 33.5569 23.5611 33.5085 23.5195C33.4588 23.4784 33.4165 23.4576 33.381 23.4576C33.3562 23.4576 33.332 23.4643 33.3078 23.4784C33.2841 23.4919 33.2604 23.5149 33.2373 23.5476C33.2142 23.5802 33.1905 23.623 33.1662 23.6759C33.142 23.7282 33.115 23.7941 33.0873 23.8712C33.0451 23.9872 33.0196 24.0755 33.0112 24.1368C33.0021 24.1981 33.009 24.2454 33.0298 24.2781C33.0496 24.3107 33.0901 24.3484 33.1488 24.3911C33.2068 24.4334 33.2846 24.4744 33.381 24.5133C33.4774 24.5521 33.593 24.5854 33.7271 24.613C33.8619 24.6405 34.0135 24.654 34.1821 24.654C34.4307 24.654 34.6766 24.6213 34.919 24.5566C35.1614 24.4913 35.3881 24.394 35.5983 24.2646C35.8092 24.1357 35.9969 23.9747 36.1632 23.7811C36.3289 23.5881 36.4586 23.3635 36.5522 23.1075C36.6232 22.9116 36.6554 22.7418 36.6475 22.5977C36.6396 22.4536 36.6063 22.3276 36.5471 22.2212C36.4879 22.1143 36.4096 22.0232 36.3115 21.9461C36.2139 21.8701 36.1101 21.8014 36.0013 21.7411C35.8931 21.6809 35.7855 21.6242 35.6795 21.5701C35.5735 21.5161 35.4822 21.458 35.4055 21.3967C35.3283 21.3353 35.2746 21.265 35.2442 21.1862C35.2143 21.1074 35.2188 21.0135 35.2583 20.9054C35.2848 20.8328 35.3232 20.7642 35.374 20.6983C35.4236 20.633 35.4839 20.5774 35.5549 20.5312C35.6259 20.4851 35.706 20.4485 35.7962 20.4221C35.8864 20.3956 35.9856 20.3826 36.0939 20.3826C36.232 20.3826 36.3532 20.399 36.4564 20.4333C36.5596 20.4671 36.6474 20.5042 36.7201 20.5464C36.7929 20.5874 36.8532 20.6257 36.9005 20.6612C36.9484 20.6966 36.9863 20.7136 37.0134 20.7136C37.0416 20.7136 37.0658 20.7062 37.0878 20.691C37.1098 20.6758 37.1312 20.6522 37.1521 20.6196C37.1724 20.5869 37.1931 20.5452 37.2157 20.4952C37.2377 20.4456 37.2625 20.3838 37.289 20.3112C37.3127 20.2459 37.3313 20.1908 37.3442 20.1475C37.3583 20.103 37.3668 20.0669 37.3713 20.0382C37.3752 20.0095 37.3764 19.9859 37.3741 19.9685C37.3713 19.951 37.3623 19.9291 37.3465 19.9043C37.3307 19.8796 37.2906 19.848 37.2264 19.8103C37.1615 19.7726 37.0849 19.7388 36.9952 19.7085C36.9062 19.6786 36.8065 19.655 36.6977 19.6375C36.5877 19.6195 36.4755 19.6111 36.3605 19.6111ZM52.0182 19.6143C51.6337 19.6143 51.2639 19.6734 50.9076 19.7915C50.5513 19.9097 50.2227 20.079 49.9199 20.3013C49.6183 20.5236 49.3483 20.7932 49.1121 21.1106C48.8758 21.4286 48.6853 21.7866 48.5392 22.1856C48.3989 22.5716 48.329 22.9177 48.3318 23.2222C48.3329 23.5272 48.4023 23.7861 48.5382 23.9977C48.6746 24.2098 48.8763 24.3713 49.1441 24.4833C49.4108 24.5947 49.7394 24.6504 50.129 24.6504C50.2626 24.6504 50.3974 24.6442 50.5339 24.6319C50.6703 24.6189 50.8078 24.6003 50.9464 24.5755C51.0857 24.5502 51.2211 24.5203 51.3547 24.4849C51.4883 24.4494 51.6016 24.4164 51.6952 24.3837C51.7888 24.3505 51.8592 24.306 51.9065 24.2497C51.9528 24.1934 51.9906 24.1276 52.0176 24.0522L52.7246 22.1141C52.7426 22.0635 52.7528 22.0189 52.7539 21.9801C52.7556 21.9413 52.75 21.9081 52.7359 21.8805C52.7218 21.853 52.7021 21.8321 52.6756 21.8185C52.6491 21.8045 52.6157 21.7972 52.5757 21.7972H50.9279C50.9054 21.7972 50.8828 21.8045 50.8602 21.8185C50.8377 21.8321 50.8152 21.8534 50.7915 21.8827C50.769 21.9114 50.7452 21.9491 50.7215 21.9975C50.6979 22.0448 50.673 22.1039 50.6477 22.1737C50.5981 22.3099 50.5755 22.4055 50.58 22.4618C50.5851 22.5186 50.6099 22.5468 50.655 22.5468H51.5791L51.1669 23.6758C51.0558 23.7259 50.9414 23.7635 50.8241 23.7888C50.7074 23.8136 50.5931 23.8265 50.4826 23.8265C50.2559 23.8265 50.0625 23.79 49.9018 23.7174C49.7411 23.6442 49.62 23.5367 49.5394 23.3932C49.4582 23.2508 49.4193 23.073 49.4221 22.8614C49.4255 22.6492 49.4778 22.4033 49.5793 22.1253C49.6718 21.8715 49.793 21.6402 49.9424 21.4309C50.0912 21.2215 50.2609 21.042 50.4509 20.8923C50.6415 20.7432 50.8473 20.6278 51.0677 20.5462C51.2887 20.4652 51.517 20.4241 51.7532 20.4241C51.9742 20.4241 52.1602 20.4466 52.3113 20.4917C52.4612 20.5367 52.5876 20.5861 52.6896 20.6385C52.7906 20.6914 52.8695 20.7403 52.9259 20.7853C52.9823 20.8303 53.0267 20.8529 53.06 20.8529C53.082 20.8529 53.104 20.8467 53.1248 20.8344C53.1463 20.8214 53.1677 20.7994 53.1909 20.7684C53.2134 20.7369 53.2371 20.6948 53.2624 20.6419C53.2884 20.5895 53.3143 20.527 53.3408 20.4538C53.3865 20.3283 53.4136 20.2339 53.4214 20.1698C53.4305 20.1062 53.4236 20.0566 53.4028 20.0212C53.3814 19.9857 53.3369 19.9446 53.2692 19.8968C53.201 19.8495 53.1091 19.8045 52.9947 19.7634C52.8808 19.7218 52.742 19.6869 52.5791 19.6582C52.4162 19.6289 52.229 19.6143 52.0182 19.6143ZM21.1946 19.6744C21.0661 19.6744 20.9652 19.6778 20.8914 19.6845C20.8175 19.6907 20.76 19.7076 20.7183 19.7352C20.6766 19.7628 20.6479 19.8022 20.6321 19.8539C20.6158 19.9052 20.6028 19.9761 20.592 20.0667L20.1512 24.3155C20.1438 24.3763 20.1455 24.4241 20.1546 24.4607C20.1641 24.4967 20.1906 24.5243 20.234 24.5434C20.2774 24.562 20.3412 24.5749 20.4257 24.5811C20.5103 24.5873 20.6254 24.5901 20.7708 24.5901C20.9095 24.5901 21.0216 24.5873 21.1079 24.5811C21.1941 24.5749 21.2663 24.5615 21.3226 24.5412C21.3784 24.5215 21.4247 24.4934 21.4608 24.4568C21.4963 24.4208 21.5313 24.3735 21.5651 24.3155L23.4294 21.2293H23.4367L23.0923 24.3155C23.0828 24.3763 23.0828 24.4241 23.0923 24.4607C23.1014 24.4967 23.1278 24.5243 23.1712 24.5434C23.2146 24.562 23.2783 24.5749 23.3629 24.5811C23.4474 24.5873 23.5613 24.5901 23.7045 24.5901C23.8325 24.5901 23.9396 24.5873 24.0247 24.5811C24.1098 24.5749 24.1826 24.562 24.2418 24.5434C24.3015 24.5243 24.3517 24.4967 24.3906 24.4607C24.4306 24.4241 24.4695 24.3763 24.5062 24.3155L27.1712 20.0779C27.2275 19.985 27.2675 19.9113 27.2912 19.8579C27.3143 19.8033 27.3171 19.7628 27.2996 19.7352C27.2815 19.7076 27.2439 19.6907 27.1847 19.6845C27.1249 19.6778 27.0398 19.6744 26.9299 19.6744C26.8115 19.6744 26.7184 19.6778 26.6507 19.6845C26.5831 19.6907 26.5284 19.702 26.4873 19.7183C26.4467 19.7346 26.414 19.7572 26.3914 19.7859C26.3683 19.8151 26.3452 19.8494 26.3232 19.8893L24.1116 23.6081H24.1043L24.5345 19.9041C24.5423 19.8545 24.5434 19.814 24.5372 19.7836C24.5304 19.7543 24.5107 19.7307 24.4775 19.7144C24.4442 19.6981 24.3934 19.6873 24.3235 19.6823C24.253 19.6772 24.1583 19.6744 24.0377 19.6744C23.9244 19.6744 23.8325 19.6778 23.7626 19.6845C23.6921 19.6907 23.6346 19.702 23.5901 19.7183C23.545 19.7346 23.5089 19.7577 23.4818 19.7875C23.4542 19.8179 23.4272 19.8573 23.3995 19.9041L21.1597 23.6081H21.1558L21.6599 19.8781C21.67 19.8303 21.6733 19.7937 21.6699 19.7672C21.6671 19.7408 21.6508 19.7206 21.6203 19.7071C21.5899 19.693 21.5414 19.6846 21.4738 19.6806C21.4056 19.6767 21.313 19.6744 21.1946 19.6744L21.1946 19.6744ZM32.961 19.6747C32.8651 19.6747 32.7844 19.6786 32.719 19.6859C32.6536 19.6938 32.5989 19.7039 32.5555 19.7163C32.5121 19.7287 32.4784 19.7451 32.4547 19.7653C32.431 19.7856 32.4146 19.8081 32.4051 19.8329L30.7284 24.4322C30.7194 24.4575 30.7189 24.4802 30.7284 24.5004C30.7369 24.5201 30.7577 24.5364 30.791 24.5488C30.8248 24.5617 30.8716 24.5719 30.9331 24.5792C30.9939 24.5865 31.0728 24.5904 31.1681 24.5904C31.2662 24.5904 31.348 24.5865 31.414 24.5792C31.4794 24.5719 31.5334 24.5617 31.5751 24.5488C31.618 24.5364 31.6508 24.5201 31.675 24.5004C31.6981 24.4802 31.7144 24.4575 31.7235 24.4322L33.4006 19.8329C33.4102 19.8081 33.4102 19.7856 33.4012 19.7653C33.3921 19.7451 33.3708 19.7287 33.3376 19.7163C33.3049 19.7039 33.2581 19.6938 33.1983 19.6859C33.138 19.6786 33.0585 19.6747 32.961 19.6747H32.961ZM2.79627 19.6748C2.69817 19.6748 2.61649 19.6789 2.55053 19.6862C2.48513 19.6941 2.43034 19.7042 2.38693 19.7166C2.34352 19.729 2.31027 19.7452 2.28828 19.7655C2.26573 19.7852 2.24996 19.8077 2.24038 19.833L1.16079 22.7953C1.04748 23.1065 0.992816 23.3779 0.997328 23.6097C1.0024 23.8421 1.05984 24.0356 1.17203 24.191C1.28365 24.3469 1.44772 24.4628 1.66364 24.5393C1.879 24.6159 2.14059 24.6542 2.44728 24.6542C2.77426 24.6542 3.07865 24.6113 3.36109 24.5264C3.64354 24.4408 3.9001 24.3172 4.13012 24.154C4.3607 23.9913 4.56312 23.7915 4.73676 23.5551C4.91096 23.3193 5.05245 23.0525 5.16125 22.7537L6.22622 19.833C6.2358 19.8077 6.23573 19.7852 6.22784 19.7655C6.22051 19.7452 6.20021 19.729 6.16695 19.7166C6.13369 19.7042 6.08812 19.6941 6.02892 19.6862C5.97029 19.6789 5.89296 19.6748 5.79712 19.6748C5.70184 19.6748 5.62077 19.6789 5.55368 19.6862C5.48716 19.6941 5.43292 19.7042 5.39008 19.7166C5.3478 19.729 5.31574 19.7452 5.29319 19.7655C5.27064 19.7852 5.25541 19.8077 5.24583 19.833L4.17694 22.7651C4.11492 22.9356 4.03538 23.0881 3.94067 23.2226C3.84483 23.3571 3.73769 23.4695 3.61874 23.5607C3.49979 23.6524 3.37023 23.7217 3.22929 23.7701C3.08948 23.8173 2.94117 23.8415 2.78558 23.8415C2.63167 23.8415 2.50137 23.8185 2.39369 23.7718C2.28658 23.7251 2.20539 23.6558 2.14957 23.563C2.09432 23.4701 2.06849 23.3531 2.07244 23.2107C2.07639 23.0694 2.11361 22.9018 2.18408 22.7082L3.23267 19.833C3.24169 19.8077 3.24169 19.7852 3.23267 19.7655C3.22365 19.7452 3.20274 19.729 3.16948 19.7166C3.13622 19.7042 3.08945 19.6941 3.02969 19.6862C2.96937 19.6789 2.89154 19.6748 2.79627 19.6748H2.79627ZM39.3771 19.675C39.279 19.675 39.1974 19.6789 39.1314 19.6862C39.066 19.6935 39.0113 19.7037 38.9679 19.716C38.9245 19.729 38.8912 19.7454 38.8686 19.7651C38.8461 19.7853 38.8308 19.8078 38.8213 19.8332L37.7417 22.7949C37.6284 23.1061 37.5737 23.378 37.5787 23.6099C37.5827 23.8423 37.6407 24.0358 37.7524 24.1911C37.8645 24.347 38.0282 24.4629 38.2447 24.5395C38.46 24.616 38.7215 24.6543 39.0282 24.6543C39.3546 24.6543 39.6591 24.6115 39.9421 24.5265C40.2245 24.441 40.4804 24.3172 40.711 24.154C40.9416 23.9908 41.1434 23.7916 41.3176 23.5553C41.4918 23.3195 41.6328 23.0521 41.7421 22.7539L42.8071 19.8332C42.8167 19.8078 42.8166 19.7853 42.8087 19.7651C42.8008 19.7454 42.7812 19.729 42.748 19.716C42.7147 19.7037 42.669 19.6935 42.6098 19.6862C42.5512 19.6789 42.4734 19.675 42.3781 19.675C42.2829 19.675 42.2016 19.6789 42.1346 19.6862C42.068 19.6935 42.0139 19.7037 41.9711 19.716C41.9288 19.729 41.896 19.7454 41.8741 19.7651C41.8515 19.7853 41.8363 19.8078 41.8267 19.8332L40.7578 22.7651C40.6952 22.9356 40.6163 23.0881 40.5215 23.2226C40.4257 23.3571 40.3187 23.4691 40.1998 23.5608C40.0808 23.6526 39.9511 23.7218 39.8102 23.7697C39.6698 23.8175 39.5209 23.8417 39.3659 23.8417C39.2126 23.8417 39.0824 23.8181 38.9747 23.772C38.8676 23.7252 38.7859 23.656 38.73 23.5631C38.6748 23.4703 38.6488 23.3526 38.6533 23.2108C38.6567 23.0696 38.6945 22.9019 38.765 22.7083L39.813 19.8332C39.8226 19.8078 39.822 19.7853 39.813 19.7651C39.8046 19.7454 39.7831 19.729 39.7504 19.716C39.7171 19.7037 39.6703 19.6935 39.6106 19.6862C39.5502 19.6789 39.4724 19.675 39.3771 19.675H39.3771ZM47.8552 19.6823C47.7644 19.6823 47.6894 19.6857 47.6285 19.6919C47.5688 19.698 47.5187 19.7087 47.4775 19.7239C47.4369 19.7391 47.4053 19.7566 47.3833 19.7763C47.3608 19.7965 47.345 19.819 47.336 19.8444L46.5021 22.1291C46.4396 22.3024 46.3754 22.4842 46.3094 22.6744C46.2435 22.8652 46.182 23.0486 46.1262 23.2242H46.1222C46.1131 23.1235 46.1042 23.0234 46.0924 22.9232C46.0811 22.8225 46.0697 22.7206 46.0573 22.6165C46.0449 22.5118 46.0304 22.4083 46.0146 22.3042C45.9982 22.1995 45.9825 22.0937 45.9667 21.9857L45.6656 20.2056C45.6538 20.1076 45.6368 20.0256 45.6159 19.9592C45.5945 19.8928 45.5652 19.841 45.528 19.8033C45.4896 19.7656 45.4412 19.7379 45.382 19.7216C45.3228 19.7053 45.245 19.6974 45.1498 19.6974H44.6181C44.5177 19.6974 44.422 19.7272 44.3312 19.7857C44.2404 19.8448 44.1739 19.9333 44.1311 20.0514L42.535 24.4286C42.5254 24.4533 42.5237 24.4764 42.5282 24.4967C42.5344 24.5164 42.5508 24.5333 42.5779 24.5468C42.6061 24.5608 42.6472 24.5716 42.7025 24.5795C42.7577 24.5868 42.8288 24.5907 42.9167 24.5907C43.0069 24.5907 43.0825 24.5868 43.1439 24.5795C43.2042 24.5716 43.2539 24.5608 43.2928 24.5468C43.3317 24.5333 43.3614 24.5164 43.3834 24.4967C43.4037 24.4764 43.4191 24.4533 43.4281 24.4286L44.3577 21.8804C44.4271 21.6896 44.4924 21.5045 44.5522 21.3255C44.6131 21.146 44.6711 20.9658 44.7269 20.7852H44.7342C44.7376 20.9332 44.7478 21.0858 44.7635 21.2428C44.7788 21.3993 44.7974 21.5456 44.8182 21.6812L45.2021 23.9581C45.2196 24.0836 45.2388 24.1861 45.2596 24.2649C45.2816 24.3436 45.3109 24.4066 45.3476 24.4528C45.3854 24.4995 45.4322 24.5316 45.4897 24.5491C45.5477 24.5671 45.6205 24.5754 45.709 24.5754H46.1307C46.1786 24.5754 46.2282 24.5687 46.2801 24.5546C46.3314 24.5411 46.3799 24.5187 46.425 24.4888C46.4695 24.4584 46.5102 24.4208 46.5468 24.3763C46.5834 24.3307 46.6121 24.2795 46.633 24.2215L48.2295 19.8444C48.2385 19.819 48.2408 19.7965 48.2352 19.7763C48.2301 19.7566 48.2143 19.7391 48.1884 19.7239C48.1624 19.7087 48.1218 19.698 48.066 19.6919C48.0108 19.6857 47.9403 19.6823 47.8552 19.6823H47.8552ZM12.6526 19.6974C12.5691 19.6974 12.4907 19.7216 12.4158 19.7706C12.3413 19.8201 12.2845 19.8994 12.2439 20.0097L10.6958 24.2551C10.6558 24.366 10.6552 24.4454 10.6941 24.4944C10.733 24.5433 10.7939 24.5681 10.8762 24.5681H13.3269C13.35 24.5681 13.3731 24.5607 13.3974 24.5466C13.4205 24.5331 13.4447 24.5118 13.4679 24.4814C13.4921 24.451 13.5152 24.4116 13.54 24.3627C13.5637 24.3137 13.589 24.2529 13.6155 24.1803C13.642 24.1077 13.6606 24.0463 13.673 23.9979C13.6843 23.949 13.6893 23.9091 13.6876 23.8787C13.6865 23.8488 13.678 23.827 13.6645 23.8129C13.651 23.7999 13.6324 23.7926 13.6098 23.7926H11.8532L12.3538 22.4189H13.8281C13.8506 22.4189 13.8737 22.4128 13.8974 22.3998C13.9205 22.3874 13.9437 22.3665 13.9668 22.3378C13.9899 22.3091 14.0135 22.271 14.0366 22.2231C14.0609 22.1753 14.0856 22.115 14.1121 22.0424C14.1381 21.972 14.1567 21.9124 14.168 21.8634C14.1798 21.815 14.1843 21.7762 14.1821 21.747C14.1804 21.7183 14.1725 21.6963 14.1584 21.6828C14.1443 21.6693 14.1268 21.662 14.1037 21.662H12.6301L13.063 20.4729H14.8051C14.8282 20.4729 14.8507 20.4662 14.8733 20.4521C14.8958 20.438 14.9189 20.4166 14.9426 20.3862C14.9663 20.3563 14.9894 20.3164 15.0136 20.2674C15.0379 20.219 15.0627 20.1594 15.0886 20.0885C15.1162 20.0136 15.1353 19.9517 15.1472 19.9022C15.1585 19.8538 15.1641 19.8133 15.163 19.7818C15.1613 19.7509 15.1546 19.729 15.1411 19.7166C15.1287 19.7042 15.1106 19.6974 15.088 19.6974H12.6526H12.6526ZM16.744 19.6974C16.6611 19.6974 16.5822 19.7216 16.5078 19.7706C16.4334 19.8201 16.3759 19.8994 16.3358 20.0097L14.7235 24.4325C14.7145 24.4578 14.7133 24.4803 14.7212 24.5C14.7291 24.5203 14.7493 24.5366 14.7832 24.5489C14.8159 24.5613 14.8633 24.572 14.9247 24.5793C14.9856 24.5866 15.0639 24.5905 15.1598 24.5905C15.2573 24.5905 15.3397 24.5866 15.4051 24.5793C15.4711 24.572 15.5251 24.5613 15.5668 24.5489C15.6091 24.5366 15.6423 24.5203 15.666 24.5C15.6891 24.4803 15.7061 24.4578 15.7151 24.4325L16.3916 22.5765H16.7012C16.8061 22.5765 16.8933 22.5927 16.9621 22.6259C17.0303 22.6586 17.084 22.7064 17.1223 22.7706C17.1606 22.8348 17.187 22.9142 17.2028 23.0098C17.2186 23.1049 17.23 23.214 17.2384 23.3373L17.279 24.4245C17.2779 24.4549 17.2812 24.4808 17.2879 24.5017C17.2958 24.523 17.3151 24.5411 17.3467 24.5546C17.3777 24.5687 17.4238 24.5776 17.4847 24.5827C17.5461 24.5878 17.6291 24.5905 17.735 24.5905C17.8608 24.5905 17.9612 24.5878 18.0356 24.5827C18.1106 24.5776 18.1685 24.5692 18.2108 24.5568C18.2537 24.5438 18.2831 24.5281 18.3 24.5095C18.3169 24.4909 18.3304 24.4674 18.3406 24.4398C18.3496 24.415 18.3557 24.3801 18.3591 24.3362C18.3625 24.2923 18.363 24.2226 18.3602 24.1275L18.2988 23.1679C18.2931 23.0525 18.2819 22.9491 18.2649 22.8573C18.2486 22.7662 18.2243 22.6839 18.1939 22.6124C18.1635 22.541 18.1258 22.4803 18.0796 22.4302C18.0339 22.3796 17.9814 22.3373 17.9206 22.3024C18.0891 22.2546 18.2464 22.1915 18.393 22.1138C18.5395 22.0362 18.672 21.9445 18.7909 21.8387C18.9099 21.7334 19.0142 21.6141 19.105 21.4796C19.1952 21.3457 19.2702 21.1971 19.3299 21.0339C19.4004 20.8403 19.4337 20.6693 19.4309 20.5196C19.4269 20.3705 19.3903 20.2415 19.321 20.1324C19.2516 20.0232 19.1506 19.9349 19.0176 19.8673C18.8857 19.7992 18.7267 19.7514 18.5401 19.7239C18.4752 19.7166 18.4026 19.7103 18.3208 19.7052C18.2397 19.7002 18.1353 19.6974 18.0073 19.6974H16.744H16.744ZM28.6568 19.6974C28.574 19.6974 28.495 19.7216 28.4206 19.7706C28.3462 19.8201 28.2886 19.8994 28.2486 20.0097L26.7005 24.2551C26.6605 24.366 26.6593 24.4454 26.6977 24.4944C26.7371 24.5433 26.798 24.5681 26.8809 24.5681H29.3315C29.3547 24.5681 29.3778 24.5607 29.4015 24.5466C29.4257 24.5331 29.4489 24.5118 29.472 24.4814C29.4968 24.451 29.5205 24.4116 29.5441 24.3627C29.5684 24.3137 29.5937 24.2529 29.6202 24.1803H29.6203C29.6468 24.1077 29.6659 24.0463 29.6777 23.9979C29.6884 23.949 29.6942 23.9091 29.6919 23.8787C29.6908 23.8488 29.6829 23.827 29.6688 23.8129C29.6552 23.7999 29.6366 23.7926 29.6141 23.7926H27.8574L28.3581 22.4189H29.8322C29.8553 22.4189 29.8778 22.4128 29.9015 22.3998C29.9252 22.3874 29.9484 22.3665 29.9715 22.3378C29.9946 22.3091 30.0178 22.271 30.0414 22.2231C30.0651 22.1753 30.0904 22.115 30.1169 22.0424C30.1423 21.972 30.1609 21.9124 30.1722 21.8634C30.184 21.815 30.189 21.7762 30.1868 21.747C30.1851 21.7183 30.1768 21.6963 30.1632 21.6828C30.1491 21.6693 30.131 21.662 30.1084 21.662H28.6342L29.0678 20.4729H30.8092C30.8318 20.4729 30.8549 20.4662 30.878 20.4521C30.9 20.438 30.9236 20.4166 30.9467 20.3862C30.9704 20.3563 30.9947 20.3164 31.0178 20.2674C31.0426 20.219 31.0675 20.1594 31.0934 20.0885C31.121 20.0136 31.1396 19.9517 31.1515 19.9022C31.1633 19.8538 31.1683 19.8133 31.1672 19.7818C31.166 19.7509 31.1587 19.729 31.1458 19.7166C31.1328 19.7042 31.1153 19.6974 31.0922 19.6974H28.6568H28.6568ZM7.97334 19.6977C7.89046 19.6977 7.81148 19.7219 7.73707 19.7709C7.66265 19.8198 7.60567 19.8991 7.56508 20.01L6.01702 24.2554C5.97699 24.3657 5.97582 24.4451 6.01472 24.4941C6.05362 24.5431 6.11453 24.5679 6.1974 24.5679H7.49471C7.69033 24.5679 7.873 24.556 8.041 24.5318C8.20956 24.5081 8.37296 24.471 8.53194 24.4209C8.69092 24.3708 8.84319 24.3067 8.98864 24.2291C9.13409 24.1514 9.26773 24.0586 9.39176 23.9511C9.51522 23.843 9.62624 23.718 9.72546 23.5778C9.82468 23.4372 9.90589 23.2808 9.96903 23.1075C10.0294 22.942 10.0587 22.7923 10.057 22.6594C10.0547 22.5266 10.0287 22.4108 9.97796 22.3117C9.92723 22.2127 9.85506 22.1316 9.76091 22.0686C9.66676 22.0061 9.55577 21.9617 9.42667 21.9369C9.54901 21.8969 9.66458 21.844 9.77282 21.7787C9.88106 21.7134 9.97915 21.6381 10.0682 21.5531C10.1567 21.4676 10.2351 21.373 10.3033 21.2689C10.3715 21.1648 10.4267 21.054 10.4701 20.9358C10.5474 20.7253 10.5761 20.5418 10.5575 20.3864C10.5389 20.2306 10.4769 20.1017 10.372 20.0004C10.2672 19.8985 10.12 19.8226 9.9306 19.7725C9.74174 19.7224 9.49772 19.6977 9.19893 19.6977H7.97334ZM8.382 20.4389H8.88323C9.03657 20.4389 9.15385 20.4529 9.2356 20.4805C9.31734 20.508 9.37873 20.5474 9.42045 20.5992C9.46216 20.6504 9.48358 20.7151 9.48526 20.7928C9.48695 20.871 9.47058 20.9583 9.43506 21.0562C9.40293 21.1445 9.35842 21.2273 9.30204 21.3066C9.2451 21.3854 9.1781 21.4546 9.09974 21.5137C9.02194 21.5728 8.93394 21.6189 8.83641 21.6527C8.73831 21.6865 8.61819 21.7039 8.47443 21.7039H7.92083L8.382 20.4389ZM17.1656 20.4537H17.6104C17.7237 20.4537 17.8112 20.4583 17.8727 20.4656C17.9341 20.4729 17.9871 20.483 18.0327 20.4948C18.1821 20.5409 18.2734 20.618 18.3061 20.7289C18.3388 20.8392 18.3253 20.9748 18.2673 21.1352C18.2284 21.2404 18.1765 21.3362 18.11 21.4212C18.044 21.5067 17.9639 21.5804 17.8714 21.6417C17.7784 21.7031 17.6736 21.7503 17.5552 21.7847C17.4374 21.8184 17.3083 21.8353 17.1674 21.8353H16.6622L17.1656 20.4537ZM7.65696 22.4266H8.24506C8.42602 22.4266 8.56686 22.4428 8.66834 22.4755C8.76925 22.5081 8.846 22.5542 8.8973 22.6145C8.94747 22.6747 8.97558 22.7495 8.98066 22.8384C8.9863 22.9273 8.96836 23.0282 8.92721 23.1413C8.88774 23.2499 8.83362 23.3455 8.76428 23.4294C8.69381 23.5133 8.61427 23.5836 8.52463 23.6399C8.43499 23.6967 8.33747 23.7389 8.23261 23.7682C8.12775 23.7974 8.00656 23.8109 7.869 23.8109H7.15249L7.65696 22.4266Z" fill="#383A41"/>
</g>
</g>
<defs>
<clipPath id="clip0">
<rect width="56.7" height="32" fill="white" transform="translate(0.650391)"/>
</clipPath>
<clipPath id="clip1">
<rect width="56.625" height="18" fill="white" transform="translate(0.650391 7)"/>
</clipPath>
</defs>
</svg>
